%TF.GenerationSoftware,KiCad,Pcbnew,9.0.0*%
%TF.CreationDate,2025-03-23T23:43:44-05:00*%
%TF.ProjectId,stm32card,73746d33-3263-4617-9264-2e6b69636164,rev?*%
%TF.SameCoordinates,Original*%
%TF.FileFunction,Legend,Top*%
%TF.FilePolarity,Positive*%
%FSLAX46Y46*%
G04 Gerber Fmt 4.6, Leading zero omitted, Abs format (unit mm)*
G04 Created by KiCad (PCBNEW 9.0.0) date 2025-03-23 23:43:44*
%MOMM*%
%LPD*%
G01*
G04 APERTURE LIST*
G04 Aperture macros list*
%AMRoundRect*
0 Rectangle with rounded corners*
0 $1 Rounding radius*
0 $2 $3 $4 $5 $6 $7 $8 $9 X,Y pos of 4 corners*
0 Add a 4 corners polygon primitive as box body*
4,1,4,$2,$3,$4,$5,$6,$7,$8,$9,$2,$3,0*
0 Add four circle primitives for the rounded corners*
1,1,$1+$1,$2,$3*
1,1,$1+$1,$4,$5*
1,1,$1+$1,$6,$7*
1,1,$1+$1,$8,$9*
0 Add four rect primitives between the rounded corners*
20,1,$1+$1,$2,$3,$4,$5,0*
20,1,$1+$1,$4,$5,$6,$7,0*
20,1,$1+$1,$6,$7,$8,$9,0*
20,1,$1+$1,$8,$9,$2,$3,0*%
G04 Aperture macros list end*
%ADD10C,0.150000*%
%ADD11C,0.200000*%
%ADD12C,0.000000*%
%ADD13C,0.120000*%
%ADD14C,0.250000*%
%ADD15C,0.300000*%
%ADD16C,0.127000*%
%ADD17C,0.400000*%
%ADD18RoundRect,0.225000X-0.225000X-0.250000X0.225000X-0.250000X0.225000X0.250000X-0.225000X0.250000X0*%
%ADD19RoundRect,0.225000X0.225000X0.250000X-0.225000X0.250000X-0.225000X-0.250000X0.225000X-0.250000X0*%
%ADD20R,1.800000X1.200000*%
%ADD21R,4.000000X4.000000*%
%ADD22C,2.000000*%
%ADD23R,0.490000X1.160000*%
%ADD24R,0.490000X1.180000*%
%ADD25RoundRect,0.200000X-0.200000X-0.275000X0.200000X-0.275000X0.200000X0.275000X-0.200000X0.275000X0*%
%ADD26R,2.200000X0.400000*%
%ADD27RoundRect,0.200000X0.200000X0.275000X-0.200000X0.275000X-0.200000X-0.275000X0.200000X-0.275000X0*%
%ADD28RoundRect,0.100000X-0.100000X0.225000X-0.100000X-0.225000X0.100000X-0.225000X0.100000X0.225000X0*%
%ADD29RoundRect,0.250000X0.450000X-0.262500X0.450000X0.262500X-0.450000X0.262500X-0.450000X-0.262500X0*%
%ADD30RoundRect,0.200000X-0.275000X0.200000X-0.275000X-0.200000X0.275000X-0.200000X0.275000X0.200000X0*%
%ADD31RoundRect,0.102000X0.350000X0.600000X-0.350000X0.600000X-0.350000X-0.600000X0.350000X-0.600000X0*%
%ADD32RoundRect,0.102000X0.380000X0.600000X-0.380000X0.600000X-0.380000X-0.600000X0.380000X-0.600000X0*%
%ADD33RoundRect,0.102000X0.400000X0.600000X-0.400000X0.600000X-0.400000X-0.600000X0.400000X-0.600000X0*%
%ADD34O,1.304000X1.904000*%
%ADD35O,1.500000X0.270000*%
%ADD36O,0.270000X1.500000*%
%ADD37C,12.100000*%
%ADD38C,12.100016*%
%ADD39C,12.100148*%
%ADD40R,1.200000X1.800000*%
%ADD41RoundRect,0.225000X0.250000X-0.225000X0.250000X0.225000X-0.250000X0.225000X-0.250000X-0.225000X0*%
%ADD42R,3.000000X5.500000*%
%ADD43RoundRect,0.225000X-0.250000X0.225000X-0.250000X-0.225000X0.250000X-0.225000X0.250000X0.225000X0*%
G04 APERTURE END LIST*
D10*
X178014285Y-107597438D02*
X178823808Y-107597438D01*
X178823808Y-107597438D02*
X178919046Y-107549819D01*
X178919046Y-107549819D02*
X178966666Y-107502200D01*
X178966666Y-107502200D02*
X179014285Y-107406962D01*
X179014285Y-107406962D02*
X179014285Y-107216486D01*
X179014285Y-107216486D02*
X178966666Y-107121248D01*
X178966666Y-107121248D02*
X178919046Y-107073629D01*
X178919046Y-107073629D02*
X178823808Y-107026010D01*
X178823808Y-107026010D02*
X178014285Y-107026010D01*
X178014285Y-106073629D02*
X178014285Y-106549819D01*
X178014285Y-106549819D02*
X178490475Y-106597438D01*
X178490475Y-106597438D02*
X178442856Y-106549819D01*
X178442856Y-106549819D02*
X178395237Y-106454581D01*
X178395237Y-106454581D02*
X178395237Y-106216486D01*
X178395237Y-106216486D02*
X178442856Y-106121248D01*
X178442856Y-106121248D02*
X178490475Y-106073629D01*
X178490475Y-106073629D02*
X178585713Y-106026010D01*
X178585713Y-106026010D02*
X178823808Y-106026010D01*
X178823808Y-106026010D02*
X178919046Y-106073629D01*
X178919046Y-106073629D02*
X178966666Y-106121248D01*
X178966666Y-106121248D02*
X179014285Y-106216486D01*
X179014285Y-106216486D02*
X179014285Y-106454581D01*
X179014285Y-106454581D02*
X178966666Y-106549819D01*
X178966666Y-106549819D02*
X178919046Y-106597438D01*
D11*
X172711685Y-112107588D02*
X172711685Y-112679016D01*
X172711685Y-112393302D02*
X171711685Y-112393302D01*
X171711685Y-112393302D02*
X171854542Y-112488540D01*
X171854542Y-112488540D02*
X171949780Y-112583778D01*
X171949780Y-112583778D02*
X171997399Y-112679016D01*
X172711685Y-102309969D02*
X172711685Y-102881397D01*
X172711685Y-102595683D02*
X171711685Y-102595683D01*
X171711685Y-102595683D02*
X171854542Y-102690921D01*
X171854542Y-102690921D02*
X171949780Y-102786159D01*
X171949780Y-102786159D02*
X171997399Y-102881397D01*
X171711685Y-101976635D02*
X171711685Y-101357588D01*
X171711685Y-101357588D02*
X172092637Y-101690921D01*
X172092637Y-101690921D02*
X172092637Y-101548064D01*
X172092637Y-101548064D02*
X172140256Y-101452826D01*
X172140256Y-101452826D02*
X172187875Y-101405207D01*
X172187875Y-101405207D02*
X172283113Y-101357588D01*
X172283113Y-101357588D02*
X172521208Y-101357588D01*
X172521208Y-101357588D02*
X172616446Y-101405207D01*
X172616446Y-101405207D02*
X172664066Y-101452826D01*
X172664066Y-101452826D02*
X172711685Y-101548064D01*
X172711685Y-101548064D02*
X172711685Y-101833778D01*
X172711685Y-101833778D02*
X172664066Y-101929016D01*
X172664066Y-101929016D02*
X172616446Y-101976635D01*
D12*
%TO.C,G\u002A\u002A\u002A*%
G36*
X137333516Y-117939951D02*
G01*
X137413070Y-118006470D01*
X137457814Y-118060221D01*
X137516544Y-118139467D01*
X137554262Y-118194974D01*
X137578567Y-118242190D01*
X137597057Y-118296564D01*
X137617331Y-118373542D01*
X137623083Y-118396215D01*
X137650417Y-118502013D01*
X137679122Y-118610335D01*
X137696776Y-118675203D01*
X137719912Y-118768036D01*
X137744095Y-118879485D01*
X137758412Y-118954190D01*
X137784989Y-119063658D01*
X137825061Y-119185170D01*
X137859788Y-119269568D01*
X137952621Y-119465812D01*
X138029196Y-119620343D01*
X138091254Y-119736504D01*
X138140539Y-119817638D01*
X138159218Y-119843879D01*
X138196920Y-119899425D01*
X138217190Y-119941200D01*
X138218304Y-119947762D01*
X138228570Y-119980296D01*
X138255949Y-120044237D01*
X138295309Y-120127871D01*
X138311979Y-120161654D01*
X138359528Y-120260585D01*
X138401693Y-120354970D01*
X138430873Y-120427626D01*
X138435097Y-120439915D01*
X138463374Y-120504056D01*
X138495861Y-120547264D01*
X138502315Y-120551842D01*
X138525873Y-120585553D01*
X138555487Y-120659175D01*
X138589130Y-120764778D01*
X138624776Y-120894430D01*
X138660400Y-121040201D01*
X138693977Y-121194160D01*
X138723480Y-121348375D01*
X138746884Y-121494918D01*
X138751064Y-121525728D01*
X138774726Y-121675833D01*
X138800604Y-121782490D01*
X138828161Y-121844013D01*
X138856861Y-121858719D01*
X138857123Y-121858634D01*
X138876003Y-121843975D01*
X138890736Y-121810744D01*
X138901777Y-121753952D01*
X138909584Y-121668613D01*
X138914611Y-121549738D01*
X138917317Y-121392339D01*
X138918156Y-121191451D01*
X138919514Y-121053970D01*
X140055780Y-121053970D01*
X140056125Y-121164082D01*
X140069251Y-121269257D01*
X140089661Y-121339746D01*
X140142627Y-121410119D01*
X140223338Y-121453428D01*
X140317859Y-121467440D01*
X140412252Y-121449925D01*
X140487611Y-121403474D01*
X140534747Y-121341034D01*
X140555893Y-121260941D01*
X140554002Y-121194472D01*
X141250612Y-121194472D01*
X141263282Y-121311204D01*
X141293566Y-121411373D01*
X141303186Y-121430421D01*
X141345270Y-121494578D01*
X141390739Y-121529153D01*
X141457001Y-121543883D01*
X141511927Y-121547174D01*
X141572359Y-121540347D01*
X141615811Y-121506361D01*
X141640255Y-121471144D01*
X141673007Y-121399989D01*
X141679164Y-121321827D01*
X141675370Y-121283130D01*
X141659494Y-121174488D01*
X141641722Y-121101321D01*
X141616515Y-121050721D01*
X141578330Y-121009779D01*
X141547319Y-120984811D01*
X141457416Y-120934642D01*
X141376291Y-120924014D01*
X141311540Y-120952721D01*
X141282013Y-120992013D01*
X141256531Y-121081350D01*
X141250612Y-121194472D01*
X140554002Y-121194472D01*
X140552820Y-121152896D01*
X140542570Y-121084114D01*
X140510996Y-120963072D01*
X140462614Y-120883244D01*
X140390984Y-120838443D01*
X140289671Y-120822484D01*
X140269974Y-120822194D01*
X140189647Y-120825001D01*
X140141355Y-120837476D01*
X140108749Y-120865702D01*
X140092932Y-120888060D01*
X140068091Y-120956202D01*
X140055780Y-121053970D01*
X138919514Y-121053970D01*
X138919889Y-121016044D01*
X138924702Y-120822059D01*
X138932143Y-120617109D01*
X138941758Y-120408807D01*
X138953094Y-120204768D01*
X138965699Y-120012604D01*
X138979119Y-119839931D01*
X138992901Y-119694360D01*
X139006593Y-119583506D01*
X139017330Y-119524296D01*
X139063348Y-119339892D01*
X139102640Y-119201313D01*
X139135969Y-119106446D01*
X139164103Y-119053178D01*
X139187804Y-119039397D01*
X139192243Y-119041292D01*
X139211773Y-119036207D01*
X139212955Y-119028402D01*
X139231209Y-119004800D01*
X139277873Y-119005123D01*
X139340796Y-119026665D01*
X139407830Y-119066721D01*
X139417130Y-119073873D01*
X139491299Y-119139145D01*
X139552763Y-119204702D01*
X139591989Y-119259557D01*
X139601112Y-119285958D01*
X139613576Y-119317608D01*
X139644735Y-119371439D01*
X139657659Y-119391300D01*
X139693982Y-119454409D01*
X139739137Y-119545298D01*
X139784529Y-119646469D01*
X139793400Y-119667657D01*
X139854745Y-119808471D01*
X139908529Y-119911163D01*
X139960818Y-119984176D01*
X140017677Y-120035955D01*
X140085170Y-120074943D01*
X140086308Y-120075480D01*
X140126495Y-120093498D01*
X140164673Y-120106690D01*
X140208446Y-120115508D01*
X140265419Y-120120405D01*
X140343197Y-120121834D01*
X140449387Y-120120246D01*
X140591592Y-120116096D01*
X140704932Y-120112307D01*
X140817111Y-120112245D01*
X140933499Y-120118011D01*
X141009431Y-120125870D01*
X141144112Y-120145209D01*
X141293014Y-119992441D01*
X141351364Y-119927210D01*
X141421076Y-119841132D01*
X141496037Y-119742794D01*
X141570130Y-119640782D01*
X141637241Y-119543683D01*
X141691255Y-119460084D01*
X141726058Y-119398571D01*
X141735973Y-119370419D01*
X141755645Y-119349901D01*
X141803033Y-119320726D01*
X141860698Y-119291987D01*
X141911201Y-119272777D01*
X141929388Y-119269568D01*
X141951484Y-119293124D01*
X141964791Y-119362571D01*
X141969277Y-119476079D01*
X141964911Y-119631816D01*
X141951663Y-119827950D01*
X141940914Y-119948864D01*
X141897312Y-120406915D01*
X141951470Y-120596360D01*
X141978973Y-120703359D01*
X142000942Y-120808640D01*
X142013006Y-120891014D01*
X142013505Y-120897242D01*
X142022677Y-120976042D01*
X142039604Y-121081025D01*
X142060849Y-121191164D01*
X142063804Y-121205019D01*
X142087290Y-121363600D01*
X142086787Y-121522606D01*
X142061116Y-121694131D01*
X142009099Y-121890268D01*
X141991712Y-121944959D01*
X141962872Y-122037425D01*
X141941247Y-122114712D01*
X141930572Y-122163220D01*
X141930052Y-122169450D01*
X141914532Y-122227388D01*
X141873896Y-122304740D01*
X141817028Y-122386309D01*
X141774538Y-122435470D01*
X141718985Y-122506337D01*
X141668521Y-122590753D01*
X141659173Y-122610242D01*
X141634130Y-122675412D01*
X141625045Y-122735077D01*
X141630255Y-122809855D01*
X141638623Y-122864969D01*
X141656670Y-122964915D01*
X141676630Y-123061784D01*
X141689163Y-123114744D01*
X141712762Y-123207482D01*
X141736023Y-123302130D01*
X141737624Y-123308823D01*
X141758445Y-123375284D01*
X141794021Y-123468901D01*
X141837939Y-123573170D01*
X141855444Y-123612070D01*
X141916842Y-123744536D01*
X141981861Y-123882645D01*
X142045707Y-124016421D01*
X142103585Y-124135888D01*
X142150700Y-124231069D01*
X142181905Y-124291344D01*
X142205093Y-124336089D01*
X142244090Y-124413779D01*
X142293559Y-124513690D01*
X142348160Y-124625101D01*
X142351027Y-124630981D01*
X142430197Y-124790536D01*
X142509674Y-124945487D01*
X142585705Y-125088967D01*
X142654536Y-125214110D01*
X142712413Y-125314047D01*
X142755584Y-125381913D01*
X142774931Y-125406546D01*
X142806018Y-125449886D01*
X142843083Y-125517947D01*
X142859073Y-125552342D01*
X142904327Y-125640604D01*
X142971635Y-125753613D01*
X143052383Y-125878519D01*
X143137959Y-126002469D01*
X143219747Y-126112615D01*
X143289133Y-126196104D01*
X143294411Y-126201803D01*
X143341364Y-126240790D01*
X143380058Y-126256387D01*
X143422432Y-126269674D01*
X143478434Y-126301922D01*
X143482211Y-126304574D01*
X143547228Y-126344244D01*
X143629765Y-126386381D01*
X143659631Y-126399805D01*
X143718655Y-126427695D01*
X143757431Y-126457876D01*
X143783185Y-126502126D01*
X143803139Y-126572225D01*
X143821452Y-126663659D01*
X143832650Y-126830158D01*
X143801709Y-126978296D01*
X143730509Y-127103801D01*
X143620931Y-127202400D01*
X143571879Y-127230778D01*
X143467443Y-127264669D01*
X143350705Y-127272589D01*
X143238485Y-127255753D01*
X143147601Y-127215377D01*
X143126771Y-127198630D01*
X143083949Y-127166119D01*
X143033601Y-127149682D01*
X142958896Y-127145073D01*
X142916778Y-127145627D01*
X142830307Y-127144147D01*
X142759483Y-127136630D01*
X142726309Y-127127430D01*
X142684494Y-127084185D01*
X142638073Y-127000386D01*
X142590471Y-126883325D01*
X142545956Y-126743299D01*
X142495395Y-126610028D01*
X142427197Y-126512722D01*
X142420467Y-126505822D01*
X142362083Y-126434382D01*
X142305136Y-126344227D01*
X142281609Y-126297898D01*
X142228874Y-126203720D01*
X142160890Y-126109763D01*
X142128845Y-126073624D01*
X142061635Y-125994516D01*
X142000235Y-125905750D01*
X141978565Y-125867416D01*
X141938478Y-125804233D01*
X141871469Y-125715695D01*
X141785122Y-125610553D01*
X141687021Y-125497562D01*
X141584750Y-125385474D01*
X141485893Y-125283043D01*
X141404515Y-125204891D01*
X141344372Y-125140454D01*
X141300438Y-125075670D01*
X141286912Y-125042237D01*
X141260991Y-124986960D01*
X141224884Y-124957970D01*
X141185025Y-124930280D01*
X141134215Y-124875680D01*
X141104105Y-124835571D01*
X141038360Y-124758772D01*
X140979430Y-124729755D01*
X140926814Y-124748335D01*
X140911141Y-124764410D01*
X140892862Y-124793846D01*
X140895803Y-124800800D01*
X140893450Y-124816206D01*
X140869122Y-124849319D01*
X140826835Y-124886073D01*
X140796580Y-124897839D01*
X140767907Y-124911889D01*
X140765582Y-124920464D01*
X140745673Y-124945540D01*
X140720591Y-124957369D01*
X140675476Y-124983521D01*
X140619482Y-125030680D01*
X140605357Y-125044800D01*
X140542633Y-125097764D01*
X140457820Y-125153801D01*
X140365393Y-125205009D01*
X140279831Y-125243485D01*
X140215611Y-125261324D01*
X140207969Y-125261736D01*
X140144344Y-125272639D01*
X140116303Y-125283725D01*
X140006204Y-125325352D01*
X139872344Y-125352890D01*
X139738555Y-125361691D01*
X139719710Y-125361096D01*
X139638816Y-125359848D01*
X139589137Y-125369301D01*
X139553656Y-125394845D01*
X139531697Y-125420658D01*
X139500426Y-125469511D01*
X139484998Y-125523346D01*
X139485380Y-125592589D01*
X139501541Y-125687668D01*
X139530485Y-125807581D01*
X139557275Y-125913611D01*
X139581935Y-126015079D01*
X139599686Y-126092267D01*
X139601431Y-126100407D01*
X139625229Y-126192688D01*
X139655472Y-126286072D01*
X139658620Y-126294486D01*
X139682630Y-126374902D01*
X139707373Y-126486428D01*
X139730535Y-126614477D01*
X139749805Y-126744465D01*
X139762870Y-126861807D01*
X139767418Y-126951919D01*
X139766516Y-126974998D01*
X139751600Y-127047052D01*
X139717074Y-127086476D01*
X139704216Y-127093038D01*
X139662472Y-127117968D01*
X139649632Y-127135492D01*
X139629762Y-127151655D01*
X139611003Y-127153999D01*
X139565621Y-127168243D01*
X139510726Y-127202493D01*
X139510693Y-127202519D01*
X139459752Y-127236437D01*
X139422332Y-127251027D01*
X139421727Y-127251039D01*
X139388048Y-127269420D01*
X139367145Y-127294753D01*
X139327946Y-127328092D01*
X139261946Y-127359862D01*
X139233946Y-127369176D01*
X139149186Y-127393989D01*
X139070023Y-127417526D01*
X139053544Y-127422501D01*
X138979184Y-127435357D01*
X138875551Y-127441319D01*
X138759529Y-127440740D01*
X138648005Y-127433975D01*
X138557865Y-127421377D01*
X138521551Y-127411352D01*
X138468434Y-127381520D01*
X138441146Y-127348314D01*
X138440960Y-127347532D01*
X138419847Y-127306939D01*
X138378242Y-127254136D01*
X138370794Y-127246108D01*
X138321383Y-127164097D01*
X138295211Y-127057634D01*
X138294759Y-126946124D01*
X138320511Y-126852988D01*
X138387254Y-126660759D01*
X138413538Y-126445488D01*
X138398918Y-126211570D01*
X138390404Y-126159348D01*
X138347245Y-125923029D01*
X138309423Y-125723763D01*
X138274687Y-125550680D01*
X138240785Y-125392912D01*
X138205466Y-125239589D01*
X138168137Y-125086496D01*
X138139945Y-124980826D01*
X138114637Y-124910181D01*
X138085887Y-124861948D01*
X138047370Y-124823514D01*
X138028907Y-124808893D01*
X137947493Y-124764466D01*
X137861390Y-124745044D01*
X137786482Y-124752602D01*
X137749994Y-124774210D01*
X137709201Y-124798415D01*
X137695159Y-124800800D01*
X137654727Y-124819510D01*
X137593380Y-124870591D01*
X137517744Y-124946466D01*
X137434446Y-125039562D01*
X137350111Y-125142301D01*
X137271366Y-125247109D01*
X137204837Y-125346411D01*
X137177962Y-125392100D01*
X137125016Y-125480608D01*
X137069355Y-125562543D01*
X137028758Y-125613503D01*
X136979579Y-125683924D01*
X136946763Y-125761162D01*
X136944372Y-125771191D01*
X136927557Y-125834942D01*
X136909664Y-125877806D01*
X136907859Y-125880360D01*
X136895542Y-125916003D01*
X136881141Y-125987320D01*
X136866456Y-126081622D01*
X136853289Y-126186221D01*
X136843442Y-126288428D01*
X136838976Y-126365556D01*
X136827022Y-126491154D01*
X136800974Y-126620353D01*
X136764299Y-126744209D01*
X136720465Y-126853778D01*
X136672939Y-126940117D01*
X136625188Y-126994281D01*
X136589747Y-127008441D01*
X136559722Y-127021001D01*
X136506387Y-127052632D01*
X136481421Y-127069090D01*
X136375917Y-127118609D01*
X136265789Y-127124034D01*
X136144309Y-127085313D01*
X136106787Y-127066250D01*
X136027112Y-127013692D01*
X135966615Y-126947447D01*
X135915490Y-126862711D01*
X135876477Y-126781862D01*
X135849462Y-126711252D01*
X135840845Y-126671115D01*
X135850460Y-126631199D01*
X135876877Y-126556714D01*
X135916452Y-126457092D01*
X135965543Y-126341765D01*
X135985096Y-126297654D01*
X136039442Y-126172649D01*
X136088138Y-126053766D01*
X136126651Y-125952558D01*
X136150451Y-125880582D01*
X136153826Y-125867401D01*
X136207351Y-125632698D01*
X136251984Y-125442042D01*
X136288609Y-125291955D01*
X136318108Y-125178958D01*
X136341364Y-125099574D01*
X136359262Y-125050324D01*
X136363737Y-125040870D01*
X136388198Y-124968224D01*
X136398807Y-124886489D01*
X136398820Y-124884052D01*
X136416234Y-124794452D01*
X136467973Y-124716314D01*
X136517779Y-124640122D01*
X136549824Y-124555381D01*
X136552286Y-124542749D01*
X136577755Y-124459077D01*
X136620689Y-124376395D01*
X136628691Y-124364932D01*
X136679037Y-124265022D01*
X136689937Y-124194149D01*
X136701001Y-124115616D01*
X136728547Y-124028320D01*
X136738457Y-124005955D01*
X136768161Y-123935027D01*
X136785306Y-123875797D01*
X136786976Y-123860692D01*
X136796714Y-123810296D01*
X136806388Y-123792806D01*
X136824655Y-123759261D01*
X136852882Y-123694867D01*
X136880858Y-123624200D01*
X136944826Y-123466439D01*
X137006119Y-123336908D01*
X137061494Y-123241850D01*
X137107408Y-123187750D01*
X137134351Y-123154499D01*
X137174228Y-123091808D01*
X137216077Y-123017518D01*
X137264362Y-122937767D01*
X137308980Y-122883470D01*
X137337532Y-122865169D01*
X137377948Y-122841852D01*
X137425963Y-122791888D01*
X137441372Y-122771038D01*
X137502642Y-122698963D01*
X137575778Y-122634854D01*
X137587378Y-122626782D01*
X137655630Y-122569406D01*
X137712314Y-122501844D01*
X137719395Y-122490445D01*
X137757882Y-122426609D01*
X137810246Y-122343252D01*
X137852024Y-122278559D01*
X137897249Y-122205580D01*
X137923119Y-122146793D01*
X137934776Y-122083148D01*
X137937361Y-121995592D01*
X137937150Y-121963182D01*
X137923966Y-121759744D01*
X137890683Y-121540338D01*
X137841418Y-121331650D01*
X137819462Y-121250954D01*
X137802067Y-121179789D01*
X137798271Y-121161831D01*
X137782179Y-121091526D01*
X137754139Y-120982642D01*
X137716245Y-120843043D01*
X137670592Y-120680592D01*
X137662528Y-120652376D01*
X137495850Y-120000418D01*
X137362546Y-119328817D01*
X137266202Y-118656227D01*
X137249737Y-118504234D01*
X137235445Y-118387975D01*
X137217691Y-118278662D01*
X137199327Y-118192732D01*
X137190481Y-118162738D01*
X137164846Y-118051905D01*
X137172416Y-117971877D01*
X137207106Y-117924986D01*
X137262834Y-117913567D01*
X137333516Y-117939951D01*
G37*
D13*
%TO.C,C14*%
X187228862Y-121900210D02*
X187510022Y-121900210D01*
X187228862Y-122920210D02*
X187510022Y-122920210D01*
%TO.C,C4*%
X167573929Y-117743643D02*
X167292769Y-117743643D01*
X167573929Y-118763643D02*
X167292769Y-118763643D01*
D14*
%TO.C,b_up1*%
X203951133Y-103915534D02*
X209951133Y-103915534D01*
X203951133Y-105645534D02*
X203951133Y-108185534D01*
X203951133Y-109915534D02*
X209951133Y-109915534D01*
X209951133Y-105645534D02*
X209951133Y-108185534D01*
X205491133Y-104885534D02*
G75*
G02*
X204351133Y-104885534I-570000J0D01*
G01*
X204351133Y-104885534D02*
G75*
G02*
X205491133Y-104885534I570000J0D01*
G01*
X205551133Y-109005534D02*
G75*
G02*
X204411133Y-109005534I-570000J0D01*
G01*
X204411133Y-109005534D02*
G75*
G02*
X205551133Y-109005534I570000J0D01*
G01*
X208661133Y-106915534D02*
G75*
G02*
X205241133Y-106915534I-1710000J0D01*
G01*
X205241133Y-106915534D02*
G75*
G02*
X208661133Y-106915534I1710000J0D01*
G01*
X209551133Y-108945534D02*
G75*
G02*
X208411133Y-108945534I-570000J0D01*
G01*
X208411133Y-108945534D02*
G75*
G02*
X209551133Y-108945534I570000J0D01*
G01*
X209611133Y-104945534D02*
G75*
G02*
X208471133Y-104945534I-570000J0D01*
G01*
X208471133Y-104945534D02*
G75*
G02*
X209611133Y-104945534I570000J0D01*
G01*
D13*
%TO.C,TP1*%
X149096213Y-87789223D02*
X153496213Y-87789223D01*
X149096213Y-92189223D02*
X149096213Y-87789223D01*
X153496213Y-87789223D02*
X153496213Y-92189223D01*
X153496213Y-92189223D02*
X149096213Y-92189223D01*
%TO.C,unreg_vcc1*%
X160163914Y-99135976D02*
G75*
G02*
X157763914Y-99135976I-1200000J0D01*
G01*
X157763914Y-99135976D02*
G75*
G02*
X160163914Y-99135976I1200000J0D01*
G01*
%TO.C,C16*%
X187132579Y-120025261D02*
X187413739Y-120025261D01*
X187132579Y-121045261D02*
X187413739Y-121045261D01*
%TO.C,SWDIO1*%
X165950573Y-124284125D02*
G75*
G02*
X163550573Y-124284125I-1200000J0D01*
G01*
X163550573Y-124284125D02*
G75*
G02*
X165950573Y-124284125I1200000J0D01*
G01*
D10*
%TO.C,U1*%
X156795688Y-102555065D02*
X156795688Y-104255065D01*
X157845688Y-104255065D02*
X158805688Y-104255065D01*
X159855688Y-102555065D02*
X159855688Y-104255065D01*
D15*
X160125688Y-102265065D02*
G75*
G02*
X159825688Y-102265065I-150000J0D01*
G01*
X159825688Y-102265065D02*
G75*
G02*
X160125688Y-102265065I150000J0D01*
G01*
D13*
%TO.C,R10*%
X174711476Y-129410881D02*
X175185992Y-129410881D01*
X174711476Y-130455881D02*
X175185992Y-130455881D01*
%TO.C,C12*%
X176546275Y-126269815D02*
X176827435Y-126269815D01*
X176546275Y-127289815D02*
X176827435Y-127289815D01*
D14*
%TO.C,U5*%
X162259466Y-111435534D02*
X162259466Y-102435534D01*
X170309466Y-102435534D02*
X162259466Y-102435534D01*
X170309466Y-111435534D02*
X162259466Y-111435534D01*
X170309466Y-111485534D02*
X170309466Y-112535534D01*
X170549466Y-102195534D02*
X170549466Y-101145534D01*
X171559466Y-113035534D02*
X171209466Y-113035534D01*
X175559466Y-100635534D02*
X171559466Y-100635534D01*
X175559466Y-102205534D02*
X175559466Y-100635534D01*
X175559466Y-113035534D02*
X171559466Y-113035534D01*
X175559466Y-113035534D02*
X175559466Y-111475534D01*
X170549466Y-102195534D02*
G75*
G02*
X170309466Y-102435534I-239999J-1D01*
G01*
X170550508Y-101147629D02*
G75*
G02*
X171559466Y-100635534I1008959J-737906D01*
G01*
X171319466Y-113045534D02*
G75*
G02*
X170310508Y-112533439I0J1250000D01*
G01*
D13*
%TO.C,C11*%
X178851070Y-124061621D02*
X179132230Y-124061621D01*
X178851070Y-125081621D02*
X179132230Y-125081621D01*
%TO.C,R11*%
X170768253Y-129412813D02*
X170293737Y-129412813D01*
X170768253Y-130457813D02*
X170293737Y-130457813D01*
%TO.C,U3*%
X147254155Y-95874097D02*
X147254155Y-97274097D01*
X149574155Y-95864097D02*
X149574155Y-97274097D01*
X149854155Y-95734097D02*
X149524155Y-95494097D01*
X149854155Y-95254097D01*
X149854155Y-95734097D01*
G36*
X149854155Y-95734097D02*
G01*
X149524155Y-95494097D01*
X149854155Y-95254097D01*
X149854155Y-95734097D01*
G37*
%TO.C,R4*%
X152763188Y-102374629D02*
X152763188Y-101920501D01*
X154233188Y-102374629D02*
X154233188Y-101920501D01*
%TO.C,R2*%
X142308633Y-90568276D02*
X142308633Y-91042792D01*
X143353633Y-90568276D02*
X143353633Y-91042792D01*
%TO.C,C13*%
X182344599Y-115888550D02*
X182625759Y-115888550D01*
X182344599Y-116908550D02*
X182625759Y-116908550D01*
%TO.C,R3*%
X152763188Y-106199629D02*
X152763188Y-105745501D01*
X154233188Y-106199629D02*
X154233188Y-105745501D01*
%TO.C,C8*%
X179132230Y-121141621D02*
X178851070Y-121141621D01*
X179132230Y-122161621D02*
X178851070Y-122161621D01*
%TO.C,R9*%
X184075901Y-120012761D02*
X184550417Y-120012761D01*
X184075901Y-121057761D02*
X184550417Y-121057761D01*
%TO.C,R13*%
X158621998Y-120763502D02*
X159096514Y-120763502D01*
X158621998Y-121808502D02*
X159096514Y-121808502D01*
%TO.C,C15*%
X187116424Y-117506635D02*
X187397584Y-117506635D01*
X187116424Y-118526635D02*
X187397584Y-118526635D01*
D14*
%TO.C,b_left1*%
X211951133Y-112382201D02*
X217951133Y-112382201D01*
X211951133Y-114112201D02*
X211951133Y-116652201D01*
X211951133Y-118382201D02*
X217951133Y-118382201D01*
X217951133Y-114112201D02*
X217951133Y-116652201D01*
X213491133Y-113352201D02*
G75*
G02*
X212351133Y-113352201I-570000J0D01*
G01*
X212351133Y-113352201D02*
G75*
G02*
X213491133Y-113352201I570000J0D01*
G01*
X213551133Y-117472201D02*
G75*
G02*
X212411133Y-117472201I-570000J0D01*
G01*
X212411133Y-117472201D02*
G75*
G02*
X213551133Y-117472201I570000J0D01*
G01*
X216661133Y-115382201D02*
G75*
G02*
X213241133Y-115382201I-1710000J0D01*
G01*
X213241133Y-115382201D02*
G75*
G02*
X216661133Y-115382201I1710000J0D01*
G01*
X217551133Y-117412201D02*
G75*
G02*
X216411133Y-117412201I-570000J0D01*
G01*
X216411133Y-117412201D02*
G75*
G02*
X217551133Y-117412201I570000J0D01*
G01*
X217611133Y-113412201D02*
G75*
G02*
X216471133Y-113412201I-570000J0D01*
G01*
X216471133Y-113412201D02*
G75*
G02*
X217611133Y-113412201I570000J0D01*
G01*
D13*
%TO.C,C5*%
X178851070Y-122601621D02*
X179132230Y-122601621D01*
X178851070Y-123621621D02*
X179132230Y-123621621D01*
D14*
%TO.C,b_right1*%
X195951133Y-112382201D02*
X201951133Y-112382201D01*
X195951133Y-114112201D02*
X195951133Y-116652201D01*
X195951133Y-118382201D02*
X201951133Y-118382201D01*
X201951133Y-114112201D02*
X201951133Y-116652201D01*
X197491133Y-113352201D02*
G75*
G02*
X196351133Y-113352201I-570000J0D01*
G01*
X196351133Y-113352201D02*
G75*
G02*
X197491133Y-113352201I570000J0D01*
G01*
X197551133Y-117472201D02*
G75*
G02*
X196411133Y-117472201I-570000J0D01*
G01*
X196411133Y-117472201D02*
G75*
G02*
X197551133Y-117472201I570000J0D01*
G01*
X200661133Y-115382201D02*
G75*
G02*
X197241133Y-115382201I-1710000J0D01*
G01*
X197241133Y-115382201D02*
G75*
G02*
X200661133Y-115382201I1710000J0D01*
G01*
X201551133Y-117412201D02*
G75*
G02*
X200411133Y-117412201I-570000J0D01*
G01*
X200411133Y-117412201D02*
G75*
G02*
X201551133Y-117412201I570000J0D01*
G01*
X201611133Y-113412201D02*
G75*
G02*
X200471133Y-113412201I-570000J0D01*
G01*
X200471133Y-113412201D02*
G75*
G02*
X201611133Y-113412201I570000J0D01*
G01*
D13*
%TO.C,R12*%
X158615784Y-119264900D02*
X159090300Y-119264900D01*
X158615784Y-120309900D02*
X159090300Y-120309900D01*
%TO.C,C17*%
X161672462Y-119277400D02*
X161953622Y-119277400D01*
X161672462Y-120297400D02*
X161953622Y-120297400D01*
%TO.C,R6*%
X184172184Y-121887710D02*
X184646700Y-121887710D01*
X184172184Y-122932710D02*
X184646700Y-122932710D01*
%TO.C,TP_mosi1*%
X175562663Y-114235371D02*
G75*
G02*
X173162663Y-114235371I-1200000J0D01*
G01*
X173162663Y-114235371D02*
G75*
G02*
X175562663Y-114235371I1200000J0D01*
G01*
D16*
%TO.C,J1*%
X137604466Y-81730000D02*
X137604466Y-83160000D01*
X137604466Y-86960000D02*
X137604466Y-85500000D01*
X146544466Y-81730000D02*
X137604466Y-81730000D01*
X146544466Y-83160000D02*
X146544466Y-81730000D01*
X146544466Y-86960000D02*
X146544466Y-85500000D01*
D13*
%TO.C,R7*%
X184059746Y-117494135D02*
X184534262Y-117494135D01*
X184059746Y-118539135D02*
X184534262Y-118539135D01*
%TO.C,tst_nrst1*%
X181221047Y-127320001D02*
G75*
G02*
X178821047Y-127320001I-1200000J0D01*
G01*
X178821047Y-127320001D02*
G75*
G02*
X181221047Y-127320001I1200000J0D01*
G01*
%TO.C,TestPoint_gnd1*%
X156934045Y-99135976D02*
G75*
G02*
X154534045Y-99135976I-1200000J0D01*
G01*
X154534045Y-99135976D02*
G75*
G02*
X156934045Y-99135976I1200000J0D01*
G01*
%TO.C,C2*%
X169248031Y-116043306D02*
X169529191Y-116043306D01*
X169248031Y-117063306D02*
X169529191Y-117063306D01*
%TO.C,TP_sck1*%
X179581844Y-108935534D02*
G75*
G02*
X177181844Y-108935534I-1200000J0D01*
G01*
X177181844Y-108935534D02*
G75*
G02*
X179581844Y-108935534I1200000J0D01*
G01*
%TO.C,C18*%
X161678676Y-120776002D02*
X161959836Y-120776002D01*
X161678676Y-121796002D02*
X161959836Y-121796002D01*
D11*
%TO.C,U4*%
X168650878Y-119224125D02*
X175300878Y-119224125D01*
X168650878Y-125424125D02*
X168650878Y-119224125D01*
X168650878Y-125854125D02*
X168650878Y-125094125D01*
X175300878Y-119224125D02*
X175300878Y-125854125D01*
X175300878Y-125854125D02*
X168650878Y-125854125D01*
D17*
X176050878Y-125914125D02*
G75*
G02*
X176050628Y-125924152I200000J-10003D01*
G01*
D14*
X174990878Y-125154125D02*
G75*
G02*
X174650878Y-125154125I-170000J0D01*
G01*
X174650878Y-125154125D02*
G75*
G02*
X174990878Y-125154125I170000J0D01*
G01*
D13*
%TO.C,C10*%
X158107608Y-106350065D02*
X158388768Y-106350065D01*
X158107608Y-107370065D02*
X158388768Y-107370065D01*
D14*
%TO.C,b_b1*%
X145607799Y-126848868D02*
X145607799Y-120848868D01*
X147337799Y-120848868D02*
X149877799Y-120848868D01*
X147337799Y-126848868D02*
X149877799Y-126848868D01*
X151607799Y-126848868D02*
X151607799Y-120848868D01*
X147147799Y-125878868D02*
G75*
G02*
X146007799Y-125878868I-570000J0D01*
G01*
X146007799Y-125878868D02*
G75*
G02*
X147147799Y-125878868I570000J0D01*
G01*
X147207799Y-121758868D02*
G75*
G02*
X146067799Y-121758868I-570000J0D01*
G01*
X146067799Y-121758868D02*
G75*
G02*
X147207799Y-121758868I570000J0D01*
G01*
X150317799Y-123848868D02*
G75*
G02*
X146897799Y-123848868I-1710000J0D01*
G01*
X146897799Y-123848868D02*
G75*
G02*
X150317799Y-123848868I1710000J0D01*
G01*
X151207799Y-121818868D02*
G75*
G02*
X150067799Y-121818868I-570000J0D01*
G01*
X150067799Y-121818868D02*
G75*
G02*
X151207799Y-121818868I570000J0D01*
G01*
X151267799Y-125818868D02*
G75*
G02*
X150127799Y-125818868I-570000J0D01*
G01*
X150127799Y-125818868D02*
G75*
G02*
X151267799Y-125818868I570000J0D01*
G01*
%TO.C,b_down1*%
X203951133Y-125118868D02*
X203951133Y-122578868D01*
X209951133Y-120848868D02*
X203951133Y-120848868D01*
X209951133Y-125118868D02*
X209951133Y-122578868D01*
X209951133Y-126848868D02*
X203951133Y-126848868D01*
X205431133Y-125818868D02*
G75*
G02*
X204291133Y-125818868I-570000J0D01*
G01*
X204291133Y-125818868D02*
G75*
G02*
X205431133Y-125818868I570000J0D01*
G01*
X205491133Y-121818868D02*
G75*
G02*
X204351133Y-121818868I-570000J0D01*
G01*
X204351133Y-121818868D02*
G75*
G02*
X205491133Y-121818868I570000J0D01*
G01*
X208661133Y-123848868D02*
G75*
G02*
X205241133Y-123848868I-1710000J0D01*
G01*
X205241133Y-123848868D02*
G75*
G02*
X208661133Y-123848868I1710000J0D01*
G01*
X209491133Y-121758868D02*
G75*
G02*
X208351133Y-121758868I-570000J0D01*
G01*
X208351133Y-121758868D02*
G75*
G02*
X209491133Y-121758868I570000J0D01*
G01*
X209551133Y-125878868D02*
G75*
G02*
X208411133Y-125878868I-570000J0D01*
G01*
X208411133Y-125878868D02*
G75*
G02*
X209551133Y-125878868I570000J0D01*
G01*
D13*
%TO.C,R5*%
X179287921Y-115876050D02*
X179762437Y-115876050D01*
X179287921Y-116921050D02*
X179762437Y-116921050D01*
%TO.C,C9*%
X155238188Y-106113145D02*
X155238188Y-105831985D01*
X156258188Y-106113145D02*
X156258188Y-105831985D01*
%TO.C,U2*%
X143790255Y-95874097D02*
X143790255Y-97274097D01*
X146110255Y-95864097D02*
X146110255Y-97274097D01*
X146390255Y-95734097D02*
X146060255Y-95494097D01*
X146390255Y-95254097D01*
X146390255Y-95734097D01*
G36*
X146390255Y-95734097D02*
G01*
X146060255Y-95494097D01*
X146390255Y-95254097D01*
X146390255Y-95734097D01*
G37*
%TO.C,SWCLK1*%
X166503801Y-129637235D02*
G75*
G02*
X164103801Y-129637235I-1200000J0D01*
G01*
X164103801Y-129637235D02*
G75*
G02*
X166503801Y-129637235I1200000J0D01*
G01*
%TO.C,R8*%
X172218378Y-128945224D02*
X172218378Y-129419740D01*
X173263378Y-128945224D02*
X173263378Y-129419740D01*
%TO.C,C6*%
X174808144Y-127968655D02*
X175089304Y-127968655D01*
X174808144Y-128988655D02*
X175089304Y-128988655D01*
D10*
%TO.C,L1*%
X153948188Y-108140065D02*
X160098188Y-108140065D01*
X153948188Y-113980065D02*
X160098188Y-113980065D01*
X160098188Y-108140065D02*
X160098188Y-108140065D01*
X160098188Y-113980065D02*
X160098188Y-113980065D01*
D14*
%TO.C,b_a1*%
X145607799Y-109915534D02*
X145607799Y-103915534D01*
X147337799Y-103915534D02*
X149877799Y-103915534D01*
X147337799Y-109915534D02*
X149877799Y-109915534D01*
X151607799Y-109915534D02*
X151607799Y-103915534D01*
X147147799Y-108945534D02*
G75*
G02*
X146007799Y-108945534I-570000J0D01*
G01*
X146007799Y-108945534D02*
G75*
G02*
X147147799Y-108945534I570000J0D01*
G01*
X147207799Y-104825534D02*
G75*
G02*
X146067799Y-104825534I-570000J0D01*
G01*
X146067799Y-104825534D02*
G75*
G02*
X147207799Y-104825534I570000J0D01*
G01*
X150317799Y-106915534D02*
G75*
G02*
X146897799Y-106915534I-1710000J0D01*
G01*
X146897799Y-106915534D02*
G75*
G02*
X150317799Y-106915534I1710000J0D01*
G01*
X151207799Y-104885534D02*
G75*
G02*
X150067799Y-104885534I-570000J0D01*
G01*
X150067799Y-104885534D02*
G75*
G02*
X151207799Y-104885534I570000J0D01*
G01*
X151267799Y-108885534D02*
G75*
G02*
X150127799Y-108885534I-570000J0D01*
G01*
X150127799Y-108885534D02*
G75*
G02*
X151267799Y-108885534I570000J0D01*
G01*
D13*
%TO.C,C3*%
X167106458Y-126008684D02*
X166825298Y-126008684D01*
X167106458Y-127028684D02*
X166825298Y-127028684D01*
%TO.C,C1*%
X155350751Y-102192077D02*
X155350751Y-102473237D01*
X156370751Y-102192077D02*
X156370751Y-102473237D01*
%TO.C,R1*%
X140808633Y-90568276D02*
X140808633Y-91042792D01*
X141853633Y-90568276D02*
X141853633Y-91042792D01*
%TD*%
%LPC*%
D18*
%TO.C,C14*%
X186594442Y-122410210D03*
X188144442Y-122410210D03*
%TD*%
D19*
%TO.C,C4*%
X168208349Y-118253643D03*
X166658349Y-118253643D03*
%TD*%
D20*
%TO.C,b_up1*%
X202951133Y-104665534D03*
X210951133Y-104665534D03*
X202951133Y-109165534D03*
X210951133Y-109165534D03*
%TD*%
D21*
%TO.C,TP1*%
X151296213Y-89989223D03*
%TD*%
D22*
%TO.C,unreg_vcc1*%
X158963914Y-99135976D03*
%TD*%
D18*
%TO.C,C16*%
X186498159Y-120535261D03*
X188048159Y-120535261D03*
%TD*%
D22*
%TO.C,SWDIO1*%
X164750573Y-124284125D03*
%TD*%
D23*
%TO.C,U1*%
X159275688Y-102255065D03*
X158325688Y-102255065D03*
X157375688Y-102255065D03*
D24*
X157375688Y-104555065D03*
X159275688Y-104555065D03*
%TD*%
D25*
%TO.C,R10*%
X174123734Y-129933381D03*
X175773734Y-129933381D03*
%TD*%
D18*
%TO.C,C12*%
X175911855Y-126779815D03*
X177461855Y-126779815D03*
%TD*%
D26*
%TO.C,U5*%
X174559466Y-111035534D03*
X174559466Y-110335534D03*
X174559466Y-109635534D03*
X174559466Y-108935534D03*
X174559466Y-108235534D03*
X174559466Y-107535534D03*
X174559466Y-106835534D03*
X174559466Y-106135534D03*
X174559466Y-105435534D03*
X174559466Y-104735534D03*
X174559466Y-104035534D03*
X174559466Y-103335534D03*
X174559466Y-102635534D03*
%TD*%
D18*
%TO.C,C11*%
X178216650Y-124571621D03*
X179766650Y-124571621D03*
%TD*%
D27*
%TO.C,R11*%
X171355995Y-129935313D03*
X169705995Y-129935313D03*
%TD*%
D28*
%TO.C,U3*%
X149064155Y-95624097D03*
X148414155Y-95624097D03*
X147764155Y-95624097D03*
X147764155Y-97524097D03*
X148414155Y-97524097D03*
X149064155Y-97524097D03*
%TD*%
D29*
%TO.C,R4*%
X153498188Y-103060065D03*
X153498188Y-101235065D03*
%TD*%
D30*
%TO.C,R2*%
X142831133Y-89980534D03*
X142831133Y-91630534D03*
%TD*%
D18*
%TO.C,C13*%
X181710179Y-116398550D03*
X183260179Y-116398550D03*
%TD*%
D29*
%TO.C,R3*%
X153498188Y-106885065D03*
X153498188Y-105060065D03*
%TD*%
D19*
%TO.C,C8*%
X179766650Y-121651621D03*
X178216650Y-121651621D03*
%TD*%
D25*
%TO.C,R9*%
X183488159Y-120535261D03*
X185138159Y-120535261D03*
%TD*%
%TO.C,R13*%
X158034256Y-121286002D03*
X159684256Y-121286002D03*
%TD*%
D18*
%TO.C,C15*%
X186482004Y-118016635D03*
X188032004Y-118016635D03*
%TD*%
D20*
%TO.C,b_left1*%
X210951133Y-113132201D03*
X218951133Y-113132201D03*
X210951133Y-117632201D03*
X218951133Y-117632201D03*
%TD*%
D18*
%TO.C,C5*%
X178216650Y-123111621D03*
X179766650Y-123111621D03*
%TD*%
D20*
%TO.C,b_right1*%
X194951133Y-113132201D03*
X202951133Y-113132201D03*
X194951133Y-117632201D03*
X202951133Y-117632201D03*
%TD*%
D25*
%TO.C,R12*%
X158028042Y-119787400D03*
X159678042Y-119787400D03*
%TD*%
D18*
%TO.C,C17*%
X161038042Y-119787400D03*
X162588042Y-119787400D03*
%TD*%
D25*
%TO.C,R6*%
X183584442Y-122410210D03*
X185234442Y-122410210D03*
%TD*%
D22*
%TO.C,TP_mosi1*%
X174362663Y-114235371D03*
%TD*%
D31*
%TO.C,J1*%
X142574466Y-88210000D03*
D32*
X140554466Y-88210000D03*
D33*
X139324466Y-88210000D03*
D31*
X141574466Y-88210000D03*
D32*
X143594466Y-88210000D03*
D33*
X144824466Y-88210000D03*
D34*
X146394466Y-88130000D03*
X146394466Y-84330000D03*
X137754466Y-88130000D03*
X137754466Y-84330000D03*
%TD*%
D25*
%TO.C,R7*%
X183472004Y-118016635D03*
X185122004Y-118016635D03*
%TD*%
D22*
%TO.C,tst_nrst1*%
X180021047Y-127320001D03*
%TD*%
%TO.C,TestPoint_gnd1*%
X155734045Y-99135976D03*
%TD*%
D18*
%TO.C,C2*%
X168613611Y-116553306D03*
X170163611Y-116553306D03*
%TD*%
D22*
%TO.C,TP_sck1*%
X178381844Y-108935534D03*
%TD*%
D18*
%TO.C,C18*%
X161044256Y-121286002D03*
X162594256Y-121286002D03*
%TD*%
D35*
%TO.C,U4*%
X176240878Y-125284125D03*
X176240878Y-124784125D03*
X176240878Y-124284125D03*
X176240878Y-123784125D03*
X176240878Y-123284125D03*
X176240878Y-122784125D03*
X176240878Y-122284125D03*
X176240878Y-121784125D03*
X176240878Y-121284125D03*
X176240878Y-120784125D03*
X176240878Y-120284125D03*
X176240878Y-119784125D03*
D36*
X174740878Y-118284125D03*
X174240878Y-118284125D03*
X173740878Y-118284125D03*
X173240878Y-118284125D03*
X172740878Y-118284125D03*
X172240878Y-118284125D03*
X171740878Y-118284125D03*
X171240878Y-118284125D03*
X170740878Y-118284125D03*
X170240878Y-118284125D03*
X169740878Y-118284125D03*
X169240878Y-118284125D03*
D35*
X167740878Y-119784125D03*
X167740878Y-120284125D03*
X167740878Y-120784125D03*
X167740878Y-121284125D03*
X167740878Y-121784125D03*
X167740878Y-122284125D03*
X167740878Y-122784125D03*
X167740878Y-123284125D03*
X167740878Y-123784125D03*
X167740878Y-124284125D03*
X167740878Y-124784125D03*
X167740878Y-125284125D03*
D36*
X169240878Y-126784125D03*
X169740878Y-126784125D03*
X170240878Y-126784125D03*
X170740878Y-126784125D03*
X171240878Y-126784125D03*
X171740878Y-126784125D03*
X172240878Y-126784125D03*
X172740878Y-126784125D03*
X173240878Y-126784125D03*
X173740878Y-126784125D03*
X174240878Y-126784125D03*
X174740878Y-126784125D03*
%TD*%
D18*
%TO.C,C10*%
X157473188Y-106860065D03*
X159023188Y-106860065D03*
%TD*%
D37*
%TO.C,U6*%
X167753529Y-90002380D03*
D38*
X180853529Y-90002380D03*
D39*
X193953529Y-90002380D03*
D37*
X207053529Y-90002380D03*
%TD*%
D40*
%TO.C,b_b1*%
X146357799Y-127848868D03*
X146357799Y-119848868D03*
X150857799Y-127848868D03*
X150857799Y-119848868D03*
%TD*%
D20*
%TO.C,b_down1*%
X210951133Y-126098868D03*
X202951133Y-126098868D03*
X210951133Y-121598868D03*
X202951133Y-121598868D03*
%TD*%
D25*
%TO.C,R5*%
X178700179Y-116398550D03*
X180350179Y-116398550D03*
%TD*%
D41*
%TO.C,C9*%
X155748188Y-106747565D03*
X155748188Y-105197565D03*
%TD*%
D28*
%TO.C,U2*%
X145600255Y-95624097D03*
X144950255Y-95624097D03*
X144300255Y-95624097D03*
X144300255Y-97524097D03*
X144950255Y-97524097D03*
X145600255Y-97524097D03*
%TD*%
D22*
%TO.C,SWCLK1*%
X165303801Y-129637235D03*
%TD*%
D30*
%TO.C,R8*%
X172740878Y-128357482D03*
X172740878Y-130007482D03*
%TD*%
D18*
%TO.C,C6*%
X174173724Y-128478655D03*
X175723724Y-128478655D03*
%TD*%
D42*
%TO.C,L1*%
X159428188Y-111060065D03*
X154768188Y-111060065D03*
%TD*%
D40*
%TO.C,b_a1*%
X146357799Y-110915534D03*
X146357799Y-102915534D03*
X150857799Y-110915534D03*
X150857799Y-102915534D03*
%TD*%
D19*
%TO.C,C3*%
X167740878Y-126518684D03*
X166190878Y-126518684D03*
%TD*%
D43*
%TO.C,C1*%
X155860751Y-101557657D03*
X155860751Y-103107657D03*
%TD*%
D30*
%TO.C,R1*%
X141331133Y-89980534D03*
X141331133Y-91630534D03*
%TD*%
%LPD*%
M02*
