M48
; DRILL file {KiCad 9.0.0} date 2025-03-23T23:41:23-0500
; FORMAT={-:-/ absolute / metric / decimal}
; #@! TF.CreationDate,2025-03-23T23:41:23-05:00
; #@! TF.GenerationSoftware,Kicad,Pcbnew,9.0.0
; #@! TF.FileFunction,Plated,1,2,PTH
FMAT,2
METRIC
; #@! TA.AperFunction,Plated,PTH,ViaDrill
T1C0.300
; #@! TA.AperFunction,Plated,PTH,ComponentDrill
T2C0.600
%
G90
G05
T1
X139.331Y-89.556
X141.331Y-92.806
X142.831Y-92.806
X144.824Y-89.556
X144.95Y-94.781
X147.753Y-98.349
X148.774Y-94.828
X153.494Y-99.132
X156.829Y-119.787
X156.851Y-121.286
X158.326Y-103.383
X160.239Y-106.86
X165.118Y-126.519
X165.339Y-118.241
X168.509Y-129.935
X169.058Y-124.581
X170.164Y-115.257
X173.979Y-125.381
X174.304Y-85.366
X174.304Y-94.999
X174.846Y-121.979
X176.171Y-106.136
X176.2Y-102.636
X176.2Y-104.036
X176.965Y-128.479
X177.517Y-116.399
X181.016Y-123.112
X182.194Y-122.41
X182.291Y-120.535
X182.307Y-118.017
X187.404Y-85.366
X187.404Y-94.999
X200.504Y-85.366
X200.504Y-94.999
T2
X137.754Y-84.63G85X137.754Y-84.03
G05
X137.754Y-88.43G85X137.754Y-87.83
G05
X146.394Y-84.63G85X146.394Y-84.03
G05
X146.394Y-88.43G85X146.394Y-87.83
G05
M30
