%TF.GenerationSoftware,KiCad,Pcbnew,9.0.0*%
%TF.CreationDate,2025-03-23T23:43:44-05:00*%
%TF.ProjectId,stm32card,73746d33-3263-4617-9264-2e6b69636164,rev?*%
%TF.SameCoordinates,Original*%
%TF.FileFunction,Copper,L2,Bot*%
%TF.FilePolarity,Positive*%
%FSLAX46Y46*%
G04 Gerber Fmt 4.6, Leading zero omitted, Abs format (unit mm)*
G04 Created by KiCad (PCBNEW 9.0.0) date 2025-03-23 23:43:44*
%MOMM*%
%LPD*%
G01*
G04 APERTURE LIST*
%ADD10C,0.200000*%
%TA.AperFunction,ComponentPad*%
%ADD11O,1.100000X1.700000*%
%TD*%
%TA.AperFunction,ViaPad*%
%ADD12C,0.600000*%
%TD*%
%TA.AperFunction,ViaPad*%
%ADD13C,1.000000*%
%TD*%
G04 APERTURE END LIST*
D10*
G36*
X213619333Y-92270705D02*
G01*
X212250413Y-92270705D01*
X212023575Y-92260135D01*
X211821034Y-92229855D01*
X211634163Y-92170521D01*
X211477751Y-92078363D01*
X211359708Y-91971345D01*
X211262512Y-91841142D01*
X211187838Y-91694214D01*
X211142737Y-91534985D01*
X211127324Y-91360289D01*
X211130436Y-91322554D01*
X211764614Y-91322554D01*
X211778905Y-91459025D01*
X211818016Y-91563128D01*
X211879502Y-91642460D01*
X211965382Y-91701374D01*
X212088427Y-91739735D01*
X212274960Y-91754864D01*
X213016847Y-91754864D01*
X213016847Y-90945931D01*
X212264702Y-90945931D01*
X212079947Y-90961569D01*
X211959337Y-90997405D01*
X211874093Y-91050951D01*
X211814701Y-91120608D01*
X211777855Y-91209199D01*
X211764614Y-91322554D01*
X211130436Y-91322554D01*
X211141320Y-91190562D01*
X211181188Y-91044713D01*
X211245293Y-90918454D01*
X211334643Y-90809722D01*
X211449641Y-90721289D01*
X211594621Y-90652474D01*
X211456480Y-90566392D01*
X211365094Y-90479550D01*
X211289929Y-90359797D01*
X211242624Y-90213143D01*
X211231499Y-90094501D01*
X211828179Y-90094501D01*
X211843751Y-90217536D01*
X211885674Y-90304646D01*
X211952193Y-90365427D01*
X212038178Y-90406127D01*
X212144242Y-90432341D01*
X212274960Y-90441814D01*
X213016847Y-90441814D01*
X213016847Y-89761842D01*
X212352812Y-89761842D01*
X212143894Y-89775141D01*
X211992127Y-89810019D01*
X211902689Y-89870566D01*
X211848263Y-89961633D01*
X211828179Y-90094501D01*
X211231499Y-90094501D01*
X211225693Y-90032585D01*
X211241937Y-89857348D01*
X211288701Y-89704379D01*
X211365094Y-89569318D01*
X211463933Y-89461402D01*
X211587120Y-89374568D01*
X211738784Y-89308317D01*
X211924718Y-89264264D01*
X212152045Y-89246001D01*
X213619333Y-89246001D01*
X213619333Y-92270705D01*
G37*
G36*
X209432889Y-89972868D02*
G01*
X209405412Y-89972868D01*
X209355037Y-89972868D01*
X209355037Y-90570774D01*
X209453405Y-90570774D01*
X209523015Y-90570774D01*
X209696953Y-90587649D01*
X209827714Y-90633361D01*
X209925465Y-90704074D01*
X209996540Y-90801034D01*
X210030818Y-90890614D01*
X210054868Y-91019576D01*
X210064135Y-91199822D01*
X210064135Y-92270705D01*
X210652332Y-92270705D01*
X210652332Y-90031486D01*
X210094909Y-90031486D01*
X210094909Y-90421114D01*
X209957642Y-90216824D01*
X209859154Y-90111903D01*
X209742770Y-90036491D01*
X209602744Y-89989535D01*
X209432889Y-89972868D01*
G37*
G36*
X208362092Y-89993341D02*
G01*
X208562502Y-90052172D01*
X208739088Y-90147920D01*
X208895799Y-90282446D01*
X209018790Y-90444636D01*
X209110258Y-90641878D01*
X209168790Y-90881387D01*
X209189806Y-91172344D01*
X209174170Y-91427066D01*
X209130759Y-91637052D01*
X209063537Y-91809719D01*
X208974580Y-91951246D01*
X208863925Y-92066273D01*
X208693376Y-92187269D01*
X208512949Y-92272353D01*
X208320163Y-92323611D01*
X208111779Y-92341046D01*
X207904787Y-92326698D01*
X207724762Y-92285798D01*
X207567483Y-92220417D01*
X207429541Y-92131022D01*
X207308526Y-92016448D01*
X207198426Y-91872951D01*
X207131938Y-91739946D01*
X207101530Y-91614180D01*
X207697971Y-91614180D01*
X207750630Y-91705204D01*
X207806598Y-91768969D01*
X207887123Y-91825193D01*
X207983330Y-91859859D01*
X208099506Y-91872100D01*
X208210249Y-91862117D01*
X208306341Y-91833479D01*
X208390583Y-91786920D01*
X208474071Y-91710836D01*
X208537679Y-91610077D01*
X208581271Y-91478943D01*
X208601608Y-91309365D01*
X207072770Y-91309365D01*
X207076134Y-91037744D01*
X207086374Y-90922484D01*
X207679470Y-90922484D01*
X208587320Y-90922484D01*
X208557152Y-90782510D01*
X208509890Y-90669960D01*
X208447003Y-90579933D01*
X208364785Y-90511157D01*
X208261961Y-90468703D01*
X208132296Y-90453538D01*
X208012738Y-90467260D01*
X207909844Y-90506909D01*
X207819787Y-90572789D01*
X207750829Y-90660053D01*
X207703342Y-90774141D01*
X207679470Y-90922484D01*
X207086374Y-90922484D01*
X207091272Y-90867346D01*
X207128432Y-90696543D01*
X207185323Y-90543822D01*
X207261448Y-90406826D01*
X207368983Y-90268109D01*
X207491493Y-90159256D01*
X207630377Y-90077282D01*
X207782426Y-90020132D01*
X207948897Y-89984984D01*
X208132296Y-89972868D01*
X208362092Y-89993341D01*
G37*
G36*
X206910105Y-90465261D02*
G01*
X206910105Y-90054933D01*
X206598695Y-90054933D01*
X206598695Y-89421856D01*
X206020755Y-89421856D01*
X206020755Y-90054933D01*
X205657872Y-90054933D01*
X205657872Y-90465261D01*
X206020755Y-90465261D01*
X206020755Y-91653930D01*
X206009434Y-91777784D01*
X205985951Y-91826305D01*
X205932274Y-91848709D01*
X205772727Y-91860377D01*
X205716307Y-91857446D01*
X205657872Y-91848653D01*
X205657872Y-92282428D01*
X205934660Y-92305875D01*
X206149436Y-92299948D01*
X206307086Y-92270301D01*
X206420574Y-92223031D01*
X206500326Y-92161345D01*
X206552084Y-92087795D01*
X206586023Y-91986911D01*
X206598695Y-91849935D01*
X206598695Y-90465261D01*
X206910105Y-90465261D01*
G37*
G36*
X205512059Y-90465261D02*
G01*
X205512059Y-90054933D01*
X205200649Y-90054933D01*
X205200649Y-89421856D01*
X204622709Y-89421856D01*
X204622709Y-90054933D01*
X204259825Y-90054933D01*
X204259825Y-90465261D01*
X204622709Y-90465261D01*
X204622709Y-91653930D01*
X204611388Y-91777784D01*
X204587905Y-91826305D01*
X204534228Y-91848709D01*
X204374681Y-91860377D01*
X204318261Y-91857446D01*
X204259825Y-91848653D01*
X204259825Y-92282428D01*
X204536614Y-92305875D01*
X204751390Y-92299948D01*
X204909040Y-92270301D01*
X205022527Y-92223031D01*
X205102280Y-92161345D01*
X205154038Y-92087795D01*
X205187977Y-91986911D01*
X205200649Y-91849935D01*
X205200649Y-90465261D01*
X205512059Y-90465261D01*
G37*
G36*
X202258927Y-89246001D02*
G01*
X201859224Y-90977988D01*
X201773311Y-91460124D01*
X201685201Y-90988246D01*
X201344848Y-89246001D01*
X200678798Y-89246001D01*
X200320310Y-90977988D01*
X200227987Y-91460124D01*
X200135846Y-90996306D01*
X199732113Y-89246001D01*
X199090609Y-89246001D01*
X199941123Y-92270705D01*
X200543609Y-92270705D01*
X200908325Y-90501898D01*
X201014937Y-89916997D01*
X201121549Y-90501898D01*
X201486265Y-92270705D01*
X202072448Y-92270705D01*
X202929007Y-89246001D01*
X202258927Y-89246001D01*
G37*
G36*
X198177165Y-89993341D02*
G01*
X198377575Y-90052172D01*
X198554161Y-90147920D01*
X198710872Y-90282446D01*
X198833864Y-90444636D01*
X198925331Y-90641878D01*
X198983863Y-90881387D01*
X199004880Y-91172344D01*
X198989244Y-91427066D01*
X198945833Y-91637052D01*
X198878611Y-91809719D01*
X198789653Y-91951246D01*
X198678999Y-92066273D01*
X198508450Y-92187269D01*
X198328022Y-92272353D01*
X198135236Y-92323611D01*
X197926853Y-92341046D01*
X197719860Y-92326698D01*
X197539835Y-92285798D01*
X197382556Y-92220417D01*
X197244614Y-92131022D01*
X197123599Y-92016448D01*
X197013499Y-91872951D01*
X196947011Y-91739946D01*
X196916603Y-91614180D01*
X197513044Y-91614180D01*
X197565703Y-91705204D01*
X197621671Y-91768969D01*
X197702196Y-91825193D01*
X197798403Y-91859859D01*
X197914579Y-91872100D01*
X198025322Y-91862117D01*
X198121414Y-91833479D01*
X198205656Y-91786920D01*
X198289145Y-91710836D01*
X198352752Y-91610077D01*
X198396344Y-91478943D01*
X198416682Y-91309365D01*
X196887844Y-91309365D01*
X196891208Y-91037744D01*
X196901447Y-90922484D01*
X197494543Y-90922484D01*
X198402393Y-90922484D01*
X198372225Y-90782510D01*
X198324963Y-90669960D01*
X198262076Y-90579933D01*
X198179858Y-90511157D01*
X198077034Y-90468703D01*
X197947369Y-90453538D01*
X197827811Y-90467260D01*
X197724917Y-90506909D01*
X197634860Y-90572789D01*
X197565902Y-90660053D01*
X197518416Y-90774141D01*
X197494543Y-90922484D01*
X196901447Y-90922484D01*
X196906345Y-90867346D01*
X196943506Y-90696543D01*
X197000396Y-90543822D01*
X197076521Y-90406826D01*
X197184056Y-90268109D01*
X197306566Y-90159256D01*
X197445450Y-90077282D01*
X197597500Y-90020132D01*
X197763970Y-89984984D01*
X197947369Y-89972868D01*
X198177165Y-89993341D01*
G37*
G36*
X195895180Y-89773566D02*
G01*
X196487407Y-89773566D01*
X196487407Y-89246001D01*
X195895180Y-89246001D01*
X195895180Y-89773566D01*
G37*
G36*
X196487407Y-90031486D02*
G01*
X195895180Y-90031486D01*
X195895180Y-92270705D01*
X196487407Y-92270705D01*
X196487407Y-90031486D01*
G37*
G36*
X194732706Y-92270705D02*
G01*
X195316874Y-92270705D01*
X195316874Y-89246001D01*
X194732706Y-89246001D01*
X194732706Y-92270705D01*
G37*
G36*
X193516265Y-89987225D02*
G01*
X193705324Y-90026817D01*
X193858133Y-90087679D01*
X193980988Y-90167716D01*
X194078562Y-90266875D01*
X194159212Y-90398906D01*
X194214484Y-90556941D01*
X194242510Y-90746629D01*
X193679042Y-90746629D01*
X193646725Y-90628056D01*
X193596977Y-90543480D01*
X193532232Y-90490307D01*
X193438148Y-90455155D01*
X193304068Y-90441814D01*
X193132188Y-90456869D01*
X193024349Y-90494387D01*
X192972718Y-90537195D01*
X192940713Y-90598520D01*
X192928911Y-90685080D01*
X192942235Y-90752852D01*
X192981828Y-90807462D01*
X193053841Y-90852142D01*
X193135637Y-90878003D01*
X193285567Y-90903799D01*
X193484320Y-90928529D01*
X193709282Y-90967788D01*
X193876138Y-91016944D01*
X193996680Y-91072877D01*
X194110715Y-91155974D01*
X194197832Y-91254879D01*
X194260880Y-91371442D01*
X194300349Y-91509185D01*
X194314318Y-91672981D01*
X194300712Y-91830700D01*
X194262354Y-91962542D01*
X194201174Y-92073417D01*
X194116664Y-92166840D01*
X193976008Y-92262138D01*
X193811127Y-92320559D01*
X193615478Y-92341046D01*
X193459894Y-92328599D01*
X193318670Y-92292337D01*
X193189213Y-92232786D01*
X193040128Y-92130957D01*
X192910410Y-92010403D01*
X192894107Y-92144675D01*
X192857287Y-92270705D01*
X192221828Y-92270705D01*
X192221828Y-92200363D01*
X192273326Y-92167659D01*
X192308107Y-92129471D01*
X192329072Y-92075992D01*
X192342912Y-91965889D01*
X192346942Y-91705404D01*
X192346942Y-91397292D01*
X192930926Y-91397292D01*
X192945901Y-91546778D01*
X192980208Y-91659903D01*
X193030462Y-91744612D01*
X193095973Y-91806704D01*
X193206125Y-91869520D01*
X193321132Y-91906562D01*
X193443287Y-91918995D01*
X193554541Y-91901642D01*
X193645153Y-91851401D01*
X193689211Y-91800451D01*
X193717579Y-91729629D01*
X193728135Y-91632132D01*
X193712373Y-91526191D01*
X193667826Y-91444358D01*
X193592947Y-91380623D01*
X193498811Y-91340175D01*
X193328615Y-91299473D01*
X193197456Y-91274560D01*
X193042667Y-91234077D01*
X192930926Y-91176924D01*
X192930926Y-91397292D01*
X192346942Y-91397292D01*
X192346942Y-90672257D01*
X192367323Y-90473096D01*
X192423044Y-90321083D01*
X192510377Y-90205228D01*
X192631790Y-90119047D01*
X192826549Y-90039167D01*
X193042432Y-89989917D01*
X193283369Y-89972868D01*
X193516265Y-89987225D01*
G37*
G36*
X190591874Y-89972868D02*
G01*
X190367256Y-89994407D01*
X190181000Y-90055174D01*
X190025291Y-90152753D01*
X189934468Y-90249844D01*
X189866095Y-90377295D01*
X189821371Y-90542565D01*
X189804923Y-90755605D01*
X189804923Y-92270705D01*
X190403379Y-92270705D01*
X190403379Y-90900136D01*
X190416822Y-90733684D01*
X190450457Y-90627194D01*
X190501654Y-90552882D01*
X190570417Y-90499695D01*
X190660479Y-90465884D01*
X190778353Y-90453538D01*
X190919887Y-90470629D01*
X191030853Y-90518357D01*
X191118505Y-90595789D01*
X191186116Y-90707795D01*
X191227745Y-90852848D01*
X191243452Y-91051078D01*
X191243452Y-92270705D01*
X191825605Y-92270705D01*
X191825605Y-90031486D01*
X191261954Y-90031486D01*
X191261954Y-90352604D01*
X191145471Y-90198058D01*
X191048913Y-90106957D01*
X190922372Y-90034347D01*
X190771945Y-89988954D01*
X190591874Y-89972868D01*
G37*
G36*
X187824358Y-90312671D02*
G01*
X187938090Y-90170009D01*
X188080630Y-90062993D01*
X188188975Y-90013556D01*
X188308368Y-89983300D01*
X188441132Y-89972868D01*
X188654658Y-89994356D01*
X188839573Y-90056210D01*
X189001844Y-90157715D01*
X189145284Y-90302412D01*
X189255200Y-90472169D01*
X189337298Y-90674979D01*
X189389768Y-90917164D01*
X189408517Y-91206416D01*
X189390354Y-91453878D01*
X189338511Y-91669119D01*
X189255364Y-91857397D01*
X189141071Y-92022859D01*
X188996038Y-92164897D01*
X188840020Y-92262750D01*
X188670207Y-92321146D01*
X188482165Y-92341046D01*
X188325753Y-92330287D01*
X188194675Y-92300127D01*
X188084660Y-92252753D01*
X187985651Y-92185164D01*
X187890840Y-92092269D01*
X187799811Y-91969919D01*
X187799811Y-92270705D01*
X187232130Y-92270705D01*
X187232130Y-91190113D01*
X187808055Y-91190113D01*
X187823852Y-91384248D01*
X187867901Y-91543207D01*
X187937198Y-91673714D01*
X188008989Y-91755203D01*
X188093788Y-91812599D01*
X188194129Y-91847936D01*
X188314187Y-91860377D01*
X188434284Y-91847765D01*
X188533272Y-91812123D01*
X188615685Y-91754442D01*
X188684215Y-91672615D01*
X188748872Y-91541856D01*
X188790780Y-91377498D01*
X188806031Y-91171429D01*
X188791559Y-90980895D01*
X188750801Y-90820481D01*
X188686230Y-90684897D01*
X188618097Y-90599414D01*
X188534979Y-90539210D01*
X188433997Y-90501942D01*
X188310157Y-90488709D01*
X188202113Y-90500837D01*
X188104652Y-90536503D01*
X188015051Y-90596603D01*
X187930112Y-90692177D01*
X187865801Y-90817653D01*
X187823595Y-90980415D01*
X187808055Y-91190113D01*
X187232130Y-91190113D01*
X187232130Y-89246001D01*
X187824358Y-89246001D01*
X187824358Y-90312671D01*
G37*
D11*
%TO.P,J1,SH1*%
%TO.N,N/C*%
X146394466Y-88130000D03*
%TO.P,J1,SH2*%
X146394466Y-84330000D03*
%TO.P,J1,SH3*%
X137754466Y-88130000D03*
%TO.P,J1,SH4*%
X137754466Y-84330000D03*
%TD*%
D12*
%TO.N,GND*%
X158325688Y-103383231D03*
X174846241Y-121979062D03*
X176199643Y-104035534D03*
X165117727Y-126518684D03*
X169057760Y-124580880D03*
D13*
X174303529Y-85365581D03*
X187403529Y-85365581D03*
D12*
X156828555Y-119787400D03*
X177516540Y-116398550D03*
X176199643Y-102635534D03*
X182290644Y-120535261D03*
X147752869Y-98349097D03*
X148773765Y-94828363D03*
X144950255Y-94780685D03*
D13*
X187403529Y-94998815D03*
X200503529Y-85365581D03*
D12*
X168508983Y-129935313D03*
X142831133Y-92805534D03*
X182194361Y-122410210D03*
X176171148Y-106135534D03*
X153493954Y-99131767D03*
X182306799Y-118016635D03*
X160238628Y-106860065D03*
X144824466Y-89555534D03*
X141331133Y-92805534D03*
D13*
X174303529Y-94998815D03*
D12*
X173978553Y-125380962D03*
X156851445Y-121286002D03*
D13*
X200503529Y-94998815D03*
D12*
X139331133Y-89555534D03*
X165338703Y-118240907D03*
X181015522Y-123111621D03*
X176964712Y-128478655D03*
X170163611Y-115257278D03*
%TD*%
%TA.AperFunction,Conductor*%
%TO.N,GND*%
G36*
X218536610Y-82546383D02*
G01*
X218579464Y-82568692D01*
X218709416Y-82636340D01*
X218718783Y-82641748D01*
X218753973Y-82664166D01*
X218775030Y-82681066D01*
X220318935Y-84224971D01*
X220335832Y-84246023D01*
X220358255Y-84281222D01*
X220363647Y-84290560D01*
X220490549Y-84534337D01*
X220539908Y-84629155D01*
X220544479Y-84638959D01*
X220690548Y-84991603D01*
X220694248Y-85001768D01*
X220708272Y-85046247D01*
X220714011Y-85083534D01*
X220714011Y-128787459D01*
X220708271Y-128824748D01*
X220694232Y-128869272D01*
X220690533Y-128879437D01*
X220544459Y-129232084D01*
X220539887Y-129241888D01*
X220419726Y-129472709D01*
X220397418Y-129503132D01*
X218632129Y-131268421D01*
X218601704Y-131290730D01*
X218370825Y-131410917D01*
X218361033Y-131415483D01*
X218008384Y-131561552D01*
X217998219Y-131565251D01*
X217689606Y-131662555D01*
X217652319Y-131668294D01*
X137003620Y-131668294D01*
X136936581Y-131648609D01*
X136915939Y-131631975D01*
X133703553Y-128419589D01*
X133670068Y-128358266D01*
X133667234Y-128331908D01*
X133667234Y-92846534D01*
X186726630Y-92846534D01*
X214124833Y-92846534D01*
X214124833Y-89864712D01*
X215253029Y-89864712D01*
X215253029Y-90140047D01*
X215253030Y-90140064D01*
X215288967Y-90413035D01*
X215288968Y-90413040D01*
X215288969Y-90413046D01*
X215288970Y-90413048D01*
X215360233Y-90679010D01*
X215465604Y-90933397D01*
X215465609Y-90933408D01*
X215548390Y-91076787D01*
X215603280Y-91171859D01*
X215603282Y-91171862D01*
X215603283Y-91171863D01*
X215770899Y-91390306D01*
X215770905Y-91390313D01*
X215965595Y-91585003D01*
X215965601Y-91585008D01*
X216184050Y-91752629D01*
X216337307Y-91841112D01*
X216422500Y-91890299D01*
X216422505Y-91890301D01*
X216422508Y-91890303D01*
X216676897Y-91995675D01*
X216942863Y-92066940D01*
X217215855Y-92102880D01*
X217215862Y-92102880D01*
X217491196Y-92102880D01*
X217491203Y-92102880D01*
X217764195Y-92066940D01*
X218030161Y-91995675D01*
X218284550Y-91890303D01*
X218523008Y-91752629D01*
X218741457Y-91585008D01*
X218936157Y-91390308D01*
X219103778Y-91171859D01*
X219241452Y-90933401D01*
X219346824Y-90679012D01*
X219418089Y-90413046D01*
X219454029Y-90140054D01*
X219454029Y-89864706D01*
X219418089Y-89591714D01*
X219346824Y-89325748D01*
X219241452Y-89071359D01*
X219241450Y-89071356D01*
X219241448Y-89071351D01*
X219158450Y-88927596D01*
X219103778Y-88832901D01*
X218936157Y-88614452D01*
X218936152Y-88614446D01*
X218741462Y-88419756D01*
X218741455Y-88419750D01*
X218523012Y-88252134D01*
X218523011Y-88252133D01*
X218523008Y-88252131D01*
X218427936Y-88197241D01*
X218284557Y-88114460D01*
X218284546Y-88114455D01*
X218030159Y-88009084D01*
X217897178Y-87973452D01*
X217764195Y-87937820D01*
X217764189Y-87937819D01*
X217764184Y-87937818D01*
X217491213Y-87901881D01*
X217491208Y-87901880D01*
X217491203Y-87901880D01*
X217215855Y-87901880D01*
X217215849Y-87901880D01*
X217215844Y-87901881D01*
X216942873Y-87937818D01*
X216942866Y-87937819D01*
X216942863Y-87937820D01*
X216886654Y-87952880D01*
X216676898Y-88009084D01*
X216422511Y-88114455D01*
X216422500Y-88114460D01*
X216184045Y-88252134D01*
X215965602Y-88419750D01*
X215965595Y-88419756D01*
X215770905Y-88614446D01*
X215770899Y-88614453D01*
X215603283Y-88832896D01*
X215465609Y-89071351D01*
X215465604Y-89071362D01*
X215360233Y-89325749D01*
X215288970Y-89591711D01*
X215288967Y-89591724D01*
X215253030Y-89864695D01*
X215253029Y-89864712D01*
X214124833Y-89864712D01*
X214124833Y-88740501D01*
X186726630Y-88740501D01*
X186726630Y-92846534D01*
X133667234Y-92846534D01*
X133667234Y-89864712D01*
X155353029Y-89864712D01*
X155353029Y-90140047D01*
X155353030Y-90140064D01*
X155388967Y-90413035D01*
X155388968Y-90413040D01*
X155388969Y-90413046D01*
X155388970Y-90413048D01*
X155460233Y-90679010D01*
X155565604Y-90933397D01*
X155565609Y-90933408D01*
X155648390Y-91076787D01*
X155703280Y-91171859D01*
X155703282Y-91171862D01*
X155703283Y-91171863D01*
X155870899Y-91390306D01*
X155870905Y-91390313D01*
X156065595Y-91585003D01*
X156065601Y-91585008D01*
X156284050Y-91752629D01*
X156437307Y-91841112D01*
X156522500Y-91890299D01*
X156522505Y-91890301D01*
X156522508Y-91890303D01*
X156776897Y-91995675D01*
X157042863Y-92066940D01*
X157315855Y-92102880D01*
X157315862Y-92102880D01*
X157591196Y-92102880D01*
X157591203Y-92102880D01*
X157864195Y-92066940D01*
X158130161Y-91995675D01*
X158384550Y-91890303D01*
X158623008Y-91752629D01*
X158841457Y-91585008D01*
X159036157Y-91390308D01*
X159203778Y-91171859D01*
X159341452Y-90933401D01*
X159446824Y-90679012D01*
X159518089Y-90413046D01*
X159554029Y-90140054D01*
X159554029Y-89864706D01*
X159518089Y-89591714D01*
X159446824Y-89325748D01*
X159341452Y-89071359D01*
X159341450Y-89071356D01*
X159341448Y-89071351D01*
X159258450Y-88927596D01*
X159203778Y-88832901D01*
X159194537Y-88820858D01*
X159151389Y-88764625D01*
X159036158Y-88614453D01*
X159036152Y-88614446D01*
X158841462Y-88419756D01*
X158841455Y-88419750D01*
X158623012Y-88252134D01*
X158623011Y-88252133D01*
X158623008Y-88252131D01*
X158527936Y-88197241D01*
X158384557Y-88114460D01*
X158384546Y-88114455D01*
X158130159Y-88009084D01*
X157997178Y-87973452D01*
X157864195Y-87937820D01*
X157864189Y-87937819D01*
X157864184Y-87937818D01*
X157591213Y-87901881D01*
X157591208Y-87901880D01*
X157591203Y-87901880D01*
X157315855Y-87901880D01*
X157315849Y-87901880D01*
X157315844Y-87901881D01*
X157042873Y-87937818D01*
X157042866Y-87937819D01*
X157042863Y-87937820D01*
X156986654Y-87952880D01*
X156776898Y-88009084D01*
X156522511Y-88114455D01*
X156522500Y-88114460D01*
X156284045Y-88252134D01*
X156065602Y-88419750D01*
X156065595Y-88419756D01*
X155870905Y-88614446D01*
X155870899Y-88614453D01*
X155703283Y-88832896D01*
X155565609Y-89071351D01*
X155565604Y-89071362D01*
X155460233Y-89325749D01*
X155388970Y-89591711D01*
X155388967Y-89591724D01*
X155353030Y-89864695D01*
X155353029Y-89864712D01*
X133667234Y-89864712D01*
X133667234Y-87726530D01*
X136703966Y-87726530D01*
X136703966Y-88533469D01*
X136744334Y-88736412D01*
X136744336Y-88736420D01*
X136823524Y-88927596D01*
X136938490Y-89099657D01*
X137084808Y-89245975D01*
X137084811Y-89245977D01*
X137256868Y-89360941D01*
X137448046Y-89440130D01*
X137650996Y-89480499D01*
X137651000Y-89480500D01*
X137651001Y-89480500D01*
X137857932Y-89480500D01*
X137857933Y-89480499D01*
X138060886Y-89440130D01*
X138252064Y-89360941D01*
X138424121Y-89245977D01*
X138570443Y-89099655D01*
X138685407Y-88927598D01*
X138764596Y-88736420D01*
X138804966Y-88533465D01*
X138804966Y-87726535D01*
X138804965Y-87726530D01*
X145343966Y-87726530D01*
X145343966Y-88533469D01*
X145384334Y-88736412D01*
X145384336Y-88736420D01*
X145463524Y-88927596D01*
X145578490Y-89099657D01*
X145724808Y-89245975D01*
X145724811Y-89245977D01*
X145896868Y-89360941D01*
X146088046Y-89440130D01*
X146290996Y-89480499D01*
X146291000Y-89480500D01*
X146291001Y-89480500D01*
X146497932Y-89480500D01*
X146497933Y-89480499D01*
X146700886Y-89440130D01*
X146892064Y-89360941D01*
X147064121Y-89245977D01*
X147210443Y-89099655D01*
X147325407Y-88927598D01*
X147404596Y-88736420D01*
X147444966Y-88533465D01*
X147444966Y-87726535D01*
X147404596Y-87523580D01*
X147325407Y-87332402D01*
X147210443Y-87160345D01*
X147210441Y-87160342D01*
X147064123Y-87014024D01*
X146947398Y-86936032D01*
X146892064Y-86899059D01*
X146700886Y-86819870D01*
X146700878Y-86819868D01*
X146497935Y-86779500D01*
X146497931Y-86779500D01*
X146291001Y-86779500D01*
X146290996Y-86779500D01*
X146088053Y-86819868D01*
X146088045Y-86819870D01*
X145896869Y-86899058D01*
X145724808Y-87014024D01*
X145578490Y-87160342D01*
X145463524Y-87332403D01*
X145384336Y-87523579D01*
X145384334Y-87523587D01*
X145343966Y-87726530D01*
X138804965Y-87726530D01*
X138764596Y-87523580D01*
X138685407Y-87332402D01*
X138570443Y-87160345D01*
X138570441Y-87160342D01*
X138424123Y-87014024D01*
X138307398Y-86936032D01*
X138252064Y-86899059D01*
X138060886Y-86819870D01*
X138060878Y-86819868D01*
X137857935Y-86779500D01*
X137857931Y-86779500D01*
X137651001Y-86779500D01*
X137650996Y-86779500D01*
X137448053Y-86819868D01*
X137448045Y-86819870D01*
X137256869Y-86899058D01*
X137084808Y-87014024D01*
X136938490Y-87160342D01*
X136823524Y-87332403D01*
X136744336Y-87523579D01*
X136744334Y-87523587D01*
X136703966Y-87726530D01*
X133667234Y-87726530D01*
X133667234Y-86744679D01*
X133686919Y-86677640D01*
X133703548Y-86657003D01*
X136492287Y-83868264D01*
X136553608Y-83834781D01*
X136623300Y-83839765D01*
X136679233Y-83881637D01*
X136703650Y-83947101D01*
X136703966Y-83955947D01*
X136703966Y-84733469D01*
X136744334Y-84936412D01*
X136744336Y-84936420D01*
X136823524Y-85127596D01*
X136938490Y-85299657D01*
X137084808Y-85445975D01*
X137084811Y-85445977D01*
X137256868Y-85560941D01*
X137448046Y-85640130D01*
X137650996Y-85680499D01*
X137651000Y-85680500D01*
X137651001Y-85680500D01*
X137857932Y-85680500D01*
X137857933Y-85680499D01*
X138060886Y-85640130D01*
X138252064Y-85560941D01*
X138424121Y-85445977D01*
X138570443Y-85299655D01*
X138685407Y-85127598D01*
X138764596Y-84936420D01*
X138804966Y-84733465D01*
X138804966Y-83926535D01*
X138804965Y-83926530D01*
X145343966Y-83926530D01*
X145343966Y-84733469D01*
X145384334Y-84936412D01*
X145384336Y-84936420D01*
X145463524Y-85127596D01*
X145578490Y-85299657D01*
X145724808Y-85445975D01*
X145724811Y-85445977D01*
X145896868Y-85560941D01*
X146088046Y-85640130D01*
X146290996Y-85680499D01*
X146291000Y-85680500D01*
X146291001Y-85680500D01*
X146497932Y-85680500D01*
X146497933Y-85680499D01*
X146700886Y-85640130D01*
X146892064Y-85560941D01*
X147064121Y-85445977D01*
X147210443Y-85299655D01*
X147325407Y-85127598D01*
X147404596Y-84936420D01*
X147444966Y-84733465D01*
X147444966Y-83926535D01*
X147404596Y-83723580D01*
X147325407Y-83532402D01*
X147210443Y-83360345D01*
X147210441Y-83360342D01*
X147064123Y-83214024D01*
X146978092Y-83156541D01*
X146892064Y-83099059D01*
X146867072Y-83088707D01*
X146700886Y-83019870D01*
X146700878Y-83019868D01*
X146497935Y-82979500D01*
X146497931Y-82979500D01*
X146291001Y-82979500D01*
X146290996Y-82979500D01*
X146088053Y-83019868D01*
X146088045Y-83019870D01*
X145896869Y-83099058D01*
X145724808Y-83214024D01*
X145578490Y-83360342D01*
X145463524Y-83532403D01*
X145384336Y-83723579D01*
X145384334Y-83723587D01*
X145343966Y-83926530D01*
X138804965Y-83926530D01*
X138764596Y-83723580D01*
X138685407Y-83532402D01*
X138570443Y-83360345D01*
X138570441Y-83360342D01*
X138424123Y-83214024D01*
X138338092Y-83156541D01*
X138252064Y-83099059D01*
X138227072Y-83088707D01*
X138060886Y-83019870D01*
X138060878Y-83019868D01*
X137857935Y-82979500D01*
X137857931Y-82979500D01*
X137680414Y-82979500D01*
X137613375Y-82959815D01*
X137567620Y-82907011D01*
X137557676Y-82837853D01*
X137586701Y-82774297D01*
X137592733Y-82767819D01*
X137791860Y-82568692D01*
X137853183Y-82535207D01*
X137879541Y-82532373D01*
X218479354Y-82532373D01*
X218536610Y-82546383D01*
G37*
%TD.AperFunction*%
%TD*%
M02*
