%TF.GenerationSoftware,KiCad,Pcbnew,9.0.3*%
%TF.CreationDate,2025-08-27T19:31:21-05:00*%
%TF.ProjectId,stm32card,73746d33-3263-4617-9264-2e6b69636164,rev?*%
%TF.SameCoordinates,Original*%
%TF.FileFunction,Drillmap*%
%TF.FilePolarity,Positive*%
%FSLAX45Y45*%
G04 Gerber Fmt 4.5, Leading zero omitted, Abs format (unit mm)*
G04 Created by KiCad (PCBNEW 9.0.3) date 2025-08-27 19:31:21*
%MOMM*%
%LPD*%
G01*
G04 APERTURE LIST*
%ADD10C,0.050000*%
%ADD11C,0.200000*%
%ADD12C,0.100000*%
G04 APERTURE END LIST*
D10*
X13756447Y-13233553D02*
X21646447Y-13233553D01*
X13756447Y-13233553D02*
G75*
G02*
X13256447Y-12733553I3J500003D01*
G01*
X13256447Y-8653553D02*
X13256447Y-12733553D01*
X21646447Y-8153553D02*
G75*
G02*
X22146447Y-8653553I3J-499997D01*
G01*
X22146447Y-12733553D02*
X22146447Y-8653553D01*
X21646447Y-8153553D02*
X13756447Y-8153553D01*
X13256447Y-8653553D02*
G75*
G02*
X13756447Y-8153554I499991J8D01*
G01*
X22146447Y-12733553D02*
G75*
G02*
X21646447Y-13233557I-500007J3D01*
G01*
D11*
D12*
X13917892Y-8664431D02*
X13947892Y-8694431D01*
X13947892Y-8664431D02*
X13917892Y-8694431D01*
X14118113Y-9265553D02*
X14148113Y-9295553D01*
X14148113Y-9265553D02*
X14118113Y-9295553D01*
X14268113Y-9265553D02*
X14298113Y-9295553D01*
X14298113Y-9265553D02*
X14268113Y-9295553D01*
X14467134Y-8660086D02*
X14497134Y-8690086D01*
X14497134Y-8660086D02*
X14467134Y-8690086D01*
X14927040Y-9274355D02*
X14957040Y-9304355D01*
X14957040Y-9274355D02*
X14927040Y-9304355D01*
X15250880Y-10923202D02*
X15280880Y-10953202D01*
X15280880Y-10923202D02*
X15250880Y-10953202D01*
X15255483Y-9421812D02*
X15285483Y-9451812D01*
X15285483Y-9421812D02*
X15255483Y-9451812D01*
X15258314Y-9157217D02*
X15288314Y-9187217D01*
X15288314Y-9157217D02*
X15258314Y-9187217D01*
X15281530Y-11802242D02*
X15311530Y-11832242D01*
X15311530Y-11802242D02*
X15281530Y-11832242D01*
X15320740Y-11606959D02*
X15350740Y-11636959D01*
X15350740Y-11606959D02*
X15320740Y-11636959D01*
X15343317Y-9289278D02*
X15373317Y-9319278D01*
X15373317Y-9289278D02*
X15343317Y-9319278D01*
X15425889Y-9421096D02*
X15455889Y-9451096D01*
X15455889Y-9421096D02*
X15425889Y-9451096D01*
X15429465Y-9158248D02*
X15459465Y-9188248D01*
X15459465Y-9158248D02*
X15429465Y-9188248D01*
X15554052Y-12614941D02*
X15584052Y-12644941D01*
X15584052Y-12614941D02*
X15554052Y-12644941D01*
X15604647Y-8950185D02*
X15634647Y-8980185D01*
X15634647Y-8950185D02*
X15604647Y-8980185D01*
X15662903Y-9909614D02*
X15692903Y-9939614D01*
X15692903Y-9909614D02*
X15662903Y-9939614D01*
X15674446Y-11176505D02*
X15704446Y-11206505D01*
X15704446Y-11176505D02*
X15674446Y-11206505D01*
X15719035Y-12051950D02*
X15749035Y-12081950D01*
X15749035Y-12051950D02*
X15719035Y-12081950D01*
X15882247Y-11094987D02*
X15912247Y-11124987D01*
X15912247Y-11094987D02*
X15882247Y-11124987D01*
X15884145Y-11795548D02*
X15914145Y-11825548D01*
X15914145Y-11795548D02*
X15884145Y-11825548D01*
X15891310Y-11431009D02*
X15921310Y-11461009D01*
X15921310Y-11431009D02*
X15891310Y-11461009D01*
X16061449Y-10704597D02*
X16091449Y-10734597D01*
X16091449Y-10704597D02*
X16061449Y-10734597D01*
X16087075Y-12116620D02*
X16117075Y-12146620D01*
X16117075Y-12116620D02*
X16087075Y-12146620D01*
X16531548Y-12657844D02*
X16561548Y-12687844D01*
X16561548Y-12657844D02*
X16531548Y-12687844D01*
X16548441Y-11843696D02*
X16578441Y-11873696D01*
X16578441Y-11843696D02*
X16548441Y-11873696D01*
X16915838Y-12443795D02*
X16945838Y-12473795D01*
X16945838Y-12443795D02*
X16915838Y-12473795D01*
X16995202Y-12854751D02*
X17025202Y-12884751D01*
X17025202Y-12854751D02*
X16995202Y-12884751D01*
X17026423Y-11533452D02*
X17056423Y-11563452D01*
X17056423Y-11533452D02*
X17026423Y-11563452D01*
X17279775Y-10249839D02*
X17309775Y-10279839D01*
X17309775Y-10249839D02*
X17279775Y-10279839D01*
X17407917Y-12523803D02*
X17437917Y-12553803D01*
X17437917Y-12523803D02*
X17407917Y-12553803D01*
X17494686Y-12183613D02*
X17524686Y-12213613D01*
X17524686Y-12183613D02*
X17494686Y-12213613D01*
X17602115Y-10598553D02*
X17632115Y-10628553D01*
X17632115Y-10598553D02*
X17602115Y-10628553D01*
X17706533Y-12833572D02*
X17736533Y-12863572D01*
X17736533Y-12833572D02*
X17706533Y-12863572D01*
X17736654Y-11624855D02*
X17766654Y-11654855D01*
X17766654Y-11624855D02*
X17736654Y-11654855D01*
X18086552Y-12296162D02*
X18116552Y-12326162D01*
X18116552Y-12296162D02*
X18086552Y-12326162D01*
X18204436Y-12226021D02*
X18234436Y-12256021D01*
X18234436Y-12226021D02*
X18204436Y-12256021D01*
X18214064Y-12038526D02*
X18244064Y-12068526D01*
X18244064Y-12038526D02*
X18214064Y-12068526D01*
X18215680Y-11786663D02*
X18245680Y-11816663D01*
X18245680Y-11786663D02*
X18215680Y-11816663D01*
X21667778Y-8647536D02*
X21697778Y-8677536D01*
X21697778Y-8647536D02*
X21667778Y-8677536D01*
X13805447Y-8433000D02*
G75*
G02*
X13745447Y-8433000I-30000J0D01*
G01*
X13745447Y-8433000D02*
G75*
G02*
X13805447Y-8433000I30000J0D01*
G01*
X13805447Y-8463000D02*
X13805447Y-8403000D01*
X13745447Y-8403000D02*
G75*
G02*
X13805447Y-8403000I30000J0D01*
G01*
X13745447Y-8403000D02*
X13745447Y-8463000D01*
X13745447Y-8463000D02*
G75*
G03*
X13805447Y-8463000I30000J0D01*
G01*
X13805447Y-8813000D02*
G75*
G02*
X13745447Y-8813000I-30000J0D01*
G01*
X13745447Y-8813000D02*
G75*
G02*
X13805447Y-8813000I30000J0D01*
G01*
X13805447Y-8843000D02*
X13805447Y-8783000D01*
X13745447Y-8783000D02*
G75*
G02*
X13805447Y-8783000I30000J0D01*
G01*
X13745447Y-8783000D02*
X13745447Y-8843000D01*
X13745447Y-8843000D02*
G75*
G03*
X13805447Y-8843000I30000J0D01*
G01*
X14669447Y-8433000D02*
G75*
G02*
X14609447Y-8433000I-30000J0D01*
G01*
X14609447Y-8433000D02*
G75*
G02*
X14669447Y-8433000I30000J0D01*
G01*
X14669447Y-8463000D02*
X14669447Y-8403000D01*
X14609447Y-8403000D02*
G75*
G02*
X14669447Y-8403000I30000J0D01*
G01*
X14609447Y-8403000D02*
X14609447Y-8463000D01*
X14609447Y-8463000D02*
G75*
G03*
X14669447Y-8463000I30000J0D01*
G01*
X14669447Y-8813000D02*
G75*
G02*
X14609447Y-8813000I-30000J0D01*
G01*
X14609447Y-8813000D02*
G75*
G02*
X14669447Y-8813000I30000J0D01*
G01*
X14669447Y-8843000D02*
X14669447Y-8783000D01*
X14609447Y-8783000D02*
G75*
G02*
X14669447Y-8783000I30000J0D01*
G01*
X14609447Y-8783000D02*
X14609447Y-8843000D01*
X14609447Y-8843000D02*
G75*
G03*
X14669447Y-8843000I30000J0D01*
G01*
D11*
X13514723Y-13547537D02*
X13514723Y-13347537D01*
X13514723Y-13347537D02*
X13562342Y-13347537D01*
X13562342Y-13347537D02*
X13590914Y-13357061D01*
X13590914Y-13357061D02*
X13609961Y-13376109D01*
X13609961Y-13376109D02*
X13619485Y-13395156D01*
X13619485Y-13395156D02*
X13629009Y-13433251D01*
X13629009Y-13433251D02*
X13629009Y-13461823D01*
X13629009Y-13461823D02*
X13619485Y-13499918D01*
X13619485Y-13499918D02*
X13609961Y-13518966D01*
X13609961Y-13518966D02*
X13590914Y-13538013D01*
X13590914Y-13538013D02*
X13562342Y-13547537D01*
X13562342Y-13547537D02*
X13514723Y-13547537D01*
X13714723Y-13547537D02*
X13714723Y-13414204D01*
X13714723Y-13452299D02*
X13724247Y-13433251D01*
X13724247Y-13433251D02*
X13733771Y-13423728D01*
X13733771Y-13423728D02*
X13752819Y-13414204D01*
X13752819Y-13414204D02*
X13771866Y-13414204D01*
X13838533Y-13547537D02*
X13838533Y-13414204D01*
X13838533Y-13347537D02*
X13829009Y-13357061D01*
X13829009Y-13357061D02*
X13838533Y-13366585D01*
X13838533Y-13366585D02*
X13848057Y-13357061D01*
X13848057Y-13357061D02*
X13838533Y-13347537D01*
X13838533Y-13347537D02*
X13838533Y-13366585D01*
X13962342Y-13547537D02*
X13943295Y-13538013D01*
X13943295Y-13538013D02*
X13933771Y-13518966D01*
X13933771Y-13518966D02*
X13933771Y-13347537D01*
X14067104Y-13547537D02*
X14048057Y-13538013D01*
X14048057Y-13538013D02*
X14038533Y-13518966D01*
X14038533Y-13518966D02*
X14038533Y-13347537D01*
X14295676Y-13547537D02*
X14295676Y-13347537D01*
X14295676Y-13347537D02*
X14362342Y-13490394D01*
X14362342Y-13490394D02*
X14429009Y-13347537D01*
X14429009Y-13347537D02*
X14429009Y-13547537D01*
X14609961Y-13547537D02*
X14609961Y-13442775D01*
X14609961Y-13442775D02*
X14600438Y-13423728D01*
X14600438Y-13423728D02*
X14581390Y-13414204D01*
X14581390Y-13414204D02*
X14543295Y-13414204D01*
X14543295Y-13414204D02*
X14524247Y-13423728D01*
X14609961Y-13538013D02*
X14590914Y-13547537D01*
X14590914Y-13547537D02*
X14543295Y-13547537D01*
X14543295Y-13547537D02*
X14524247Y-13538013D01*
X14524247Y-13538013D02*
X14514723Y-13518966D01*
X14514723Y-13518966D02*
X14514723Y-13499918D01*
X14514723Y-13499918D02*
X14524247Y-13480870D01*
X14524247Y-13480870D02*
X14543295Y-13471347D01*
X14543295Y-13471347D02*
X14590914Y-13471347D01*
X14590914Y-13471347D02*
X14609961Y-13461823D01*
X14705200Y-13414204D02*
X14705200Y-13614204D01*
X14705200Y-13423728D02*
X14724247Y-13414204D01*
X14724247Y-13414204D02*
X14762342Y-13414204D01*
X14762342Y-13414204D02*
X14781390Y-13423728D01*
X14781390Y-13423728D02*
X14790914Y-13433251D01*
X14790914Y-13433251D02*
X14800438Y-13452299D01*
X14800438Y-13452299D02*
X14800438Y-13509442D01*
X14800438Y-13509442D02*
X14790914Y-13528489D01*
X14790914Y-13528489D02*
X14781390Y-13538013D01*
X14781390Y-13538013D02*
X14762342Y-13547537D01*
X14762342Y-13547537D02*
X14724247Y-13547537D01*
X14724247Y-13547537D02*
X14705200Y-13538013D01*
X14886152Y-13528489D02*
X14895676Y-13538013D01*
X14895676Y-13538013D02*
X14886152Y-13547537D01*
X14886152Y-13547537D02*
X14876628Y-13538013D01*
X14876628Y-13538013D02*
X14886152Y-13528489D01*
X14886152Y-13528489D02*
X14886152Y-13547537D01*
X14886152Y-13423728D02*
X14895676Y-13433251D01*
X14895676Y-13433251D02*
X14886152Y-13442775D01*
X14886152Y-13442775D02*
X14876628Y-13433251D01*
X14876628Y-13433251D02*
X14886152Y-13423728D01*
X14886152Y-13423728D02*
X14886152Y-13442775D01*
D12*
X13223947Y-13861053D02*
X13253947Y-13891053D01*
X13253947Y-13861053D02*
X13223947Y-13891053D01*
D11*
X13552819Y-13767537D02*
X13571866Y-13767537D01*
X13571866Y-13767537D02*
X13590914Y-13777061D01*
X13590914Y-13777061D02*
X13600438Y-13786585D01*
X13600438Y-13786585D02*
X13609961Y-13805632D01*
X13609961Y-13805632D02*
X13619485Y-13843728D01*
X13619485Y-13843728D02*
X13619485Y-13891347D01*
X13619485Y-13891347D02*
X13609961Y-13929442D01*
X13609961Y-13929442D02*
X13600438Y-13948489D01*
X13600438Y-13948489D02*
X13590914Y-13958013D01*
X13590914Y-13958013D02*
X13571866Y-13967537D01*
X13571866Y-13967537D02*
X13552819Y-13967537D01*
X13552819Y-13967537D02*
X13533771Y-13958013D01*
X13533771Y-13958013D02*
X13524247Y-13948489D01*
X13524247Y-13948489D02*
X13514723Y-13929442D01*
X13514723Y-13929442D02*
X13505200Y-13891347D01*
X13505200Y-13891347D02*
X13505200Y-13843728D01*
X13505200Y-13843728D02*
X13514723Y-13805632D01*
X13514723Y-13805632D02*
X13524247Y-13786585D01*
X13524247Y-13786585D02*
X13533771Y-13777061D01*
X13533771Y-13777061D02*
X13552819Y-13767537D01*
X13705200Y-13948489D02*
X13714723Y-13958013D01*
X13714723Y-13958013D02*
X13705200Y-13967537D01*
X13705200Y-13967537D02*
X13695676Y-13958013D01*
X13695676Y-13958013D02*
X13705200Y-13948489D01*
X13705200Y-13948489D02*
X13705200Y-13967537D01*
X13781390Y-13767537D02*
X13905200Y-13767537D01*
X13905200Y-13767537D02*
X13838533Y-13843728D01*
X13838533Y-13843728D02*
X13867104Y-13843728D01*
X13867104Y-13843728D02*
X13886152Y-13853251D01*
X13886152Y-13853251D02*
X13895676Y-13862775D01*
X13895676Y-13862775D02*
X13905200Y-13881823D01*
X13905200Y-13881823D02*
X13905200Y-13929442D01*
X13905200Y-13929442D02*
X13895676Y-13948489D01*
X13895676Y-13948489D02*
X13886152Y-13958013D01*
X13886152Y-13958013D02*
X13867104Y-13967537D01*
X13867104Y-13967537D02*
X13809961Y-13967537D01*
X13809961Y-13967537D02*
X13790914Y-13958013D01*
X13790914Y-13958013D02*
X13781390Y-13948489D01*
X14029009Y-13767537D02*
X14048057Y-13767537D01*
X14048057Y-13767537D02*
X14067104Y-13777061D01*
X14067104Y-13777061D02*
X14076628Y-13786585D01*
X14076628Y-13786585D02*
X14086152Y-13805632D01*
X14086152Y-13805632D02*
X14095676Y-13843728D01*
X14095676Y-13843728D02*
X14095676Y-13891347D01*
X14095676Y-13891347D02*
X14086152Y-13929442D01*
X14086152Y-13929442D02*
X14076628Y-13948489D01*
X14076628Y-13948489D02*
X14067104Y-13958013D01*
X14067104Y-13958013D02*
X14048057Y-13967537D01*
X14048057Y-13967537D02*
X14029009Y-13967537D01*
X14029009Y-13967537D02*
X14009961Y-13958013D01*
X14009961Y-13958013D02*
X14000438Y-13948489D01*
X14000438Y-13948489D02*
X13990914Y-13929442D01*
X13990914Y-13929442D02*
X13981390Y-13891347D01*
X13981390Y-13891347D02*
X13981390Y-13843728D01*
X13981390Y-13843728D02*
X13990914Y-13805632D01*
X13990914Y-13805632D02*
X14000438Y-13786585D01*
X14000438Y-13786585D02*
X14009961Y-13777061D01*
X14009961Y-13777061D02*
X14029009Y-13767537D01*
X14219485Y-13767537D02*
X14238533Y-13767537D01*
X14238533Y-13767537D02*
X14257581Y-13777061D01*
X14257581Y-13777061D02*
X14267104Y-13786585D01*
X14267104Y-13786585D02*
X14276628Y-13805632D01*
X14276628Y-13805632D02*
X14286152Y-13843728D01*
X14286152Y-13843728D02*
X14286152Y-13891347D01*
X14286152Y-13891347D02*
X14276628Y-13929442D01*
X14276628Y-13929442D02*
X14267104Y-13948489D01*
X14267104Y-13948489D02*
X14257581Y-13958013D01*
X14257581Y-13958013D02*
X14238533Y-13967537D01*
X14238533Y-13967537D02*
X14219485Y-13967537D01*
X14219485Y-13967537D02*
X14200438Y-13958013D01*
X14200438Y-13958013D02*
X14190914Y-13948489D01*
X14190914Y-13948489D02*
X14181390Y-13929442D01*
X14181390Y-13929442D02*
X14171866Y-13891347D01*
X14171866Y-13891347D02*
X14171866Y-13843728D01*
X14171866Y-13843728D02*
X14181390Y-13805632D01*
X14181390Y-13805632D02*
X14190914Y-13786585D01*
X14190914Y-13786585D02*
X14200438Y-13777061D01*
X14200438Y-13777061D02*
X14219485Y-13767537D01*
X14371866Y-13967537D02*
X14371866Y-13834204D01*
X14371866Y-13853251D02*
X14381390Y-13843728D01*
X14381390Y-13843728D02*
X14400438Y-13834204D01*
X14400438Y-13834204D02*
X14429009Y-13834204D01*
X14429009Y-13834204D02*
X14448057Y-13843728D01*
X14448057Y-13843728D02*
X14457581Y-13862775D01*
X14457581Y-13862775D02*
X14457581Y-13967537D01*
X14457581Y-13862775D02*
X14467104Y-13843728D01*
X14467104Y-13843728D02*
X14486152Y-13834204D01*
X14486152Y-13834204D02*
X14514723Y-13834204D01*
X14514723Y-13834204D02*
X14533771Y-13843728D01*
X14533771Y-13843728D02*
X14543295Y-13862775D01*
X14543295Y-13862775D02*
X14543295Y-13967537D01*
X14638533Y-13967537D02*
X14638533Y-13834204D01*
X14638533Y-13853251D02*
X14648057Y-13843728D01*
X14648057Y-13843728D02*
X14667104Y-13834204D01*
X14667104Y-13834204D02*
X14695676Y-13834204D01*
X14695676Y-13834204D02*
X14714723Y-13843728D01*
X14714723Y-13843728D02*
X14724247Y-13862775D01*
X14724247Y-13862775D02*
X14724247Y-13967537D01*
X14724247Y-13862775D02*
X14733771Y-13843728D01*
X14733771Y-13843728D02*
X14752819Y-13834204D01*
X14752819Y-13834204D02*
X14781390Y-13834204D01*
X14781390Y-13834204D02*
X14800438Y-13843728D01*
X14800438Y-13843728D02*
X14809962Y-13862775D01*
X14809962Y-13862775D02*
X14809962Y-13967537D01*
X15200438Y-13758013D02*
X15029009Y-14015156D01*
X15457581Y-13767537D02*
X15476628Y-13767537D01*
X15476628Y-13767537D02*
X15495676Y-13777061D01*
X15495676Y-13777061D02*
X15505200Y-13786585D01*
X15505200Y-13786585D02*
X15514724Y-13805632D01*
X15514724Y-13805632D02*
X15524247Y-13843728D01*
X15524247Y-13843728D02*
X15524247Y-13891347D01*
X15524247Y-13891347D02*
X15514724Y-13929442D01*
X15514724Y-13929442D02*
X15505200Y-13948489D01*
X15505200Y-13948489D02*
X15495676Y-13958013D01*
X15495676Y-13958013D02*
X15476628Y-13967537D01*
X15476628Y-13967537D02*
X15457581Y-13967537D01*
X15457581Y-13967537D02*
X15438533Y-13958013D01*
X15438533Y-13958013D02*
X15429009Y-13948489D01*
X15429009Y-13948489D02*
X15419485Y-13929442D01*
X15419485Y-13929442D02*
X15409962Y-13891347D01*
X15409962Y-13891347D02*
X15409962Y-13843728D01*
X15409962Y-13843728D02*
X15419485Y-13805632D01*
X15419485Y-13805632D02*
X15429009Y-13786585D01*
X15429009Y-13786585D02*
X15438533Y-13777061D01*
X15438533Y-13777061D02*
X15457581Y-13767537D01*
X15609962Y-13948489D02*
X15619485Y-13958013D01*
X15619485Y-13958013D02*
X15609962Y-13967537D01*
X15609962Y-13967537D02*
X15600438Y-13958013D01*
X15600438Y-13958013D02*
X15609962Y-13948489D01*
X15609962Y-13948489D02*
X15609962Y-13967537D01*
X15743295Y-13767537D02*
X15762343Y-13767537D01*
X15762343Y-13767537D02*
X15781390Y-13777061D01*
X15781390Y-13777061D02*
X15790914Y-13786585D01*
X15790914Y-13786585D02*
X15800438Y-13805632D01*
X15800438Y-13805632D02*
X15809962Y-13843728D01*
X15809962Y-13843728D02*
X15809962Y-13891347D01*
X15809962Y-13891347D02*
X15800438Y-13929442D01*
X15800438Y-13929442D02*
X15790914Y-13948489D01*
X15790914Y-13948489D02*
X15781390Y-13958013D01*
X15781390Y-13958013D02*
X15762343Y-13967537D01*
X15762343Y-13967537D02*
X15743295Y-13967537D01*
X15743295Y-13967537D02*
X15724247Y-13958013D01*
X15724247Y-13958013D02*
X15714724Y-13948489D01*
X15714724Y-13948489D02*
X15705200Y-13929442D01*
X15705200Y-13929442D02*
X15695676Y-13891347D01*
X15695676Y-13891347D02*
X15695676Y-13843728D01*
X15695676Y-13843728D02*
X15705200Y-13805632D01*
X15705200Y-13805632D02*
X15714724Y-13786585D01*
X15714724Y-13786585D02*
X15724247Y-13777061D01*
X15724247Y-13777061D02*
X15743295Y-13767537D01*
X16000438Y-13967537D02*
X15886152Y-13967537D01*
X15943295Y-13967537D02*
X15943295Y-13767537D01*
X15943295Y-13767537D02*
X15924247Y-13796109D01*
X15924247Y-13796109D02*
X15905200Y-13815156D01*
X15905200Y-13815156D02*
X15886152Y-13824680D01*
X16190914Y-13967537D02*
X16076628Y-13967537D01*
X16133771Y-13967537D02*
X16133771Y-13767537D01*
X16133771Y-13767537D02*
X16114724Y-13796109D01*
X16114724Y-13796109D02*
X16095676Y-13815156D01*
X16095676Y-13815156D02*
X16076628Y-13824680D01*
X16305200Y-13853251D02*
X16286152Y-13843728D01*
X16286152Y-13843728D02*
X16276628Y-13834204D01*
X16276628Y-13834204D02*
X16267105Y-13815156D01*
X16267105Y-13815156D02*
X16267105Y-13805632D01*
X16267105Y-13805632D02*
X16276628Y-13786585D01*
X16276628Y-13786585D02*
X16286152Y-13777061D01*
X16286152Y-13777061D02*
X16305200Y-13767537D01*
X16305200Y-13767537D02*
X16343295Y-13767537D01*
X16343295Y-13767537D02*
X16362343Y-13777061D01*
X16362343Y-13777061D02*
X16371866Y-13786585D01*
X16371866Y-13786585D02*
X16381390Y-13805632D01*
X16381390Y-13805632D02*
X16381390Y-13815156D01*
X16381390Y-13815156D02*
X16371866Y-13834204D01*
X16371866Y-13834204D02*
X16362343Y-13843728D01*
X16362343Y-13843728D02*
X16343295Y-13853251D01*
X16343295Y-13853251D02*
X16305200Y-13853251D01*
X16305200Y-13853251D02*
X16286152Y-13862775D01*
X16286152Y-13862775D02*
X16276628Y-13872299D01*
X16276628Y-13872299D02*
X16267105Y-13891347D01*
X16267105Y-13891347D02*
X16267105Y-13929442D01*
X16267105Y-13929442D02*
X16276628Y-13948489D01*
X16276628Y-13948489D02*
X16286152Y-13958013D01*
X16286152Y-13958013D02*
X16305200Y-13967537D01*
X16305200Y-13967537D02*
X16343295Y-13967537D01*
X16343295Y-13967537D02*
X16362343Y-13958013D01*
X16362343Y-13958013D02*
X16371866Y-13948489D01*
X16371866Y-13948489D02*
X16381390Y-13929442D01*
X16381390Y-13929442D02*
X16381390Y-13891347D01*
X16381390Y-13891347D02*
X16371866Y-13872299D01*
X16371866Y-13872299D02*
X16362343Y-13862775D01*
X16362343Y-13862775D02*
X16343295Y-13853251D01*
X16457581Y-13767537D02*
X16457581Y-13805632D01*
X16533771Y-13767537D02*
X16533771Y-13805632D01*
X16829010Y-14043728D02*
X16819486Y-14034204D01*
X16819486Y-14034204D02*
X16800438Y-14005632D01*
X16800438Y-14005632D02*
X16790914Y-13986585D01*
X16790914Y-13986585D02*
X16781390Y-13958013D01*
X16781390Y-13958013D02*
X16771867Y-13910394D01*
X16771867Y-13910394D02*
X16771867Y-13872299D01*
X16771867Y-13872299D02*
X16781390Y-13824680D01*
X16781390Y-13824680D02*
X16790914Y-13796109D01*
X16790914Y-13796109D02*
X16800438Y-13777061D01*
X16800438Y-13777061D02*
X16819486Y-13748489D01*
X16819486Y-13748489D02*
X16829010Y-13738966D01*
X16886152Y-13767537D02*
X17009962Y-13767537D01*
X17009962Y-13767537D02*
X16943295Y-13843728D01*
X16943295Y-13843728D02*
X16971867Y-13843728D01*
X16971867Y-13843728D02*
X16990914Y-13853251D01*
X16990914Y-13853251D02*
X17000438Y-13862775D01*
X17000438Y-13862775D02*
X17009962Y-13881823D01*
X17009962Y-13881823D02*
X17009962Y-13929442D01*
X17009962Y-13929442D02*
X17000438Y-13948489D01*
X17000438Y-13948489D02*
X16990914Y-13958013D01*
X16990914Y-13958013D02*
X16971867Y-13967537D01*
X16971867Y-13967537D02*
X16914724Y-13967537D01*
X16914724Y-13967537D02*
X16895676Y-13958013D01*
X16895676Y-13958013D02*
X16886152Y-13948489D01*
X17105200Y-13967537D02*
X17143295Y-13967537D01*
X17143295Y-13967537D02*
X17162343Y-13958013D01*
X17162343Y-13958013D02*
X17171867Y-13948489D01*
X17171867Y-13948489D02*
X17190914Y-13919918D01*
X17190914Y-13919918D02*
X17200438Y-13881823D01*
X17200438Y-13881823D02*
X17200438Y-13805632D01*
X17200438Y-13805632D02*
X17190914Y-13786585D01*
X17190914Y-13786585D02*
X17181390Y-13777061D01*
X17181390Y-13777061D02*
X17162343Y-13767537D01*
X17162343Y-13767537D02*
X17124248Y-13767537D01*
X17124248Y-13767537D02*
X17105200Y-13777061D01*
X17105200Y-13777061D02*
X17095676Y-13786585D01*
X17095676Y-13786585D02*
X17086152Y-13805632D01*
X17086152Y-13805632D02*
X17086152Y-13853251D01*
X17086152Y-13853251D02*
X17095676Y-13872299D01*
X17095676Y-13872299D02*
X17105200Y-13881823D01*
X17105200Y-13881823D02*
X17124248Y-13891347D01*
X17124248Y-13891347D02*
X17162343Y-13891347D01*
X17162343Y-13891347D02*
X17181390Y-13881823D01*
X17181390Y-13881823D02*
X17190914Y-13872299D01*
X17190914Y-13872299D02*
X17200438Y-13853251D01*
X17438533Y-13967537D02*
X17438533Y-13767537D01*
X17524248Y-13967537D02*
X17524248Y-13862775D01*
X17524248Y-13862775D02*
X17514724Y-13843728D01*
X17514724Y-13843728D02*
X17495676Y-13834204D01*
X17495676Y-13834204D02*
X17467105Y-13834204D01*
X17467105Y-13834204D02*
X17448057Y-13843728D01*
X17448057Y-13843728D02*
X17438533Y-13853251D01*
X17648057Y-13967537D02*
X17629010Y-13958013D01*
X17629010Y-13958013D02*
X17619486Y-13948489D01*
X17619486Y-13948489D02*
X17609962Y-13929442D01*
X17609962Y-13929442D02*
X17609962Y-13872299D01*
X17609962Y-13872299D02*
X17619486Y-13853251D01*
X17619486Y-13853251D02*
X17629010Y-13843728D01*
X17629010Y-13843728D02*
X17648057Y-13834204D01*
X17648057Y-13834204D02*
X17676629Y-13834204D01*
X17676629Y-13834204D02*
X17695676Y-13843728D01*
X17695676Y-13843728D02*
X17705200Y-13853251D01*
X17705200Y-13853251D02*
X17714724Y-13872299D01*
X17714724Y-13872299D02*
X17714724Y-13929442D01*
X17714724Y-13929442D02*
X17705200Y-13948489D01*
X17705200Y-13948489D02*
X17695676Y-13958013D01*
X17695676Y-13958013D02*
X17676629Y-13967537D01*
X17676629Y-13967537D02*
X17648057Y-13967537D01*
X17829010Y-13967537D02*
X17809962Y-13958013D01*
X17809962Y-13958013D02*
X17800438Y-13938966D01*
X17800438Y-13938966D02*
X17800438Y-13767537D01*
X17981391Y-13958013D02*
X17962343Y-13967537D01*
X17962343Y-13967537D02*
X17924248Y-13967537D01*
X17924248Y-13967537D02*
X17905200Y-13958013D01*
X17905200Y-13958013D02*
X17895676Y-13938966D01*
X17895676Y-13938966D02*
X17895676Y-13862775D01*
X17895676Y-13862775D02*
X17905200Y-13843728D01*
X17905200Y-13843728D02*
X17924248Y-13834204D01*
X17924248Y-13834204D02*
X17962343Y-13834204D01*
X17962343Y-13834204D02*
X17981391Y-13843728D01*
X17981391Y-13843728D02*
X17990914Y-13862775D01*
X17990914Y-13862775D02*
X17990914Y-13881823D01*
X17990914Y-13881823D02*
X17895676Y-13900870D01*
X18067105Y-13958013D02*
X18086152Y-13967537D01*
X18086152Y-13967537D02*
X18124248Y-13967537D01*
X18124248Y-13967537D02*
X18143295Y-13958013D01*
X18143295Y-13958013D02*
X18152819Y-13938966D01*
X18152819Y-13938966D02*
X18152819Y-13929442D01*
X18152819Y-13929442D02*
X18143295Y-13910394D01*
X18143295Y-13910394D02*
X18124248Y-13900870D01*
X18124248Y-13900870D02*
X18095676Y-13900870D01*
X18095676Y-13900870D02*
X18076629Y-13891347D01*
X18076629Y-13891347D02*
X18067105Y-13872299D01*
X18067105Y-13872299D02*
X18067105Y-13862775D01*
X18067105Y-13862775D02*
X18076629Y-13843728D01*
X18076629Y-13843728D02*
X18095676Y-13834204D01*
X18095676Y-13834204D02*
X18124248Y-13834204D01*
X18124248Y-13834204D02*
X18143295Y-13843728D01*
X18219486Y-14043728D02*
X18229010Y-14034204D01*
X18229010Y-14034204D02*
X18248057Y-14005632D01*
X18248057Y-14005632D02*
X18257581Y-13986585D01*
X18257581Y-13986585D02*
X18267105Y-13958013D01*
X18267105Y-13958013D02*
X18276629Y-13910394D01*
X18276629Y-13910394D02*
X18276629Y-13872299D01*
X18276629Y-13872299D02*
X18267105Y-13824680D01*
X18267105Y-13824680D02*
X18257581Y-13796109D01*
X18257581Y-13796109D02*
X18248057Y-13777061D01*
X18248057Y-13777061D02*
X18229010Y-13748489D01*
X18229010Y-13748489D02*
X18219486Y-13738966D01*
D12*
X13253947Y-14140053D02*
G75*
G02*
X13193947Y-14140053I-30000J0D01*
G01*
X13193947Y-14140053D02*
G75*
G02*
X13253947Y-14140053I30000J0D01*
G01*
D11*
X13552819Y-14031537D02*
X13571866Y-14031537D01*
X13571866Y-14031537D02*
X13590914Y-14041061D01*
X13590914Y-14041061D02*
X13600438Y-14050585D01*
X13600438Y-14050585D02*
X13609961Y-14069632D01*
X13609961Y-14069632D02*
X13619485Y-14107728D01*
X13619485Y-14107728D02*
X13619485Y-14155347D01*
X13619485Y-14155347D02*
X13609961Y-14193442D01*
X13609961Y-14193442D02*
X13600438Y-14212489D01*
X13600438Y-14212489D02*
X13590914Y-14222013D01*
X13590914Y-14222013D02*
X13571866Y-14231537D01*
X13571866Y-14231537D02*
X13552819Y-14231537D01*
X13552819Y-14231537D02*
X13533771Y-14222013D01*
X13533771Y-14222013D02*
X13524247Y-14212489D01*
X13524247Y-14212489D02*
X13514723Y-14193442D01*
X13514723Y-14193442D02*
X13505200Y-14155347D01*
X13505200Y-14155347D02*
X13505200Y-14107728D01*
X13505200Y-14107728D02*
X13514723Y-14069632D01*
X13514723Y-14069632D02*
X13524247Y-14050585D01*
X13524247Y-14050585D02*
X13533771Y-14041061D01*
X13533771Y-14041061D02*
X13552819Y-14031537D01*
X13705200Y-14212489D02*
X13714723Y-14222013D01*
X13714723Y-14222013D02*
X13705200Y-14231537D01*
X13705200Y-14231537D02*
X13695676Y-14222013D01*
X13695676Y-14222013D02*
X13705200Y-14212489D01*
X13705200Y-14212489D02*
X13705200Y-14231537D01*
X13886152Y-14031537D02*
X13848057Y-14031537D01*
X13848057Y-14031537D02*
X13829009Y-14041061D01*
X13829009Y-14041061D02*
X13819485Y-14050585D01*
X13819485Y-14050585D02*
X13800438Y-14079156D01*
X13800438Y-14079156D02*
X13790914Y-14117251D01*
X13790914Y-14117251D02*
X13790914Y-14193442D01*
X13790914Y-14193442D02*
X13800438Y-14212489D01*
X13800438Y-14212489D02*
X13809961Y-14222013D01*
X13809961Y-14222013D02*
X13829009Y-14231537D01*
X13829009Y-14231537D02*
X13867104Y-14231537D01*
X13867104Y-14231537D02*
X13886152Y-14222013D01*
X13886152Y-14222013D02*
X13895676Y-14212489D01*
X13895676Y-14212489D02*
X13905200Y-14193442D01*
X13905200Y-14193442D02*
X13905200Y-14145823D01*
X13905200Y-14145823D02*
X13895676Y-14126775D01*
X13895676Y-14126775D02*
X13886152Y-14117251D01*
X13886152Y-14117251D02*
X13867104Y-14107728D01*
X13867104Y-14107728D02*
X13829009Y-14107728D01*
X13829009Y-14107728D02*
X13809961Y-14117251D01*
X13809961Y-14117251D02*
X13800438Y-14126775D01*
X13800438Y-14126775D02*
X13790914Y-14145823D01*
X14029009Y-14031537D02*
X14048057Y-14031537D01*
X14048057Y-14031537D02*
X14067104Y-14041061D01*
X14067104Y-14041061D02*
X14076628Y-14050585D01*
X14076628Y-14050585D02*
X14086152Y-14069632D01*
X14086152Y-14069632D02*
X14095676Y-14107728D01*
X14095676Y-14107728D02*
X14095676Y-14155347D01*
X14095676Y-14155347D02*
X14086152Y-14193442D01*
X14086152Y-14193442D02*
X14076628Y-14212489D01*
X14076628Y-14212489D02*
X14067104Y-14222013D01*
X14067104Y-14222013D02*
X14048057Y-14231537D01*
X14048057Y-14231537D02*
X14029009Y-14231537D01*
X14029009Y-14231537D02*
X14009961Y-14222013D01*
X14009961Y-14222013D02*
X14000438Y-14212489D01*
X14000438Y-14212489D02*
X13990914Y-14193442D01*
X13990914Y-14193442D02*
X13981390Y-14155347D01*
X13981390Y-14155347D02*
X13981390Y-14107728D01*
X13981390Y-14107728D02*
X13990914Y-14069632D01*
X13990914Y-14069632D02*
X14000438Y-14050585D01*
X14000438Y-14050585D02*
X14009961Y-14041061D01*
X14009961Y-14041061D02*
X14029009Y-14031537D01*
X14219485Y-14031537D02*
X14238533Y-14031537D01*
X14238533Y-14031537D02*
X14257581Y-14041061D01*
X14257581Y-14041061D02*
X14267104Y-14050585D01*
X14267104Y-14050585D02*
X14276628Y-14069632D01*
X14276628Y-14069632D02*
X14286152Y-14107728D01*
X14286152Y-14107728D02*
X14286152Y-14155347D01*
X14286152Y-14155347D02*
X14276628Y-14193442D01*
X14276628Y-14193442D02*
X14267104Y-14212489D01*
X14267104Y-14212489D02*
X14257581Y-14222013D01*
X14257581Y-14222013D02*
X14238533Y-14231537D01*
X14238533Y-14231537D02*
X14219485Y-14231537D01*
X14219485Y-14231537D02*
X14200438Y-14222013D01*
X14200438Y-14222013D02*
X14190914Y-14212489D01*
X14190914Y-14212489D02*
X14181390Y-14193442D01*
X14181390Y-14193442D02*
X14171866Y-14155347D01*
X14171866Y-14155347D02*
X14171866Y-14107728D01*
X14171866Y-14107728D02*
X14181390Y-14069632D01*
X14181390Y-14069632D02*
X14190914Y-14050585D01*
X14190914Y-14050585D02*
X14200438Y-14041061D01*
X14200438Y-14041061D02*
X14219485Y-14031537D01*
X14371866Y-14231537D02*
X14371866Y-14098204D01*
X14371866Y-14117251D02*
X14381390Y-14107728D01*
X14381390Y-14107728D02*
X14400438Y-14098204D01*
X14400438Y-14098204D02*
X14429009Y-14098204D01*
X14429009Y-14098204D02*
X14448057Y-14107728D01*
X14448057Y-14107728D02*
X14457581Y-14126775D01*
X14457581Y-14126775D02*
X14457581Y-14231537D01*
X14457581Y-14126775D02*
X14467104Y-14107728D01*
X14467104Y-14107728D02*
X14486152Y-14098204D01*
X14486152Y-14098204D02*
X14514723Y-14098204D01*
X14514723Y-14098204D02*
X14533771Y-14107728D01*
X14533771Y-14107728D02*
X14543295Y-14126775D01*
X14543295Y-14126775D02*
X14543295Y-14231537D01*
X14638533Y-14231537D02*
X14638533Y-14098204D01*
X14638533Y-14117251D02*
X14648057Y-14107728D01*
X14648057Y-14107728D02*
X14667104Y-14098204D01*
X14667104Y-14098204D02*
X14695676Y-14098204D01*
X14695676Y-14098204D02*
X14714723Y-14107728D01*
X14714723Y-14107728D02*
X14724247Y-14126775D01*
X14724247Y-14126775D02*
X14724247Y-14231537D01*
X14724247Y-14126775D02*
X14733771Y-14107728D01*
X14733771Y-14107728D02*
X14752819Y-14098204D01*
X14752819Y-14098204D02*
X14781390Y-14098204D01*
X14781390Y-14098204D02*
X14800438Y-14107728D01*
X14800438Y-14107728D02*
X14809962Y-14126775D01*
X14809962Y-14126775D02*
X14809962Y-14231537D01*
X15200438Y-14022013D02*
X15029009Y-14279156D01*
X15457581Y-14031537D02*
X15476628Y-14031537D01*
X15476628Y-14031537D02*
X15495676Y-14041061D01*
X15495676Y-14041061D02*
X15505200Y-14050585D01*
X15505200Y-14050585D02*
X15514724Y-14069632D01*
X15514724Y-14069632D02*
X15524247Y-14107728D01*
X15524247Y-14107728D02*
X15524247Y-14155347D01*
X15524247Y-14155347D02*
X15514724Y-14193442D01*
X15514724Y-14193442D02*
X15505200Y-14212489D01*
X15505200Y-14212489D02*
X15495676Y-14222013D01*
X15495676Y-14222013D02*
X15476628Y-14231537D01*
X15476628Y-14231537D02*
X15457581Y-14231537D01*
X15457581Y-14231537D02*
X15438533Y-14222013D01*
X15438533Y-14222013D02*
X15429009Y-14212489D01*
X15429009Y-14212489D02*
X15419485Y-14193442D01*
X15419485Y-14193442D02*
X15409962Y-14155347D01*
X15409962Y-14155347D02*
X15409962Y-14107728D01*
X15409962Y-14107728D02*
X15419485Y-14069632D01*
X15419485Y-14069632D02*
X15429009Y-14050585D01*
X15429009Y-14050585D02*
X15438533Y-14041061D01*
X15438533Y-14041061D02*
X15457581Y-14031537D01*
X15609962Y-14212489D02*
X15619485Y-14222013D01*
X15619485Y-14222013D02*
X15609962Y-14231537D01*
X15609962Y-14231537D02*
X15600438Y-14222013D01*
X15600438Y-14222013D02*
X15609962Y-14212489D01*
X15609962Y-14212489D02*
X15609962Y-14231537D01*
X15743295Y-14031537D02*
X15762343Y-14031537D01*
X15762343Y-14031537D02*
X15781390Y-14041061D01*
X15781390Y-14041061D02*
X15790914Y-14050585D01*
X15790914Y-14050585D02*
X15800438Y-14069632D01*
X15800438Y-14069632D02*
X15809962Y-14107728D01*
X15809962Y-14107728D02*
X15809962Y-14155347D01*
X15809962Y-14155347D02*
X15800438Y-14193442D01*
X15800438Y-14193442D02*
X15790914Y-14212489D01*
X15790914Y-14212489D02*
X15781390Y-14222013D01*
X15781390Y-14222013D02*
X15762343Y-14231537D01*
X15762343Y-14231537D02*
X15743295Y-14231537D01*
X15743295Y-14231537D02*
X15724247Y-14222013D01*
X15724247Y-14222013D02*
X15714724Y-14212489D01*
X15714724Y-14212489D02*
X15705200Y-14193442D01*
X15705200Y-14193442D02*
X15695676Y-14155347D01*
X15695676Y-14155347D02*
X15695676Y-14107728D01*
X15695676Y-14107728D02*
X15705200Y-14069632D01*
X15705200Y-14069632D02*
X15714724Y-14050585D01*
X15714724Y-14050585D02*
X15724247Y-14041061D01*
X15724247Y-14041061D02*
X15743295Y-14031537D01*
X15886152Y-14050585D02*
X15895676Y-14041061D01*
X15895676Y-14041061D02*
X15914724Y-14031537D01*
X15914724Y-14031537D02*
X15962343Y-14031537D01*
X15962343Y-14031537D02*
X15981390Y-14041061D01*
X15981390Y-14041061D02*
X15990914Y-14050585D01*
X15990914Y-14050585D02*
X16000438Y-14069632D01*
X16000438Y-14069632D02*
X16000438Y-14088680D01*
X16000438Y-14088680D02*
X15990914Y-14117251D01*
X15990914Y-14117251D02*
X15876628Y-14231537D01*
X15876628Y-14231537D02*
X16000438Y-14231537D01*
X16067105Y-14031537D02*
X16190914Y-14031537D01*
X16190914Y-14031537D02*
X16124247Y-14107728D01*
X16124247Y-14107728D02*
X16152819Y-14107728D01*
X16152819Y-14107728D02*
X16171866Y-14117251D01*
X16171866Y-14117251D02*
X16181390Y-14126775D01*
X16181390Y-14126775D02*
X16190914Y-14145823D01*
X16190914Y-14145823D02*
X16190914Y-14193442D01*
X16190914Y-14193442D02*
X16181390Y-14212489D01*
X16181390Y-14212489D02*
X16171866Y-14222013D01*
X16171866Y-14222013D02*
X16152819Y-14231537D01*
X16152819Y-14231537D02*
X16095676Y-14231537D01*
X16095676Y-14231537D02*
X16076628Y-14222013D01*
X16076628Y-14222013D02*
X16067105Y-14212489D01*
X16362343Y-14031537D02*
X16324247Y-14031537D01*
X16324247Y-14031537D02*
X16305200Y-14041061D01*
X16305200Y-14041061D02*
X16295676Y-14050585D01*
X16295676Y-14050585D02*
X16276628Y-14079156D01*
X16276628Y-14079156D02*
X16267105Y-14117251D01*
X16267105Y-14117251D02*
X16267105Y-14193442D01*
X16267105Y-14193442D02*
X16276628Y-14212489D01*
X16276628Y-14212489D02*
X16286152Y-14222013D01*
X16286152Y-14222013D02*
X16305200Y-14231537D01*
X16305200Y-14231537D02*
X16343295Y-14231537D01*
X16343295Y-14231537D02*
X16362343Y-14222013D01*
X16362343Y-14222013D02*
X16371866Y-14212489D01*
X16371866Y-14212489D02*
X16381390Y-14193442D01*
X16381390Y-14193442D02*
X16381390Y-14145823D01*
X16381390Y-14145823D02*
X16371866Y-14126775D01*
X16371866Y-14126775D02*
X16362343Y-14117251D01*
X16362343Y-14117251D02*
X16343295Y-14107728D01*
X16343295Y-14107728D02*
X16305200Y-14107728D01*
X16305200Y-14107728D02*
X16286152Y-14117251D01*
X16286152Y-14117251D02*
X16276628Y-14126775D01*
X16276628Y-14126775D02*
X16267105Y-14145823D01*
X16457581Y-14031537D02*
X16457581Y-14069632D01*
X16533771Y-14031537D02*
X16533771Y-14069632D01*
X16829010Y-14307728D02*
X16819486Y-14298204D01*
X16819486Y-14298204D02*
X16800438Y-14269632D01*
X16800438Y-14269632D02*
X16790914Y-14250585D01*
X16790914Y-14250585D02*
X16781390Y-14222013D01*
X16781390Y-14222013D02*
X16771867Y-14174394D01*
X16771867Y-14174394D02*
X16771867Y-14136299D01*
X16771867Y-14136299D02*
X16781390Y-14088680D01*
X16781390Y-14088680D02*
X16790914Y-14060109D01*
X16790914Y-14060109D02*
X16800438Y-14041061D01*
X16800438Y-14041061D02*
X16819486Y-14012489D01*
X16819486Y-14012489D02*
X16829010Y-14002966D01*
X16943295Y-14031537D02*
X16962343Y-14031537D01*
X16962343Y-14031537D02*
X16981390Y-14041061D01*
X16981390Y-14041061D02*
X16990914Y-14050585D01*
X16990914Y-14050585D02*
X17000438Y-14069632D01*
X17000438Y-14069632D02*
X17009962Y-14107728D01*
X17009962Y-14107728D02*
X17009962Y-14155347D01*
X17009962Y-14155347D02*
X17000438Y-14193442D01*
X17000438Y-14193442D02*
X16990914Y-14212489D01*
X16990914Y-14212489D02*
X16981390Y-14222013D01*
X16981390Y-14222013D02*
X16962343Y-14231537D01*
X16962343Y-14231537D02*
X16943295Y-14231537D01*
X16943295Y-14231537D02*
X16924248Y-14222013D01*
X16924248Y-14222013D02*
X16914724Y-14212489D01*
X16914724Y-14212489D02*
X16905200Y-14193442D01*
X16905200Y-14193442D02*
X16895676Y-14155347D01*
X16895676Y-14155347D02*
X16895676Y-14107728D01*
X16895676Y-14107728D02*
X16905200Y-14069632D01*
X16905200Y-14069632D02*
X16914724Y-14050585D01*
X16914724Y-14050585D02*
X16924248Y-14041061D01*
X16924248Y-14041061D02*
X16943295Y-14031537D01*
X17248057Y-14231537D02*
X17248057Y-14031537D01*
X17333771Y-14231537D02*
X17333771Y-14126775D01*
X17333771Y-14126775D02*
X17324248Y-14107728D01*
X17324248Y-14107728D02*
X17305200Y-14098204D01*
X17305200Y-14098204D02*
X17276629Y-14098204D01*
X17276629Y-14098204D02*
X17257581Y-14107728D01*
X17257581Y-14107728D02*
X17248057Y-14117251D01*
X17457581Y-14231537D02*
X17438533Y-14222013D01*
X17438533Y-14222013D02*
X17429010Y-14212489D01*
X17429010Y-14212489D02*
X17419486Y-14193442D01*
X17419486Y-14193442D02*
X17419486Y-14136299D01*
X17419486Y-14136299D02*
X17429010Y-14117251D01*
X17429010Y-14117251D02*
X17438533Y-14107728D01*
X17438533Y-14107728D02*
X17457581Y-14098204D01*
X17457581Y-14098204D02*
X17486152Y-14098204D01*
X17486152Y-14098204D02*
X17505200Y-14107728D01*
X17505200Y-14107728D02*
X17514724Y-14117251D01*
X17514724Y-14117251D02*
X17524248Y-14136299D01*
X17524248Y-14136299D02*
X17524248Y-14193442D01*
X17524248Y-14193442D02*
X17514724Y-14212489D01*
X17514724Y-14212489D02*
X17505200Y-14222013D01*
X17505200Y-14222013D02*
X17486152Y-14231537D01*
X17486152Y-14231537D02*
X17457581Y-14231537D01*
X17638533Y-14231537D02*
X17619486Y-14222013D01*
X17619486Y-14222013D02*
X17609962Y-14202966D01*
X17609962Y-14202966D02*
X17609962Y-14031537D01*
X17790914Y-14222013D02*
X17771867Y-14231537D01*
X17771867Y-14231537D02*
X17733771Y-14231537D01*
X17733771Y-14231537D02*
X17714724Y-14222013D01*
X17714724Y-14222013D02*
X17705200Y-14202966D01*
X17705200Y-14202966D02*
X17705200Y-14126775D01*
X17705200Y-14126775D02*
X17714724Y-14107728D01*
X17714724Y-14107728D02*
X17733771Y-14098204D01*
X17733771Y-14098204D02*
X17771867Y-14098204D01*
X17771867Y-14098204D02*
X17790914Y-14107728D01*
X17790914Y-14107728D02*
X17800438Y-14126775D01*
X17800438Y-14126775D02*
X17800438Y-14145823D01*
X17800438Y-14145823D02*
X17705200Y-14164870D01*
X17876629Y-14222013D02*
X17895676Y-14231537D01*
X17895676Y-14231537D02*
X17933771Y-14231537D01*
X17933771Y-14231537D02*
X17952819Y-14222013D01*
X17952819Y-14222013D02*
X17962343Y-14202966D01*
X17962343Y-14202966D02*
X17962343Y-14193442D01*
X17962343Y-14193442D02*
X17952819Y-14174394D01*
X17952819Y-14174394D02*
X17933771Y-14164870D01*
X17933771Y-14164870D02*
X17905200Y-14164870D01*
X17905200Y-14164870D02*
X17886152Y-14155347D01*
X17886152Y-14155347D02*
X17876629Y-14136299D01*
X17876629Y-14136299D02*
X17876629Y-14126775D01*
X17876629Y-14126775D02*
X17886152Y-14107728D01*
X17886152Y-14107728D02*
X17905200Y-14098204D01*
X17905200Y-14098204D02*
X17933771Y-14098204D01*
X17933771Y-14098204D02*
X17952819Y-14107728D01*
X18200438Y-14155347D02*
X18352819Y-14155347D01*
X18276629Y-14231537D02*
X18276629Y-14079156D01*
X18686153Y-14098204D02*
X18686153Y-14231537D01*
X18638533Y-14022013D02*
X18590914Y-14164870D01*
X18590914Y-14164870D02*
X18714724Y-14164870D01*
X18933772Y-14222013D02*
X18952819Y-14231537D01*
X18952819Y-14231537D02*
X18990914Y-14231537D01*
X18990914Y-14231537D02*
X19009962Y-14222013D01*
X19009962Y-14222013D02*
X19019486Y-14202966D01*
X19019486Y-14202966D02*
X19019486Y-14193442D01*
X19019486Y-14193442D02*
X19009962Y-14174394D01*
X19009962Y-14174394D02*
X18990914Y-14164870D01*
X18990914Y-14164870D02*
X18962343Y-14164870D01*
X18962343Y-14164870D02*
X18943295Y-14155347D01*
X18943295Y-14155347D02*
X18933772Y-14136299D01*
X18933772Y-14136299D02*
X18933772Y-14126775D01*
X18933772Y-14126775D02*
X18943295Y-14107728D01*
X18943295Y-14107728D02*
X18962343Y-14098204D01*
X18962343Y-14098204D02*
X18990914Y-14098204D01*
X18990914Y-14098204D02*
X19009962Y-14107728D01*
X19133772Y-14231537D02*
X19114724Y-14222013D01*
X19114724Y-14222013D02*
X19105200Y-14202966D01*
X19105200Y-14202966D02*
X19105200Y-14031537D01*
X19238534Y-14231537D02*
X19219486Y-14222013D01*
X19219486Y-14222013D02*
X19209962Y-14212489D01*
X19209962Y-14212489D02*
X19200438Y-14193442D01*
X19200438Y-14193442D02*
X19200438Y-14136299D01*
X19200438Y-14136299D02*
X19209962Y-14117251D01*
X19209962Y-14117251D02*
X19219486Y-14107728D01*
X19219486Y-14107728D02*
X19238534Y-14098204D01*
X19238534Y-14098204D02*
X19267105Y-14098204D01*
X19267105Y-14098204D02*
X19286153Y-14107728D01*
X19286153Y-14107728D02*
X19295676Y-14117251D01*
X19295676Y-14117251D02*
X19305200Y-14136299D01*
X19305200Y-14136299D02*
X19305200Y-14193442D01*
X19305200Y-14193442D02*
X19295676Y-14212489D01*
X19295676Y-14212489D02*
X19286153Y-14222013D01*
X19286153Y-14222013D02*
X19267105Y-14231537D01*
X19267105Y-14231537D02*
X19238534Y-14231537D01*
X19362343Y-14098204D02*
X19438534Y-14098204D01*
X19390915Y-14031537D02*
X19390915Y-14202966D01*
X19390915Y-14202966D02*
X19400438Y-14222013D01*
X19400438Y-14222013D02*
X19419486Y-14231537D01*
X19419486Y-14231537D02*
X19438534Y-14231537D01*
X19495676Y-14222013D02*
X19514724Y-14231537D01*
X19514724Y-14231537D02*
X19552819Y-14231537D01*
X19552819Y-14231537D02*
X19571867Y-14222013D01*
X19571867Y-14222013D02*
X19581391Y-14202966D01*
X19581391Y-14202966D02*
X19581391Y-14193442D01*
X19581391Y-14193442D02*
X19571867Y-14174394D01*
X19571867Y-14174394D02*
X19552819Y-14164870D01*
X19552819Y-14164870D02*
X19524248Y-14164870D01*
X19524248Y-14164870D02*
X19505200Y-14155347D01*
X19505200Y-14155347D02*
X19495676Y-14136299D01*
X19495676Y-14136299D02*
X19495676Y-14126775D01*
X19495676Y-14126775D02*
X19505200Y-14107728D01*
X19505200Y-14107728D02*
X19524248Y-14098204D01*
X19524248Y-14098204D02*
X19552819Y-14098204D01*
X19552819Y-14098204D02*
X19571867Y-14107728D01*
X19648057Y-14307728D02*
X19657581Y-14298204D01*
X19657581Y-14298204D02*
X19676629Y-14269632D01*
X19676629Y-14269632D02*
X19686153Y-14250585D01*
X19686153Y-14250585D02*
X19695676Y-14222013D01*
X19695676Y-14222013D02*
X19705200Y-14174394D01*
X19705200Y-14174394D02*
X19705200Y-14136299D01*
X19705200Y-14136299D02*
X19695676Y-14088680D01*
X19695676Y-14088680D02*
X19686153Y-14060109D01*
X19686153Y-14060109D02*
X19676629Y-14041061D01*
X19676629Y-14041061D02*
X19657581Y-14012489D01*
X19657581Y-14012489D02*
X19648057Y-14002966D01*
M02*
