G04 #@! TF.GenerationSoftware,KiCad,Pcbnew,9.0.3*
G04 #@! TF.CreationDate,2025-08-27T19:30:38-05:00*
G04 #@! TF.ProjectId,stm32card,73746d33-3263-4617-9264-2e6b69636164,rev?*
G04 #@! TF.SameCoordinates,Original*
G04 #@! TF.FileFunction,Copper,L1,Top*
G04 #@! TF.FilePolarity,Positive*
%FSLAX46Y46*%
G04 Gerber Fmt 4.6, Leading zero omitted, Abs format (unit mm)*
G04 Created by KiCad (PCBNEW 9.0.3) date 2025-08-27 19:30:38*
%MOMM*%
%LPD*%
G01*
G04 APERTURE LIST*
G04 Aperture macros list*
%AMRoundRect*
0 Rectangle with rounded corners*
0 $1 Rounding radius*
0 $2 $3 $4 $5 $6 $7 $8 $9 X,Y pos of 4 corners*
0 Add a 4 corners polygon primitive as box body*
4,1,4,$2,$3,$4,$5,$6,$7,$8,$9,$2,$3,0*
0 Add four circle primitives for the rounded corners*
1,1,$1+$1,$2,$3*
1,1,$1+$1,$4,$5*
1,1,$1+$1,$6,$7*
1,1,$1+$1,$8,$9*
0 Add four rect primitives between the rounded corners*
20,1,$1+$1,$2,$3,$4,$5,0*
20,1,$1+$1,$4,$5,$6,$7,0*
20,1,$1+$1,$6,$7,$8,$9,0*
20,1,$1+$1,$8,$9,$2,$3,0*%
G04 Aperture macros list end*
G04 #@! TA.AperFunction,SMDPad,CuDef*
%ADD10RoundRect,0.225000X-0.225000X-0.250000X0.225000X-0.250000X0.225000X0.250000X-0.225000X0.250000X0*%
G04 #@! TD*
G04 #@! TA.AperFunction,SMDPad,CuDef*
%ADD11RoundRect,0.225000X0.225000X0.250000X-0.225000X0.250000X-0.225000X-0.250000X0.225000X-0.250000X0*%
G04 #@! TD*
G04 #@! TA.AperFunction,SMDPad,CuDef*
%ADD12R,1.800000X1.200000*%
G04 #@! TD*
G04 #@! TA.AperFunction,SMDPad,CuDef*
%ADD13RoundRect,0.150000X-0.587500X-0.150000X0.587500X-0.150000X0.587500X0.150000X-0.587500X0.150000X0*%
G04 #@! TD*
G04 #@! TA.AperFunction,SMDPad,CuDef*
%ADD14RoundRect,0.225000X-0.250000X0.225000X-0.250000X-0.225000X0.250000X-0.225000X0.250000X0.225000X0*%
G04 #@! TD*
G04 #@! TA.AperFunction,SMDPad,CuDef*
%ADD15R,3.000000X5.500000*%
G04 #@! TD*
G04 #@! TA.AperFunction,SMDPad,CuDef*
%ADD16RoundRect,0.200000X-0.275000X0.200000X-0.275000X-0.200000X0.275000X-0.200000X0.275000X0.200000X0*%
G04 #@! TD*
G04 #@! TA.AperFunction,SMDPad,CuDef*
%ADD17RoundRect,0.200000X0.275000X-0.200000X0.275000X0.200000X-0.275000X0.200000X-0.275000X-0.200000X0*%
G04 #@! TD*
G04 #@! TA.AperFunction,SMDPad,CuDef*
%ADD18RoundRect,0.200000X0.200000X0.275000X-0.200000X0.275000X-0.200000X-0.275000X0.200000X-0.275000X0*%
G04 #@! TD*
G04 #@! TA.AperFunction,SMDPad,CuDef*
%ADD19R,3.500000X2.350000*%
G04 #@! TD*
G04 #@! TA.AperFunction,SMDPad,CuDef*
%ADD20C,2.000000*%
G04 #@! TD*
G04 #@! TA.AperFunction,SMDPad,CuDef*
%ADD21RoundRect,0.250000X-0.250000X-0.475000X0.250000X-0.475000X0.250000X0.475000X-0.250000X0.475000X0*%
G04 #@! TD*
G04 #@! TA.AperFunction,SMDPad,CuDef*
%ADD22RoundRect,0.200000X-0.200000X-0.275000X0.200000X-0.275000X0.200000X0.275000X-0.200000X0.275000X0*%
G04 #@! TD*
G04 #@! TA.AperFunction,SMDPad,CuDef*
%ADD23RoundRect,0.112500X0.112500X-0.187500X0.112500X0.187500X-0.112500X0.187500X-0.112500X-0.187500X0*%
G04 #@! TD*
G04 #@! TA.AperFunction,SMDPad,CuDef*
%ADD24RoundRect,0.250000X0.650000X-1.000000X0.650000X1.000000X-0.650000X1.000000X-0.650000X-1.000000X0*%
G04 #@! TD*
G04 #@! TA.AperFunction,SMDPad,CuDef*
%ADD25R,2.200000X0.400000*%
G04 #@! TD*
G04 #@! TA.AperFunction,SMDPad,CuDef*
%ADD26RoundRect,0.100000X-0.225000X-0.100000X0.225000X-0.100000X0.225000X0.100000X-0.225000X0.100000X0*%
G04 #@! TD*
G04 #@! TA.AperFunction,SMDPad,CuDef*
%ADD27R,6.450000X5.300000*%
G04 #@! TD*
G04 #@! TA.AperFunction,SMDPad,CuDef*
%ADD28RoundRect,0.150000X0.150000X-0.587500X0.150000X0.587500X-0.150000X0.587500X-0.150000X-0.587500X0*%
G04 #@! TD*
G04 #@! TA.AperFunction,SMDPad,CuDef*
%ADD29R,0.700000X1.200000*%
G04 #@! TD*
G04 #@! TA.AperFunction,SMDPad,CuDef*
%ADD30R,0.760000X1.200000*%
G04 #@! TD*
G04 #@! TA.AperFunction,SMDPad,CuDef*
%ADD31R,0.800000X1.200000*%
G04 #@! TD*
G04 #@! TA.AperFunction,ComponentPad*
%ADD32O,1.100000X1.700000*%
G04 #@! TD*
G04 #@! TA.AperFunction,SMDPad,CuDef*
%ADD33RoundRect,0.243750X0.456250X-0.243750X0.456250X0.243750X-0.456250X0.243750X-0.456250X-0.243750X0*%
G04 #@! TD*
G04 #@! TA.AperFunction,SMDPad,CuDef*
%ADD34R,1.070000X0.530000*%
G04 #@! TD*
G04 #@! TA.AperFunction,SMDPad,CuDef*
%ADD35RoundRect,0.150000X0.587500X0.150000X-0.587500X0.150000X-0.587500X-0.150000X0.587500X-0.150000X0*%
G04 #@! TD*
G04 #@! TA.AperFunction,SMDPad,CuDef*
%ADD36R,1.200000X0.270000*%
G04 #@! TD*
G04 #@! TA.AperFunction,SMDPad,CuDef*
%ADD37R,0.270000X1.200000*%
G04 #@! TD*
G04 #@! TA.AperFunction,SMDPad,CuDef*
%ADD38R,1.200000X1.800000*%
G04 #@! TD*
G04 #@! TA.AperFunction,SMDPad,CuDef*
%ADD39RoundRect,0.218750X0.256250X-0.218750X0.256250X0.218750X-0.256250X0.218750X-0.256250X-0.218750X0*%
G04 #@! TD*
G04 #@! TA.AperFunction,SMDPad,CuDef*
%ADD40R,0.600000X1.000000*%
G04 #@! TD*
G04 #@! TA.AperFunction,SMDPad,CuDef*
%ADD41R,1.200000X0.600000*%
G04 #@! TD*
G04 #@! TA.AperFunction,SMDPad,CuDef*
%ADD42R,2.400000X3.300000*%
G04 #@! TD*
G04 #@! TA.AperFunction,SMDPad,CuDef*
%ADD43RoundRect,0.100000X-0.100000X0.225000X-0.100000X-0.225000X0.100000X-0.225000X0.100000X0.225000X0*%
G04 #@! TD*
G04 #@! TA.AperFunction,SMDPad,CuDef*
%ADD44RoundRect,0.250000X1.000000X0.650000X-1.000000X0.650000X-1.000000X-0.650000X1.000000X-0.650000X0*%
G04 #@! TD*
G04 #@! TA.AperFunction,SMDPad,CuDef*
%ADD45R,1.200000X0.500000*%
G04 #@! TD*
G04 #@! TA.AperFunction,ViaPad*
%ADD46C,0.600000*%
G04 #@! TD*
G04 #@! TA.AperFunction,Conductor*
%ADD47C,1.000000*%
G04 #@! TD*
G04 #@! TA.AperFunction,Conductor*
%ADD48C,0.350000*%
G04 #@! TD*
G04 #@! TA.AperFunction,Conductor*
%ADD49C,0.250000*%
G04 #@! TD*
G04 #@! TA.AperFunction,Conductor*
%ADD50C,0.500000*%
G04 #@! TD*
G04 #@! TA.AperFunction,Conductor*
%ADD51C,0.200000*%
G04 #@! TD*
G04 APERTURE END LIST*
D10*
X186594442Y-122410210D03*
X188144442Y-122410210D03*
D11*
X168458966Y-118260712D03*
X166908966Y-118260712D03*
D10*
X158188180Y-107195974D03*
X159738180Y-107195974D03*
D12*
X202951133Y-104665534D03*
X210951133Y-104665534D03*
X202951133Y-109165534D03*
X210951133Y-109165534D03*
D10*
X186498159Y-120535261D03*
X188048159Y-120535261D03*
D13*
X163141120Y-116686961D03*
X163141120Y-118586961D03*
X165016120Y-117636961D03*
D14*
X159771321Y-108741969D03*
X159771321Y-110291969D03*
D15*
X158924572Y-102960590D03*
X154264572Y-102960590D03*
D16*
X148272523Y-93543316D03*
X148272523Y-95193316D03*
D17*
X161212267Y-117283573D03*
X161212267Y-115633573D03*
D14*
X148265612Y-90338172D03*
X148265612Y-91888172D03*
D18*
X161041538Y-127096790D03*
X159391538Y-127096790D03*
D19*
X151018909Y-89007494D03*
X151018909Y-83307494D03*
D20*
X164428408Y-125040799D03*
X164428408Y-129563379D03*
D21*
X150718124Y-96870191D03*
X152618124Y-96870191D03*
D22*
X174374351Y-129940450D03*
X176024351Y-129940450D03*
X158138180Y-111847959D03*
X159788180Y-111847959D03*
D10*
X176162472Y-126786884D03*
X177712472Y-126786884D03*
D23*
X156386756Y-120670500D03*
X156386756Y-118570500D03*
D24*
X150343692Y-117402201D03*
X150343692Y-113402201D03*
D25*
X174559466Y-111035534D03*
X174559466Y-110335534D03*
X174559466Y-109635534D03*
X174559466Y-108935534D03*
X174559466Y-108235534D03*
X174559466Y-107535534D03*
X174559466Y-106835534D03*
X174559466Y-106135534D03*
X174559466Y-105435534D03*
X174559466Y-104735534D03*
X174559466Y-104035534D03*
X174559466Y-103335534D03*
X174559466Y-102635534D03*
D10*
X178467267Y-124578690D03*
X180017267Y-124578690D03*
D18*
X171606612Y-129942382D03*
X169956612Y-129942382D03*
D20*
X138326311Y-91051939D03*
D26*
X158155852Y-120238248D03*
X158155852Y-120888248D03*
X158155852Y-121538248D03*
X160055852Y-121538248D03*
X160055852Y-120888248D03*
X160055852Y-120238248D03*
D16*
X142831133Y-89980534D03*
X142831133Y-91630534D03*
D18*
X156601572Y-97546454D03*
X154951572Y-97546454D03*
D22*
X145769655Y-97587083D03*
X147419655Y-97587083D03*
D10*
X181710179Y-116398550D03*
X183260179Y-116398550D03*
X158188180Y-113473015D03*
X159738180Y-113473015D03*
D22*
X159028030Y-86593369D03*
X160678030Y-86593369D03*
D18*
X154307133Y-124486382D03*
X152657133Y-124486382D03*
D16*
X158155040Y-108691969D03*
X158155040Y-110341969D03*
D11*
X180017267Y-121658690D03*
X178467267Y-121658690D03*
D22*
X183488159Y-120535261D03*
X185138159Y-120535261D03*
X161559017Y-122220255D03*
X163209017Y-122220255D03*
D10*
X186482004Y-118016635D03*
X188032004Y-118016635D03*
D27*
X161087776Y-90140150D03*
X216827776Y-90140150D03*
D28*
X159208406Y-125258345D03*
X161108406Y-125258345D03*
X160158406Y-123383345D03*
D12*
X210951133Y-113132201D03*
X218951133Y-113132201D03*
X210951133Y-117632201D03*
X218951133Y-117632201D03*
D10*
X178467267Y-123118690D03*
X180017267Y-123118690D03*
D12*
X194951133Y-113132201D03*
X202951133Y-113132201D03*
X194951133Y-117632201D03*
X202951133Y-117632201D03*
D22*
X161689189Y-120596440D03*
X163339189Y-120596440D03*
D10*
X164761789Y-120488899D03*
X166311789Y-120488899D03*
D22*
X183584442Y-122410210D03*
X185234442Y-122410210D03*
D10*
X154004818Y-111915048D03*
X155554818Y-111915048D03*
D13*
X158379151Y-97346136D03*
X158379151Y-99246136D03*
X160254151Y-98296136D03*
D29*
X142574466Y-88210000D03*
D30*
X140554466Y-88210000D03*
D31*
X139324466Y-88210000D03*
D29*
X141574466Y-88210000D03*
D30*
X143594466Y-88210000D03*
D31*
X144824466Y-88210000D03*
D32*
X146394466Y-88130000D03*
X146394466Y-84330000D03*
X137754466Y-84330000D03*
X137754466Y-88130000D03*
D33*
X146287603Y-91915281D03*
X146287603Y-90040281D03*
D22*
X183472004Y-118016635D03*
X185122004Y-118016635D03*
D20*
X180271664Y-127327070D03*
D34*
X153629818Y-106919279D03*
X153629818Y-107869279D03*
X153629818Y-108819279D03*
X155929818Y-108819279D03*
X155929818Y-107869279D03*
X155929818Y-106919279D03*
D20*
X218169305Y-94883903D03*
D10*
X168864228Y-116560375D03*
X170414228Y-116560375D03*
D35*
X160229235Y-95781538D03*
X160229235Y-93881538D03*
X158354235Y-94831538D03*
D18*
X163796670Y-97394465D03*
X162146670Y-97394465D03*
D10*
X164569017Y-122220255D03*
X166119017Y-122220255D03*
D36*
X176341495Y-125291194D03*
X176341495Y-124791194D03*
X176341495Y-124291194D03*
X176341495Y-123791194D03*
X176341495Y-123291194D03*
X176341495Y-122791194D03*
X176341495Y-122291194D03*
X176341495Y-121791194D03*
X176341495Y-121291194D03*
X176341495Y-120791194D03*
X176341495Y-120291194D03*
X176341495Y-119791194D03*
D37*
X174991495Y-118441194D03*
X174491495Y-118441194D03*
X173991495Y-118441194D03*
X173491495Y-118441194D03*
X172991495Y-118441194D03*
X172491495Y-118441194D03*
X171991495Y-118441194D03*
X171491495Y-118441194D03*
X170991495Y-118441194D03*
X170491495Y-118441194D03*
X169991495Y-118441194D03*
X169491495Y-118441194D03*
D36*
X168141495Y-119791194D03*
X168141495Y-120291194D03*
X168141495Y-120791194D03*
X168141495Y-121291194D03*
X168141495Y-121791194D03*
X168141495Y-122291194D03*
X168141495Y-122791194D03*
X168141495Y-123291194D03*
X168141495Y-123791194D03*
X168141495Y-124291194D03*
X168141495Y-124791194D03*
X168141495Y-125291194D03*
D37*
X169491495Y-126641194D03*
X169991495Y-126641194D03*
X170491495Y-126641194D03*
X170991495Y-126641194D03*
X171491495Y-126641194D03*
X171991495Y-126641194D03*
X172491495Y-126641194D03*
X172991495Y-126641194D03*
X173491495Y-126641194D03*
X173991495Y-126641194D03*
X174491495Y-126641194D03*
X174991495Y-126641194D03*
D10*
X154607149Y-116828160D03*
X156157149Y-116828160D03*
D22*
X158167759Y-118711221D03*
X159817759Y-118711221D03*
D38*
X146357799Y-127848868D03*
X146357799Y-119848868D03*
X150857799Y-127848868D03*
X150857799Y-119848868D03*
D12*
X210951133Y-126098868D03*
X202951133Y-126098868D03*
X210951133Y-121598868D03*
X202951133Y-121598868D03*
D39*
X144507305Y-91561135D03*
X144507305Y-89986135D03*
D22*
X153954818Y-110310463D03*
X155604818Y-110310463D03*
D40*
X154476567Y-120794558D03*
X153526567Y-120794558D03*
X152576567Y-120794558D03*
X152576567Y-122994558D03*
X154476567Y-122994558D03*
D41*
X156493169Y-94952776D03*
X156493169Y-93682776D03*
X156493169Y-92402776D03*
X156493169Y-91132776D03*
X150673169Y-91132776D03*
X150673169Y-92402776D03*
X150673169Y-93682776D03*
X150673169Y-94952776D03*
D42*
X153583169Y-93042776D03*
D18*
X167345504Y-116264585D03*
X165695504Y-116264585D03*
D14*
X157124998Y-88594361D03*
X157124998Y-90144361D03*
D22*
X178700179Y-116398550D03*
X180350179Y-116398550D03*
D16*
X157597011Y-124014185D03*
X157597011Y-125664185D03*
D43*
X159575680Y-115376388D03*
X158925680Y-115376388D03*
X158275680Y-115376388D03*
X158275680Y-117276388D03*
X158925680Y-117276388D03*
X159575680Y-117276388D03*
D44*
X159921580Y-84036310D03*
X155921580Y-84036310D03*
D20*
X167611415Y-129563379D03*
D16*
X172991495Y-128364551D03*
X172991495Y-130014551D03*
D10*
X174424341Y-128485724D03*
X175974341Y-128485724D03*
D14*
X155695101Y-123373307D03*
X155695101Y-124923307D03*
D11*
X154681287Y-119188736D03*
X153131287Y-119188736D03*
D38*
X146357799Y-110915534D03*
X146357799Y-102915534D03*
X150857799Y-110915534D03*
X150857799Y-102915534D03*
D11*
X167991495Y-126525753D03*
X166441495Y-126525753D03*
D22*
X152629250Y-125997645D03*
X154279250Y-125997645D03*
D45*
X153429818Y-113589341D03*
X153429818Y-114539341D03*
X153429818Y-115489341D03*
X156129818Y-115489341D03*
X156129818Y-113589341D03*
D16*
X141331133Y-89980534D03*
X141331133Y-91630534D03*
D46*
X152733145Y-91722173D03*
X165465476Y-126728439D03*
X159063103Y-114460088D03*
X175096858Y-121986131D03*
X169308377Y-124587949D03*
X156894461Y-111915048D03*
X177516540Y-116398550D03*
X153583169Y-93042776D03*
X182290644Y-120535261D03*
X160764492Y-107195974D03*
X155690517Y-126299413D03*
X152704834Y-94368118D03*
X170102016Y-128697514D03*
X142831133Y-92805534D03*
X182194361Y-122410210D03*
X176171148Y-106135534D03*
X152965298Y-118172420D03*
X182306799Y-118016635D03*
X156196469Y-89651848D03*
X157340350Y-120669500D03*
X158991448Y-118105482D03*
X144821338Y-86750857D03*
X154444650Y-91732484D03*
X156779032Y-99246136D03*
X153357396Y-116219587D03*
X141331133Y-92805534D03*
X152658799Y-109382017D03*
X174229170Y-125388031D03*
X172947746Y-102648389D03*
X216827776Y-86625361D03*
X158972471Y-111099870D03*
X165634415Y-118586961D03*
X149420397Y-92893553D03*
X161020748Y-121316201D03*
X139328918Y-86794310D03*
X181015522Y-123111621D03*
X177215329Y-128485724D03*
X170414228Y-115484524D03*
X154408893Y-94360958D03*
D47*
X216827776Y-90140150D02*
X216827776Y-93542374D01*
D48*
X174559466Y-102635534D02*
X172960601Y-102635534D01*
D49*
X166238809Y-126728439D02*
X166441495Y-126525753D01*
X158379151Y-99246136D02*
X156779032Y-99246136D01*
D50*
X155695101Y-124923307D02*
X155695101Y-126294829D01*
D49*
X170414228Y-115484524D02*
X170414228Y-116560375D01*
X180017267Y-123118690D02*
X181266139Y-123118690D01*
D50*
X153526567Y-120794558D02*
X153526567Y-119584016D01*
D49*
X165634415Y-118586961D02*
X166582717Y-118586961D01*
X177215329Y-128485724D02*
X175974341Y-128485724D01*
X180017267Y-124578690D02*
X180017267Y-123118690D01*
X167991495Y-124791194D02*
X167197094Y-124791194D01*
D48*
X159063103Y-114460088D02*
X159063103Y-114148092D01*
D50*
X139324466Y-88210000D02*
X139324466Y-86798762D01*
X152877818Y-107869279D02*
X152643818Y-108103279D01*
X155695101Y-124923307D02*
X155353588Y-124923307D01*
X137754466Y-88130000D02*
X139244466Y-88130000D01*
D49*
X159771321Y-110291969D02*
X159771321Y-111831100D01*
D50*
X155695101Y-126294829D02*
X155690517Y-126299413D01*
X153526567Y-119584016D02*
X153131287Y-119188736D01*
D49*
X169991495Y-118291194D02*
X169991495Y-116983108D01*
X161559017Y-121854470D02*
X161020748Y-121316201D01*
X159788180Y-111847959D02*
X159720560Y-111847959D01*
X161755036Y-120581913D02*
X161020748Y-121316201D01*
X159771321Y-110301020D02*
X158972471Y-111099870D01*
X165465476Y-126728439D02*
X166238809Y-126728439D01*
X169991495Y-116983108D02*
X170414228Y-116560375D01*
D50*
X152643818Y-109367036D02*
X152658799Y-109382017D01*
X153131287Y-119188736D02*
X153131287Y-118338409D01*
D49*
X152618124Y-94454828D02*
X152704834Y-94368118D01*
D50*
X137754466Y-84330000D02*
X137754466Y-88130000D01*
X153131287Y-118338409D02*
X152965298Y-118172420D01*
D49*
X178700179Y-116398550D02*
X177516540Y-116398550D01*
D48*
X158925680Y-115376388D02*
X158925680Y-114597511D01*
D49*
X180017267Y-123118690D02*
X180017267Y-121658690D01*
X159771321Y-110291969D02*
X159771321Y-110301020D01*
X166582717Y-118586961D02*
X166908966Y-118260712D01*
X161559017Y-122220255D02*
X161559017Y-121854470D01*
D50*
X144904466Y-88130000D02*
X144824466Y-88210000D01*
X139244466Y-88130000D02*
X139324466Y-88210000D01*
X153429818Y-115489341D02*
X153429818Y-116147165D01*
D47*
X216827776Y-93542374D02*
X218169305Y-94883903D01*
D48*
X158155852Y-120888248D02*
X157559098Y-120888248D01*
D49*
X161755036Y-120550263D02*
X161755036Y-120581913D01*
D51*
X141331133Y-91630534D02*
X141331133Y-92805534D01*
D49*
X166441495Y-125546793D02*
X166441495Y-126525753D01*
X159771321Y-111831100D02*
X159788180Y-111847959D01*
X152618124Y-96870191D02*
X152618124Y-94454828D01*
X175291795Y-121791194D02*
X175096858Y-121986131D01*
D50*
X153629818Y-107869279D02*
X152877818Y-107869279D01*
X156493169Y-93682776D02*
X155087075Y-93682776D01*
X144824466Y-86753985D02*
X144824466Y-88210000D01*
D49*
X174491495Y-125650356D02*
X174229170Y-125388031D01*
D51*
X142831133Y-91630534D02*
X142831133Y-92805534D01*
D50*
X156493169Y-91132776D02*
X156493169Y-90776190D01*
D49*
X170102016Y-128697514D02*
X170102016Y-129796978D01*
X183488159Y-120535261D02*
X182290644Y-120535261D01*
D50*
X139324466Y-86798762D02*
X139328918Y-86794310D01*
D49*
X174491495Y-126791194D02*
X174491495Y-125650356D01*
D48*
X157559098Y-120888248D02*
X157340350Y-120669500D01*
D49*
X159788180Y-113423015D02*
X159738180Y-113473015D01*
D50*
X146394466Y-88130000D02*
X146394466Y-84330000D01*
D49*
X176491495Y-121791194D02*
X175291795Y-121791194D01*
D50*
X156493169Y-90776190D02*
X157124998Y-90144361D01*
X152643818Y-108103279D02*
X152643818Y-109367036D01*
D49*
X159597187Y-118711221D02*
X158991448Y-118105482D01*
D50*
X155353588Y-124923307D02*
X154279250Y-125997645D01*
X156196469Y-89651848D02*
X156632485Y-89651848D01*
X153429818Y-116147165D02*
X153357396Y-116219587D01*
X156632485Y-89651848D02*
X157124998Y-90144361D01*
D49*
X163141120Y-118586961D02*
X165634415Y-118586961D01*
X154607149Y-116828160D02*
X154607149Y-116666672D01*
D50*
X155554818Y-111915048D02*
X156894461Y-111915048D01*
X144821338Y-86750857D02*
X144824466Y-86753985D01*
D49*
X159817759Y-118711221D02*
X159597187Y-118711221D01*
D50*
X159738180Y-107195974D02*
X160764492Y-107195974D01*
X146394466Y-84330000D02*
X137754466Y-84330000D01*
D47*
X216827776Y-90140150D02*
X216827776Y-86625361D01*
D48*
X159063103Y-114148092D02*
X159738180Y-113473015D01*
D50*
X155087075Y-93682776D02*
X154408893Y-94360958D01*
D49*
X170102016Y-129796978D02*
X169956612Y-129942382D01*
X183584442Y-122410210D02*
X182194361Y-122410210D01*
X156487894Y-127096790D02*
X155690517Y-126299413D01*
X148265612Y-91888172D02*
X148415016Y-91888172D01*
X167197094Y-124791194D02*
X166441495Y-125546793D01*
D48*
X159788180Y-111847959D02*
X159746426Y-111847959D01*
D49*
X169105132Y-124791194D02*
X169308377Y-124587949D01*
D48*
X172960601Y-102635534D02*
X172947746Y-102648389D01*
D49*
X154607149Y-116666672D02*
X153429818Y-115489341D01*
D50*
X146394466Y-88130000D02*
X144904466Y-88130000D01*
D48*
X158925680Y-114597511D02*
X159063103Y-114460088D01*
D49*
X159391538Y-127096790D02*
X156487894Y-127096790D01*
X159788180Y-111847959D02*
X159788180Y-113423015D01*
X167991495Y-124791194D02*
X169105132Y-124791194D01*
X159720560Y-111847959D02*
X158972471Y-111099870D01*
D48*
X174559466Y-106135534D02*
X176171148Y-106135534D01*
D49*
X183472004Y-118016635D02*
X182306799Y-118016635D01*
X148415016Y-91888172D02*
X149420397Y-92893553D01*
X169934377Y-124847247D02*
X169934377Y-119656308D01*
X172625075Y-121291194D02*
X176491495Y-121291194D01*
X210951133Y-113132201D02*
X218951133Y-113132201D01*
D48*
X146357799Y-127848868D02*
X146357799Y-119848868D01*
D49*
X167991495Y-125291194D02*
X169490430Y-125291194D01*
X169491495Y-119213427D02*
X171569262Y-121291194D01*
X202951133Y-104665534D02*
X174629466Y-104665534D01*
X174629466Y-104665534D02*
X174559466Y-104735534D01*
X169934377Y-119656308D02*
X169491495Y-119213427D01*
X220177133Y-118558201D02*
X212636466Y-126098868D01*
X178467267Y-123118690D02*
X178467267Y-121658690D01*
D50*
X174559466Y-103335534D02*
X176061466Y-103335534D01*
X176061466Y-104735534D02*
X174559466Y-104735534D01*
D49*
X178099771Y-121291194D02*
X178467267Y-121658690D01*
X218951133Y-113132201D02*
X220177133Y-114358201D01*
X169491495Y-118291194D02*
X169491495Y-117187642D01*
D50*
X176440902Y-104356098D02*
X176061466Y-104735534D01*
D49*
X169491495Y-118291194D02*
X168489448Y-118291194D01*
X174569625Y-128485724D02*
X176024351Y-129940450D01*
X167991495Y-125291194D02*
X167991495Y-126525753D01*
X199109551Y-129940450D02*
X176024351Y-129940450D01*
X212177133Y-105891534D02*
X212177133Y-111906201D01*
X212177133Y-111906201D02*
X210951133Y-113132201D01*
X146357799Y-127848868D02*
X148072310Y-129563379D01*
D48*
X174559466Y-103335534D02*
X173082516Y-103335534D01*
D49*
X194951133Y-113132201D02*
X202951133Y-113132201D01*
X168489448Y-118291194D02*
X168458966Y-118260712D01*
X212636466Y-126098868D02*
X210951133Y-126098868D01*
D50*
X176061466Y-103335534D02*
X176440902Y-103714970D01*
D49*
X202951133Y-126098868D02*
X199109551Y-129940450D01*
X174991495Y-126791194D02*
X174991495Y-123657614D01*
X210951133Y-104665534D02*
X212177133Y-105891534D01*
D50*
X167991495Y-126525753D02*
X164953869Y-129563379D01*
D49*
X202951133Y-104665534D02*
X210951133Y-104665534D01*
X174991495Y-123657614D02*
X172625075Y-121291194D01*
D48*
X146357799Y-102915534D02*
X146357799Y-110915534D01*
D49*
X174424341Y-128485724D02*
X174991495Y-127918570D01*
D48*
X161212267Y-115205783D02*
X161212267Y-115633573D01*
D49*
X174424341Y-128485724D02*
X174569625Y-128485724D01*
D50*
X176440902Y-103714970D02*
X176440902Y-104356098D01*
D48*
X173082516Y-103335534D02*
X161212267Y-115205783D01*
D49*
X202951133Y-113132201D02*
X210951133Y-113132201D01*
X169491495Y-117187642D02*
X168864228Y-116560375D01*
D48*
X146357799Y-110915534D02*
X146357799Y-119848868D01*
D49*
X171569262Y-121291194D02*
X172625075Y-121291194D01*
X176158162Y-126791194D02*
X176162472Y-126786884D01*
X176341495Y-121291194D02*
X178099771Y-121291194D01*
X174991495Y-126791194D02*
X176158162Y-126791194D01*
X220177133Y-114358201D02*
X220177133Y-118558201D01*
X169491495Y-118291194D02*
X169491495Y-119213427D01*
X169490430Y-125291194D02*
X169934377Y-124847247D01*
X174991495Y-127918570D02*
X174991495Y-126791194D01*
X148072310Y-129563379D02*
X164428408Y-129563379D01*
D50*
X164953869Y-129563379D02*
X164428408Y-129563379D01*
D49*
X202951133Y-126098868D02*
X210951133Y-126098868D01*
X176491495Y-125291194D02*
X176491495Y-125565907D01*
X176491495Y-125565907D02*
X177712472Y-126786884D01*
X180350179Y-116398550D02*
X181710179Y-116398550D01*
X185234442Y-122410210D02*
X186594442Y-122410210D01*
X185122004Y-118016635D02*
X186482004Y-118016635D01*
X185138159Y-120535261D02*
X186498159Y-120535261D01*
X163466400Y-120488899D02*
X163405036Y-120550263D01*
X163446730Y-120488899D02*
X163339189Y-120596440D01*
X164761789Y-120488899D02*
X163446730Y-120488899D01*
X163209017Y-122220255D02*
X164569017Y-122220255D01*
D48*
X155929818Y-107869279D02*
X157332350Y-107869279D01*
X158155040Y-108691969D02*
X159721321Y-108691969D01*
X159721321Y-108691969D02*
X159771321Y-108741969D01*
D49*
X158594454Y-116027388D02*
X159249679Y-116027388D01*
D50*
X159771321Y-108741969D02*
X160697321Y-109667969D01*
X160697321Y-109667969D02*
X160697321Y-114254747D01*
D48*
X157332350Y-107869279D02*
X158155040Y-108691969D01*
D49*
X159575680Y-115701387D02*
X159575680Y-115376388D01*
X157749680Y-116872162D02*
X158594454Y-116027388D01*
X156386756Y-118570500D02*
X157749680Y-117207576D01*
X157749680Y-117207576D02*
X157749680Y-116872162D01*
D50*
X160697321Y-114254747D02*
X159575680Y-115376388D01*
D49*
X159249679Y-116027388D02*
X159575680Y-115701387D01*
X166311789Y-120488899D02*
X166509494Y-120291194D01*
X150857799Y-110915534D02*
X150358845Y-110915534D01*
X162285017Y-127387537D02*
X162285017Y-121919837D01*
X149117692Y-123710505D02*
X149240386Y-123833198D01*
X162789855Y-121414999D02*
X165385689Y-121414999D01*
X166509494Y-120291194D02*
X168141495Y-120291194D01*
X150358845Y-110915534D02*
X149117692Y-112156687D01*
X165385689Y-121414999D02*
X166311789Y-120488899D01*
X153423874Y-128016687D02*
X161655867Y-128016687D01*
X149117692Y-123710504D02*
X149240386Y-123833198D01*
X162285017Y-121919837D02*
X162789855Y-121414999D01*
X149240386Y-123833198D02*
X153423874Y-128016687D01*
X149117692Y-112156687D02*
X149117692Y-123710504D01*
X161655867Y-128016687D02*
X162285017Y-127387537D01*
X172991495Y-126791194D02*
X172991495Y-128364551D01*
X162389993Y-129066880D02*
X162851791Y-128605082D01*
X164315018Y-123021255D02*
X165318017Y-123021255D01*
X166119017Y-121955789D02*
X167283612Y-120791194D01*
X165318017Y-123021255D02*
X166119017Y-122220255D01*
X167283612Y-120791194D02*
X168141495Y-120791194D01*
X166119017Y-122220255D02*
X166119017Y-121955789D01*
X152075811Y-129066880D02*
X162389993Y-129066880D01*
X150857799Y-127848868D02*
X152075811Y-129066880D01*
X162851791Y-128605082D02*
X162851791Y-124484482D01*
X162851791Y-124484482D02*
X164315018Y-123021255D01*
X188144442Y-122410210D02*
X202139791Y-122410210D01*
X180410237Y-120791194D02*
X176341495Y-120791194D01*
X188144442Y-122410210D02*
X187343442Y-121609210D01*
X202139791Y-122410210D02*
X202951133Y-121598868D01*
X181228253Y-121609210D02*
X180410237Y-120791194D01*
X210951133Y-121598868D02*
X202951133Y-121598868D01*
X187343442Y-121609210D02*
X181228253Y-121609210D01*
X177315054Y-118817635D02*
X176341495Y-119791194D01*
X187231004Y-118817635D02*
X177315054Y-118817635D01*
X193725133Y-116706201D02*
X210025133Y-116706201D01*
X210025133Y-116706201D02*
X210951133Y-117632201D01*
X188032004Y-118016635D02*
X187231004Y-118817635D01*
X210951133Y-117632201D02*
X218951133Y-117632201D01*
X193725133Y-116706201D02*
X192414699Y-118016635D01*
X192414699Y-118016635D02*
X188032004Y-118016635D01*
X192048073Y-120535261D02*
X194951133Y-117632201D01*
X182206346Y-119734261D02*
X187247159Y-119734261D01*
X176341495Y-120291194D02*
X181649413Y-120291194D01*
X188048159Y-120535261D02*
X192048073Y-120535261D01*
X194951133Y-117632201D02*
X202951133Y-117632201D01*
X187247159Y-119734261D02*
X188048159Y-120535261D01*
X181649413Y-120291194D02*
X182206346Y-119734261D01*
X202951133Y-109165534D02*
X196765800Y-109165534D01*
X189532784Y-116398550D02*
X183260179Y-116398550D01*
X175923154Y-117359535D02*
X182299194Y-117359535D01*
X196765800Y-109165534D02*
X189532784Y-116398550D01*
X202951133Y-109165534D02*
X210951133Y-109165534D01*
X182299194Y-117359535D02*
X183260179Y-116398550D01*
X175923154Y-117359535D02*
X174991495Y-118291194D01*
X173991495Y-117524242D02*
X173991495Y-118291194D01*
X175985466Y-109109534D02*
X175811466Y-108935534D01*
X173991495Y-117524242D02*
X175985466Y-115530271D01*
X175811466Y-108935534D02*
X174559466Y-108935534D01*
X175985466Y-115530271D02*
X175985466Y-109109534D01*
D48*
X142574466Y-88210000D02*
X142574466Y-89723867D01*
D51*
X142574466Y-89723867D02*
X142831133Y-89980534D01*
D49*
X174559466Y-109635534D02*
X173307466Y-109635534D01*
X172991495Y-109951505D02*
X172991495Y-118441194D01*
X173307466Y-109635534D02*
X172991495Y-109951505D01*
D47*
X163796670Y-92849044D02*
X163796670Y-97394465D01*
X163796670Y-98088492D02*
X158924572Y-102960590D01*
D50*
X154943818Y-107153279D02*
X154943818Y-109649463D01*
D47*
X159921580Y-88973954D02*
X161087776Y-90140150D01*
D50*
X159301011Y-88353385D02*
X161087776Y-90140150D01*
X161087776Y-93022997D02*
X160229235Y-93881538D01*
X158924572Y-102960590D02*
X158924572Y-106459582D01*
X160678030Y-89730404D02*
X161087776Y-90140150D01*
D47*
X161087776Y-90140150D02*
X163796670Y-92849044D01*
D49*
X153429818Y-114539341D02*
X154279818Y-114539341D01*
D50*
X159541987Y-88594361D02*
X161087776Y-90140150D01*
D47*
X163796670Y-97394465D02*
X163796670Y-98088492D01*
D50*
X160678030Y-86593369D02*
X160678030Y-89730404D01*
D49*
X156157149Y-116828160D02*
X153868330Y-114539341D01*
X154779818Y-114039341D02*
X154779818Y-111135463D01*
D50*
X158924572Y-106459582D02*
X158188180Y-107195974D01*
X157124998Y-88594361D02*
X159541987Y-88594361D01*
X155177818Y-106919279D02*
X154943818Y-107153279D01*
X155929818Y-106919279D02*
X155177818Y-106919279D01*
X155929818Y-106919279D02*
X157911485Y-106919279D01*
D49*
X153868330Y-114539341D02*
X153429818Y-114539341D01*
X154279818Y-114539341D02*
X154779818Y-114039341D01*
D50*
X154943818Y-109649463D02*
X155604818Y-110310463D01*
D49*
X154779818Y-111135463D02*
X155604818Y-110310463D01*
D50*
X157911485Y-106919279D02*
X158188180Y-107195974D01*
X161087776Y-90140150D02*
X161087776Y-93022997D01*
D49*
X160448750Y-89501124D02*
X161087776Y-90140150D01*
D48*
X141574466Y-88210000D02*
X141574466Y-89737201D01*
D51*
X141574466Y-89737201D02*
X141331133Y-89980534D01*
D49*
X160963189Y-120488462D02*
X160963189Y-120098022D01*
X160963189Y-120098022D02*
X161373312Y-119687899D01*
X168038200Y-119687899D02*
X168141495Y-119791194D01*
X161373312Y-119687899D02*
X168038200Y-119687899D01*
X160563403Y-120888248D02*
X160963189Y-120488462D01*
X160055852Y-120888248D02*
X160563403Y-120888248D01*
X165695504Y-116264585D02*
X163563496Y-116264585D01*
X163563496Y-116264585D02*
X163141120Y-116686961D01*
X171991495Y-118291194D02*
X171991495Y-108851505D01*
X171991495Y-108851505D02*
X173307466Y-107535534D01*
X173307466Y-107535534D02*
X174559466Y-107535534D01*
D50*
X150673169Y-91132776D02*
X150673169Y-89353234D01*
X150673169Y-89069888D02*
X150889738Y-88853319D01*
X150673169Y-89353234D02*
X151018909Y-89007494D01*
D49*
X171678781Y-130014551D02*
X171606612Y-129942382D01*
X174300250Y-130014551D02*
X174374351Y-129940450D01*
X172991495Y-130014551D02*
X171678781Y-130014551D01*
X172991495Y-130014551D02*
X174300250Y-130014551D01*
X172491495Y-118291194D02*
X172491495Y-109051505D01*
X172491495Y-109051505D02*
X173307466Y-108235534D01*
X173307466Y-108235534D02*
X174559466Y-108235534D01*
X173307466Y-106835534D02*
X174559466Y-106835534D01*
X171491495Y-118291194D02*
X171491495Y-108651505D01*
X171491495Y-108651505D02*
X173307466Y-106835534D01*
X178467267Y-125522673D02*
X180271664Y-127327070D01*
X177671184Y-123782607D02*
X178467267Y-124578690D01*
X177671184Y-122470883D02*
X177671184Y-123782607D01*
X177491495Y-122291194D02*
X177671184Y-122470883D01*
X176491495Y-122291194D02*
X177491495Y-122291194D01*
X178467267Y-124578690D02*
X178467267Y-125522673D01*
X169491495Y-126641194D02*
X169491495Y-127683299D01*
X169491495Y-127683299D02*
X167611415Y-129563379D01*
X168141495Y-124291194D02*
X165178013Y-124291194D01*
X165178013Y-124291194D02*
X164428408Y-125040799D01*
X169123062Y-121224304D02*
X169123062Y-119484171D01*
X167999500Y-119061712D02*
X167683966Y-118746178D01*
X169123062Y-119484171D02*
X168700603Y-119061712D01*
X168700603Y-119061712D02*
X167999500Y-119061712D01*
X169056172Y-121291194D02*
X169123062Y-121224304D01*
X167683966Y-116603047D02*
X167345504Y-116264585D01*
X167683966Y-118746178D02*
X167683966Y-116603047D01*
X168141495Y-121291194D02*
X169056172Y-121291194D01*
X150673169Y-94952776D02*
X150673169Y-96825236D01*
X150673169Y-96825236D02*
X150718124Y-96870191D01*
D50*
X140405133Y-89740330D02*
X140405133Y-94560868D01*
X143594466Y-89073296D02*
X144507305Y-89986135D01*
X151243692Y-113402201D02*
X151908799Y-112737094D01*
X140405133Y-88359333D02*
X140405133Y-89740330D01*
X146233457Y-89986135D02*
X146287603Y-90040281D01*
X143594466Y-87378000D02*
X143594466Y-88210000D01*
X148265612Y-90338172D02*
X150330216Y-92402776D01*
X146287603Y-90040281D02*
X147967721Y-90040281D01*
X150343692Y-113402201D02*
X151243692Y-113402201D01*
X144507305Y-89986135D02*
X146233457Y-89986135D01*
X140554466Y-88210000D02*
X140554466Y-87378000D01*
D49*
X154681287Y-119188736D02*
X155925523Y-117944500D01*
D50*
X150330216Y-92402776D02*
X150673169Y-92402776D01*
D49*
X157298680Y-116960588D02*
X156314768Y-117944500D01*
X157298680Y-116353388D02*
X157298680Y-116960588D01*
D50*
X143594466Y-88210000D02*
X143594466Y-89073296D01*
D48*
X157632480Y-119246500D02*
X154739051Y-119246500D01*
D50*
X140773466Y-87159000D02*
X143375466Y-87159000D01*
D49*
X155925523Y-117944500D02*
X156314768Y-117944500D01*
D50*
X140554466Y-87378000D02*
X140773466Y-87159000D01*
D49*
X150343692Y-113402201D02*
X150343692Y-114652201D01*
D50*
X158167759Y-118711221D02*
X158931852Y-119475314D01*
D48*
X154739051Y-119246500D02*
X154681287Y-119188736D01*
D50*
X140405133Y-94560868D02*
X144663848Y-98819583D01*
D48*
X158167759Y-118711221D02*
X157632480Y-119246500D01*
D50*
X144663848Y-98869652D02*
X144663848Y-98819583D01*
X151908799Y-112737094D02*
X151908799Y-106114603D01*
D49*
X154434022Y-119196500D02*
X154371567Y-119134045D01*
D50*
X138326311Y-91051939D02*
X140405133Y-93130761D01*
D49*
X154951572Y-97546454D02*
X153678443Y-98819583D01*
X150343692Y-114652201D02*
X153635991Y-117944500D01*
X153635991Y-117944500D02*
X156314768Y-117944500D01*
D50*
X140405133Y-93130761D02*
X140405133Y-94560868D01*
X140554466Y-88210000D02*
X140405133Y-88359333D01*
X143375466Y-87159000D02*
X143594466Y-87378000D01*
D48*
X140554466Y-88210000D02*
X140480133Y-88284333D01*
D50*
X158931852Y-119475314D02*
X158931852Y-122679344D01*
D49*
X158275680Y-115376388D02*
X157298680Y-116353388D01*
X153678443Y-98819583D02*
X144663848Y-98819583D01*
D50*
X147967721Y-90040281D02*
X148265612Y-90338172D01*
X158931852Y-122679344D02*
X157597011Y-124014185D01*
X151908799Y-106114603D02*
X144663848Y-98869652D01*
X156129818Y-113589341D02*
X158071854Y-113589341D01*
X158071854Y-113589341D02*
X158188180Y-113473015D01*
X153954818Y-110310463D02*
X153954818Y-111865048D01*
X154004818Y-111915048D02*
X154004818Y-113014341D01*
X154004818Y-113014341D02*
X153429818Y-113589341D01*
X153629818Y-108819279D02*
X153629818Y-109985463D01*
X153954818Y-111865048D02*
X154004818Y-111915048D01*
X153629818Y-109985463D02*
X153954818Y-110310463D01*
X157837104Y-119919500D02*
X158155852Y-120238248D01*
X156037730Y-119919500D02*
X157837104Y-119919500D01*
X154307133Y-123163992D02*
X154476567Y-122994558D01*
X155629778Y-120327452D02*
X156037730Y-119919500D01*
X154476567Y-122994558D02*
X155629778Y-121841347D01*
X154307133Y-124486382D02*
X154307133Y-123163992D01*
X155629778Y-121841347D02*
X155629778Y-120327452D01*
X155695101Y-123373307D02*
X154855316Y-123373307D01*
X154855316Y-123373307D02*
X154476567Y-122994558D01*
X151018909Y-83307494D02*
X155192764Y-83307494D01*
X155192764Y-83307494D02*
X155921580Y-84036310D01*
D49*
X147915638Y-93543316D02*
X148272523Y-93543316D01*
X146287603Y-91915281D02*
X147915638Y-93543316D01*
X144507305Y-91561135D02*
X144507305Y-96324733D01*
X144507305Y-96324733D02*
X145769655Y-97587083D01*
D50*
X153629818Y-103595344D02*
X154264572Y-102960590D01*
X153629818Y-106919279D02*
X153629818Y-103595344D01*
D48*
X173207466Y-104035534D02*
X174559466Y-104035534D01*
X165618258Y-117636961D02*
X166569504Y-116685715D01*
X166569504Y-116685715D02*
X166569504Y-110673496D01*
X165016120Y-117636961D02*
X165618258Y-117636961D01*
X166569504Y-110673496D02*
X173207466Y-104035534D01*
D49*
X148272523Y-95193316D02*
X149783063Y-93682776D01*
X149783063Y-93682776D02*
X150673169Y-93682776D01*
X147419655Y-97587083D02*
X147753763Y-97921191D01*
X147753763Y-97921191D02*
X153126109Y-97921191D01*
X153126109Y-97921191D02*
X156094524Y-94952776D01*
X156094524Y-94952776D02*
X156493169Y-94952776D01*
D50*
X158138180Y-110358829D02*
X158155040Y-110341969D01*
X158138180Y-111847959D02*
X158138180Y-110358829D01*
X158155040Y-110341969D02*
X157452508Y-110341969D01*
X157452508Y-110341969D02*
X155929818Y-108819279D01*
X152576567Y-124405816D02*
X152657133Y-124486382D01*
X152657133Y-125969762D02*
X152629250Y-125997645D01*
X152576567Y-122994558D02*
X152576567Y-124405816D01*
X152657133Y-124486382D02*
X152657133Y-125969762D01*
X159575680Y-117276388D02*
X161205082Y-117276388D01*
X161212267Y-118757652D02*
X160055852Y-119914067D01*
X160055852Y-119914067D02*
X160055852Y-120238248D01*
X161205082Y-117276388D02*
X161212267Y-117283573D01*
X161212267Y-117283573D02*
X161212267Y-118757652D01*
X157597011Y-125664185D02*
X158802566Y-125664185D01*
X158802566Y-125664185D02*
X159208406Y-125258345D01*
D49*
X161155822Y-97394465D02*
X160254151Y-98296136D01*
X161842162Y-97394465D02*
X160229235Y-95781538D01*
X162146670Y-97394465D02*
X161842162Y-97394465D01*
X162146670Y-97394465D02*
X161155822Y-97394465D01*
X156801890Y-97346136D02*
X156601572Y-97546454D01*
X158379151Y-97346136D02*
X156801890Y-97346136D01*
D50*
X155442169Y-88314970D02*
X155442169Y-91883776D01*
X156807291Y-92402776D02*
X158354235Y-93949720D01*
X157163770Y-86593369D02*
X155442169Y-88314970D01*
X159921580Y-84036310D02*
X159921580Y-85699819D01*
X155961169Y-92402776D02*
X156493169Y-92402776D01*
X159028030Y-86593369D02*
X157163770Y-86593369D01*
X156493169Y-92402776D02*
X156807291Y-92402776D01*
X159921580Y-85699819D02*
X159028030Y-86593369D01*
X155442169Y-91883776D02*
X155961169Y-92402776D01*
X158354235Y-93949720D02*
X158354235Y-94831538D01*
D48*
X156759835Y-92402776D02*
X156493169Y-92402776D01*
D50*
X152212665Y-120430656D02*
X152212665Y-118371174D01*
X152576567Y-120794558D02*
X152212665Y-120430656D01*
X154476567Y-121546558D02*
X154277567Y-121745558D01*
X154277567Y-121745558D02*
X153254501Y-121745558D01*
X153254501Y-121745558D02*
X152775567Y-121745558D01*
X151243692Y-117402201D02*
X150343692Y-117402201D01*
X152576567Y-121546558D02*
X152576567Y-120794558D01*
X154476567Y-120794558D02*
X154476567Y-121546558D01*
X152212665Y-118371174D02*
X151243692Y-117402201D01*
X152775567Y-121745558D02*
X152576567Y-121546558D01*
D48*
X157077881Y-124790185D02*
X156647745Y-124360049D01*
X158116141Y-124790185D02*
X157077881Y-124790185D01*
X156647745Y-120931489D02*
X156386756Y-120670500D01*
X157254504Y-121538248D02*
X156386756Y-120670500D01*
X160158406Y-123383345D02*
X159522981Y-123383345D01*
X156647745Y-124360049D02*
X156647745Y-120931489D01*
X158155852Y-121538248D02*
X157254504Y-121538248D01*
X159522981Y-123383345D02*
X158116141Y-124790185D01*
D49*
X161108406Y-127029922D02*
X161041538Y-127096790D01*
X161108406Y-125258345D02*
X161108406Y-127029922D01*
M02*
