M48
; DRILL file {KiCad 9.0.3} date 2025-08-27T19:31:05-0500
; FORMAT={-:-/ absolute / metric / decimal}
; #@! TF.CreationDate,2025-08-27T19:31:05-05:00
; #@! TF.GenerationSoftware,Kicad,Pcbnew,9.0.3
; #@! TF.FileFunction,Plated,1,2,PTH
FMAT,2
METRIC
; #@! TA.AperFunction,Plated,PTH,ViaDrill
T1C0.300
; #@! TA.AperFunction,Plated,PTH,ComponentDrill
T2C0.600
%
G90
G05
T1
X139.329Y-86.794
X141.331Y-92.806
X142.831Y-92.806
X144.821Y-86.751
X149.42Y-92.894
X152.659Y-109.382
X152.705Y-94.368
X152.733Y-91.722
X152.965Y-118.172
X153.357Y-116.22
X153.583Y-93.043
X154.409Y-94.361
X154.445Y-91.732
X155.691Y-126.299
X156.196Y-89.652
X156.779Y-99.246
X156.894Y-111.915
X157.34Y-120.669
X158.972Y-111.1
X158.991Y-118.105
X159.063Y-114.46
X160.764Y-107.196
X161.021Y-121.316
X165.465Y-126.728
X165.634Y-118.587
X169.308Y-124.588
X170.102Y-128.698
X170.414Y-115.485
X172.948Y-102.648
X174.229Y-125.388
X175.097Y-121.986
X176.171Y-106.136
X177.215Y-128.486
X177.517Y-116.399
X181.016Y-123.112
X182.194Y-122.41
X182.291Y-120.535
X182.307Y-118.017
X216.828Y-86.625
T2
X137.754Y-84.63G85X137.754Y-84.03
G05
X137.754Y-88.43G85X137.754Y-87.83
G05
X146.394Y-84.63G85X146.394Y-84.03
G05
X146.394Y-88.43G85X146.394Y-87.83
G05
M30
