G04 #@! TF.GenerationSoftware,KiCad,Pcbnew,9.0.3*
G04 #@! TF.CreationDate,2025-08-27T19:30:40-05:00*
G04 #@! TF.ProjectId,stm32card,73746d33-3263-4617-9264-2e6b69636164,rev?*
G04 #@! TF.SameCoordinates,Original*
G04 #@! TF.FileFunction,Copper,L2,Bot*
G04 #@! TF.FilePolarity,Positive*
%FSLAX46Y46*%
G04 Gerber Fmt 4.6, Leading zero omitted, Abs format (unit mm)*
G04 Created by KiCad (PCBNEW 9.0.3) date 2025-08-27 19:30:40*
%MOMM*%
%LPD*%
G01*
G04 APERTURE LIST*
%ADD10C,0.200000*%
G04 #@! TA.AperFunction,ComponentPad*
%ADD11O,1.100000X1.700000*%
G04 #@! TD*
G04 #@! TA.AperFunction,ViaPad*
%ADD12C,0.600000*%
G04 #@! TD*
G04 APERTURE END LIST*
D10*
G36*
X213619333Y-92270705D02*
G01*
X212250413Y-92270705D01*
X212023575Y-92260135D01*
X211821034Y-92229855D01*
X211634163Y-92170521D01*
X211477751Y-92078363D01*
X211359708Y-91971345D01*
X211262512Y-91841142D01*
X211187838Y-91694214D01*
X211142737Y-91534985D01*
X211127324Y-91360289D01*
X211130436Y-91322554D01*
X211764614Y-91322554D01*
X211778905Y-91459025D01*
X211818016Y-91563128D01*
X211879502Y-91642460D01*
X211965382Y-91701374D01*
X212088427Y-91739735D01*
X212274960Y-91754864D01*
X213016847Y-91754864D01*
X213016847Y-90945931D01*
X212264702Y-90945931D01*
X212079947Y-90961569D01*
X211959337Y-90997405D01*
X211874093Y-91050951D01*
X211814701Y-91120608D01*
X211777855Y-91209199D01*
X211764614Y-91322554D01*
X211130436Y-91322554D01*
X211141320Y-91190562D01*
X211181188Y-91044713D01*
X211245293Y-90918454D01*
X211334643Y-90809722D01*
X211449641Y-90721289D01*
X211594621Y-90652474D01*
X211456480Y-90566392D01*
X211365094Y-90479550D01*
X211289929Y-90359797D01*
X211242624Y-90213143D01*
X211231499Y-90094501D01*
X211828179Y-90094501D01*
X211843751Y-90217536D01*
X211885674Y-90304646D01*
X211952193Y-90365427D01*
X212038178Y-90406127D01*
X212144242Y-90432341D01*
X212274960Y-90441814D01*
X213016847Y-90441814D01*
X213016847Y-89761842D01*
X212352812Y-89761842D01*
X212143894Y-89775141D01*
X211992127Y-89810019D01*
X211902689Y-89870566D01*
X211848263Y-89961633D01*
X211828179Y-90094501D01*
X211231499Y-90094501D01*
X211225693Y-90032585D01*
X211241937Y-89857348D01*
X211288701Y-89704379D01*
X211365094Y-89569318D01*
X211463933Y-89461402D01*
X211587120Y-89374568D01*
X211738784Y-89308317D01*
X211924718Y-89264264D01*
X212152045Y-89246001D01*
X213619333Y-89246001D01*
X213619333Y-92270705D01*
G37*
G36*
X209432889Y-89972868D02*
G01*
X209405412Y-89972868D01*
X209355037Y-89972868D01*
X209355037Y-90570774D01*
X209453405Y-90570774D01*
X209523015Y-90570774D01*
X209696953Y-90587649D01*
X209827714Y-90633361D01*
X209925465Y-90704074D01*
X209996540Y-90801034D01*
X210030818Y-90890614D01*
X210054868Y-91019576D01*
X210064135Y-91199822D01*
X210064135Y-92270705D01*
X210652332Y-92270705D01*
X210652332Y-90031486D01*
X210094909Y-90031486D01*
X210094909Y-90421114D01*
X209957642Y-90216824D01*
X209859154Y-90111903D01*
X209742770Y-90036491D01*
X209602744Y-89989535D01*
X209432889Y-89972868D01*
G37*
G36*
X208362092Y-89993341D02*
G01*
X208562502Y-90052172D01*
X208739088Y-90147920D01*
X208895799Y-90282446D01*
X209018790Y-90444636D01*
X209110258Y-90641878D01*
X209168790Y-90881387D01*
X209189806Y-91172344D01*
X209174170Y-91427066D01*
X209130759Y-91637052D01*
X209063537Y-91809719D01*
X208974580Y-91951246D01*
X208863925Y-92066273D01*
X208693376Y-92187269D01*
X208512949Y-92272353D01*
X208320163Y-92323611D01*
X208111779Y-92341046D01*
X207904787Y-92326698D01*
X207724762Y-92285798D01*
X207567483Y-92220417D01*
X207429541Y-92131022D01*
X207308526Y-92016448D01*
X207198426Y-91872951D01*
X207131938Y-91739946D01*
X207101530Y-91614180D01*
X207697971Y-91614180D01*
X207750630Y-91705204D01*
X207806598Y-91768969D01*
X207887123Y-91825193D01*
X207983330Y-91859859D01*
X208099506Y-91872100D01*
X208210249Y-91862117D01*
X208306341Y-91833479D01*
X208390583Y-91786920D01*
X208474071Y-91710836D01*
X208537679Y-91610077D01*
X208581271Y-91478943D01*
X208601608Y-91309365D01*
X207072770Y-91309365D01*
X207076134Y-91037744D01*
X207086374Y-90922484D01*
X207679470Y-90922484D01*
X208587320Y-90922484D01*
X208557152Y-90782510D01*
X208509890Y-90669960D01*
X208447003Y-90579933D01*
X208364785Y-90511157D01*
X208261961Y-90468703D01*
X208132296Y-90453538D01*
X208012738Y-90467260D01*
X207909844Y-90506909D01*
X207819787Y-90572789D01*
X207750829Y-90660053D01*
X207703342Y-90774141D01*
X207679470Y-90922484D01*
X207086374Y-90922484D01*
X207091272Y-90867346D01*
X207128432Y-90696543D01*
X207185323Y-90543822D01*
X207261448Y-90406826D01*
X207368983Y-90268109D01*
X207491493Y-90159256D01*
X207630377Y-90077282D01*
X207782426Y-90020132D01*
X207948897Y-89984984D01*
X208132296Y-89972868D01*
X208362092Y-89993341D01*
G37*
G36*
X206910105Y-90465261D02*
G01*
X206910105Y-90054933D01*
X206598695Y-90054933D01*
X206598695Y-89421856D01*
X206020755Y-89421856D01*
X206020755Y-90054933D01*
X205657872Y-90054933D01*
X205657872Y-90465261D01*
X206020755Y-90465261D01*
X206020755Y-91653930D01*
X206009434Y-91777784D01*
X205985951Y-91826305D01*
X205932274Y-91848709D01*
X205772727Y-91860377D01*
X205716307Y-91857446D01*
X205657872Y-91848653D01*
X205657872Y-92282428D01*
X205934660Y-92305875D01*
X206149436Y-92299948D01*
X206307086Y-92270301D01*
X206420574Y-92223031D01*
X206500326Y-92161345D01*
X206552084Y-92087795D01*
X206586023Y-91986911D01*
X206598695Y-91849935D01*
X206598695Y-90465261D01*
X206910105Y-90465261D01*
G37*
G36*
X205512059Y-90465261D02*
G01*
X205512059Y-90054933D01*
X205200649Y-90054933D01*
X205200649Y-89421856D01*
X204622709Y-89421856D01*
X204622709Y-90054933D01*
X204259825Y-90054933D01*
X204259825Y-90465261D01*
X204622709Y-90465261D01*
X204622709Y-91653930D01*
X204611388Y-91777784D01*
X204587905Y-91826305D01*
X204534228Y-91848709D01*
X204374681Y-91860377D01*
X204318261Y-91857446D01*
X204259825Y-91848653D01*
X204259825Y-92282428D01*
X204536614Y-92305875D01*
X204751390Y-92299948D01*
X204909040Y-92270301D01*
X205022527Y-92223031D01*
X205102280Y-92161345D01*
X205154038Y-92087795D01*
X205187977Y-91986911D01*
X205200649Y-91849935D01*
X205200649Y-90465261D01*
X205512059Y-90465261D01*
G37*
G36*
X202258927Y-89246001D02*
G01*
X201859224Y-90977988D01*
X201773311Y-91460124D01*
X201685201Y-90988246D01*
X201344848Y-89246001D01*
X200678798Y-89246001D01*
X200320310Y-90977988D01*
X200227987Y-91460124D01*
X200135846Y-90996306D01*
X199732113Y-89246001D01*
X199090609Y-89246001D01*
X199941123Y-92270705D01*
X200543609Y-92270705D01*
X200908325Y-90501898D01*
X201014937Y-89916997D01*
X201121549Y-90501898D01*
X201486265Y-92270705D01*
X202072448Y-92270705D01*
X202929007Y-89246001D01*
X202258927Y-89246001D01*
G37*
G36*
X198177165Y-89993341D02*
G01*
X198377575Y-90052172D01*
X198554161Y-90147920D01*
X198710872Y-90282446D01*
X198833864Y-90444636D01*
X198925331Y-90641878D01*
X198983863Y-90881387D01*
X199004880Y-91172344D01*
X198989244Y-91427066D01*
X198945833Y-91637052D01*
X198878611Y-91809719D01*
X198789653Y-91951246D01*
X198678999Y-92066273D01*
X198508450Y-92187269D01*
X198328022Y-92272353D01*
X198135236Y-92323611D01*
X197926853Y-92341046D01*
X197719860Y-92326698D01*
X197539835Y-92285798D01*
X197382556Y-92220417D01*
X197244614Y-92131022D01*
X197123599Y-92016448D01*
X197013499Y-91872951D01*
X196947011Y-91739946D01*
X196916603Y-91614180D01*
X197513044Y-91614180D01*
X197565703Y-91705204D01*
X197621671Y-91768969D01*
X197702196Y-91825193D01*
X197798403Y-91859859D01*
X197914579Y-91872100D01*
X198025322Y-91862117D01*
X198121414Y-91833479D01*
X198205656Y-91786920D01*
X198289145Y-91710836D01*
X198352752Y-91610077D01*
X198396344Y-91478943D01*
X198416682Y-91309365D01*
X196887844Y-91309365D01*
X196891208Y-91037744D01*
X196901447Y-90922484D01*
X197494543Y-90922484D01*
X198402393Y-90922484D01*
X198372225Y-90782510D01*
X198324963Y-90669960D01*
X198262076Y-90579933D01*
X198179858Y-90511157D01*
X198077034Y-90468703D01*
X197947369Y-90453538D01*
X197827811Y-90467260D01*
X197724917Y-90506909D01*
X197634860Y-90572789D01*
X197565902Y-90660053D01*
X197518416Y-90774141D01*
X197494543Y-90922484D01*
X196901447Y-90922484D01*
X196906345Y-90867346D01*
X196943506Y-90696543D01*
X197000396Y-90543822D01*
X197076521Y-90406826D01*
X197184056Y-90268109D01*
X197306566Y-90159256D01*
X197445450Y-90077282D01*
X197597500Y-90020132D01*
X197763970Y-89984984D01*
X197947369Y-89972868D01*
X198177165Y-89993341D01*
G37*
G36*
X195895180Y-89773566D02*
G01*
X196487407Y-89773566D01*
X196487407Y-89246001D01*
X195895180Y-89246001D01*
X195895180Y-89773566D01*
G37*
G36*
X196487407Y-90031486D02*
G01*
X195895180Y-90031486D01*
X195895180Y-92270705D01*
X196487407Y-92270705D01*
X196487407Y-90031486D01*
G37*
G36*
X194732706Y-92270705D02*
G01*
X195316874Y-92270705D01*
X195316874Y-89246001D01*
X194732706Y-89246001D01*
X194732706Y-92270705D01*
G37*
G36*
X193516265Y-89987225D02*
G01*
X193705324Y-90026817D01*
X193858133Y-90087679D01*
X193980988Y-90167716D01*
X194078562Y-90266875D01*
X194159212Y-90398906D01*
X194214484Y-90556941D01*
X194242510Y-90746629D01*
X193679042Y-90746629D01*
X193646725Y-90628056D01*
X193596977Y-90543480D01*
X193532232Y-90490307D01*
X193438148Y-90455155D01*
X193304068Y-90441814D01*
X193132188Y-90456869D01*
X193024349Y-90494387D01*
X192972718Y-90537195D01*
X192940713Y-90598520D01*
X192928911Y-90685080D01*
X192942235Y-90752852D01*
X192981828Y-90807462D01*
X193053841Y-90852142D01*
X193135637Y-90878003D01*
X193285567Y-90903799D01*
X193484320Y-90928529D01*
X193709282Y-90967788D01*
X193876138Y-91016944D01*
X193996680Y-91072877D01*
X194110715Y-91155974D01*
X194197832Y-91254879D01*
X194260880Y-91371442D01*
X194300349Y-91509185D01*
X194314318Y-91672981D01*
X194300712Y-91830700D01*
X194262354Y-91962542D01*
X194201174Y-92073417D01*
X194116664Y-92166840D01*
X193976008Y-92262138D01*
X193811127Y-92320559D01*
X193615478Y-92341046D01*
X193459894Y-92328599D01*
X193318670Y-92292337D01*
X193189213Y-92232786D01*
X193040128Y-92130957D01*
X192910410Y-92010403D01*
X192894107Y-92144675D01*
X192857287Y-92270705D01*
X192221828Y-92270705D01*
X192221828Y-92200363D01*
X192273326Y-92167659D01*
X192308107Y-92129471D01*
X192329072Y-92075992D01*
X192342912Y-91965889D01*
X192346942Y-91705404D01*
X192346942Y-91397292D01*
X192930926Y-91397292D01*
X192945901Y-91546778D01*
X192980208Y-91659903D01*
X193030462Y-91744612D01*
X193095973Y-91806704D01*
X193206125Y-91869520D01*
X193321132Y-91906562D01*
X193443287Y-91918995D01*
X193554541Y-91901642D01*
X193645153Y-91851401D01*
X193689211Y-91800451D01*
X193717579Y-91729629D01*
X193728135Y-91632132D01*
X193712373Y-91526191D01*
X193667826Y-91444358D01*
X193592947Y-91380623D01*
X193498811Y-91340175D01*
X193328615Y-91299473D01*
X193197456Y-91274560D01*
X193042667Y-91234077D01*
X192930926Y-91176924D01*
X192930926Y-91397292D01*
X192346942Y-91397292D01*
X192346942Y-90672257D01*
X192367323Y-90473096D01*
X192423044Y-90321083D01*
X192510377Y-90205228D01*
X192631790Y-90119047D01*
X192826549Y-90039167D01*
X193042432Y-89989917D01*
X193283369Y-89972868D01*
X193516265Y-89987225D01*
G37*
G36*
X190591874Y-89972868D02*
G01*
X190367256Y-89994407D01*
X190181000Y-90055174D01*
X190025291Y-90152753D01*
X189934468Y-90249844D01*
X189866095Y-90377295D01*
X189821371Y-90542565D01*
X189804923Y-90755605D01*
X189804923Y-92270705D01*
X190403379Y-92270705D01*
X190403379Y-90900136D01*
X190416822Y-90733684D01*
X190450457Y-90627194D01*
X190501654Y-90552882D01*
X190570417Y-90499695D01*
X190660479Y-90465884D01*
X190778353Y-90453538D01*
X190919887Y-90470629D01*
X191030853Y-90518357D01*
X191118505Y-90595789D01*
X191186116Y-90707795D01*
X191227745Y-90852848D01*
X191243452Y-91051078D01*
X191243452Y-92270705D01*
X191825605Y-92270705D01*
X191825605Y-90031486D01*
X191261954Y-90031486D01*
X191261954Y-90352604D01*
X191145471Y-90198058D01*
X191048913Y-90106957D01*
X190922372Y-90034347D01*
X190771945Y-89988954D01*
X190591874Y-89972868D01*
G37*
G36*
X187824358Y-90312671D02*
G01*
X187938090Y-90170009D01*
X188080630Y-90062993D01*
X188188975Y-90013556D01*
X188308368Y-89983300D01*
X188441132Y-89972868D01*
X188654658Y-89994356D01*
X188839573Y-90056210D01*
X189001844Y-90157715D01*
X189145284Y-90302412D01*
X189255200Y-90472169D01*
X189337298Y-90674979D01*
X189389768Y-90917164D01*
X189408517Y-91206416D01*
X189390354Y-91453878D01*
X189338511Y-91669119D01*
X189255364Y-91857397D01*
X189141071Y-92022859D01*
X188996038Y-92164897D01*
X188840020Y-92262750D01*
X188670207Y-92321146D01*
X188482165Y-92341046D01*
X188325753Y-92330287D01*
X188194675Y-92300127D01*
X188084660Y-92252753D01*
X187985651Y-92185164D01*
X187890840Y-92092269D01*
X187799811Y-91969919D01*
X187799811Y-92270705D01*
X187232130Y-92270705D01*
X187232130Y-91190113D01*
X187808055Y-91190113D01*
X187823852Y-91384248D01*
X187867901Y-91543207D01*
X187937198Y-91673714D01*
X188008989Y-91755203D01*
X188093788Y-91812599D01*
X188194129Y-91847936D01*
X188314187Y-91860377D01*
X188434284Y-91847765D01*
X188533272Y-91812123D01*
X188615685Y-91754442D01*
X188684215Y-91672615D01*
X188748872Y-91541856D01*
X188790780Y-91377498D01*
X188806031Y-91171429D01*
X188791559Y-90980895D01*
X188750801Y-90820481D01*
X188686230Y-90684897D01*
X188618097Y-90599414D01*
X188534979Y-90539210D01*
X188433997Y-90501942D01*
X188310157Y-90488709D01*
X188202113Y-90500837D01*
X188104652Y-90536503D01*
X188015051Y-90596603D01*
X187930112Y-90692177D01*
X187865801Y-90817653D01*
X187823595Y-90980415D01*
X187808055Y-91190113D01*
X187232130Y-91190113D01*
X187232130Y-89246001D01*
X187824358Y-89246001D01*
X187824358Y-90312671D01*
G37*
D11*
X146394466Y-88130000D03*
X146394466Y-84330000D03*
X137754466Y-84330000D03*
X137754466Y-88130000D03*
D12*
X152733145Y-91722173D03*
X165465476Y-126728439D03*
X159063103Y-114460088D03*
X175096858Y-121986131D03*
X169308377Y-124587949D03*
X156894461Y-111915048D03*
X177516540Y-116398550D03*
X153583169Y-93042776D03*
X182290644Y-120535261D03*
X160764492Y-107195974D03*
X155690517Y-126299413D03*
X152704834Y-94368118D03*
X170102016Y-128697514D03*
X142831133Y-92805534D03*
X182194361Y-122410210D03*
X176171148Y-106135534D03*
X152965298Y-118172420D03*
X182306799Y-118016635D03*
X156196469Y-89651848D03*
X157340350Y-120669500D03*
X158991448Y-118105482D03*
X144821338Y-86750857D03*
X154444650Y-91732484D03*
X156779032Y-99246136D03*
X153357396Y-116219587D03*
X141331133Y-92805534D03*
X152658799Y-109382017D03*
X174229170Y-125388031D03*
X172947746Y-102648389D03*
X216827776Y-86625361D03*
X158972471Y-111099870D03*
X165634415Y-118586961D03*
X149420397Y-92893553D03*
X161020748Y-121316201D03*
X139328918Y-86794310D03*
X181015522Y-123111621D03*
X177215329Y-128485724D03*
X170414228Y-115484524D03*
X154408893Y-94360958D03*
G04 #@! TA.AperFunction,Conductor*
G36*
X216398577Y-82036035D02*
G01*
X216461765Y-82036034D01*
X216467172Y-82036152D01*
X216851240Y-82052917D01*
X216861977Y-82053857D01*
X217240446Y-82103682D01*
X217251065Y-82105554D01*
X217623762Y-82188176D01*
X217634176Y-82190967D01*
X217998246Y-82305756D01*
X218008381Y-82309445D01*
X218361045Y-82455522D01*
X218370845Y-82460092D01*
X218709416Y-82636340D01*
X218718783Y-82641747D01*
X219040698Y-82846829D01*
X219040719Y-82846842D01*
X219049580Y-82853047D01*
X219352404Y-83085412D01*
X219360685Y-83092361D01*
X219642110Y-83350240D01*
X219649759Y-83357889D01*
X219907638Y-83639314D01*
X219914592Y-83647601D01*
X220146952Y-83950419D01*
X220153157Y-83959280D01*
X220358251Y-84281215D01*
X220363659Y-84290583D01*
X220539907Y-84629154D01*
X220544479Y-84638959D01*
X220690548Y-84991603D01*
X220694247Y-85001766D01*
X220788070Y-85299339D01*
X220809027Y-85365805D01*
X220811827Y-85376254D01*
X220894442Y-85748917D01*
X220896320Y-85759571D01*
X220946139Y-86138002D01*
X220947082Y-86148778D01*
X220963847Y-86532827D01*
X220963965Y-86538233D01*
X220963965Y-86571484D01*
X220963965Y-86601423D01*
X220963965Y-86601425D01*
X220963966Y-86611417D01*
X220963966Y-127332823D01*
X220963848Y-127338233D01*
X220947077Y-127722279D01*
X220946134Y-127733055D01*
X220896311Y-128111489D01*
X220894433Y-128122142D01*
X220811814Y-128494804D01*
X220809014Y-128505253D01*
X220694232Y-128869290D01*
X220690532Y-128879455D01*
X220544459Y-129232105D01*
X220539887Y-129241909D01*
X220363636Y-129580485D01*
X220358227Y-129589853D01*
X220153142Y-129911771D01*
X220146938Y-129920632D01*
X219914572Y-130223458D01*
X219907619Y-130231745D01*
X219649741Y-130513171D01*
X219642092Y-130520820D01*
X219360667Y-130778701D01*
X219352380Y-130785654D01*
X219049563Y-131018016D01*
X219040702Y-131024221D01*
X218718776Y-131229313D01*
X218709407Y-131234722D01*
X218370833Y-131410975D01*
X218361030Y-131415547D01*
X218008371Y-131561626D01*
X217998206Y-131565325D01*
X217634180Y-131680107D01*
X217623731Y-131682907D01*
X217251086Y-131765524D01*
X217240433Y-131767403D01*
X216861981Y-131817232D01*
X216851205Y-131818175D01*
X216514504Y-131832880D01*
X216467892Y-131834916D01*
X216462484Y-131835034D01*
X137567177Y-131835034D01*
X137561767Y-131834916D01*
X137177714Y-131818145D01*
X137166938Y-131817202D01*
X136788514Y-131767379D01*
X136777861Y-131765501D01*
X136405199Y-131682882D01*
X136394750Y-131680082D01*
X136030714Y-131565300D01*
X136020549Y-131561600D01*
X135667901Y-131415527D01*
X135658097Y-131410955D01*
X135319523Y-131234704D01*
X135310155Y-131229295D01*
X134988244Y-131024214D01*
X134979383Y-131018010D01*
X134676540Y-130785630D01*
X134668253Y-130778676D01*
X134386840Y-130520808D01*
X134379191Y-130513159D01*
X134121323Y-130231746D01*
X134114369Y-130223459D01*
X133881989Y-129920616D01*
X133875785Y-129911755D01*
X133670704Y-129589844D01*
X133665295Y-129580476D01*
X133489044Y-129241902D01*
X133484472Y-129232098D01*
X133454992Y-129160927D01*
X133338396Y-128879443D01*
X133334699Y-128869285D01*
X133219917Y-128505249D01*
X133217117Y-128494800D01*
X133134493Y-128122114D01*
X133132623Y-128111511D01*
X133082794Y-127733040D01*
X133081854Y-127722294D01*
X133065084Y-127338233D01*
X133064966Y-127332824D01*
X133064966Y-92846534D01*
X186726630Y-92846534D01*
X214124833Y-92846534D01*
X214124833Y-88740501D01*
X186726630Y-88740501D01*
X186726630Y-92846534D01*
X133064966Y-92846534D01*
X133064966Y-87726579D01*
X136704466Y-87726579D01*
X136704466Y-87880000D01*
X137454466Y-87880000D01*
X137454466Y-88380000D01*
X136704466Y-88380000D01*
X136704466Y-88533420D01*
X136744814Y-88736266D01*
X136744816Y-88736274D01*
X136823966Y-88927358D01*
X136823971Y-88927368D01*
X136938876Y-89099335D01*
X136938879Y-89099339D01*
X137085126Y-89245586D01*
X137085130Y-89245589D01*
X137257097Y-89360494D01*
X137257107Y-89360499D01*
X137448189Y-89439648D01*
X137448191Y-89439649D01*
X137504466Y-89450842D01*
X137504466Y-88596988D01*
X137514406Y-88614205D01*
X137570261Y-88670060D01*
X137638670Y-88709556D01*
X137714970Y-88730000D01*
X137793962Y-88730000D01*
X137870262Y-88709556D01*
X137938671Y-88670060D01*
X137994526Y-88614205D01*
X138004466Y-88596988D01*
X138004466Y-89450842D01*
X138060740Y-89439649D01*
X138060742Y-89439648D01*
X138251824Y-89360499D01*
X138251834Y-89360494D01*
X138423801Y-89245589D01*
X138423805Y-89245586D01*
X138570052Y-89099339D01*
X138570055Y-89099335D01*
X138684960Y-88927368D01*
X138684965Y-88927358D01*
X138764115Y-88736274D01*
X138764117Y-88736266D01*
X138804465Y-88533420D01*
X138804466Y-88533417D01*
X138804466Y-88380000D01*
X138054466Y-88380000D01*
X138054466Y-87880000D01*
X138804466Y-87880000D01*
X138804466Y-87726583D01*
X138804465Y-87726579D01*
X145344466Y-87726579D01*
X145344466Y-87880000D01*
X146094466Y-87880000D01*
X146094466Y-88380000D01*
X145344466Y-88380000D01*
X145344466Y-88533420D01*
X145384814Y-88736266D01*
X145384816Y-88736274D01*
X145463966Y-88927358D01*
X145463971Y-88927368D01*
X145578876Y-89099335D01*
X145578879Y-89099339D01*
X145725126Y-89245586D01*
X145725130Y-89245589D01*
X145897097Y-89360494D01*
X145897107Y-89360499D01*
X146088189Y-89439648D01*
X146088191Y-89439649D01*
X146144466Y-89450842D01*
X146144466Y-88596988D01*
X146154406Y-88614205D01*
X146210261Y-88670060D01*
X146278670Y-88709556D01*
X146354970Y-88730000D01*
X146433962Y-88730000D01*
X146510262Y-88709556D01*
X146578671Y-88670060D01*
X146634526Y-88614205D01*
X146644466Y-88596988D01*
X146644466Y-89450842D01*
X146700740Y-89439649D01*
X146700742Y-89439648D01*
X146891824Y-89360499D01*
X146891834Y-89360494D01*
X147063801Y-89245589D01*
X147063805Y-89245586D01*
X147210052Y-89099339D01*
X147210055Y-89099335D01*
X147324960Y-88927368D01*
X147324965Y-88927358D01*
X147404115Y-88736274D01*
X147404117Y-88736266D01*
X147418298Y-88664977D01*
X147418303Y-88664949D01*
X147444466Y-88533414D01*
X147444466Y-88380000D01*
X146694466Y-88380000D01*
X146694466Y-87880000D01*
X147444466Y-87880000D01*
X147444466Y-87726583D01*
X147444465Y-87726579D01*
X147404117Y-87523733D01*
X147404115Y-87523725D01*
X147324965Y-87332641D01*
X147324960Y-87332631D01*
X147210055Y-87160664D01*
X147210052Y-87160660D01*
X147063805Y-87014413D01*
X147063801Y-87014410D01*
X146891834Y-86899505D01*
X146891824Y-86899500D01*
X146700738Y-86820349D01*
X146700733Y-86820347D01*
X146644466Y-86809155D01*
X146644466Y-87663011D01*
X146634526Y-87645795D01*
X146578671Y-87589940D01*
X146510262Y-87550444D01*
X146433962Y-87530000D01*
X146354970Y-87530000D01*
X146278670Y-87550444D01*
X146210261Y-87589940D01*
X146154406Y-87645795D01*
X146144466Y-87663011D01*
X146144466Y-86809156D01*
X146144465Y-86809155D01*
X146088198Y-86820347D01*
X146088193Y-86820349D01*
X145897107Y-86899500D01*
X145897097Y-86899505D01*
X145725130Y-87014410D01*
X145725126Y-87014413D01*
X145578879Y-87160660D01*
X145578876Y-87160664D01*
X145463971Y-87332631D01*
X145463966Y-87332641D01*
X145384816Y-87523725D01*
X145384814Y-87523733D01*
X145344466Y-87726579D01*
X138804465Y-87726579D01*
X138764117Y-87523733D01*
X138764115Y-87523725D01*
X138684965Y-87332641D01*
X138684960Y-87332631D01*
X138570055Y-87160664D01*
X138570052Y-87160660D01*
X138423805Y-87014413D01*
X138423801Y-87014410D01*
X138251834Y-86899505D01*
X138251824Y-86899500D01*
X138060738Y-86820349D01*
X138060733Y-86820347D01*
X138004466Y-86809155D01*
X138004466Y-87663011D01*
X137994526Y-87645795D01*
X137938671Y-87589940D01*
X137870262Y-87550444D01*
X137793962Y-87530000D01*
X137714970Y-87530000D01*
X137638670Y-87550444D01*
X137570261Y-87589940D01*
X137514406Y-87645795D01*
X137504466Y-87663011D01*
X137504466Y-86809156D01*
X137504465Y-86809155D01*
X137448198Y-86820347D01*
X137448193Y-86820349D01*
X137257107Y-86899500D01*
X137257097Y-86899505D01*
X137085130Y-87014410D01*
X137085126Y-87014413D01*
X136938879Y-87160660D01*
X136938876Y-87160664D01*
X136823971Y-87332631D01*
X136823966Y-87332641D01*
X136744816Y-87523725D01*
X136744814Y-87523733D01*
X136704466Y-87726579D01*
X133064966Y-87726579D01*
X133064966Y-86601421D01*
X133064967Y-86601418D01*
X133064966Y-86538225D01*
X133065084Y-86532821D01*
X133081846Y-86148771D01*
X133082789Y-86137995D01*
X133132607Y-85759546D01*
X133134478Y-85748931D01*
X133217096Y-85376244D01*
X133219896Y-85365797D01*
X133334675Y-85001751D01*
X133338358Y-84991628D01*
X133484452Y-84638918D01*
X133488997Y-84629171D01*
X133665267Y-84290553D01*
X133670660Y-84281212D01*
X133875767Y-83959255D01*
X133881957Y-83950416D01*
X133900248Y-83926579D01*
X136704466Y-83926579D01*
X136704466Y-84080000D01*
X137454466Y-84080000D01*
X137454466Y-84580000D01*
X136704466Y-84580000D01*
X136704466Y-84733420D01*
X136744814Y-84936266D01*
X136744816Y-84936274D01*
X136823966Y-85127358D01*
X136823971Y-85127368D01*
X136938876Y-85299335D01*
X136938879Y-85299339D01*
X137085126Y-85445586D01*
X137085130Y-85445589D01*
X137257097Y-85560494D01*
X137257107Y-85560499D01*
X137448189Y-85639648D01*
X137448191Y-85639649D01*
X137504466Y-85650842D01*
X137504466Y-84796988D01*
X137514406Y-84814205D01*
X137570261Y-84870060D01*
X137638670Y-84909556D01*
X137714970Y-84930000D01*
X137793962Y-84930000D01*
X137870262Y-84909556D01*
X137938671Y-84870060D01*
X137994526Y-84814205D01*
X138004466Y-84796988D01*
X138004466Y-85650842D01*
X138060740Y-85639649D01*
X138060742Y-85639648D01*
X138251824Y-85560499D01*
X138251834Y-85560494D01*
X138423801Y-85445589D01*
X138423805Y-85445586D01*
X138570052Y-85299339D01*
X138570055Y-85299335D01*
X138684960Y-85127368D01*
X138684965Y-85127358D01*
X138764115Y-84936274D01*
X138764117Y-84936266D01*
X138804465Y-84733420D01*
X138804466Y-84733417D01*
X138804466Y-84580000D01*
X138054466Y-84580000D01*
X138054466Y-84080000D01*
X138804466Y-84080000D01*
X138804466Y-83926583D01*
X138804465Y-83926579D01*
X145344466Y-83926579D01*
X145344466Y-84080000D01*
X146094466Y-84080000D01*
X146094466Y-84580000D01*
X145344466Y-84580000D01*
X145344466Y-84733420D01*
X145384814Y-84936266D01*
X145384816Y-84936274D01*
X145463966Y-85127358D01*
X145463971Y-85127368D01*
X145578876Y-85299335D01*
X145578879Y-85299339D01*
X145725126Y-85445586D01*
X145725130Y-85445589D01*
X145897097Y-85560494D01*
X145897107Y-85560499D01*
X146088189Y-85639648D01*
X146088191Y-85639649D01*
X146144466Y-85650842D01*
X146144466Y-84796988D01*
X146154406Y-84814205D01*
X146210261Y-84870060D01*
X146278670Y-84909556D01*
X146354970Y-84930000D01*
X146433962Y-84930000D01*
X146510262Y-84909556D01*
X146578671Y-84870060D01*
X146634526Y-84814205D01*
X146644466Y-84796988D01*
X146644466Y-85650842D01*
X146700740Y-85639649D01*
X146700742Y-85639648D01*
X146891824Y-85560499D01*
X146891834Y-85560494D01*
X147063801Y-85445589D01*
X147063805Y-85445586D01*
X147210052Y-85299339D01*
X147210055Y-85299335D01*
X147324960Y-85127368D01*
X147324965Y-85127358D01*
X147404115Y-84936274D01*
X147404117Y-84936266D01*
X147444465Y-84733420D01*
X147444466Y-84733417D01*
X147444466Y-84580000D01*
X146694466Y-84580000D01*
X146694466Y-84080000D01*
X147444466Y-84080000D01*
X147444466Y-83926583D01*
X147444465Y-83926579D01*
X147404117Y-83723733D01*
X147404115Y-83723725D01*
X147324965Y-83532641D01*
X147324960Y-83532631D01*
X147210055Y-83360664D01*
X147210052Y-83360660D01*
X147063805Y-83214413D01*
X147063801Y-83214410D01*
X146891834Y-83099505D01*
X146891824Y-83099500D01*
X146700738Y-83020349D01*
X146700733Y-83020347D01*
X146644466Y-83009155D01*
X146644466Y-83863011D01*
X146634526Y-83845795D01*
X146578671Y-83789940D01*
X146510262Y-83750444D01*
X146433962Y-83730000D01*
X146354970Y-83730000D01*
X146278670Y-83750444D01*
X146210261Y-83789940D01*
X146154406Y-83845795D01*
X146144466Y-83863011D01*
X146144466Y-83009156D01*
X146144465Y-83009155D01*
X146088198Y-83020347D01*
X146088193Y-83020349D01*
X145897107Y-83099500D01*
X145897097Y-83099505D01*
X145725130Y-83214410D01*
X145725126Y-83214413D01*
X145578879Y-83360660D01*
X145578876Y-83360664D01*
X145463971Y-83532631D01*
X145463966Y-83532641D01*
X145384816Y-83723725D01*
X145384814Y-83723733D01*
X145344466Y-83926579D01*
X138804465Y-83926579D01*
X138764117Y-83723733D01*
X138764115Y-83723725D01*
X138684965Y-83532641D01*
X138684960Y-83532631D01*
X138570055Y-83360664D01*
X138570052Y-83360660D01*
X138423805Y-83214413D01*
X138423801Y-83214410D01*
X138251834Y-83099505D01*
X138251824Y-83099500D01*
X138060738Y-83020349D01*
X138060733Y-83020347D01*
X138004466Y-83009155D01*
X138004466Y-83863011D01*
X137994526Y-83845795D01*
X137938671Y-83789940D01*
X137870262Y-83750444D01*
X137793962Y-83730000D01*
X137714970Y-83730000D01*
X137638670Y-83750444D01*
X137570261Y-83789940D01*
X137514406Y-83845795D01*
X137504466Y-83863011D01*
X137504466Y-83009156D01*
X137504465Y-83009155D01*
X137448198Y-83020347D01*
X137448193Y-83020349D01*
X137257107Y-83099500D01*
X137257097Y-83099505D01*
X137085130Y-83214410D01*
X137085126Y-83214413D01*
X136938879Y-83360660D01*
X136938876Y-83360664D01*
X136823971Y-83532631D01*
X136823966Y-83532641D01*
X136744816Y-83723725D01*
X136744814Y-83723733D01*
X136704466Y-83926579D01*
X133900248Y-83926579D01*
X134114328Y-83647583D01*
X134121278Y-83639300D01*
X134379167Y-83357862D01*
X134386793Y-83350236D01*
X134668235Y-83092343D01*
X134676519Y-83085394D01*
X134761288Y-83020349D01*
X134979348Y-82853026D01*
X134988187Y-82846836D01*
X135310144Y-82641729D01*
X135319485Y-82636336D01*
X135658094Y-82460070D01*
X135667853Y-82455520D01*
X136020560Y-82309427D01*
X136030683Y-82305744D01*
X136394731Y-82190964D01*
X136405178Y-82188165D01*
X136777862Y-82105548D01*
X136788477Y-82103677D01*
X137166930Y-82053858D01*
X137177699Y-82052916D01*
X137561803Y-82036151D01*
X137567202Y-82036034D01*
X137630349Y-82036035D01*
X137630353Y-82036034D01*
X216398573Y-82036034D01*
X216398577Y-82036035D01*
G37*
G04 #@! TD.AperFunction*
M02*
