G04 #@! TF.GenerationSoftware,KiCad,Pcbnew,9.0.3*
G04 #@! TF.CreationDate,2025-08-27T19:30:41-05:00*
G04 #@! TF.ProjectId,stm32card,73746d33-3263-4617-9264-2e6b69636164,rev?*
G04 #@! TF.SameCoordinates,Original*
G04 #@! TF.FileFunction,Soldermask,Top*
G04 #@! TF.FilePolarity,Negative*
%FSLAX46Y46*%
G04 Gerber Fmt 4.6, Leading zero omitted, Abs format (unit mm)*
G04 Created by KiCad (PCBNEW 9.0.3) date 2025-08-27 19:30:41*
%MOMM*%
%LPD*%
G01*
G04 APERTURE LIST*
G04 Aperture macros list*
%AMRoundRect*
0 Rectangle with rounded corners*
0 $1 Rounding radius*
0 $2 $3 $4 $5 $6 $7 $8 $9 X,Y pos of 4 corners*
0 Add a 4 corners polygon primitive as box body*
4,1,4,$2,$3,$4,$5,$6,$7,$8,$9,$2,$3,0*
0 Add four circle primitives for the rounded corners*
1,1,$1+$1,$2,$3*
1,1,$1+$1,$4,$5*
1,1,$1+$1,$6,$7*
1,1,$1+$1,$8,$9*
0 Add four rect primitives between the rounded corners*
20,1,$1+$1,$2,$3,$4,$5,0*
20,1,$1+$1,$4,$5,$6,$7,0*
20,1,$1+$1,$6,$7,$8,$9,0*
20,1,$1+$1,$8,$9,$2,$3,0*%
G04 Aperture macros list end*
%ADD10RoundRect,0.225000X-0.225000X-0.250000X0.225000X-0.250000X0.225000X0.250000X-0.225000X0.250000X0*%
%ADD11RoundRect,0.225000X0.225000X0.250000X-0.225000X0.250000X-0.225000X-0.250000X0.225000X-0.250000X0*%
%ADD12R,1.800000X1.200000*%
%ADD13RoundRect,0.150000X-0.587500X-0.150000X0.587500X-0.150000X0.587500X0.150000X-0.587500X0.150000X0*%
%ADD14RoundRect,0.225000X-0.250000X0.225000X-0.250000X-0.225000X0.250000X-0.225000X0.250000X0.225000X0*%
%ADD15R,3.000000X5.500000*%
%ADD16RoundRect,0.200000X-0.275000X0.200000X-0.275000X-0.200000X0.275000X-0.200000X0.275000X0.200000X0*%
%ADD17RoundRect,0.200000X0.275000X-0.200000X0.275000X0.200000X-0.275000X0.200000X-0.275000X-0.200000X0*%
%ADD18RoundRect,0.200000X0.200000X0.275000X-0.200000X0.275000X-0.200000X-0.275000X0.200000X-0.275000X0*%
%ADD19R,3.500000X2.350000*%
%ADD20C,2.000000*%
%ADD21RoundRect,0.250000X-0.250000X-0.475000X0.250000X-0.475000X0.250000X0.475000X-0.250000X0.475000X0*%
%ADD22RoundRect,0.200000X-0.200000X-0.275000X0.200000X-0.275000X0.200000X0.275000X-0.200000X0.275000X0*%
%ADD23RoundRect,0.112500X0.112500X-0.187500X0.112500X0.187500X-0.112500X0.187500X-0.112500X-0.187500X0*%
%ADD24RoundRect,0.250000X0.650000X-1.000000X0.650000X1.000000X-0.650000X1.000000X-0.650000X-1.000000X0*%
%ADD25R,2.200000X0.400000*%
%ADD26RoundRect,0.100000X-0.225000X-0.100000X0.225000X-0.100000X0.225000X0.100000X-0.225000X0.100000X0*%
%ADD27R,6.450000X5.300000*%
%ADD28RoundRect,0.150000X0.150000X-0.587500X0.150000X0.587500X-0.150000X0.587500X-0.150000X-0.587500X0*%
%ADD29RoundRect,0.102000X0.350000X0.600000X-0.350000X0.600000X-0.350000X-0.600000X0.350000X-0.600000X0*%
%ADD30RoundRect,0.102000X0.380000X0.600000X-0.380000X0.600000X-0.380000X-0.600000X0.380000X-0.600000X0*%
%ADD31RoundRect,0.102000X0.400000X0.600000X-0.400000X0.600000X-0.400000X-0.600000X0.400000X-0.600000X0*%
%ADD32O,1.304000X1.904000*%
%ADD33RoundRect,0.243750X0.456250X-0.243750X0.456250X0.243750X-0.456250X0.243750X-0.456250X-0.243750X0*%
%ADD34R,1.070000X0.530000*%
%ADD35RoundRect,0.150000X0.587500X0.150000X-0.587500X0.150000X-0.587500X-0.150000X0.587500X-0.150000X0*%
%ADD36R,1.200000X0.270000*%
%ADD37R,0.270000X1.200000*%
%ADD38R,1.200000X1.800000*%
%ADD39RoundRect,0.218750X0.256250X-0.218750X0.256250X0.218750X-0.256250X0.218750X-0.256250X-0.218750X0*%
%ADD40R,0.600000X1.000000*%
%ADD41R,1.200000X0.600000*%
%ADD42R,2.400000X3.300000*%
%ADD43RoundRect,0.100000X-0.100000X0.225000X-0.100000X-0.225000X0.100000X-0.225000X0.100000X0.225000X0*%
%ADD44RoundRect,0.250000X1.000000X0.650000X-1.000000X0.650000X-1.000000X-0.650000X1.000000X-0.650000X0*%
%ADD45R,1.200000X0.500000*%
G04 APERTURE END LIST*
D10*
X186594442Y-122410210D03*
X188144442Y-122410210D03*
D11*
X168458966Y-118260712D03*
X166908966Y-118260712D03*
D10*
X158188180Y-107195974D03*
X159738180Y-107195974D03*
D12*
X202951133Y-104665534D03*
X210951133Y-104665534D03*
X202951133Y-109165534D03*
X210951133Y-109165534D03*
D10*
X186498159Y-120535261D03*
X188048159Y-120535261D03*
D13*
X163141120Y-116686961D03*
X163141120Y-118586961D03*
X165016120Y-117636961D03*
D14*
X159771321Y-108741969D03*
X159771321Y-110291969D03*
D15*
X158924572Y-102960590D03*
X154264572Y-102960590D03*
D16*
X148272523Y-93543316D03*
X148272523Y-95193316D03*
D17*
X161212267Y-117283573D03*
X161212267Y-115633573D03*
D14*
X148265612Y-90338172D03*
X148265612Y-91888172D03*
D18*
X161041538Y-127096790D03*
X159391538Y-127096790D03*
D19*
X151018909Y-89007494D03*
X151018909Y-83307494D03*
D20*
X164428408Y-125040799D03*
X164428408Y-129563379D03*
D21*
X150718124Y-96870191D03*
X152618124Y-96870191D03*
D22*
X174374351Y-129940450D03*
X176024351Y-129940450D03*
X158138180Y-111847959D03*
X159788180Y-111847959D03*
D10*
X176162472Y-126786884D03*
X177712472Y-126786884D03*
D23*
X156386756Y-120670500D03*
X156386756Y-118570500D03*
D24*
X150343692Y-117402201D03*
X150343692Y-113402201D03*
D25*
X174559466Y-111035534D03*
X174559466Y-110335534D03*
X174559466Y-109635534D03*
X174559466Y-108935534D03*
X174559466Y-108235534D03*
X174559466Y-107535534D03*
X174559466Y-106835534D03*
X174559466Y-106135534D03*
X174559466Y-105435534D03*
X174559466Y-104735534D03*
X174559466Y-104035534D03*
X174559466Y-103335534D03*
X174559466Y-102635534D03*
D10*
X178467267Y-124578690D03*
X180017267Y-124578690D03*
D18*
X171606612Y-129942382D03*
X169956612Y-129942382D03*
D20*
X138326311Y-91051939D03*
D26*
X158155852Y-120238248D03*
X158155852Y-120888248D03*
X158155852Y-121538248D03*
X160055852Y-121538248D03*
X160055852Y-120888248D03*
X160055852Y-120238248D03*
D16*
X142831133Y-89980534D03*
X142831133Y-91630534D03*
D18*
X156601572Y-97546454D03*
X154951572Y-97546454D03*
D22*
X145769655Y-97587083D03*
X147419655Y-97587083D03*
D10*
X181710179Y-116398550D03*
X183260179Y-116398550D03*
X158188180Y-113473015D03*
X159738180Y-113473015D03*
D22*
X159028030Y-86593369D03*
X160678030Y-86593369D03*
D18*
X154307133Y-124486382D03*
X152657133Y-124486382D03*
D16*
X158155040Y-108691969D03*
X158155040Y-110341969D03*
D11*
X180017267Y-121658690D03*
X178467267Y-121658690D03*
D22*
X183488159Y-120535261D03*
X185138159Y-120535261D03*
X161559017Y-122220255D03*
X163209017Y-122220255D03*
D10*
X186482004Y-118016635D03*
X188032004Y-118016635D03*
D27*
X161087776Y-90140150D03*
X216827776Y-90140150D03*
D28*
X159208406Y-125258345D03*
X161108406Y-125258345D03*
X160158406Y-123383345D03*
D12*
X210951133Y-113132201D03*
X218951133Y-113132201D03*
X210951133Y-117632201D03*
X218951133Y-117632201D03*
D10*
X178467267Y-123118690D03*
X180017267Y-123118690D03*
D12*
X194951133Y-113132201D03*
X202951133Y-113132201D03*
X194951133Y-117632201D03*
X202951133Y-117632201D03*
D22*
X161689189Y-120596440D03*
X163339189Y-120596440D03*
D10*
X164761789Y-120488899D03*
X166311789Y-120488899D03*
D22*
X183584442Y-122410210D03*
X185234442Y-122410210D03*
D10*
X154004818Y-111915048D03*
X155554818Y-111915048D03*
D13*
X158379151Y-97346136D03*
X158379151Y-99246136D03*
X160254151Y-98296136D03*
D29*
X142574466Y-88210000D03*
D30*
X140554466Y-88210000D03*
D31*
X139324466Y-88210000D03*
D29*
X141574466Y-88210000D03*
D30*
X143594466Y-88210000D03*
D31*
X144824466Y-88210000D03*
D32*
X146394466Y-88130000D03*
X146394466Y-84330000D03*
X137754466Y-84330000D03*
X137754466Y-88130000D03*
D33*
X146287603Y-91915281D03*
X146287603Y-90040281D03*
D22*
X183472004Y-118016635D03*
X185122004Y-118016635D03*
D20*
X180271664Y-127327070D03*
D34*
X153629818Y-106919279D03*
X153629818Y-107869279D03*
X153629818Y-108819279D03*
X155929818Y-108819279D03*
X155929818Y-107869279D03*
X155929818Y-106919279D03*
D20*
X218169305Y-94883903D03*
D10*
X168864228Y-116560375D03*
X170414228Y-116560375D03*
D35*
X160229235Y-95781538D03*
X160229235Y-93881538D03*
X158354235Y-94831538D03*
D18*
X163796670Y-97394465D03*
X162146670Y-97394465D03*
D10*
X164569017Y-122220255D03*
X166119017Y-122220255D03*
D36*
X176341495Y-125291194D03*
X176341495Y-124791194D03*
X176341495Y-124291194D03*
X176341495Y-123791194D03*
X176341495Y-123291194D03*
X176341495Y-122791194D03*
X176341495Y-122291194D03*
X176341495Y-121791194D03*
X176341495Y-121291194D03*
X176341495Y-120791194D03*
X176341495Y-120291194D03*
X176341495Y-119791194D03*
D37*
X174991495Y-118441194D03*
X174491495Y-118441194D03*
X173991495Y-118441194D03*
X173491495Y-118441194D03*
X172991495Y-118441194D03*
X172491495Y-118441194D03*
X171991495Y-118441194D03*
X171491495Y-118441194D03*
X170991495Y-118441194D03*
X170491495Y-118441194D03*
X169991495Y-118441194D03*
X169491495Y-118441194D03*
D36*
X168141495Y-119791194D03*
X168141495Y-120291194D03*
X168141495Y-120791194D03*
X168141495Y-121291194D03*
X168141495Y-121791194D03*
X168141495Y-122291194D03*
X168141495Y-122791194D03*
X168141495Y-123291194D03*
X168141495Y-123791194D03*
X168141495Y-124291194D03*
X168141495Y-124791194D03*
X168141495Y-125291194D03*
D37*
X169491495Y-126641194D03*
X169991495Y-126641194D03*
X170491495Y-126641194D03*
X170991495Y-126641194D03*
X171491495Y-126641194D03*
X171991495Y-126641194D03*
X172491495Y-126641194D03*
X172991495Y-126641194D03*
X173491495Y-126641194D03*
X173991495Y-126641194D03*
X174491495Y-126641194D03*
X174991495Y-126641194D03*
D10*
X154607149Y-116828160D03*
X156157149Y-116828160D03*
D22*
X158167759Y-118711221D03*
X159817759Y-118711221D03*
D38*
X146357799Y-127848868D03*
X146357799Y-119848868D03*
X150857799Y-127848868D03*
X150857799Y-119848868D03*
D12*
X210951133Y-126098868D03*
X202951133Y-126098868D03*
X210951133Y-121598868D03*
X202951133Y-121598868D03*
D39*
X144507305Y-91561135D03*
X144507305Y-89986135D03*
D22*
X153954818Y-110310463D03*
X155604818Y-110310463D03*
D40*
X154476567Y-120794558D03*
X153526567Y-120794558D03*
X152576567Y-120794558D03*
X152576567Y-122994558D03*
X154476567Y-122994558D03*
D41*
X156493169Y-94952776D03*
X156493169Y-93682776D03*
X156493169Y-92402776D03*
X156493169Y-91132776D03*
X150673169Y-91132776D03*
X150673169Y-92402776D03*
X150673169Y-93682776D03*
X150673169Y-94952776D03*
D42*
X153583169Y-93042776D03*
D18*
X167345504Y-116264585D03*
X165695504Y-116264585D03*
D14*
X157124998Y-88594361D03*
X157124998Y-90144361D03*
D22*
X178700179Y-116398550D03*
X180350179Y-116398550D03*
D16*
X157597011Y-124014185D03*
X157597011Y-125664185D03*
D43*
X159575680Y-115376388D03*
X158925680Y-115376388D03*
X158275680Y-115376388D03*
X158275680Y-117276388D03*
X158925680Y-117276388D03*
X159575680Y-117276388D03*
D44*
X159921580Y-84036310D03*
X155921580Y-84036310D03*
D20*
X167611415Y-129563379D03*
D16*
X172991495Y-128364551D03*
X172991495Y-130014551D03*
D10*
X174424341Y-128485724D03*
X175974341Y-128485724D03*
D14*
X155695101Y-123373307D03*
X155695101Y-124923307D03*
D11*
X154681287Y-119188736D03*
X153131287Y-119188736D03*
D38*
X146357799Y-110915534D03*
X146357799Y-102915534D03*
X150857799Y-110915534D03*
X150857799Y-102915534D03*
D11*
X167991495Y-126525753D03*
X166441495Y-126525753D03*
D22*
X152629250Y-125997645D03*
X154279250Y-125997645D03*
D45*
X153429818Y-113589341D03*
X153429818Y-114539341D03*
X153429818Y-115489341D03*
X156129818Y-115489341D03*
X156129818Y-113589341D03*
D16*
X141331133Y-89980534D03*
X141331133Y-91630534D03*
M02*
