%TF.GenerationSoftware,KiCad,Pcbnew,9.0.2*%
%TF.CreationDate,2025-07-13T16:14:14-05:00*%
%TF.ProjectId,stm32card,73746d33-3263-4617-9264-2e6b69636164,rev?*%
%TF.SameCoordinates,Original*%
%TF.FileFunction,Legend,Top*%
%TF.FilePolarity,Positive*%
%FSLAX46Y46*%
G04 Gerber Fmt 4.6, Leading zero omitted, Abs format (unit mm)*
G04 Created by KiCad (PCBNEW 9.0.2) date 2025-07-13 16:14:14*
%MOMM*%
%LPD*%
G01*
G04 APERTURE LIST*
G04 Aperture macros list*
%AMRoundRect*
0 Rectangle with rounded corners*
0 $1 Rounding radius*
0 $2 $3 $4 $5 $6 $7 $8 $9 X,Y pos of 4 corners*
0 Add a 4 corners polygon primitive as box body*
4,1,4,$2,$3,$4,$5,$6,$7,$8,$9,$2,$3,0*
0 Add four circle primitives for the rounded corners*
1,1,$1+$1,$2,$3*
1,1,$1+$1,$4,$5*
1,1,$1+$1,$6,$7*
1,1,$1+$1,$8,$9*
0 Add four rect primitives between the rounded corners*
20,1,$1+$1,$2,$3,$4,$5,0*
20,1,$1+$1,$4,$5,$6,$7,0*
20,1,$1+$1,$6,$7,$8,$9,0*
20,1,$1+$1,$8,$9,$2,$3,0*%
G04 Aperture macros list end*
%ADD10C,0.100000*%
%ADD11C,0.150000*%
%ADD12C,0.200000*%
%ADD13C,0.000000*%
%ADD14C,0.120000*%
%ADD15C,0.250000*%
%ADD16C,0.127000*%
%ADD17C,0.300000*%
%ADD18C,0.400000*%
%ADD19C,0.240000*%
%ADD20RoundRect,0.225000X-0.225000X-0.250000X0.225000X-0.250000X0.225000X0.250000X-0.225000X0.250000X0*%
%ADD21RoundRect,0.150000X0.150000X-0.587500X0.150000X0.587500X-0.150000X0.587500X-0.150000X-0.587500X0*%
%ADD22RoundRect,0.225000X0.225000X0.250000X-0.225000X0.250000X-0.225000X-0.250000X0.225000X-0.250000X0*%
%ADD23R,1.800000X1.200000*%
%ADD24RoundRect,0.200000X0.200000X0.275000X-0.200000X0.275000X-0.200000X-0.275000X0.200000X-0.275000X0*%
%ADD25RoundRect,0.225000X-0.250000X0.225000X-0.250000X-0.225000X0.250000X-0.225000X0.250000X0.225000X0*%
%ADD26R,3.000000X5.500000*%
%ADD27RoundRect,0.200000X0.275000X-0.200000X0.275000X0.200000X-0.275000X0.200000X-0.275000X-0.200000X0*%
%ADD28RoundRect,0.225000X0.250000X-0.225000X0.250000X0.225000X-0.250000X0.225000X-0.250000X-0.225000X0*%
%ADD29R,2.350000X3.500000*%
%ADD30C,2.000000*%
%ADD31RoundRect,0.150000X0.587500X0.150000X-0.587500X0.150000X-0.587500X-0.150000X0.587500X-0.150000X0*%
%ADD32RoundRect,0.250000X0.250000X0.475000X-0.250000X0.475000X-0.250000X-0.475000X0.250000X-0.475000X0*%
%ADD33RoundRect,0.200000X-0.200000X-0.275000X0.200000X-0.275000X0.200000X0.275000X-0.200000X0.275000X0*%
%ADD34R,2.200000X0.400000*%
%ADD35RoundRect,0.100000X-0.225000X-0.100000X0.225000X-0.100000X0.225000X0.100000X-0.225000X0.100000X0*%
%ADD36RoundRect,0.200000X-0.275000X0.200000X-0.275000X-0.200000X0.275000X-0.200000X0.275000X0.200000X0*%
%ADD37RoundRect,0.102000X0.350000X0.600000X-0.350000X0.600000X-0.350000X-0.600000X0.350000X-0.600000X0*%
%ADD38RoundRect,0.102000X0.380000X0.600000X-0.380000X0.600000X-0.380000X-0.600000X0.380000X-0.600000X0*%
%ADD39RoundRect,0.102000X0.400000X0.600000X-0.400000X0.600000X-0.400000X-0.600000X0.400000X-0.600000X0*%
%ADD40O,1.304000X1.904000*%
%ADD41RoundRect,0.243750X0.243750X0.456250X-0.243750X0.456250X-0.243750X-0.456250X0.243750X-0.456250X0*%
%ADD42R,1.070000X0.530000*%
%ADD43R,1.200000X0.270000*%
%ADD44R,0.270000X1.200000*%
%ADD45R,1.200000X1.800000*%
%ADD46RoundRect,0.218750X0.218750X0.256250X-0.218750X0.256250X-0.218750X-0.256250X0.218750X-0.256250X0*%
%ADD47R,0.600000X1.000000*%
%ADD48R,1.200000X0.600000*%
%ADD49R,2.400000X3.300000*%
%ADD50RoundRect,0.100000X-0.100000X0.225000X-0.100000X-0.225000X0.100000X-0.225000X0.100000X0.225000X0*%
%ADD51RoundRect,0.250000X0.650000X-1.000000X0.650000X1.000000X-0.650000X1.000000X-0.650000X-1.000000X0*%
%ADD52R,1.200000X0.500000*%
G04 APERTURE END LIST*
D10*
X165719063Y-94153128D02*
X165623825Y-94200747D01*
X165623825Y-94200747D02*
X165433349Y-94200747D01*
X165433349Y-94200747D02*
X165338111Y-94153128D01*
X165338111Y-94153128D02*
X165290492Y-94105508D01*
X165290492Y-94105508D02*
X165242873Y-94010270D01*
X165242873Y-94010270D02*
X165242873Y-93724556D01*
X165242873Y-93724556D02*
X165290492Y-93629318D01*
X165290492Y-93629318D02*
X165338111Y-93581699D01*
X165338111Y-93581699D02*
X165433349Y-93534080D01*
X165433349Y-93534080D02*
X165623825Y-93534080D01*
X165623825Y-93534080D02*
X165719063Y-93581699D01*
X166147635Y-94200747D02*
X166147635Y-93200747D01*
X166576206Y-94200747D02*
X166576206Y-93676937D01*
X166576206Y-93676937D02*
X166528587Y-93581699D01*
X166528587Y-93581699D02*
X166433349Y-93534080D01*
X166433349Y-93534080D02*
X166290492Y-93534080D01*
X166290492Y-93534080D02*
X166195254Y-93581699D01*
X166195254Y-93581699D02*
X166147635Y-93629318D01*
X167052397Y-94200747D02*
X167052397Y-93534080D01*
X167052397Y-93724556D02*
X167100016Y-93629318D01*
X167100016Y-93629318D02*
X167147635Y-93581699D01*
X167147635Y-93581699D02*
X167242873Y-93534080D01*
X167242873Y-93534080D02*
X167338111Y-93534080D01*
X168100016Y-93534080D02*
X168100016Y-94343604D01*
X168100016Y-94343604D02*
X168052397Y-94438842D01*
X168052397Y-94438842D02*
X168004778Y-94486461D01*
X168004778Y-94486461D02*
X167909540Y-94534080D01*
X167909540Y-94534080D02*
X167766683Y-94534080D01*
X167766683Y-94534080D02*
X167671445Y-94486461D01*
X168100016Y-94153128D02*
X168004778Y-94200747D01*
X168004778Y-94200747D02*
X167814302Y-94200747D01*
X167814302Y-94200747D02*
X167719064Y-94153128D01*
X167719064Y-94153128D02*
X167671445Y-94105508D01*
X167671445Y-94105508D02*
X167623826Y-94010270D01*
X167623826Y-94010270D02*
X167623826Y-93724556D01*
X167623826Y-93724556D02*
X167671445Y-93629318D01*
X167671445Y-93629318D02*
X167719064Y-93581699D01*
X167719064Y-93581699D02*
X167814302Y-93534080D01*
X167814302Y-93534080D02*
X168004778Y-93534080D01*
X168004778Y-93534080D02*
X168100016Y-93581699D01*
X165375839Y-91806823D02*
X165756791Y-91806823D01*
X165518696Y-92473490D02*
X165518696Y-91616347D01*
X165518696Y-91616347D02*
X165566315Y-91521109D01*
X165566315Y-91521109D02*
X165661553Y-91473490D01*
X165661553Y-91473490D02*
X165756791Y-91473490D01*
X166518696Y-91806823D02*
X166518696Y-92473490D01*
X166090125Y-91806823D02*
X166090125Y-92330632D01*
X166090125Y-92330632D02*
X166137744Y-92425871D01*
X166137744Y-92425871D02*
X166232982Y-92473490D01*
X166232982Y-92473490D02*
X166375839Y-92473490D01*
X166375839Y-92473490D02*
X166471077Y-92425871D01*
X166471077Y-92425871D02*
X166518696Y-92378251D01*
X167137744Y-92473490D02*
X167042506Y-92425871D01*
X167042506Y-92425871D02*
X166994887Y-92330632D01*
X166994887Y-92330632D02*
X166994887Y-91473490D01*
X167661554Y-92473490D02*
X167566316Y-92425871D01*
X167566316Y-92425871D02*
X167518697Y-92330632D01*
X167518697Y-92330632D02*
X167518697Y-91473490D01*
D11*
X155792732Y-83189147D02*
X155316542Y-83189147D01*
X155316542Y-83189147D02*
X155316542Y-82189147D01*
X156649875Y-83189147D02*
X156078447Y-83189147D01*
X156364161Y-83189147D02*
X156364161Y-82189147D01*
X156364161Y-82189147D02*
X156268923Y-82332004D01*
X156268923Y-82332004D02*
X156173685Y-82427242D01*
X156173685Y-82427242D02*
X156078447Y-82474861D01*
X178014285Y-107597438D02*
X178823808Y-107597438D01*
X178823808Y-107597438D02*
X178919046Y-107549819D01*
X178919046Y-107549819D02*
X178966666Y-107502200D01*
X178966666Y-107502200D02*
X179014285Y-107406962D01*
X179014285Y-107406962D02*
X179014285Y-107216486D01*
X179014285Y-107216486D02*
X178966666Y-107121248D01*
X178966666Y-107121248D02*
X178919046Y-107073629D01*
X178919046Y-107073629D02*
X178823808Y-107026010D01*
X178823808Y-107026010D02*
X178014285Y-107026010D01*
X178014285Y-106073629D02*
X178014285Y-106549819D01*
X178014285Y-106549819D02*
X178490475Y-106597438D01*
X178490475Y-106597438D02*
X178442856Y-106549819D01*
X178442856Y-106549819D02*
X178395237Y-106454581D01*
X178395237Y-106454581D02*
X178395237Y-106216486D01*
X178395237Y-106216486D02*
X178442856Y-106121248D01*
X178442856Y-106121248D02*
X178490475Y-106073629D01*
X178490475Y-106073629D02*
X178585713Y-106026010D01*
X178585713Y-106026010D02*
X178823808Y-106026010D01*
X178823808Y-106026010D02*
X178919046Y-106073629D01*
X178919046Y-106073629D02*
X178966666Y-106121248D01*
X178966666Y-106121248D02*
X179014285Y-106216486D01*
X179014285Y-106216486D02*
X179014285Y-106454581D01*
X179014285Y-106454581D02*
X178966666Y-106549819D01*
X178966666Y-106549819D02*
X178919046Y-106597438D01*
D12*
X172711685Y-112107588D02*
X172711685Y-112679016D01*
X172711685Y-112393302D02*
X171711685Y-112393302D01*
X171711685Y-112393302D02*
X171854542Y-112488540D01*
X171854542Y-112488540D02*
X171949780Y-112583778D01*
X171949780Y-112583778D02*
X171997399Y-112679016D01*
X172711685Y-102309969D02*
X172711685Y-102881397D01*
X172711685Y-102595683D02*
X171711685Y-102595683D01*
X171711685Y-102595683D02*
X171854542Y-102690921D01*
X171854542Y-102690921D02*
X171949780Y-102786159D01*
X171949780Y-102786159D02*
X171997399Y-102881397D01*
X171711685Y-101976635D02*
X171711685Y-101357588D01*
X171711685Y-101357588D02*
X172092637Y-101690921D01*
X172092637Y-101690921D02*
X172092637Y-101548064D01*
X172092637Y-101548064D02*
X172140256Y-101452826D01*
X172140256Y-101452826D02*
X172187875Y-101405207D01*
X172187875Y-101405207D02*
X172283113Y-101357588D01*
X172283113Y-101357588D02*
X172521208Y-101357588D01*
X172521208Y-101357588D02*
X172616446Y-101405207D01*
X172616446Y-101405207D02*
X172664066Y-101452826D01*
X172664066Y-101452826D02*
X172711685Y-101548064D01*
X172711685Y-101548064D02*
X172711685Y-101833778D01*
X172711685Y-101833778D02*
X172664066Y-101929016D01*
X172664066Y-101929016D02*
X172616446Y-101976635D01*
D13*
%TO.C,G\u002A\u002A\u002A*%
G36*
X137504732Y-116130444D02*
G01*
X137504732Y-117138380D01*
X136496795Y-117138380D01*
X135488859Y-117138380D01*
X135488859Y-116850399D01*
X135776841Y-116850399D01*
X136496795Y-116850399D01*
X137216750Y-116850399D01*
X137216750Y-116130444D01*
X137216750Y-115410489D01*
X136496795Y-115410489D01*
X135776841Y-115410489D01*
X135776841Y-116130444D01*
X135776841Y-116850399D01*
X135488859Y-116850399D01*
X135488859Y-116130444D01*
X135488859Y-115122507D01*
X136496795Y-115122507D01*
X137504732Y-115122507D01*
X137504732Y-116130444D01*
G37*
G36*
X138368678Y-116706408D02*
G01*
X138368678Y-116850399D01*
X138512668Y-116850399D01*
X138656659Y-116850399D01*
X138656659Y-116994389D01*
X138656659Y-117138380D01*
X138224687Y-117138380D01*
X137792714Y-117138380D01*
X137792714Y-116850399D01*
X137792714Y-116562417D01*
X138080696Y-116562417D01*
X138368678Y-116562417D01*
X138368678Y-116706408D01*
G37*
G36*
X139232623Y-116994389D02*
G01*
X139232623Y-117138380D01*
X139088632Y-117138380D01*
X138944641Y-117138380D01*
X138944641Y-116994389D01*
X138944641Y-116850399D01*
X139088632Y-116850399D01*
X139232623Y-116850399D01*
X139232623Y-116994389D01*
G37*
G36*
X140672532Y-116418426D02*
G01*
X140672532Y-116562417D01*
X140528541Y-116562417D01*
X140384551Y-116562417D01*
X140384551Y-116706408D01*
X140384551Y-116850399D01*
X140528541Y-116850399D01*
X140672532Y-116850399D01*
X140672532Y-116994389D01*
X140672532Y-117138380D01*
X140240560Y-117138380D01*
X139808587Y-117138380D01*
X139808587Y-116994389D01*
X139808587Y-116850399D01*
X139664596Y-116850399D01*
X139520605Y-116850399D01*
X139520605Y-116706408D01*
X139520605Y-116562417D01*
X139664596Y-116562417D01*
X139808587Y-116562417D01*
X139808587Y-116706408D01*
X139808587Y-116850399D01*
X139952578Y-116850399D01*
X140096569Y-116850399D01*
X140096569Y-116706408D01*
X140096569Y-116562417D01*
X140240560Y-116562417D01*
X140384551Y-116562417D01*
X140384551Y-116418426D01*
X140384551Y-116274435D01*
X140528541Y-116274435D01*
X140672532Y-116274435D01*
X140672532Y-116418426D01*
G37*
G36*
X141248496Y-116994389D02*
G01*
X141248496Y-117138380D01*
X141104505Y-117138380D01*
X140960514Y-117138380D01*
X140960514Y-116994389D01*
X140960514Y-116850399D01*
X141104505Y-116850399D01*
X141248496Y-116850399D01*
X141248496Y-116994389D01*
G37*
G36*
X142688405Y-116994389D02*
G01*
X142688405Y-117138380D01*
X142400424Y-117138380D01*
X142112442Y-117138380D01*
X142112442Y-116994389D01*
X142112442Y-116850399D01*
X142400424Y-116850399D01*
X142688405Y-116850399D01*
X142688405Y-116994389D01*
G37*
G36*
X140096569Y-110082825D02*
G01*
X140096569Y-110226816D01*
X140240560Y-110226816D01*
X140384551Y-110226816D01*
X140384551Y-110370807D01*
X140384551Y-110514798D01*
X140240560Y-110514798D01*
X140096569Y-110514798D01*
X140096569Y-110658789D01*
X140096569Y-110802780D01*
X139952578Y-110802780D01*
X139808587Y-110802780D01*
X139808587Y-110946770D01*
X139808587Y-111090761D01*
X139952578Y-111090761D01*
X140096569Y-111090761D01*
X140096569Y-111234752D01*
X140096569Y-111378743D01*
X140240560Y-111378743D01*
X140384551Y-111378743D01*
X140384551Y-111666725D01*
X140384551Y-111954707D01*
X140240560Y-111954707D01*
X140096569Y-111954707D01*
X140096569Y-112098698D01*
X140096569Y-112242689D01*
X139952578Y-112242689D01*
X139808587Y-112242689D01*
X139808587Y-112386680D01*
X139808587Y-112530671D01*
X139520605Y-112530671D01*
X139232623Y-112530671D01*
X139232623Y-112674662D01*
X139232623Y-112818653D01*
X139376614Y-112818653D01*
X139520605Y-112818653D01*
X139520605Y-113106634D01*
X139520605Y-113394616D01*
X139232623Y-113394616D01*
X138944641Y-113394616D01*
X138944641Y-113970580D01*
X138944641Y-114546544D01*
X138656659Y-114546544D01*
X138368678Y-114546544D01*
X138368678Y-114690535D01*
X138368678Y-114834526D01*
X138224687Y-114834526D01*
X138080696Y-114834526D01*
X138080696Y-115122507D01*
X138080696Y-115410489D01*
X138368678Y-115410489D01*
X138656659Y-115410489D01*
X138656659Y-115266498D01*
X138656659Y-115122507D01*
X138800650Y-115122507D01*
X138944641Y-115122507D01*
X138944641Y-114834526D01*
X138944641Y-114546544D01*
X139232623Y-114546544D01*
X139520605Y-114546544D01*
X139520605Y-114690535D01*
X139520605Y-114834526D01*
X139808587Y-114834526D01*
X140096569Y-114834526D01*
X140096569Y-114690535D01*
X140096569Y-114546544D01*
X139952578Y-114546544D01*
X139808587Y-114546544D01*
X139808587Y-114402553D01*
X139808587Y-114258562D01*
X139952578Y-114258562D01*
X140096569Y-114258562D01*
X140096569Y-114402553D01*
X140096569Y-114546544D01*
X140384551Y-114546544D01*
X140672532Y-114546544D01*
X140960514Y-114546544D01*
X141104505Y-114546544D01*
X141248496Y-114546544D01*
X141248496Y-114402553D01*
X141248496Y-114258562D01*
X141104505Y-114258562D01*
X140960514Y-114258562D01*
X140960514Y-114402553D01*
X140960514Y-114546544D01*
X140672532Y-114546544D01*
X140672532Y-114402553D01*
X140672532Y-114258562D01*
X140528541Y-114258562D01*
X140384551Y-114258562D01*
X140384551Y-113970580D01*
X140384551Y-113682598D01*
X140240560Y-113682598D01*
X140096569Y-113682598D01*
X140096569Y-113538607D01*
X140096569Y-113394616D01*
X140528541Y-113394616D01*
X140960514Y-113394616D01*
X140960514Y-113250625D01*
X140960514Y-113106634D01*
X140816523Y-113106634D01*
X140672532Y-113106634D01*
X140672532Y-112674662D01*
X140672532Y-112242689D01*
X141104505Y-112242689D01*
X141536478Y-112242689D01*
X141536478Y-112386680D01*
X141536478Y-112530671D01*
X141248496Y-112530671D01*
X140960514Y-112530671D01*
X140960514Y-112674662D01*
X140960514Y-112818653D01*
X141104505Y-112818653D01*
X141248496Y-112818653D01*
X141248496Y-112962643D01*
X141248496Y-113106634D01*
X141392487Y-113106634D01*
X141536478Y-113106634D01*
X141536478Y-113250625D01*
X141536478Y-113394616D01*
X141248496Y-113394616D01*
X140960514Y-113394616D01*
X140960514Y-113538607D01*
X140960514Y-113682598D01*
X141104505Y-113682598D01*
X141248496Y-113682598D01*
X141248496Y-113826589D01*
X141248496Y-113970580D01*
X141392487Y-113970580D01*
X141536478Y-113970580D01*
X141536478Y-114258562D01*
X141536478Y-114546544D01*
X141824460Y-114546544D01*
X142112442Y-114546544D01*
X142112442Y-114402553D01*
X142112442Y-114258562D01*
X142256433Y-114258562D01*
X142400424Y-114258562D01*
X142400424Y-113970580D01*
X142400424Y-113682598D01*
X142256433Y-113682598D01*
X142112442Y-113682598D01*
X142112442Y-113970580D01*
X142112442Y-114258562D01*
X141968451Y-114258562D01*
X141824460Y-114258562D01*
X141824460Y-114114571D01*
X141824460Y-113970580D01*
X141680469Y-113970580D01*
X141536478Y-113970580D01*
X141536478Y-113682598D01*
X141536478Y-113394616D01*
X141680469Y-113394616D01*
X141824460Y-113394616D01*
X141824460Y-113538607D01*
X141824460Y-113682598D01*
X141968451Y-113682598D01*
X142112442Y-113682598D01*
X142112442Y-113538607D01*
X142112442Y-113394616D01*
X142400424Y-113394616D01*
X142688405Y-113394616D01*
X142688405Y-113826589D01*
X142688405Y-114258562D01*
X142544414Y-114258562D01*
X142400424Y-114258562D01*
X142400424Y-114402553D01*
X142400424Y-114546544D01*
X142256433Y-114546544D01*
X142112442Y-114546544D01*
X142112442Y-114690535D01*
X142112442Y-114834526D01*
X141968451Y-114834526D01*
X141824460Y-114834526D01*
X141824460Y-115122507D01*
X141824460Y-115410489D01*
X141968451Y-115410489D01*
X142112442Y-115410489D01*
X142112442Y-115266498D01*
X142112442Y-115122507D01*
X142256433Y-115122507D01*
X142400424Y-115122507D01*
X142400424Y-114978516D01*
X142400424Y-114834526D01*
X142544414Y-114834526D01*
X142688405Y-114834526D01*
X142688405Y-115122507D01*
X142688405Y-115410489D01*
X142544414Y-115410489D01*
X142400424Y-115410489D01*
X142400424Y-115554480D01*
X142400424Y-115698471D01*
X142112442Y-115698471D01*
X141824460Y-115698471D01*
X141824460Y-115842462D01*
X141824460Y-115986453D01*
X141968451Y-115986453D01*
X142112442Y-115986453D01*
X142112442Y-116274435D01*
X142112442Y-116562417D01*
X141968451Y-116562417D01*
X141824460Y-116562417D01*
X141824460Y-116706408D01*
X141824460Y-116850399D01*
X141680469Y-116850399D01*
X141536478Y-116850399D01*
X141536478Y-116706408D01*
X141536478Y-116562417D01*
X141680469Y-116562417D01*
X141824460Y-116562417D01*
X141824460Y-116418426D01*
X141824460Y-116274435D01*
X141680469Y-116274435D01*
X141536478Y-116274435D01*
X141536478Y-116418426D01*
X141536478Y-116562417D01*
X141248496Y-116562417D01*
X140960514Y-116562417D01*
X140960514Y-116418426D01*
X140960514Y-116274435D01*
X140960514Y-115986453D01*
X140528541Y-115986453D01*
X140096569Y-115986453D01*
X140096569Y-116130444D01*
X140096569Y-116274435D01*
X139808587Y-116274435D01*
X139520605Y-116274435D01*
X139520605Y-116130444D01*
X139520605Y-115986453D01*
X139808587Y-115986453D01*
X140096569Y-115986453D01*
X140096569Y-115698471D01*
X140384551Y-115698471D01*
X140816523Y-115698471D01*
X141248496Y-115698471D01*
X141248496Y-115266498D01*
X141248496Y-114834526D01*
X140816523Y-114834526D01*
X140384551Y-114834526D01*
X140384551Y-115266498D01*
X140384551Y-115698471D01*
X140096569Y-115698471D01*
X140096569Y-115410489D01*
X139952578Y-115410489D01*
X139808587Y-115410489D01*
X139808587Y-115554480D01*
X139808587Y-115698471D01*
X139664596Y-115698471D01*
X139520605Y-115698471D01*
X139520605Y-115410489D01*
X139520605Y-115266498D01*
X139520605Y-115122507D01*
X139376614Y-115122507D01*
X139232623Y-115122507D01*
X139232623Y-115410489D01*
X139232623Y-115698471D01*
X139088632Y-115698471D01*
X138944641Y-115698471D01*
X138944641Y-115554480D01*
X138944641Y-115410489D01*
X138800650Y-115410489D01*
X138656659Y-115410489D01*
X138656659Y-115698471D01*
X138656659Y-115986453D01*
X138368678Y-115986453D01*
X138080696Y-115986453D01*
X138080696Y-116130444D01*
X138080696Y-116274435D01*
X137936705Y-116274435D01*
X137792714Y-116274435D01*
X137792714Y-116130444D01*
X137792714Y-115986453D01*
X137936705Y-115986453D01*
X138080696Y-115986453D01*
X138080696Y-115698471D01*
X138080696Y-115410489D01*
X137936705Y-115410489D01*
X137792714Y-115410489D01*
X137792714Y-115122507D01*
X137792714Y-114834526D01*
X137360741Y-114834526D01*
X136928768Y-114834526D01*
X136928768Y-114690535D01*
X136928768Y-114546544D01*
X136784777Y-114546544D01*
X136640786Y-114546544D01*
X136640786Y-114690535D01*
X136640786Y-114834526D01*
X136064823Y-114834526D01*
X135488859Y-114834526D01*
X135488859Y-114690535D01*
X135488859Y-114546544D01*
X135632850Y-114546544D01*
X135776841Y-114546544D01*
X135776841Y-114402553D01*
X135776841Y-114258562D01*
X135920832Y-114258562D01*
X136064823Y-114258562D01*
X136064823Y-114402553D01*
X136064823Y-114546544D01*
X136352805Y-114546544D01*
X136640786Y-114546544D01*
X136640786Y-114258562D01*
X136640786Y-113970580D01*
X136784777Y-113970580D01*
X136928768Y-113970580D01*
X136928768Y-114258562D01*
X136928768Y-114546544D01*
X137360741Y-114546544D01*
X137792714Y-114546544D01*
X137792714Y-114402553D01*
X137792714Y-114258562D01*
X137504732Y-114258562D01*
X137216750Y-114258562D01*
X137216750Y-114114571D01*
X137216750Y-113970580D01*
X137360741Y-113970580D01*
X137504732Y-113970580D01*
X137504732Y-113826589D01*
X137504732Y-113682598D01*
X137648723Y-113682598D01*
X137792714Y-113682598D01*
X137792714Y-113826589D01*
X137792714Y-113970580D01*
X137936705Y-113970580D01*
X138080696Y-113970580D01*
X138080696Y-114114571D01*
X138080696Y-114258562D01*
X138224687Y-114258562D01*
X138368678Y-114258562D01*
X138368678Y-114114571D01*
X138368678Y-113970580D01*
X138512668Y-113970580D01*
X138656659Y-113970580D01*
X138656659Y-113826589D01*
X138656659Y-113682598D01*
X138512668Y-113682598D01*
X138368678Y-113682598D01*
X138368678Y-113538607D01*
X138368678Y-113394616D01*
X138224687Y-113394616D01*
X138080696Y-113394616D01*
X138080696Y-113538607D01*
X138080696Y-113682598D01*
X137936705Y-113682598D01*
X137792714Y-113682598D01*
X137792714Y-113538607D01*
X137792714Y-113394616D01*
X137936705Y-113394616D01*
X138080696Y-113394616D01*
X138080696Y-113250625D01*
X138080696Y-113106634D01*
X137936705Y-113106634D01*
X137792714Y-113106634D01*
X137792714Y-112962643D01*
X137792714Y-112818653D01*
X137936705Y-112818653D01*
X138080696Y-112818653D01*
X138080696Y-112674662D01*
X138080696Y-112530671D01*
X138224687Y-112530671D01*
X138368678Y-112530671D01*
X138368678Y-112674662D01*
X138368678Y-112818653D01*
X138224687Y-112818653D01*
X138080696Y-112818653D01*
X138080696Y-112962643D01*
X138080696Y-113106634D01*
X138368678Y-113106634D01*
X138656659Y-113106634D01*
X138656659Y-112674662D01*
X138656659Y-112242689D01*
X138512668Y-112242689D01*
X138368678Y-112242689D01*
X138368678Y-111810716D01*
X138368678Y-111378743D01*
X138224687Y-111378743D01*
X138080696Y-111378743D01*
X138080696Y-111810716D01*
X138080696Y-112242689D01*
X137936705Y-112242689D01*
X137792714Y-112242689D01*
X137792714Y-112386680D01*
X137792714Y-112530671D01*
X137504732Y-112530671D01*
X137216750Y-112530671D01*
X137216750Y-112386680D01*
X137216750Y-112242689D01*
X137504732Y-112242689D01*
X137792714Y-112242689D01*
X137792714Y-111666725D01*
X137792714Y-111090761D01*
X137936705Y-111090761D01*
X138080696Y-111090761D01*
X138080696Y-110946770D01*
X138080696Y-110802780D01*
X138224687Y-110802780D01*
X138368678Y-110802780D01*
X138368678Y-110946770D01*
X138368678Y-111090761D01*
X138512668Y-111090761D01*
X138656659Y-111090761D01*
X138656659Y-111522734D01*
X138656659Y-111954707D01*
X138800650Y-111954707D01*
X138944641Y-111954707D01*
X138944641Y-111378743D01*
X138944641Y-110802780D01*
X139088632Y-110802780D01*
X139232623Y-110802780D01*
X139232623Y-111378743D01*
X139232623Y-111954707D01*
X139088632Y-111954707D01*
X138944641Y-111954707D01*
X138944641Y-112098698D01*
X138944641Y-112242689D01*
X139232623Y-112242689D01*
X139520605Y-112242689D01*
X139520605Y-111954707D01*
X139808587Y-111954707D01*
X139952578Y-111954707D01*
X140096569Y-111954707D01*
X140096569Y-111810716D01*
X140096569Y-111666725D01*
X139952578Y-111666725D01*
X139808587Y-111666725D01*
X139808587Y-111810716D01*
X139808587Y-111954707D01*
X139520605Y-111954707D01*
X139520605Y-111810716D01*
X139520605Y-111666725D01*
X139664596Y-111666725D01*
X139808587Y-111666725D01*
X139808587Y-111522734D01*
X139808587Y-111378743D01*
X139664596Y-111378743D01*
X139520605Y-111378743D01*
X139520605Y-110946770D01*
X139520605Y-110514798D01*
X139664596Y-110514798D01*
X139808587Y-110514798D01*
X139808587Y-110370807D01*
X139808587Y-110226816D01*
X139664596Y-110226816D01*
X139520605Y-110226816D01*
X139520605Y-110370807D01*
X139520605Y-110514798D01*
X139376614Y-110514798D01*
X139232623Y-110514798D01*
X139232623Y-110370807D01*
X139232623Y-110226816D01*
X139376614Y-110226816D01*
X139520605Y-110226816D01*
X139520605Y-110082825D01*
X139520605Y-109938834D01*
X139808587Y-109938834D01*
X140096569Y-109938834D01*
X140096569Y-110082825D01*
G37*
G36*
X136064823Y-112386680D02*
G01*
X136064823Y-112530671D01*
X135920832Y-112530671D01*
X135776841Y-112530671D01*
X135776841Y-112674662D01*
X135776841Y-112818653D01*
X136208814Y-112818653D01*
X136640786Y-112818653D01*
X136640786Y-112674662D01*
X136640786Y-112530671D01*
X136784777Y-112530671D01*
X136928768Y-112530671D01*
X136928768Y-112674662D01*
X136928768Y-112818653D01*
X136784777Y-112818653D01*
X136640786Y-112818653D01*
X136640786Y-113106634D01*
X136640786Y-113394616D01*
X136784777Y-113394616D01*
X136928768Y-113394616D01*
X136928768Y-113538607D01*
X136928768Y-113682598D01*
X137072759Y-113682598D01*
X137216750Y-113682598D01*
X137216750Y-113538607D01*
X137216750Y-113394616D01*
X137360741Y-113394616D01*
X137504732Y-113394616D01*
X137504732Y-113538607D01*
X137504732Y-113682598D01*
X137360741Y-113682598D01*
X137216750Y-113682598D01*
X137216750Y-113826589D01*
X137216750Y-113970580D01*
X137072759Y-113970580D01*
X136928768Y-113970580D01*
X136928768Y-113826589D01*
X136928768Y-113682598D01*
X136496795Y-113682598D01*
X136064823Y-113682598D01*
X136064823Y-113826589D01*
X136064823Y-113970580D01*
X135920832Y-113970580D01*
X135776841Y-113970580D01*
X135776841Y-114114571D01*
X135776841Y-114258562D01*
X135632850Y-114258562D01*
X135488859Y-114258562D01*
X135488859Y-114114571D01*
X135488859Y-113970580D01*
X135632850Y-113970580D01*
X135776841Y-113970580D01*
X135776841Y-113682598D01*
X135776841Y-113394616D01*
X136064823Y-113394616D01*
X136352805Y-113394616D01*
X136352805Y-113250625D01*
X136352805Y-113106634D01*
X136064823Y-113106634D01*
X135776841Y-113106634D01*
X135776841Y-113250625D01*
X135776841Y-113394616D01*
X135632850Y-113394616D01*
X135488859Y-113394616D01*
X135488859Y-113250625D01*
X135488859Y-112818653D01*
X135488859Y-112242689D01*
X135776841Y-112242689D01*
X136064823Y-112242689D01*
X136064823Y-112386680D01*
G37*
G36*
X138944641Y-116130444D02*
G01*
X138944641Y-116274435D01*
X138800650Y-116274435D01*
X138656659Y-116274435D01*
X138656659Y-116130444D01*
X138656659Y-115986453D01*
X138800650Y-115986453D01*
X138944641Y-115986453D01*
X138944641Y-116130444D01*
G37*
G36*
X142688405Y-115842462D02*
G01*
X142688405Y-115986453D01*
X142544414Y-115986453D01*
X142400424Y-115986453D01*
X142400424Y-115842462D01*
X142400424Y-115698471D01*
X142544414Y-115698471D01*
X142688405Y-115698471D01*
X142688405Y-115842462D01*
G37*
G36*
X139808587Y-113538607D02*
G01*
X139808587Y-113682598D01*
X139664596Y-113682598D01*
X139520605Y-113682598D01*
X139520605Y-113826589D01*
X139520605Y-113970580D01*
X139664596Y-113970580D01*
X139808587Y-113970580D01*
X139808587Y-114114571D01*
X139808587Y-114258562D01*
X139520605Y-114258562D01*
X139232623Y-114258562D01*
X139232623Y-113970580D01*
X139232623Y-113682598D01*
X139376614Y-113682598D01*
X139520605Y-113682598D01*
X139520605Y-113538607D01*
X139520605Y-113394616D01*
X139664596Y-113394616D01*
X139808587Y-113394616D01*
X139808587Y-113538607D01*
G37*
G36*
X137504732Y-112962643D02*
G01*
X137504732Y-113106634D01*
X137216750Y-113106634D01*
X136928768Y-113106634D01*
X136928768Y-112962643D01*
X136928768Y-112818653D01*
X137216750Y-112818653D01*
X137504732Y-112818653D01*
X137504732Y-112962643D01*
G37*
G36*
X140384551Y-112674662D02*
G01*
X140384551Y-113106634D01*
X140240560Y-113106634D01*
X140096569Y-113106634D01*
X140096569Y-112674662D01*
X140096569Y-112242689D01*
X140240560Y-112242689D01*
X140384551Y-112242689D01*
X140384551Y-112674662D01*
G37*
G36*
X136640786Y-112386680D02*
G01*
X136640786Y-112530671D01*
X136496795Y-112530671D01*
X136352805Y-112530671D01*
X136352805Y-112386680D01*
X136352805Y-112242689D01*
X136496795Y-112242689D01*
X136640786Y-112242689D01*
X136640786Y-112386680D01*
G37*
G36*
X138656659Y-110226816D02*
G01*
X138656659Y-110514798D01*
X138368678Y-110514798D01*
X138080696Y-110514798D01*
X138080696Y-110658789D01*
X138080696Y-110802780D01*
X137936705Y-110802780D01*
X137792714Y-110802780D01*
X137792714Y-110514798D01*
X137792714Y-110226816D01*
X138080696Y-110226816D01*
X138368678Y-110226816D01*
X138368678Y-110082825D01*
X138368678Y-109938834D01*
X138512668Y-109938834D01*
X138656659Y-109938834D01*
X138656659Y-110226816D01*
G37*
G36*
X142688405Y-116418426D02*
G01*
X142688405Y-116562417D01*
X142544414Y-116562417D01*
X142400424Y-116562417D01*
X142400424Y-116418426D01*
X142400424Y-116274435D01*
X142544414Y-116274435D01*
X142688405Y-116274435D01*
X142688405Y-116418426D01*
G37*
G36*
X142688405Y-112818653D02*
G01*
X142688405Y-113106634D01*
X142400424Y-113106634D01*
X142112442Y-113106634D01*
X142112442Y-112962643D01*
X142112442Y-112818653D01*
X142256433Y-112818653D01*
X142400424Y-112818653D01*
X142400424Y-112674662D01*
X142400424Y-112530671D01*
X142544414Y-112530671D01*
X142688405Y-112530671D01*
X142688405Y-112818653D01*
G37*
G36*
X142400424Y-112386680D02*
G01*
X142400424Y-112530671D01*
X142112442Y-112530671D01*
X141824460Y-112530671D01*
X141824460Y-112386680D01*
X141824460Y-112242689D01*
X142112442Y-112242689D01*
X142400424Y-112242689D01*
X142400424Y-112386680D01*
G37*
G36*
X137504732Y-110946770D02*
G01*
X137504732Y-111954707D01*
X136496795Y-111954707D01*
X135488859Y-111954707D01*
X135488859Y-111666725D01*
X135776841Y-111666725D01*
X136496795Y-111666725D01*
X137216750Y-111666725D01*
X137216750Y-110946770D01*
X137216750Y-110226816D01*
X136496795Y-110226816D01*
X135776841Y-110226816D01*
X135776841Y-110946770D01*
X135776841Y-111666725D01*
X135488859Y-111666725D01*
X135488859Y-110946770D01*
X135488859Y-109938834D01*
X136496795Y-109938834D01*
X137504732Y-109938834D01*
X137504732Y-110946770D01*
G37*
G36*
X142688405Y-110946770D02*
G01*
X142688405Y-111954707D01*
X141680469Y-111954707D01*
X140672532Y-111954707D01*
X140672532Y-111666725D01*
X140960514Y-111666725D01*
X141680469Y-111666725D01*
X142400424Y-111666725D01*
X142400424Y-110946770D01*
X142400424Y-110226816D01*
X141680469Y-110226816D01*
X140960514Y-110226816D01*
X140960514Y-110946770D01*
X140960514Y-111666725D01*
X140672532Y-111666725D01*
X140672532Y-110946770D01*
X140672532Y-109938834D01*
X141680469Y-109938834D01*
X142688405Y-109938834D01*
X142688405Y-110946770D01*
G37*
G36*
X136928768Y-116130444D02*
G01*
X136928768Y-116562417D01*
X136496795Y-116562417D01*
X136064823Y-116562417D01*
X136064823Y-116130444D01*
X136064823Y-115698471D01*
X136496795Y-115698471D01*
X136928768Y-115698471D01*
X136928768Y-116130444D01*
G37*
G36*
X140960514Y-115266498D02*
G01*
X140960514Y-115410489D01*
X140816523Y-115410489D01*
X140672532Y-115410489D01*
X140672532Y-115266498D01*
X140672532Y-115122507D01*
X140816523Y-115122507D01*
X140960514Y-115122507D01*
X140960514Y-115266498D01*
G37*
G36*
X138368678Y-113826589D02*
G01*
X138368678Y-113970580D01*
X138224687Y-113970580D01*
X138080696Y-113970580D01*
X138080696Y-113826589D01*
X138080696Y-113682598D01*
X138224687Y-113682598D01*
X138368678Y-113682598D01*
X138368678Y-113826589D01*
G37*
G36*
X136928768Y-110946770D02*
G01*
X136928768Y-111378743D01*
X136496795Y-111378743D01*
X136064823Y-111378743D01*
X136064823Y-110946770D01*
X136064823Y-110514798D01*
X136496795Y-110514798D01*
X136928768Y-110514798D01*
X136928768Y-110946770D01*
G37*
G36*
X142112442Y-110946770D02*
G01*
X142112442Y-111378743D01*
X141680469Y-111378743D01*
X141248496Y-111378743D01*
X141248496Y-110946770D01*
X141248496Y-110514798D01*
X141680469Y-110514798D01*
X142112442Y-110514798D01*
X142112442Y-110946770D01*
G37*
G36*
X136820335Y-119322019D02*
G01*
X136899889Y-119388538D01*
X136944633Y-119442289D01*
X137003363Y-119521535D01*
X137041081Y-119577042D01*
X137065386Y-119624258D01*
X137083876Y-119678632D01*
X137104150Y-119755610D01*
X137109902Y-119778283D01*
X137137236Y-119884081D01*
X137165941Y-119992403D01*
X137183595Y-120057271D01*
X137206731Y-120150104D01*
X137230914Y-120261553D01*
X137245231Y-120336258D01*
X137271808Y-120445726D01*
X137311880Y-120567238D01*
X137346607Y-120651636D01*
X137439440Y-120847880D01*
X137516015Y-121002411D01*
X137578073Y-121118572D01*
X137627358Y-121199706D01*
X137646037Y-121225947D01*
X137683739Y-121281493D01*
X137704009Y-121323268D01*
X137705123Y-121329830D01*
X137715389Y-121362364D01*
X137742768Y-121426305D01*
X137782128Y-121509939D01*
X137798798Y-121543722D01*
X137846347Y-121642653D01*
X137888512Y-121737038D01*
X137917692Y-121809694D01*
X137921916Y-121821983D01*
X137950193Y-121886124D01*
X137982680Y-121929332D01*
X137989134Y-121933910D01*
X138012692Y-121967621D01*
X138042306Y-122041243D01*
X138075949Y-122146846D01*
X138111595Y-122276498D01*
X138147219Y-122422269D01*
X138180796Y-122576228D01*
X138210299Y-122730443D01*
X138233703Y-122876986D01*
X138237883Y-122907796D01*
X138261545Y-123057901D01*
X138287423Y-123164558D01*
X138314980Y-123226081D01*
X138343680Y-123240787D01*
X138343942Y-123240702D01*
X138362822Y-123226043D01*
X138377555Y-123192812D01*
X138388596Y-123136020D01*
X138396403Y-123050681D01*
X138401430Y-122931806D01*
X138404136Y-122774407D01*
X138404975Y-122573519D01*
X138406333Y-122436038D01*
X139542599Y-122436038D01*
X139542944Y-122546150D01*
X139556070Y-122651325D01*
X139576480Y-122721814D01*
X139629446Y-122792187D01*
X139710157Y-122835496D01*
X139804678Y-122849508D01*
X139899071Y-122831993D01*
X139974430Y-122785542D01*
X140021566Y-122723102D01*
X140042712Y-122643009D01*
X140040821Y-122576540D01*
X140737431Y-122576540D01*
X140750101Y-122693272D01*
X140780385Y-122793441D01*
X140790005Y-122812489D01*
X140832089Y-122876646D01*
X140877558Y-122911221D01*
X140943820Y-122925951D01*
X140998746Y-122929242D01*
X141059178Y-122922415D01*
X141102630Y-122888429D01*
X141127074Y-122853212D01*
X141159826Y-122782057D01*
X141165983Y-122703895D01*
X141162189Y-122665198D01*
X141146313Y-122556556D01*
X141128541Y-122483389D01*
X141103334Y-122432789D01*
X141065149Y-122391847D01*
X141034138Y-122366879D01*
X140944235Y-122316710D01*
X140863110Y-122306082D01*
X140798359Y-122334789D01*
X140768832Y-122374081D01*
X140743350Y-122463418D01*
X140737431Y-122576540D01*
X140040821Y-122576540D01*
X140039639Y-122534964D01*
X140029389Y-122466182D01*
X139997815Y-122345140D01*
X139949433Y-122265312D01*
X139877803Y-122220511D01*
X139776490Y-122204552D01*
X139756793Y-122204262D01*
X139676466Y-122207069D01*
X139628174Y-122219544D01*
X139595568Y-122247770D01*
X139579751Y-122270128D01*
X139554910Y-122338270D01*
X139542599Y-122436038D01*
X138406333Y-122436038D01*
X138406708Y-122398112D01*
X138411521Y-122204127D01*
X138418962Y-121999177D01*
X138428577Y-121790875D01*
X138439913Y-121586836D01*
X138452518Y-121394672D01*
X138465938Y-121221999D01*
X138479720Y-121076428D01*
X138493412Y-120965574D01*
X138504149Y-120906364D01*
X138550167Y-120721960D01*
X138589459Y-120583381D01*
X138622788Y-120488514D01*
X138650922Y-120435246D01*
X138674623Y-120421465D01*
X138679062Y-120423360D01*
X138698592Y-120418275D01*
X138699774Y-120410470D01*
X138718028Y-120386868D01*
X138764692Y-120387191D01*
X138827615Y-120408733D01*
X138894649Y-120448789D01*
X138903949Y-120455941D01*
X138978118Y-120521213D01*
X139039582Y-120586770D01*
X139078808Y-120641625D01*
X139087931Y-120668026D01*
X139100395Y-120699676D01*
X139131554Y-120753507D01*
X139144478Y-120773368D01*
X139180801Y-120836477D01*
X139225956Y-120927366D01*
X139271348Y-121028537D01*
X139280219Y-121049725D01*
X139341564Y-121190539D01*
X139395348Y-121293231D01*
X139447637Y-121366244D01*
X139504496Y-121418023D01*
X139571989Y-121457011D01*
X139573127Y-121457548D01*
X139613314Y-121475566D01*
X139651492Y-121488758D01*
X139695265Y-121497576D01*
X139752238Y-121502473D01*
X139830016Y-121503902D01*
X139936206Y-121502314D01*
X140078411Y-121498164D01*
X140191751Y-121494375D01*
X140303930Y-121494313D01*
X140420318Y-121500079D01*
X140496250Y-121507938D01*
X140630931Y-121527277D01*
X140779833Y-121374509D01*
X140838183Y-121309278D01*
X140907895Y-121223200D01*
X140982856Y-121124862D01*
X141056949Y-121022850D01*
X141124060Y-120925751D01*
X141178074Y-120842152D01*
X141212877Y-120780639D01*
X141222792Y-120752487D01*
X141242464Y-120731969D01*
X141289852Y-120702794D01*
X141347517Y-120674055D01*
X141398020Y-120654845D01*
X141416207Y-120651636D01*
X141438303Y-120675192D01*
X141451610Y-120744639D01*
X141456096Y-120858147D01*
X141451730Y-121013884D01*
X141438482Y-121210018D01*
X141427733Y-121330932D01*
X141384131Y-121788983D01*
X141438289Y-121978428D01*
X141465792Y-122085427D01*
X141487761Y-122190708D01*
X141499825Y-122273082D01*
X141500324Y-122279310D01*
X141509496Y-122358110D01*
X141526423Y-122463093D01*
X141547668Y-122573232D01*
X141550623Y-122587087D01*
X141574109Y-122745668D01*
X141573606Y-122904674D01*
X141547935Y-123076199D01*
X141495918Y-123272336D01*
X141478531Y-123327027D01*
X141449691Y-123419493D01*
X141428066Y-123496780D01*
X141417391Y-123545288D01*
X141416871Y-123551518D01*
X141401351Y-123609456D01*
X141360715Y-123686808D01*
X141303847Y-123768377D01*
X141261357Y-123817538D01*
X141205804Y-123888405D01*
X141155340Y-123972821D01*
X141145992Y-123992310D01*
X141120949Y-124057480D01*
X141111864Y-124117145D01*
X141117074Y-124191923D01*
X141125442Y-124247037D01*
X141143489Y-124346983D01*
X141163449Y-124443852D01*
X141175982Y-124496812D01*
X141199581Y-124589550D01*
X141222842Y-124684198D01*
X141224443Y-124690891D01*
X141245264Y-124757352D01*
X141280840Y-124850969D01*
X141324758Y-124955238D01*
X141342263Y-124994138D01*
X141403661Y-125126604D01*
X141468680Y-125264713D01*
X141532526Y-125398489D01*
X141590404Y-125517956D01*
X141637519Y-125613137D01*
X141668724Y-125673412D01*
X141691912Y-125718157D01*
X141730909Y-125795847D01*
X141780378Y-125895758D01*
X141834979Y-126007169D01*
X141837846Y-126013049D01*
X141917016Y-126172604D01*
X141996493Y-126327555D01*
X142072524Y-126471035D01*
X142141355Y-126596178D01*
X142199232Y-126696115D01*
X142242403Y-126763981D01*
X142261750Y-126788614D01*
X142292837Y-126831954D01*
X142329902Y-126900015D01*
X142345892Y-126934410D01*
X142391146Y-127022672D01*
X142458454Y-127135681D01*
X142539202Y-127260587D01*
X142624778Y-127384537D01*
X142706566Y-127494683D01*
X142775952Y-127578172D01*
X142781230Y-127583871D01*
X142828183Y-127622858D01*
X142866877Y-127638455D01*
X142909251Y-127651742D01*
X142965253Y-127683990D01*
X142969030Y-127686642D01*
X143034047Y-127726312D01*
X143116584Y-127768449D01*
X143146450Y-127781873D01*
X143205474Y-127809763D01*
X143244250Y-127839944D01*
X143270004Y-127884194D01*
X143289958Y-127954293D01*
X143308271Y-128045727D01*
X143319469Y-128212226D01*
X143288528Y-128360364D01*
X143217328Y-128485869D01*
X143107750Y-128584468D01*
X143058698Y-128612846D01*
X142954262Y-128646737D01*
X142837524Y-128654657D01*
X142725304Y-128637821D01*
X142634420Y-128597445D01*
X142613590Y-128580698D01*
X142570768Y-128548187D01*
X142520420Y-128531750D01*
X142445715Y-128527141D01*
X142403597Y-128527695D01*
X142317126Y-128526215D01*
X142246302Y-128518698D01*
X142213128Y-128509498D01*
X142171313Y-128466253D01*
X142124892Y-128382454D01*
X142077290Y-128265393D01*
X142032775Y-128125367D01*
X141982214Y-127992096D01*
X141914016Y-127894790D01*
X141907286Y-127887890D01*
X141848902Y-127816450D01*
X141791955Y-127726295D01*
X141768428Y-127679966D01*
X141715693Y-127585788D01*
X141647709Y-127491831D01*
X141615664Y-127455692D01*
X141548454Y-127376584D01*
X141487054Y-127287818D01*
X141465384Y-127249484D01*
X141425297Y-127186301D01*
X141358288Y-127097763D01*
X141271941Y-126992621D01*
X141173840Y-126879630D01*
X141071569Y-126767542D01*
X140972712Y-126665111D01*
X140891334Y-126586959D01*
X140831191Y-126522522D01*
X140787257Y-126457738D01*
X140773731Y-126424305D01*
X140747810Y-126369028D01*
X140711703Y-126340038D01*
X140671844Y-126312348D01*
X140621034Y-126257748D01*
X140590924Y-126217639D01*
X140525179Y-126140840D01*
X140466249Y-126111823D01*
X140413633Y-126130403D01*
X140397960Y-126146478D01*
X140379681Y-126175914D01*
X140382622Y-126182868D01*
X140380269Y-126198274D01*
X140355941Y-126231387D01*
X140313654Y-126268141D01*
X140283399Y-126279907D01*
X140254726Y-126293957D01*
X140252401Y-126302532D01*
X140232492Y-126327608D01*
X140207410Y-126339437D01*
X140162295Y-126365589D01*
X140106301Y-126412748D01*
X140092176Y-126426868D01*
X140029452Y-126479832D01*
X139944639Y-126535869D01*
X139852212Y-126587077D01*
X139766650Y-126625553D01*
X139702430Y-126643392D01*
X139694788Y-126643804D01*
X139631163Y-126654707D01*
X139603122Y-126665793D01*
X139493023Y-126707420D01*
X139359163Y-126734958D01*
X139225374Y-126743759D01*
X139206529Y-126743164D01*
X139125635Y-126741916D01*
X139075956Y-126751369D01*
X139040475Y-126776913D01*
X139018516Y-126802726D01*
X138987245Y-126851579D01*
X138971817Y-126905414D01*
X138972199Y-126974657D01*
X138988360Y-127069736D01*
X139017304Y-127189649D01*
X139044094Y-127295679D01*
X139068754Y-127397147D01*
X139086505Y-127474335D01*
X139088250Y-127482475D01*
X139112048Y-127574756D01*
X139142291Y-127668140D01*
X139145439Y-127676554D01*
X139169449Y-127756970D01*
X139194192Y-127868496D01*
X139217354Y-127996545D01*
X139236624Y-128126533D01*
X139249689Y-128243875D01*
X139254237Y-128333987D01*
X139253335Y-128357066D01*
X139238419Y-128429120D01*
X139203893Y-128468544D01*
X139191035Y-128475106D01*
X139149291Y-128500036D01*
X139136451Y-128517560D01*
X139116581Y-128533723D01*
X139097822Y-128536067D01*
X139052440Y-128550311D01*
X138997545Y-128584561D01*
X138997512Y-128584587D01*
X138946571Y-128618505D01*
X138909151Y-128633095D01*
X138908546Y-128633107D01*
X138874867Y-128651488D01*
X138853964Y-128676821D01*
X138814765Y-128710160D01*
X138748765Y-128741930D01*
X138720765Y-128751244D01*
X138636005Y-128776057D01*
X138556842Y-128799594D01*
X138540363Y-128804569D01*
X138466003Y-128817425D01*
X138362370Y-128823387D01*
X138246348Y-128822808D01*
X138134824Y-128816043D01*
X138044684Y-128803445D01*
X138008370Y-128793420D01*
X137955253Y-128763588D01*
X137927965Y-128730382D01*
X137927779Y-128729600D01*
X137906666Y-128689007D01*
X137865061Y-128636204D01*
X137857613Y-128628176D01*
X137808202Y-128546165D01*
X137782030Y-128439702D01*
X137781578Y-128328192D01*
X137807330Y-128235056D01*
X137874073Y-128042827D01*
X137900357Y-127827556D01*
X137885737Y-127593638D01*
X137877223Y-127541416D01*
X137834064Y-127305097D01*
X137796242Y-127105831D01*
X137761506Y-126932748D01*
X137727604Y-126774980D01*
X137692285Y-126621657D01*
X137654956Y-126468564D01*
X137626764Y-126362894D01*
X137601456Y-126292249D01*
X137572706Y-126244016D01*
X137534189Y-126205582D01*
X137515726Y-126190961D01*
X137434312Y-126146534D01*
X137348209Y-126127112D01*
X137273301Y-126134670D01*
X137236813Y-126156278D01*
X137196020Y-126180483D01*
X137181978Y-126182868D01*
X137141546Y-126201578D01*
X137080199Y-126252659D01*
X137004563Y-126328534D01*
X136921265Y-126421630D01*
X136836930Y-126524369D01*
X136758185Y-126629177D01*
X136691656Y-126728479D01*
X136664781Y-126774168D01*
X136611835Y-126862676D01*
X136556174Y-126944611D01*
X136515577Y-126995571D01*
X136466398Y-127065992D01*
X136433582Y-127143230D01*
X136431191Y-127153259D01*
X136414376Y-127217010D01*
X136396483Y-127259874D01*
X136394678Y-127262428D01*
X136382361Y-127298071D01*
X136367960Y-127369388D01*
X136353275Y-127463690D01*
X136340108Y-127568289D01*
X136330261Y-127670496D01*
X136325795Y-127747624D01*
X136313841Y-127873222D01*
X136287793Y-128002421D01*
X136251118Y-128126277D01*
X136207284Y-128235846D01*
X136159758Y-128322185D01*
X136112007Y-128376349D01*
X136076566Y-128390509D01*
X136046541Y-128403069D01*
X135993206Y-128434700D01*
X135968240Y-128451158D01*
X135862736Y-128500677D01*
X135752608Y-128506102D01*
X135631128Y-128467381D01*
X135593606Y-128448318D01*
X135513931Y-128395760D01*
X135453434Y-128329515D01*
X135402309Y-128244779D01*
X135363296Y-128163930D01*
X135336281Y-128093320D01*
X135327664Y-128053183D01*
X135337279Y-128013267D01*
X135363696Y-127938782D01*
X135403271Y-127839160D01*
X135452362Y-127723833D01*
X135471915Y-127679722D01*
X135526261Y-127554717D01*
X135574957Y-127435834D01*
X135613470Y-127334626D01*
X135637270Y-127262650D01*
X135640645Y-127249469D01*
X135694170Y-127014766D01*
X135738803Y-126824110D01*
X135775428Y-126674023D01*
X135804927Y-126561026D01*
X135828183Y-126481642D01*
X135846081Y-126432392D01*
X135850556Y-126422938D01*
X135875017Y-126350292D01*
X135885626Y-126268557D01*
X135885639Y-126266120D01*
X135903053Y-126176520D01*
X135954792Y-126098382D01*
X136004598Y-126022190D01*
X136036643Y-125937449D01*
X136039105Y-125924817D01*
X136064574Y-125841145D01*
X136107508Y-125758463D01*
X136115510Y-125747000D01*
X136165856Y-125647090D01*
X136176756Y-125576217D01*
X136187820Y-125497684D01*
X136215366Y-125410388D01*
X136225276Y-125388023D01*
X136254980Y-125317095D01*
X136272125Y-125257865D01*
X136273795Y-125242760D01*
X136283533Y-125192364D01*
X136293207Y-125174874D01*
X136311474Y-125141329D01*
X136339701Y-125076935D01*
X136367677Y-125006268D01*
X136431645Y-124848507D01*
X136492938Y-124718976D01*
X136548313Y-124623918D01*
X136594227Y-124569818D01*
X136621170Y-124536567D01*
X136661047Y-124473876D01*
X136702896Y-124399586D01*
X136751181Y-124319835D01*
X136795799Y-124265538D01*
X136824351Y-124247237D01*
X136864767Y-124223920D01*
X136912782Y-124173956D01*
X136928191Y-124153106D01*
X136989461Y-124081031D01*
X137062597Y-124016922D01*
X137074197Y-124008850D01*
X137142449Y-123951474D01*
X137199133Y-123883912D01*
X137206214Y-123872513D01*
X137244701Y-123808677D01*
X137297065Y-123725320D01*
X137338843Y-123660627D01*
X137384068Y-123587648D01*
X137409938Y-123528861D01*
X137421595Y-123465216D01*
X137424180Y-123377660D01*
X137423969Y-123345250D01*
X137410785Y-123141812D01*
X137377502Y-122922406D01*
X137328237Y-122713718D01*
X137306281Y-122633022D01*
X137288886Y-122561857D01*
X137285090Y-122543899D01*
X137268998Y-122473594D01*
X137240958Y-122364710D01*
X137203064Y-122225111D01*
X137157411Y-122062660D01*
X137149347Y-122034444D01*
X136982669Y-121382486D01*
X136849365Y-120710885D01*
X136753021Y-120038295D01*
X136736556Y-119886302D01*
X136722264Y-119770043D01*
X136704510Y-119660730D01*
X136686146Y-119574800D01*
X136677300Y-119544806D01*
X136651665Y-119433973D01*
X136659235Y-119353945D01*
X136693925Y-119307054D01*
X136749653Y-119295635D01*
X136820335Y-119322019D01*
G37*
D14*
%TO.C,C14*%
X187228862Y-121900210D02*
X187510022Y-121900210D01*
X187228862Y-122920210D02*
X187510022Y-122920210D01*
%TO.C,Q2*%
X157309747Y-123208060D02*
X157309747Y-122558060D01*
X157309747Y-123208060D02*
X157309747Y-123858060D01*
X160429747Y-123208060D02*
X160429747Y-122558060D01*
X160429747Y-123208060D02*
X160429747Y-123858060D01*
X157359747Y-124370560D02*
X157029747Y-124610560D01*
X157029747Y-124130560D01*
X157359747Y-124370560D01*
G36*
X157359747Y-124370560D02*
G01*
X157029747Y-124610560D01*
X157029747Y-124130560D01*
X157359747Y-124370560D01*
G37*
%TO.C,C4*%
X167573929Y-117743643D02*
X167292769Y-117743643D01*
X167573929Y-118763643D02*
X167292769Y-118763643D01*
%TO.C,C25*%
X158822600Y-106685974D02*
X159103760Y-106685974D01*
X158822600Y-107705974D02*
X159103760Y-107705974D01*
D15*
%TO.C,b_up1*%
X203951133Y-103915534D02*
X209951133Y-103915534D01*
X203951133Y-105645534D02*
X203951133Y-108185534D01*
X203951133Y-109915534D02*
X209951133Y-109915534D01*
X209951133Y-105645534D02*
X209951133Y-108185534D01*
X205491133Y-104885534D02*
G75*
G02*
X204351133Y-104885534I-570000J0D01*
G01*
X204351133Y-104885534D02*
G75*
G02*
X205491133Y-104885534I570000J0D01*
G01*
X205551133Y-109005534D02*
G75*
G02*
X204411133Y-109005534I-570000J0D01*
G01*
X204411133Y-109005534D02*
G75*
G02*
X205551133Y-109005534I570000J0D01*
G01*
X208661133Y-106915534D02*
G75*
G02*
X205241133Y-106915534I-1710000J0D01*
G01*
X205241133Y-106915534D02*
G75*
G02*
X208661133Y-106915534I1710000J0D01*
G01*
X209551133Y-108945534D02*
G75*
G02*
X208411133Y-108945534I-570000J0D01*
G01*
X208411133Y-108945534D02*
G75*
G02*
X209551133Y-108945534I570000J0D01*
G01*
X209611133Y-104945534D02*
G75*
G02*
X208471133Y-104945534I-570000J0D01*
G01*
X208471133Y-104945534D02*
G75*
G02*
X209611133Y-104945534I570000J0D01*
G01*
D14*
%TO.C,C16*%
X187132579Y-120025261D02*
X187413739Y-120025261D01*
X187132579Y-121045261D02*
X187413739Y-121045261D01*
%TO.C,R22*%
X157665869Y-125457947D02*
X157191353Y-125457947D01*
X157665869Y-126502947D02*
X157191353Y-126502947D01*
%TO.C,C22*%
X159261321Y-109376389D02*
X159261321Y-109657549D01*
X160281321Y-109376389D02*
X160281321Y-109657549D01*
D11*
%TO.C,L2*%
X153444572Y-100040590D02*
X159594572Y-100040590D01*
X153444572Y-105880590D02*
X159594572Y-105880590D01*
X159594572Y-100040590D02*
X159594572Y-100040590D01*
X159594572Y-105880590D02*
X159594572Y-105880590D01*
D14*
%TO.C,R14*%
X163281110Y-96588687D02*
X162806594Y-96588687D01*
X163281110Y-97633687D02*
X162806594Y-97633687D01*
%TO.C,R24*%
X160689767Y-116695831D02*
X160689767Y-116221315D01*
X161734767Y-116695831D02*
X161734767Y-116221315D01*
%TO.C,C9*%
X151539345Y-94092736D02*
X151539345Y-93811576D01*
X152559345Y-94092736D02*
X152559345Y-93811576D01*
D15*
%TO.C,L1*%
X152659399Y-83434328D02*
X152659399Y-84744328D01*
X152659399Y-83434328D02*
X159259399Y-83434328D01*
X152659399Y-88714328D02*
X152659399Y-90034328D01*
X152659399Y-90034328D02*
X159259399Y-90034328D01*
X159259399Y-83434328D02*
X159259399Y-84744328D01*
X159259399Y-88714328D02*
X159259399Y-90034328D01*
D14*
%TO.C,SWDIO1*%
X165377791Y-125033730D02*
G75*
G02*
X162977791Y-125033730I-1200000J0D01*
G01*
X162977791Y-125033730D02*
G75*
G02*
X165377791Y-125033730I1200000J0D01*
G01*
%TO.C,TP3*%
X163415982Y-129637235D02*
G75*
G02*
X161015982Y-129637235I-1200000J0D01*
G01*
X161015982Y-129637235D02*
G75*
G02*
X163415982Y-129637235I1200000J0D01*
G01*
%TO.C,Q1*%
X163969599Y-115391836D02*
X163319599Y-115391836D01*
X163969599Y-115391836D02*
X164619599Y-115391836D01*
X163969599Y-118511836D02*
X163319599Y-118511836D01*
X163969599Y-118511836D02*
X164619599Y-118511836D01*
X165372099Y-118791836D02*
X164892099Y-118791836D01*
X165132099Y-118461836D01*
X165372099Y-118791836D01*
G36*
X165372099Y-118791836D02*
G01*
X164892099Y-118791836D01*
X165132099Y-118461836D01*
X165372099Y-118791836D01*
G37*
%TO.C,C7*%
X151505565Y-96497762D02*
X150983061Y-96497762D01*
X151505565Y-97967762D02*
X150983061Y-97967762D01*
%TO.C,R10*%
X174711476Y-129410881D02*
X175185992Y-129410881D01*
X174711476Y-130455881D02*
X175185992Y-130455881D01*
%TO.C,R17*%
X158725922Y-111325459D02*
X159200438Y-111325459D01*
X158725922Y-112370459D02*
X159200438Y-112370459D01*
%TO.C,C12*%
X176546275Y-126269815D02*
X176827435Y-126269815D01*
X176546275Y-127289815D02*
X176827435Y-127289815D01*
D15*
%TO.C,U5*%
X162259466Y-111435534D02*
X162259466Y-102435534D01*
X170309466Y-102435534D02*
X162259466Y-102435534D01*
X170309466Y-111435534D02*
X162259466Y-111435534D01*
X170309466Y-111485534D02*
X170309466Y-112535534D01*
X170549466Y-102195534D02*
X170549466Y-101145534D01*
X171559466Y-113035534D02*
X171209466Y-113035534D01*
X175559466Y-100635534D02*
X171559466Y-100635534D01*
X175559466Y-102205534D02*
X175559466Y-100635534D01*
X175559466Y-113035534D02*
X171559466Y-113035534D01*
X175559466Y-113035534D02*
X175559466Y-111475534D01*
X170549466Y-102195534D02*
G75*
G02*
X170309466Y-102435534I-239999J-1D01*
G01*
X170550508Y-101147629D02*
G75*
G02*
X171559466Y-100635534I1008959J-737906D01*
G01*
X171319466Y-113045534D02*
G75*
G02*
X170310508Y-112533439I0J1250000D01*
G01*
D14*
%TO.C,C11*%
X178851070Y-124061621D02*
X179132230Y-124061621D01*
X178851070Y-125081621D02*
X179132230Y-125081621D01*
%TO.C,R11*%
X170768253Y-129412813D02*
X170293737Y-129412813D01*
X170768253Y-130457813D02*
X170293737Y-130457813D01*
%TO.C,TP2*%
X136080772Y-88298705D02*
G75*
G02*
X133680772Y-88298705I-1200000J0D01*
G01*
X133680772Y-88298705D02*
G75*
G02*
X136080772Y-88298705I1200000J0D01*
G01*
%TO.C,U3*%
X158253180Y-118409663D02*
X159663180Y-118409663D01*
X158263180Y-120729663D02*
X159663180Y-120729663D01*
X157883180Y-118459663D02*
X157643180Y-118129663D01*
X158123180Y-118129663D01*
X157883180Y-118459663D01*
G36*
X157883180Y-118459663D02*
G01*
X157643180Y-118129663D01*
X158123180Y-118129663D01*
X157883180Y-118459663D01*
G37*
%TO.C,R2*%
X142308633Y-90568276D02*
X142308633Y-91042792D01*
X143353633Y-90568276D02*
X143353633Y-91042792D01*
%TO.C,R15*%
X163281110Y-95023150D02*
X162806594Y-95023150D01*
X163281110Y-96068150D02*
X162806594Y-96068150D01*
%TO.C,C13*%
X182344599Y-115888550D02*
X182625759Y-115888550D01*
X182344599Y-116908550D02*
X182625759Y-116908550D01*
%TO.C,C10*%
X158822600Y-112963015D02*
X159103760Y-112963015D01*
X158822600Y-113983015D02*
X159103760Y-113983015D01*
%TO.C,R18*%
X153833523Y-125477789D02*
X153359007Y-125477789D01*
X153833523Y-126522789D02*
X153359007Y-126522789D01*
%TO.C,R16*%
X157632540Y-109279711D02*
X157632540Y-109754227D01*
X158677540Y-109279711D02*
X158677540Y-109754227D01*
%TO.C,C8*%
X179132230Y-121141621D02*
X178851070Y-121141621D01*
X179132230Y-122161621D02*
X178851070Y-122161621D01*
%TO.C,R9*%
X184075901Y-120012761D02*
X184550417Y-120012761D01*
X184075901Y-121057761D02*
X184550417Y-121057761D01*
%TO.C,R13*%
X161896142Y-121690686D02*
X162370658Y-121690686D01*
X161896142Y-122735686D02*
X162370658Y-122735686D01*
%TO.C,C15*%
X187116424Y-117506635D02*
X187397584Y-117506635D01*
X187116424Y-118526635D02*
X187397584Y-118526635D01*
D15*
%TO.C,b_left1*%
X211951133Y-112382201D02*
X217951133Y-112382201D01*
X211951133Y-114112201D02*
X211951133Y-116652201D01*
X211951133Y-118382201D02*
X217951133Y-118382201D01*
X217951133Y-114112201D02*
X217951133Y-116652201D01*
X213491133Y-113352201D02*
G75*
G02*
X212351133Y-113352201I-570000J0D01*
G01*
X212351133Y-113352201D02*
G75*
G02*
X213491133Y-113352201I570000J0D01*
G01*
X213551133Y-117472201D02*
G75*
G02*
X212411133Y-117472201I-570000J0D01*
G01*
X212411133Y-117472201D02*
G75*
G02*
X213551133Y-117472201I570000J0D01*
G01*
X216661133Y-115382201D02*
G75*
G02*
X213241133Y-115382201I-1710000J0D01*
G01*
X213241133Y-115382201D02*
G75*
G02*
X216661133Y-115382201I1710000J0D01*
G01*
X217551133Y-117412201D02*
G75*
G02*
X216411133Y-117412201I-570000J0D01*
G01*
X216411133Y-117412201D02*
G75*
G02*
X217551133Y-117412201I570000J0D01*
G01*
X217611133Y-113412201D02*
G75*
G02*
X216471133Y-113412201I-570000J0D01*
G01*
X216471133Y-113412201D02*
G75*
G02*
X217611133Y-113412201I570000J0D01*
G01*
D14*
%TO.C,C5*%
X178851070Y-122601621D02*
X179132230Y-122601621D01*
X178851070Y-123621621D02*
X179132230Y-123621621D01*
D15*
%TO.C,b_right1*%
X195951133Y-112382201D02*
X201951133Y-112382201D01*
X195951133Y-114112201D02*
X195951133Y-116652201D01*
X195951133Y-118382201D02*
X201951133Y-118382201D01*
X201951133Y-114112201D02*
X201951133Y-116652201D01*
X197491133Y-113352201D02*
G75*
G02*
X196351133Y-113352201I-570000J0D01*
G01*
X196351133Y-113352201D02*
G75*
G02*
X197491133Y-113352201I570000J0D01*
G01*
X197551133Y-117472201D02*
G75*
G02*
X196411133Y-117472201I-570000J0D01*
G01*
X196411133Y-117472201D02*
G75*
G02*
X197551133Y-117472201I570000J0D01*
G01*
X200661133Y-115382201D02*
G75*
G02*
X197241133Y-115382201I-1710000J0D01*
G01*
X197241133Y-115382201D02*
G75*
G02*
X200661133Y-115382201I1710000J0D01*
G01*
X201551133Y-117412201D02*
G75*
G02*
X200411133Y-117412201I-570000J0D01*
G01*
X200411133Y-117412201D02*
G75*
G02*
X201551133Y-117412201I570000J0D01*
G01*
X201611133Y-113412201D02*
G75*
G02*
X200471133Y-113412201I-570000J0D01*
G01*
X200471133Y-113412201D02*
G75*
G02*
X201611133Y-113412201I570000J0D01*
G01*
D14*
%TO.C,R12*%
X162088914Y-119959330D02*
X162563430Y-119959330D01*
X162088914Y-121004330D02*
X162563430Y-121004330D01*
%TO.C,C17*%
X165145592Y-119971830D02*
X165426752Y-119971830D01*
X165145592Y-120991830D02*
X165426752Y-120991830D01*
%TO.C,R6*%
X184172184Y-121887710D02*
X184646700Y-121887710D01*
X184172184Y-122932710D02*
X184646700Y-122932710D01*
%TO.C,C19*%
X154639238Y-111405048D02*
X154920398Y-111405048D01*
X154639238Y-112425048D02*
X154920398Y-112425048D01*
%TO.C,TP_mosi1*%
X175562663Y-114235371D02*
G75*
G02*
X173162663Y-114235371I-1200000J0D01*
G01*
X173162663Y-114235371D02*
G75*
G02*
X175562663Y-114235371I1200000J0D01*
G01*
D16*
%TO.C,J1*%
X137604466Y-81730000D02*
X137604466Y-83160000D01*
X137604466Y-86960000D02*
X137604466Y-85500000D01*
X146544466Y-81730000D02*
X137604466Y-81730000D01*
X146544466Y-83160000D02*
X146544466Y-81730000D01*
X146544466Y-86960000D02*
X146544466Y-85500000D01*
D14*
%TO.C,D2*%
X162255271Y-92932776D02*
X164940271Y-92932776D01*
X164940271Y-91012776D02*
X162255271Y-91012776D01*
X164940271Y-92932776D02*
X164940271Y-91012776D01*
%TO.C,R7*%
X184059746Y-117494135D02*
X184534262Y-117494135D01*
X184059746Y-118539135D02*
X184534262Y-118539135D01*
%TO.C,tst_nrst1*%
X181221047Y-127320001D02*
G75*
G02*
X178821047Y-127320001I-1200000J0D01*
G01*
X178821047Y-127320001D02*
G75*
G02*
X181221047Y-127320001I1200000J0D01*
G01*
D11*
%TO.C,U6*%
X153889818Y-106329279D02*
X155669818Y-106329279D01*
X153889818Y-109409279D02*
X155669818Y-109409279D01*
D17*
X153629818Y-106199279D02*
G75*
G02*
X153329818Y-106199279I-150000J0D01*
G01*
X153329818Y-106199279D02*
G75*
G02*
X153629818Y-106199279I150000J0D01*
G01*
D14*
%TO.C,R4*%
X155677111Y-91296210D02*
X155202595Y-91296210D01*
X155677111Y-92341210D02*
X155202595Y-92341210D01*
%TO.C,TestPoint_gnd1*%
X167460568Y-86489059D02*
G75*
G02*
X165060568Y-86489059I-1200000J0D01*
G01*
X165060568Y-86489059D02*
G75*
G02*
X167460568Y-86489059I1200000J0D01*
G01*
%TO.C,C2*%
X169248031Y-116043306D02*
X169529191Y-116043306D01*
X169248031Y-117063306D02*
X169529191Y-117063306D01*
%TO.C,TP_sck1*%
X179581844Y-108935534D02*
G75*
G02*
X177181844Y-108935534I-1200000J0D01*
G01*
X177181844Y-108935534D02*
G75*
G02*
X179581844Y-108935534I1200000J0D01*
G01*
%TO.C,C18*%
X164952820Y-121703186D02*
X165233980Y-121703186D01*
X164952820Y-122723186D02*
X165233980Y-122723186D01*
D12*
%TO.C,U4*%
X168650878Y-119224125D02*
X175300878Y-119224125D01*
X168650878Y-125424125D02*
X168650878Y-119224125D01*
X168650878Y-125854125D02*
X168650878Y-125094125D01*
X175300878Y-119224125D02*
X175300878Y-125854125D01*
X175300878Y-125854125D02*
X168650878Y-125854125D01*
D18*
X176050878Y-125914125D02*
G75*
G02*
X176050628Y-125924152I200000J-10003D01*
G01*
D15*
X174990878Y-125154125D02*
G75*
G02*
X174650878Y-125154125I-170000J0D01*
G01*
X174650878Y-125154125D02*
G75*
G02*
X174990878Y-125154125I170000J0D01*
G01*
D14*
%TO.C,C20*%
X155671947Y-116673014D02*
X155390787Y-116673014D01*
X155671947Y-117693014D02*
X155390787Y-117693014D01*
%TO.C,R23*%
X160338050Y-125447297D02*
X160812566Y-125447297D01*
X160338050Y-126492297D02*
X160812566Y-126492297D01*
D15*
%TO.C,b_b1*%
X145607799Y-126848868D02*
X145607799Y-120848868D01*
X147337799Y-120848868D02*
X149877799Y-120848868D01*
X147337799Y-126848868D02*
X149877799Y-126848868D01*
X151607799Y-126848868D02*
X151607799Y-120848868D01*
X147147799Y-125878868D02*
G75*
G02*
X146007799Y-125878868I-570000J0D01*
G01*
X146007799Y-125878868D02*
G75*
G02*
X147147799Y-125878868I570000J0D01*
G01*
X147207799Y-121758868D02*
G75*
G02*
X146067799Y-121758868I-570000J0D01*
G01*
X146067799Y-121758868D02*
G75*
G02*
X147207799Y-121758868I570000J0D01*
G01*
X150317799Y-123848868D02*
G75*
G02*
X146897799Y-123848868I-1710000J0D01*
G01*
X146897799Y-123848868D02*
G75*
G02*
X150317799Y-123848868I1710000J0D01*
G01*
X151207799Y-121818868D02*
G75*
G02*
X150067799Y-121818868I-570000J0D01*
G01*
X150067799Y-121818868D02*
G75*
G02*
X151207799Y-121818868I570000J0D01*
G01*
X151267799Y-125818868D02*
G75*
G02*
X150127799Y-125818868I-570000J0D01*
G01*
X150127799Y-125818868D02*
G75*
G02*
X151267799Y-125818868I570000J0D01*
G01*
%TO.C,b_down1*%
X203951133Y-125118868D02*
X203951133Y-122578868D01*
X209951133Y-120848868D02*
X203951133Y-120848868D01*
X209951133Y-125118868D02*
X209951133Y-122578868D01*
X209951133Y-126848868D02*
X203951133Y-126848868D01*
X205431133Y-125818868D02*
G75*
G02*
X204291133Y-125818868I-570000J0D01*
G01*
X204291133Y-125818868D02*
G75*
G02*
X205431133Y-125818868I570000J0D01*
G01*
X205491133Y-121818868D02*
G75*
G02*
X204351133Y-121818868I-570000J0D01*
G01*
X204351133Y-121818868D02*
G75*
G02*
X205491133Y-121818868I570000J0D01*
G01*
X208661133Y-123848868D02*
G75*
G02*
X205241133Y-123848868I-1710000J0D01*
G01*
X205241133Y-123848868D02*
G75*
G02*
X208661133Y-123848868I1710000J0D01*
G01*
X209491133Y-121758868D02*
G75*
G02*
X208351133Y-121758868I-570000J0D01*
G01*
X208351133Y-121758868D02*
G75*
G02*
X209491133Y-121758868I570000J0D01*
G01*
X209551133Y-125878868D02*
G75*
G02*
X208411133Y-125878868I-570000J0D01*
G01*
X208411133Y-125878868D02*
G75*
G02*
X209551133Y-125878868I570000J0D01*
G01*
D14*
%TO.C,D3*%
X162289463Y-94640116D02*
X164574463Y-94640116D01*
X164574463Y-93170116D02*
X162289463Y-93170116D01*
X164574463Y-94640116D02*
X164574463Y-93170116D01*
%TO.C,R20*%
X154542560Y-109787963D02*
X155017076Y-109787963D01*
X154542560Y-110832963D02*
X155017076Y-110832963D01*
D15*
%TO.C,U9*%
X152136567Y-122314558D02*
X152136567Y-121474558D01*
X153906567Y-122784558D02*
X153146567Y-122784558D01*
X155056567Y-122594558D02*
X155056567Y-121194558D01*
D17*
X154636567Y-119884558D02*
G75*
G02*
X154336567Y-119884558I-150000J0D01*
G01*
X154336567Y-119884558D02*
G75*
G02*
X154636567Y-119884558I150000J0D01*
G01*
D15*
%TO.C,U1*%
X154565975Y-92919672D02*
X158665975Y-92919672D01*
X154565975Y-98019672D02*
X154565975Y-92919672D01*
X155815975Y-98019672D02*
X154565975Y-98019672D01*
X157415975Y-98019672D02*
X158665975Y-98019672D01*
X158665975Y-92919672D02*
X158665975Y-98019672D01*
X155813405Y-97975281D02*
G75*
G02*
X157415975Y-97969672I802570J-364391D01*
G01*
X159285975Y-98499672D02*
G75*
G02*
X158945975Y-98499672I-170000J0D01*
G01*
X158945975Y-98499672D02*
G75*
G02*
X159285975Y-98499672I170000J0D01*
G01*
D14*
%TO.C,C1*%
X158872494Y-91308526D02*
X158591334Y-91308526D01*
X158872494Y-92328526D02*
X158591334Y-92328526D01*
%TO.C,R5*%
X179287921Y-115876050D02*
X179762437Y-115876050D01*
X179287921Y-116921050D02*
X179762437Y-116921050D01*
%TO.C,U2*%
X157765680Y-115626388D02*
X157765680Y-117026388D01*
X160085680Y-115616388D02*
X160085680Y-117026388D01*
X160365680Y-115486388D02*
X160035680Y-115246388D01*
X160365680Y-115006388D01*
X160365680Y-115486388D01*
G36*
X160365680Y-115486388D02*
G01*
X160035680Y-115246388D01*
X160365680Y-115006388D01*
X160365680Y-115486388D01*
G37*
%TO.C,D1*%
X161054823Y-90304524D02*
X161054823Y-84794524D01*
X161054823Y-90304524D02*
X164354823Y-90304524D01*
X164354823Y-90304524D02*
X164354823Y-84794524D01*
%TO.C,SWCLK1*%
X166503801Y-129637235D02*
G75*
G02*
X164103801Y-129637235I-1200000J0D01*
G01*
X164103801Y-129637235D02*
G75*
G02*
X166503801Y-129637235I1200000J0D01*
G01*
%TO.C,R8*%
X172218378Y-128945224D02*
X172218378Y-129419740D01*
X173263378Y-128945224D02*
X173263378Y-129419740D01*
%TO.C,C6*%
X174808144Y-127968655D02*
X175089304Y-127968655D01*
X174808144Y-128988655D02*
X175089304Y-128988655D01*
%TO.C,C24*%
X155103781Y-124929275D02*
X155384941Y-124929275D01*
X155103781Y-123909275D02*
X155384941Y-123909275D01*
%TO.C,C21*%
X153737147Y-118624045D02*
X153455987Y-118624045D01*
X153737147Y-119644045D02*
X153455987Y-119644045D01*
D15*
%TO.C,b_a1*%
X145607799Y-109915534D02*
X145607799Y-103915534D01*
X147337799Y-103915534D02*
X149877799Y-103915534D01*
X147337799Y-109915534D02*
X149877799Y-109915534D01*
X151607799Y-109915534D02*
X151607799Y-103915534D01*
X147147799Y-108945534D02*
G75*
G02*
X146007799Y-108945534I-570000J0D01*
G01*
X146007799Y-108945534D02*
G75*
G02*
X147147799Y-108945534I570000J0D01*
G01*
X147207799Y-104825534D02*
G75*
G02*
X146067799Y-104825534I-570000J0D01*
G01*
X146067799Y-104825534D02*
G75*
G02*
X147207799Y-104825534I570000J0D01*
G01*
X150317799Y-106915534D02*
G75*
G02*
X146897799Y-106915534I-1710000J0D01*
G01*
X146897799Y-106915534D02*
G75*
G02*
X150317799Y-106915534I1710000J0D01*
G01*
X151207799Y-104885534D02*
G75*
G02*
X150067799Y-104885534I-570000J0D01*
G01*
X150067799Y-104885534D02*
G75*
G02*
X151207799Y-104885534I570000J0D01*
G01*
X151267799Y-108885534D02*
G75*
G02*
X150127799Y-108885534I-570000J0D01*
G01*
X150127799Y-108885534D02*
G75*
G02*
X151267799Y-108885534I570000J0D01*
G01*
D14*
%TO.C,C3*%
X167106458Y-126008684D02*
X166825298Y-126008684D01*
X167106458Y-127028684D02*
X166825298Y-127028684D01*
%TO.C,TP1*%
X167844763Y-96653916D02*
G75*
G02*
X165444763Y-96653916I-1200000J0D01*
G01*
X165444763Y-96653916D02*
G75*
G02*
X167844763Y-96653916I1200000J0D01*
G01*
%TO.C,R19*%
X155112715Y-127242870D02*
X155587231Y-127242870D01*
X155112715Y-128287870D02*
X155587231Y-128287870D01*
D15*
%TO.C,U7*%
X153989818Y-113089341D02*
X153989818Y-113119341D01*
X153989818Y-113089341D02*
X155569818Y-113089341D01*
X153989818Y-115959341D02*
X153989818Y-115989341D01*
X155569818Y-113089341D02*
X155569818Y-113119341D01*
X155569818Y-114079341D02*
X155569818Y-114999341D01*
X155569818Y-115959341D02*
X155569818Y-115989341D01*
X155569818Y-115989341D02*
X153989818Y-115989341D01*
D19*
X153459818Y-112999341D02*
G75*
G02*
X153219818Y-112999341I-120000J0D01*
G01*
X153219818Y-112999341D02*
G75*
G02*
X153459818Y-112999341I120000J0D01*
G01*
D14*
%TO.C,R1*%
X140808633Y-90568276D02*
X140808633Y-91042792D01*
X141853633Y-90568276D02*
X141853633Y-91042792D01*
%TO.C,R21*%
X166120776Y-89375502D02*
X166120776Y-89850018D01*
X167165776Y-89375502D02*
X167165776Y-89850018D01*
%TD*%
%LPC*%
D20*
%TO.C,C14*%
X186594442Y-122410210D03*
X188144442Y-122410210D03*
%TD*%
D21*
%TO.C,Q2*%
X157919747Y-124145560D03*
X159819747Y-124145560D03*
X158869747Y-122270560D03*
%TD*%
D22*
%TO.C,C4*%
X168208349Y-118253643D03*
X166658349Y-118253643D03*
%TD*%
D20*
%TO.C,C25*%
X158188180Y-107195974D03*
X159738180Y-107195974D03*
%TD*%
D23*
%TO.C,b_up1*%
X202951133Y-104665534D03*
X210951133Y-104665534D03*
X202951133Y-109165534D03*
X210951133Y-109165534D03*
%TD*%
D20*
%TO.C,C16*%
X186498159Y-120535261D03*
X188048159Y-120535261D03*
%TD*%
D24*
%TO.C,R22*%
X158253611Y-125980447D03*
X156603611Y-125980447D03*
%TD*%
D25*
%TO.C,C22*%
X159771321Y-108741969D03*
X159771321Y-110291969D03*
%TD*%
D26*
%TO.C,L2*%
X158924572Y-102960590D03*
X154264572Y-102960590D03*
%TD*%
D24*
%TO.C,R14*%
X163868852Y-97111187D03*
X162218852Y-97111187D03*
%TD*%
D27*
%TO.C,R24*%
X161212267Y-117283573D03*
X161212267Y-115633573D03*
%TD*%
D28*
%TO.C,C9*%
X152049345Y-94727156D03*
X152049345Y-93177156D03*
%TD*%
D29*
%TO.C,L1*%
X153109399Y-86734328D03*
X158809399Y-86734328D03*
%TD*%
D30*
%TO.C,SWDIO1*%
X164177791Y-125033730D03*
%TD*%
%TO.C,TP3*%
X162215982Y-129637235D03*
%TD*%
D31*
%TO.C,Q1*%
X164907099Y-117901836D03*
X164907099Y-116001836D03*
X163032099Y-116951836D03*
%TD*%
D32*
%TO.C,C7*%
X152194313Y-97232762D03*
X150294313Y-97232762D03*
%TD*%
D33*
%TO.C,R10*%
X174123734Y-129933381D03*
X175773734Y-129933381D03*
%TD*%
%TO.C,R17*%
X158138180Y-111847959D03*
X159788180Y-111847959D03*
%TD*%
D20*
%TO.C,C12*%
X175911855Y-126779815D03*
X177461855Y-126779815D03*
%TD*%
D34*
%TO.C,U5*%
X174559466Y-111035534D03*
X174559466Y-110335534D03*
X174559466Y-109635534D03*
X174559466Y-108935534D03*
X174559466Y-108235534D03*
X174559466Y-107535534D03*
X174559466Y-106835534D03*
X174559466Y-106135534D03*
X174559466Y-105435534D03*
X174559466Y-104735534D03*
X174559466Y-104035534D03*
X174559466Y-103335534D03*
X174559466Y-102635534D03*
%TD*%
D20*
%TO.C,C11*%
X178216650Y-124571621D03*
X179766650Y-124571621D03*
%TD*%
D24*
%TO.C,R11*%
X171355995Y-129935313D03*
X169705995Y-129935313D03*
%TD*%
D30*
%TO.C,TP2*%
X134880772Y-88298705D03*
%TD*%
D35*
%TO.C,U3*%
X158013180Y-118919663D03*
X158013180Y-119569663D03*
X158013180Y-120219663D03*
X159913180Y-120219663D03*
X159913180Y-119569663D03*
X159913180Y-118919663D03*
%TD*%
D36*
%TO.C,R2*%
X142831133Y-89980534D03*
X142831133Y-91630534D03*
%TD*%
D24*
%TO.C,R15*%
X163868852Y-95545650D03*
X162218852Y-95545650D03*
%TD*%
D20*
%TO.C,C13*%
X181710179Y-116398550D03*
X183260179Y-116398550D03*
%TD*%
%TO.C,C10*%
X158188180Y-113473015D03*
X159738180Y-113473015D03*
%TD*%
D24*
%TO.C,R18*%
X154421265Y-126000289D03*
X152771265Y-126000289D03*
%TD*%
D36*
%TO.C,R16*%
X158155040Y-108691969D03*
X158155040Y-110341969D03*
%TD*%
D22*
%TO.C,C8*%
X179766650Y-121651621D03*
X178216650Y-121651621D03*
%TD*%
D33*
%TO.C,R9*%
X183488159Y-120535261D03*
X185138159Y-120535261D03*
%TD*%
%TO.C,R13*%
X161308400Y-122213186D03*
X162958400Y-122213186D03*
%TD*%
D20*
%TO.C,C15*%
X186482004Y-118016635D03*
X188032004Y-118016635D03*
%TD*%
D23*
%TO.C,b_left1*%
X210951133Y-113132201D03*
X218951133Y-113132201D03*
X210951133Y-117632201D03*
X218951133Y-117632201D03*
%TD*%
D20*
%TO.C,C5*%
X178216650Y-123111621D03*
X179766650Y-123111621D03*
%TD*%
D23*
%TO.C,b_right1*%
X194951133Y-113132201D03*
X202951133Y-113132201D03*
X194951133Y-117632201D03*
X202951133Y-117632201D03*
%TD*%
D33*
%TO.C,R12*%
X161501172Y-120481830D03*
X163151172Y-120481830D03*
%TD*%
D20*
%TO.C,C17*%
X164511172Y-120481830D03*
X166061172Y-120481830D03*
%TD*%
D33*
%TO.C,R6*%
X183584442Y-122410210D03*
X185234442Y-122410210D03*
%TD*%
D20*
%TO.C,C19*%
X154004818Y-111915048D03*
X155554818Y-111915048D03*
%TD*%
D30*
%TO.C,TP_mosi1*%
X174362663Y-114235371D03*
%TD*%
D37*
%TO.C,J1*%
X142574466Y-88210000D03*
D38*
X140554466Y-88210000D03*
D39*
X139324466Y-88210000D03*
D37*
X141574466Y-88210000D03*
D38*
X143594466Y-88210000D03*
D39*
X144824466Y-88210000D03*
D40*
X146394466Y-88130000D03*
X146394466Y-84330000D03*
X137754466Y-88130000D03*
X137754466Y-84330000D03*
%TD*%
D41*
%TO.C,D2*%
X164192771Y-91972776D03*
X162317771Y-91972776D03*
%TD*%
D33*
%TO.C,R7*%
X183472004Y-118016635D03*
X185122004Y-118016635D03*
%TD*%
D30*
%TO.C,tst_nrst1*%
X180021047Y-127320001D03*
%TD*%
D42*
%TO.C,U6*%
X153629818Y-106919279D03*
X153629818Y-107869279D03*
X153629818Y-108819279D03*
X155929818Y-108819279D03*
X155929818Y-107869279D03*
X155929818Y-106919279D03*
%TD*%
D24*
%TO.C,R4*%
X156264853Y-91818710D03*
X154614853Y-91818710D03*
%TD*%
D30*
%TO.C,TestPoint_gnd1*%
X166260568Y-86489059D03*
%TD*%
D20*
%TO.C,C2*%
X168613611Y-116553306D03*
X170163611Y-116553306D03*
%TD*%
D30*
%TO.C,TP_sck1*%
X178381844Y-108935534D03*
%TD*%
D20*
%TO.C,C18*%
X164318400Y-122213186D03*
X165868400Y-122213186D03*
%TD*%
D43*
%TO.C,U4*%
X176090878Y-125284125D03*
X176090878Y-124784125D03*
X176090878Y-124284125D03*
X176090878Y-123784125D03*
X176090878Y-123284125D03*
X176090878Y-122784125D03*
X176090878Y-122284125D03*
X176090878Y-121784125D03*
X176090878Y-121284125D03*
X176090878Y-120784125D03*
X176090878Y-120284125D03*
X176090878Y-119784125D03*
D44*
X174740878Y-118434125D03*
X174240878Y-118434125D03*
X173740878Y-118434125D03*
X173240878Y-118434125D03*
X172740878Y-118434125D03*
X172240878Y-118434125D03*
X171740878Y-118434125D03*
X171240878Y-118434125D03*
X170740878Y-118434125D03*
X170240878Y-118434125D03*
X169740878Y-118434125D03*
X169240878Y-118434125D03*
D43*
X167890878Y-119784125D03*
X167890878Y-120284125D03*
X167890878Y-120784125D03*
X167890878Y-121284125D03*
X167890878Y-121784125D03*
X167890878Y-122284125D03*
X167890878Y-122784125D03*
X167890878Y-123284125D03*
X167890878Y-123784125D03*
X167890878Y-124284125D03*
X167890878Y-124784125D03*
X167890878Y-125284125D03*
D44*
X169240878Y-126634125D03*
X169740878Y-126634125D03*
X170240878Y-126634125D03*
X170740878Y-126634125D03*
X171240878Y-126634125D03*
X171740878Y-126634125D03*
X172240878Y-126634125D03*
X172740878Y-126634125D03*
X173240878Y-126634125D03*
X173740878Y-126634125D03*
X174240878Y-126634125D03*
X174740878Y-126634125D03*
%TD*%
D22*
%TO.C,C20*%
X156306367Y-117183014D03*
X154756367Y-117183014D03*
%TD*%
D33*
%TO.C,R23*%
X159750308Y-125969797D03*
X161400308Y-125969797D03*
%TD*%
D45*
%TO.C,b_b1*%
X146357799Y-127848868D03*
X146357799Y-119848868D03*
X150857799Y-127848868D03*
X150857799Y-119848868D03*
%TD*%
D23*
%TO.C,b_down1*%
X210951133Y-126098868D03*
X202951133Y-126098868D03*
X210951133Y-121598868D03*
X202951133Y-121598868D03*
%TD*%
D46*
%TO.C,D3*%
X163876963Y-93905116D03*
X162301963Y-93905116D03*
%TD*%
D33*
%TO.C,R20*%
X153954818Y-110310463D03*
X155604818Y-110310463D03*
%TD*%
D47*
%TO.C,U9*%
X154476567Y-120794558D03*
X153526567Y-120794558D03*
X152576567Y-120794558D03*
X152576567Y-122994558D03*
X154476567Y-122994558D03*
%TD*%
D48*
%TO.C,U1*%
X159525975Y-97379672D03*
X159525975Y-96109672D03*
X159525975Y-94829672D03*
X159525975Y-93559672D03*
X153705975Y-93559672D03*
X153705975Y-94829672D03*
X153705975Y-96109672D03*
X153705975Y-97379672D03*
D49*
X156615975Y-95469672D03*
%TD*%
D22*
%TO.C,C1*%
X159506914Y-91818526D03*
X157956914Y-91818526D03*
%TD*%
D33*
%TO.C,R5*%
X178700179Y-116398550D03*
X180350179Y-116398550D03*
%TD*%
D50*
%TO.C,U2*%
X159575680Y-115376388D03*
X158925680Y-115376388D03*
X158275680Y-115376388D03*
X158275680Y-117276388D03*
X158925680Y-117276388D03*
X159575680Y-117276388D03*
%TD*%
D51*
%TO.C,D1*%
X162704823Y-88794524D03*
X162704823Y-84794524D03*
%TD*%
D30*
%TO.C,SWCLK1*%
X165303801Y-129637235D03*
%TD*%
D36*
%TO.C,R8*%
X172740878Y-128357482D03*
X172740878Y-130007482D03*
%TD*%
D20*
%TO.C,C6*%
X174173724Y-128478655D03*
X175723724Y-128478655D03*
%TD*%
%TO.C,C24*%
X154469361Y-124419275D03*
X156019361Y-124419275D03*
%TD*%
D22*
%TO.C,C21*%
X154371567Y-119134045D03*
X152821567Y-119134045D03*
%TD*%
D45*
%TO.C,b_a1*%
X146357799Y-110915534D03*
X146357799Y-102915534D03*
X150857799Y-110915534D03*
X150857799Y-102915534D03*
%TD*%
D22*
%TO.C,C3*%
X167740878Y-126518684D03*
X166190878Y-126518684D03*
%TD*%
D30*
%TO.C,TP1*%
X166644763Y-96653916D03*
%TD*%
D33*
%TO.C,R19*%
X154524973Y-127765370D03*
X156174973Y-127765370D03*
%TD*%
D52*
%TO.C,U7*%
X153429818Y-113589341D03*
X153429818Y-114539341D03*
X153429818Y-115489341D03*
X156129818Y-115489341D03*
X156129818Y-113589341D03*
%TD*%
D36*
%TO.C,R1*%
X141331133Y-89980534D03*
X141331133Y-91630534D03*
%TD*%
%TO.C,R21*%
X166643276Y-88787760D03*
X166643276Y-90437760D03*
%TD*%
%LPD*%
M02*
