<?xml version="1.0" standalone="no"?>
 <!DOCTYPE svg PUBLIC "-//W3C//DTD SVG 1.1//EN" 
 "http://www.w3.org/Graphics/SVG/1.1/DTD/svg11.dtd"> 
<svg
  xmlns:svg="http://www.w3.org/2000/svg"
  xmlns="http://www.w3.org/2000/svg"
  xmlns:xlink="http://www.w3.org/1999/xlink"
  version="1.1"
  width="297.0022mm" height="210.0072mm" viewBox="0.0000 0.0000 297.0022 210.0072">
<title>SVG Image created as stm32card-F_Paste.svg date 2025/09/11 14:25:54 </title>
  <desc>Image generated by PCBNEW </desc>
<g style="fill:#000000; fill-opacity:1.0000;stroke:#000000; stroke-opacity:1.0000;
stroke-linecap:round; stroke-linejoin:round;"
 transform="translate(0 0) scale(1 1)">
<path style="fill:#000000; fill-opacity:1.0000; stroke:none;fill-rule:evenodd;"
d="M 186.1444,122.1602
186.1616,122.0741
186.2103,122.0011
186.2833,121.9523
186.3694,121.9352
186.8194,121.9352
186.9055,121.9523
186.9785,122.0011
187.0273,122.0741
187.0444,122.1602
187.0444,122.6602
187.0273,122.7463
186.9785,122.8193
186.9055,122.8681
186.8194,122.8852
186.3694,122.8852
186.2833,122.8681
186.2103,122.8193
186.1616,122.7463
186.1444,122.6602
Z" /> 
<path style="fill:#000000; fill-opacity:1.0000; stroke:none;fill-rule:evenodd;"
d="M 187.6944,122.1602
187.7116,122.0741
187.7603,122.0011
187.8333,121.9523
187.9194,121.9352
188.3694,121.9352
188.4555,121.9523
188.5285,122.0011
188.5773,122.0741
188.5944,122.1602
188.5944,122.6602
188.5773,122.7463
188.5285,122.8193
188.4555,122.8681
188.3694,122.8852
187.9194,122.8852
187.8333,122.8681
187.7603,122.8193
187.7116,122.7463
187.6944,122.6602
Z" /> 
<path style="fill:#000000; fill-opacity:1.0000; stroke:none;fill-rule:evenodd;"
d="M 168.9090,118.5107
168.8918,118.5968
168.8431,118.6698
168.7701,118.7186
168.6840,118.7357
168.2340,118.7357
168.1479,118.7186
168.0749,118.6698
168.0261,118.5968
168.0090,118.5107
168.0090,118.0107
168.0261,117.9246
168.0749,117.8516
168.1479,117.8028
168.2340,117.7857
168.6840,117.7857
168.7701,117.8028
168.8431,117.8516
168.8918,117.9246
168.9090,118.0107
Z" /> 
<path style="fill:#000000; fill-opacity:1.0000; stroke:none;fill-rule:evenodd;"
d="M 167.3590,118.5107
167.3418,118.5968
167.2931,118.6698
167.2201,118.7186
167.1340,118.7357
166.6840,118.7357
166.5979,118.7186
166.5249,118.6698
166.4761,118.5968
166.4590,118.5107
166.4590,118.0107
166.4761,117.9246
166.5249,117.8516
166.5979,117.8028
166.6840,117.7857
167.1340,117.7857
167.2201,117.8028
167.2931,117.8516
167.3418,117.9246
167.3590,118.0107
Z" /> 
<path style="fill:#000000; fill-opacity:1.0000; stroke:none;fill-rule:evenodd;"
d="M 157.7382,106.9460
157.7553,106.8599
157.8041,106.7869
157.8771,106.7381
157.9632,106.7210
158.4132,106.7210
158.4993,106.7381
158.5723,106.7869
158.6211,106.8599
158.6382,106.9460
158.6382,107.4460
158.6211,107.5321
158.5723,107.6051
158.4993,107.6538
158.4132,107.6710
157.9632,107.6710
157.8771,107.6538
157.8041,107.6051
157.7553,107.5321
157.7382,107.4460
Z" /> 
<path style="fill:#000000; fill-opacity:1.0000; stroke:none;fill-rule:evenodd;"
d="M 159.2882,106.9460
159.3053,106.8599
159.3541,106.7869
159.4271,106.7381
159.5132,106.7210
159.9632,106.7210
160.0493,106.7381
160.1223,106.7869
160.1711,106.8599
160.1882,106.9460
160.1882,107.4460
160.1711,107.5321
160.1223,107.6051
160.0493,107.6538
159.9632,107.6710
159.5132,107.6710
159.4271,107.6538
159.3541,107.6051
159.3053,107.5321
159.2882,107.4460
Z" /> 
<path style="fill:#000000; fill-opacity:1.0000; stroke:none;fill-rule:evenodd;"
d="M 202.0511,105.2655
202.0511,104.0655
203.8511,104.0655
203.8511,105.2655
Z" /> 
<path style="fill:#000000; fill-opacity:1.0000; stroke:none;fill-rule:evenodd;"
d="M 210.0511,105.2655
210.0511,104.0655
211.8511,104.0655
211.8511,105.2655
Z" /> 
<path style="fill:#000000; fill-opacity:1.0000; stroke:none;fill-rule:evenodd;"
d="M 202.0511,109.7655
202.0511,108.5655
203.8511,108.5655
203.8511,109.7655
Z" /> 
<path style="fill:#000000; fill-opacity:1.0000; stroke:none;fill-rule:evenodd;"
d="M 210.0511,109.7655
210.0511,108.5655
211.8511,108.5655
211.8511,109.7655
Z" /> 
<path style="fill:#000000; fill-opacity:1.0000; stroke:none;fill-rule:evenodd;"
d="M 186.0482,120.2853
186.0653,120.1992
186.1141,120.1262
186.1871,120.0774
186.2732,120.0603
186.7232,120.0603
186.8093,120.0774
186.8823,120.1262
186.9310,120.1992
186.9482,120.2853
186.9482,120.7853
186.9310,120.8714
186.8823,120.9444
186.8093,120.9931
186.7232,121.0103
186.2732,121.0103
186.1871,120.9931
186.1141,120.9444
186.0653,120.8714
186.0482,120.7853
Z" /> 
<path style="fill:#000000; fill-opacity:1.0000; stroke:none;fill-rule:evenodd;"
d="M 187.5982,120.2853
187.6153,120.1992
187.6641,120.1262
187.7371,120.0774
187.8232,120.0603
188.2732,120.0603
188.3593,120.0774
188.4323,120.1262
188.4810,120.1992
188.4982,120.2853
188.4982,120.7853
188.4810,120.8714
188.4323,120.9444
188.3593,120.9931
188.2732,121.0103
187.8232,121.0103
187.7371,120.9931
187.6641,120.9444
187.6153,120.8714
187.5982,120.7853
Z" /> 
<path style="fill:#000000; fill-opacity:1.0000; stroke:none;fill-rule:evenodd;"
d="M 162.4036,116.5370
162.4150,116.4796
162.4476,116.4309
162.4962,116.3984
162.5536,116.3870
163.7286,116.3870
163.7860,116.3984
163.8347,116.4309
163.8672,116.4796
163.8786,116.5370
163.8786,116.8370
163.8672,116.8944
163.8347,116.9430
163.7860,116.9755
163.7286,116.9870
162.5536,116.9870
162.4962,116.9755
162.4476,116.9430
162.4150,116.8944
162.4036,116.8370
Z" /> 
<path style="fill:#000000; fill-opacity:1.0000; stroke:none;fill-rule:evenodd;"
d="M 162.4036,118.4370
162.4150,118.3796
162.4476,118.3309
162.4962,118.2984
162.5536,118.2870
163.7286,118.2870
163.7860,118.2984
163.8347,118.3309
163.8672,118.3796
163.8786,118.4370
163.8786,118.7370
163.8672,118.7944
163.8347,118.8430
163.7860,118.8755
163.7286,118.8870
162.5536,118.8870
162.4962,118.8755
162.4476,118.8430
162.4150,118.7944
162.4036,118.7370
Z" /> 
<path style="fill:#000000; fill-opacity:1.0000; stroke:none;fill-rule:evenodd;"
d="M 164.2786,117.4870
164.2900,117.4296
164.3226,117.3809
164.3712,117.3484
164.4286,117.3370
165.6036,117.3370
165.6610,117.3484
165.7097,117.3809
165.7422,117.4296
165.7536,117.4870
165.7536,117.7870
165.7422,117.8444
165.7097,117.8930
165.6610,117.9255
165.6036,117.9370
164.4286,117.9370
164.3712,117.9255
164.3226,117.8930
164.2900,117.8444
164.2786,117.7870
Z" /> 
<path style="fill:#000000; fill-opacity:1.0000; stroke:none;fill-rule:evenodd;"
d="M 160.0213,108.2920
160.1074,108.3091
160.1804,108.3579
160.2292,108.4309
160.2463,108.5170
160.2463,108.9670
160.2292,109.0531
160.1804,109.1261
160.1074,109.1748
160.0213,109.1920
159.5213,109.1920
159.4352,109.1748
159.3622,109.1261
159.3134,109.0531
159.2963,108.9670
159.2963,108.5170
159.3134,108.4309
159.3622,108.3579
159.4352,108.3091
159.5213,108.2920
Z" /> 
<path style="fill:#000000; fill-opacity:1.0000; stroke:none;fill-rule:evenodd;"
d="M 160.0213,109.8420
160.1074,109.8591
160.1804,109.9079
160.2292,109.9809
160.2463,110.0670
160.2463,110.5170
160.2292,110.6031
160.1804,110.6761
160.1074,110.7248
160.0213,110.7420
159.5213,110.7420
159.4352,110.7248
159.3622,110.6761
159.3134,110.6031
159.2963,110.5170
159.2963,110.0670
159.3134,109.9809
159.3622,109.9079
159.4352,109.8591
159.5213,109.8420
Z" /> 
<path style="fill:#000000; fill-opacity:1.0000; stroke:none;fill-rule:evenodd;"
d="M 157.4246,105.7106
157.4246,100.2106
160.4246,100.2106
160.4246,105.7106
Z" /> 
<path style="fill:#000000; fill-opacity:1.0000; stroke:none;fill-rule:evenodd;"
d="M 152.7646,105.7106
152.7646,100.2106
155.7646,100.2106
155.7646,105.7106
Z" /> 
<path style="fill:#000000; fill-opacity:1.0000; stroke:none;fill-rule:evenodd;"
d="M 148.5475,93.1433
148.6241,93.1585
148.6889,93.2019
148.7323,93.2668
148.7475,93.3433
148.7475,93.7433
148.7323,93.8199
148.6889,93.8847
148.6241,93.9281
148.5475,93.9433
147.9975,93.9433
147.9210,93.9281
147.8561,93.8847
147.8127,93.8199
147.7975,93.7433
147.7975,93.3433
147.8127,93.2668
147.8561,93.2019
147.9210,93.1585
147.9975,93.1433
Z" /> 
<path style="fill:#000000; fill-opacity:1.0000; stroke:none;fill-rule:evenodd;"
d="M 148.5475,94.7933
148.6241,94.8085
148.6889,94.8519
148.7323,94.9168
148.7475,94.9933
148.7475,95.3933
148.7323,95.4699
148.6889,95.5347
148.6241,95.5781
148.5475,95.5933
147.9975,95.5933
147.9210,95.5781
147.8561,95.5347
147.8127,95.4699
147.7975,95.3933
147.7975,94.9933
147.8127,94.9168
147.8561,94.8519
147.9210,94.8085
147.9975,94.7933
Z" /> 
<path style="fill:#000000; fill-opacity:1.0000; stroke:none;fill-rule:evenodd;"
d="M 160.9373,117.6836
160.8607,117.6683
160.7958,117.6250
160.7525,117.5601
160.7373,117.4836
160.7373,117.0836
160.7525,117.0070
160.7958,116.9422
160.8607,116.8988
160.9373,116.8836
161.4873,116.8836
161.5638,116.8988
161.6287,116.9422
161.6720,117.0070
161.6873,117.0836
161.6873,117.4836
161.6720,117.5601
161.6287,117.6250
161.5638,117.6683
161.4873,117.6836
Z" /> 
<path style="fill:#000000; fill-opacity:1.0000; stroke:none;fill-rule:evenodd;"
d="M 160.9373,116.0336
160.8607,116.0183
160.7958,115.9750
160.7525,115.9101
160.7373,115.8336
160.7373,115.4336
160.7525,115.3570
160.7958,115.2922
160.8607,115.2488
160.9373,115.2336
161.4873,115.2336
161.5638,115.2488
161.6287,115.2922
161.6720,115.3570
161.6873,115.4336
161.6873,115.8336
161.6720,115.9101
161.6287,115.9750
161.5638,116.0183
161.4873,116.0336
Z" /> 
<path style="fill:#000000; fill-opacity:1.0000; stroke:none;fill-rule:evenodd;"
d="M 148.5156,89.8882
148.6017,89.9053
148.6747,89.9541
148.7235,90.0271
148.7406,90.1132
148.7406,90.5632
148.7235,90.6493
148.6747,90.7223
148.6017,90.7710
148.5156,90.7882
148.0156,90.7882
147.9295,90.7710
147.8565,90.7223
147.8077,90.6493
147.7906,90.5632
147.7906,90.1132
147.8077,90.0271
147.8565,89.9541
147.9295,89.9053
148.0156,89.8882
Z" /> 
<path style="fill:#000000; fill-opacity:1.0000; stroke:none;fill-rule:evenodd;"
d="M 148.5156,91.4382
148.6017,91.4553
148.6747,91.5041
148.7235,91.5771
148.7406,91.6632
148.7406,92.1132
148.7235,92.1993
148.6747,92.2723
148.6017,92.3210
148.5156,92.3382
148.0156,92.3382
147.9295,92.3210
147.8565,92.2723
147.8077,92.1993
147.7906,92.1132
147.7906,91.6632
147.8077,91.5771
147.8565,91.5041
147.9295,91.4553
148.0156,91.4382
Z" /> 
<path style="fill:#000000; fill-opacity:1.0000; stroke:none;fill-rule:evenodd;"
d="M 161.4415,127.3718
161.4263,127.4483
161.3830,127.5132
161.3181,127.5566
161.2415,127.5718
160.8415,127.5718
160.7650,127.5566
160.7001,127.5132
160.6568,127.4483
160.6415,127.3718
160.6415,126.8218
160.6568,126.7453
160.7001,126.6804
160.7650,126.6370
160.8415,126.6218
161.2415,126.6218
161.3181,126.6370
161.3830,126.6804
161.4263,126.7453
161.4415,126.8218
Z" /> 
<path style="fill:#000000; fill-opacity:1.0000; stroke:none;fill-rule:evenodd;"
d="M 159.7915,127.3718
159.7763,127.4483
159.7330,127.5132
159.6681,127.5566
159.5915,127.5718
159.1915,127.5718
159.1150,127.5566
159.0501,127.5132
159.0068,127.4483
158.9915,127.3718
158.9915,126.8218
159.0068,126.7453
159.0501,126.6804
159.1150,126.6370
159.1915,126.6218
159.5915,126.6218
159.6681,126.6370
159.7330,126.6804
159.7763,126.7453
159.7915,126.8218
Z" /> 
<path style="fill:#000000; fill-opacity:1.0000; stroke:none;fill-rule:evenodd;"
d="M 152.7689,90.1825
149.2689,90.1825
149.2689,87.8325
152.7689,87.8325
Z" /> 
<path style="fill:#000000; fill-opacity:1.0000; stroke:none;fill-rule:evenodd;"
d="M 152.7689,84.4825
149.2689,84.4825
149.2689,82.1325
152.7689,82.1325
Z" /> 
<path style="fill:#000000; fill-opacity:1.0000; stroke:none;fill-rule:evenodd;"
d="M 150.2181,96.3952
150.2372,96.2995
150.2913,96.2184
150.3725,96.1642
150.4681,96.1452
150.9681,96.1452
151.0638,96.1642
151.1449,96.2184
151.1991,96.2995
151.2181,96.3952
151.2181,97.3452
151.1991,97.4409
151.1449,97.5220
151.0638,97.5762
150.9681,97.5952
150.4681,97.5952
150.3725,97.5762
150.2913,97.5220
150.2372,97.4409
150.2181,97.3452
Z" /> 
<path style="fill:#000000; fill-opacity:1.0000; stroke:none;fill-rule:evenodd;"
d="M 152.1181,96.3952
152.1372,96.2995
152.1913,96.2184
152.2725,96.1642
152.3681,96.1452
152.8681,96.1452
152.9638,96.1642
153.0449,96.2184
153.0991,96.2995
153.1181,96.3952
153.1181,97.3452
153.0991,97.4409
153.0449,97.5220
152.9638,97.5762
152.8681,97.5952
152.3681,97.5952
152.2725,97.5762
152.1913,97.5220
152.1372,97.4409
152.1181,97.3452
Z" /> 
<path style="fill:#000000; fill-opacity:1.0000; stroke:none;fill-rule:evenodd;"
d="M 173.9744,129.6654
173.9896,129.5889
174.0329,129.5240
174.0978,129.4807
174.1744,129.4655
174.5744,129.4655
174.6509,129.4807
174.7158,129.5240
174.7591,129.5889
174.7744,129.6654
174.7744,130.2155
174.7591,130.2920
174.7158,130.3569
174.6509,130.4002
174.5744,130.4154
174.1744,130.4154
174.0978,130.4002
174.0329,130.3569
173.9896,130.2920
173.9744,130.2155
Z" /> 
<path style="fill:#000000; fill-opacity:1.0000; stroke:none;fill-rule:evenodd;"
d="M 175.6244,129.6654
175.6396,129.5889
175.6829,129.5240
175.7478,129.4807
175.8244,129.4655
176.2244,129.4655
176.3009,129.4807
176.3658,129.5240
176.4091,129.5889
176.4244,129.6654
176.4244,130.2155
176.4091,130.2920
176.3658,130.3569
176.3009,130.4002
176.2244,130.4154
175.8244,130.4154
175.7478,130.4002
175.6829,130.3569
175.6396,130.2920
175.6244,130.2155
Z" /> 
<path style="fill:#000000; fill-opacity:1.0000; stroke:none;fill-rule:evenodd;"
d="M 157.7382,111.5730
157.7534,111.4964
157.7968,111.4315
157.8616,111.3882
157.9382,111.3730
158.3382,111.3730
158.4147,111.3882
158.4796,111.4315
158.5230,111.4964
158.5382,111.5730
158.5382,112.1230
158.5230,112.1995
158.4796,112.2644
158.4147,112.3077
158.3382,112.3230
157.9382,112.3230
157.8616,112.3077
157.7968,112.2644
157.7534,112.1995
157.7382,112.1230
Z" /> 
<path style="fill:#000000; fill-opacity:1.0000; stroke:none;fill-rule:evenodd;"
d="M 159.3882,111.5730
159.4034,111.4964
159.4468,111.4315
159.5116,111.3882
159.5882,111.3730
159.9882,111.3730
160.0647,111.3882
160.1296,111.4315
160.1730,111.4964
160.1882,111.5730
160.1882,112.1230
160.1730,112.1995
160.1296,112.2644
160.0647,112.3077
159.9882,112.3230
159.5882,112.3230
159.5116,112.3077
159.4468,112.2644
159.4034,112.1995
159.3882,112.1230
Z" /> 
<path style="fill:#000000; fill-opacity:1.0000; stroke:none;fill-rule:evenodd;"
d="M 175.7125,126.5369
175.7296,126.4508
175.7784,126.3778
175.8514,126.3290
175.9375,126.3119
176.3875,126.3119
176.4736,126.3290
176.5466,126.3778
176.5953,126.4508
176.6125,126.5369
176.6125,127.0369
176.5953,127.1230
176.5466,127.1960
176.4736,127.2448
176.3875,127.2619
175.9375,127.2619
175.8514,127.2448
175.7784,127.1960
175.7296,127.1230
175.7125,127.0369
Z" /> 
<path style="fill:#000000; fill-opacity:1.0000; stroke:none;fill-rule:evenodd;"
d="M 177.2625,126.5369
177.2796,126.4508
177.3284,126.3778
177.4014,126.3290
177.4875,126.3119
177.9375,126.3119
178.0236,126.3290
178.0966,126.3778
178.1453,126.4508
178.1625,126.5369
178.1625,127.0369
178.1453,127.1230
178.0966,127.1960
178.0236,127.2448
177.9375,127.2619
177.4875,127.2619
177.4014,127.2448
177.3284,127.1960
177.2796,127.1230
177.2625,127.0369
Z" /> 
<path style="fill:#000000; fill-opacity:1.0000; stroke:none;fill-rule:evenodd;"
d="M 156.2743,120.9705
156.2312,120.9619
156.1947,120.9375
156.1703,120.9011
156.1618,120.8580
156.1618,120.4830
156.1703,120.4399
156.1947,120.4034
156.2312,120.3791
156.2743,120.3705
156.4993,120.3705
156.5423,120.3791
156.5788,120.4034
156.6032,120.4399
156.6118,120.4830
156.6118,120.8580
156.6032,120.9011
156.5788,120.9375
156.5423,120.9619
156.4993,120.9705
Z" /> 
<path style="fill:#000000; fill-opacity:1.0000; stroke:none;fill-rule:evenodd;"
d="M 156.2743,118.8705
156.2312,118.8619
156.1947,118.8375
156.1703,118.8011
156.1618,118.7580
156.1618,118.3830
156.1703,118.3399
156.1947,118.3034
156.2312,118.2791
156.2743,118.2705
156.4993,118.2705
156.5423,118.2791
156.5788,118.3034
156.6032,118.3399
156.6118,118.3830
156.6118,118.7580
156.6032,118.8011
156.5788,118.8375
156.5423,118.8619
156.4993,118.8705
Z" /> 
<path style="fill:#000000; fill-opacity:1.0000; stroke:none;fill-rule:evenodd;"
d="M 149.6937,118.6522
149.5980,118.6332
149.5169,118.5790
149.4627,118.4979
149.4437,118.4022
149.4437,116.4022
149.4627,116.3065
149.5169,116.2254
149.5980,116.1712
149.6937,116.1522
150.9937,116.1522
151.0894,116.1712
151.1705,116.2254
151.2247,116.3065
151.2437,116.4022
151.2437,118.4022
151.2247,118.4979
151.1705,118.5790
151.0894,118.6332
150.9937,118.6522
Z" /> 
<path style="fill:#000000; fill-opacity:1.0000; stroke:none;fill-rule:evenodd;"
d="M 149.6937,114.6522
149.5980,114.6332
149.5169,114.5790
149.4627,114.4979
149.4437,114.4022
149.4437,112.4022
149.4627,112.3065
149.5169,112.2254
149.5980,112.1712
149.6937,112.1522
150.9937,112.1522
151.0894,112.1712
151.1705,112.2254
151.2247,112.3065
151.2437,112.4022
151.2437,114.4022
151.2247,114.4979
151.1705,114.5790
151.0894,114.6332
150.9937,114.6522
Z" /> 
<path style="fill:#000000; fill-opacity:1.0000; stroke:none;fill-rule:evenodd;"
d="M 175.6595,111.2355
173.4595,111.2355
173.4595,110.8355
175.6595,110.8355
Z" /> 
<path style="fill:#000000; fill-opacity:1.0000; stroke:none;fill-rule:evenodd;"
d="M 175.6595,110.5355
173.4595,110.5355
173.4595,110.1355
175.6595,110.1355
Z" /> 
<path style="fill:#000000; fill-opacity:1.0000; stroke:none;fill-rule:evenodd;"
d="M 175.6595,109.8355
173.4595,109.8355
173.4595,109.4355
175.6595,109.4355
Z" /> 
<path style="fill:#000000; fill-opacity:1.0000; stroke:none;fill-rule:evenodd;"
d="M 175.6595,109.1355
173.4595,109.1355
173.4595,108.7355
175.6595,108.7355
Z" /> 
<path style="fill:#000000; fill-opacity:1.0000; stroke:none;fill-rule:evenodd;"
d="M 175.6595,108.4355
173.4595,108.4355
173.4595,108.0355
175.6595,108.0355
Z" /> 
<path style="fill:#000000; fill-opacity:1.0000; stroke:none;fill-rule:evenodd;"
d="M 175.6595,107.7355
173.4595,107.7355
173.4595,107.3355
175.6595,107.3355
Z" /> 
<path style="fill:#000000; fill-opacity:1.0000; stroke:none;fill-rule:evenodd;"
d="M 175.6595,107.0355
173.4595,107.0355
173.4595,106.6355
175.6595,106.6355
Z" /> 
<path style="fill:#000000; fill-opacity:1.0000; stroke:none;fill-rule:evenodd;"
d="M 175.6595,106.3355
173.4595,106.3355
173.4595,105.9355
175.6595,105.9355
Z" /> 
<path style="fill:#000000; fill-opacity:1.0000; stroke:none;fill-rule:evenodd;"
d="M 175.6595,105.6355
173.4595,105.6355
173.4595,105.2355
175.6595,105.2355
Z" /> 
<path style="fill:#000000; fill-opacity:1.0000; stroke:none;fill-rule:evenodd;"
d="M 175.6595,104.9355
173.4595,104.9355
173.4595,104.5355
175.6595,104.5355
Z" /> 
<path style="fill:#000000; fill-opacity:1.0000; stroke:none;fill-rule:evenodd;"
d="M 175.6595,104.2355
173.4595,104.2355
173.4595,103.8355
175.6595,103.8355
Z" /> 
<path style="fill:#000000; fill-opacity:1.0000; stroke:none;fill-rule:evenodd;"
d="M 175.6595,103.5355
173.4595,103.5355
173.4595,103.1355
175.6595,103.1355
Z" /> 
<path style="fill:#000000; fill-opacity:1.0000; stroke:none;fill-rule:evenodd;"
d="M 175.6595,102.8355
173.4595,102.8355
173.4595,102.4355
175.6595,102.4355
Z" /> 
<path style="fill:#000000; fill-opacity:1.0000; stroke:none;fill-rule:evenodd;"
d="M 178.0173,124.3287
178.0344,124.2426
178.0832,124.1696
178.1562,124.1208
178.2423,124.1037
178.6923,124.1037
178.7784,124.1208
178.8514,124.1696
178.9001,124.2426
178.9173,124.3287
178.9173,124.8287
178.9001,124.9148
178.8514,124.9878
178.7784,125.0366
178.6923,125.0537
178.2423,125.0537
178.1562,125.0366
178.0832,124.9878
178.0344,124.9148
178.0173,124.8287
Z" /> 
<path style="fill:#000000; fill-opacity:1.0000; stroke:none;fill-rule:evenodd;"
d="M 179.5673,124.3287
179.5844,124.2426
179.6332,124.1696
179.7062,124.1208
179.7923,124.1037
180.2423,124.1037
180.3284,124.1208
180.4014,124.1696
180.4501,124.2426
180.4673,124.3287
180.4673,124.8287
180.4501,124.9148
180.4014,124.9878
180.3284,125.0366
180.2423,125.0537
179.7923,125.0537
179.7062,125.0366
179.6332,124.9878
179.5844,124.9148
179.5673,124.8287
Z" /> 
<path style="fill:#000000; fill-opacity:1.0000; stroke:none;fill-rule:evenodd;"
d="M 172.0066,130.2174
171.9914,130.2939
171.9480,130.3588
171.8831,130.4022
171.8066,130.4174
171.4066,130.4174
171.3301,130.4022
171.2652,130.3588
171.2218,130.2939
171.2066,130.2174
171.2066,129.6674
171.2218,129.5908
171.2652,129.5260
171.3301,129.4826
171.4066,129.4674
171.8066,129.4674
171.8831,129.4826
171.9480,129.5260
171.9914,129.5908
172.0066,129.6674
Z" /> 
<path style="fill:#000000; fill-opacity:1.0000; stroke:none;fill-rule:evenodd;"
d="M 170.3566,130.2174
170.3414,130.2939
170.2980,130.3588
170.2331,130.4022
170.1566,130.4174
169.7566,130.4174
169.6801,130.4022
169.6152,130.3588
169.5718,130.2939
169.5566,130.2174
169.5566,129.6674
169.5718,129.5908
169.6152,129.5260
169.6801,129.4826
169.7566,129.4674
170.1566,129.4674
170.2331,129.4826
170.2980,129.5260
170.3414,129.5908
170.3566,129.6674
Z" /> 
<path style="fill:#000000; fill-opacity:1.0000; stroke:none;fill-rule:evenodd;"
d="M 157.8309,120.1382
157.8385,120.1000
157.8601,120.0675
157.8926,120.0459
157.9309,120.0382
158.3809,120.0382
158.4191,120.0459
158.4516,120.0675
158.4732,120.1000
158.4809,120.1382
158.4809,120.3382
158.4732,120.3765
158.4516,120.4090
158.4191,120.4306
158.3809,120.4382
157.9309,120.4382
157.8926,120.4306
157.8601,120.4090
157.8385,120.3765
157.8309,120.3382
Z" /> 
<path style="fill:#000000; fill-opacity:1.0000; stroke:none;fill-rule:evenodd;"
d="M 157.8309,120.7882
157.8385,120.7500
157.8601,120.7175
157.8926,120.6959
157.9309,120.6882
158.3809,120.6882
158.4191,120.6959
158.4516,120.7175
158.4732,120.7500
158.4809,120.7882
158.4809,120.9882
158.4732,121.0265
158.4516,121.0590
158.4191,121.0806
158.3809,121.0882
157.9309,121.0882
157.8926,121.0806
157.8601,121.0590
157.8385,121.0265
157.8309,120.9882
Z" /> 
<path style="fill:#000000; fill-opacity:1.0000; stroke:none;fill-rule:evenodd;"
d="M 157.8309,121.4382
157.8385,121.4000
157.8601,121.3675
157.8926,121.3459
157.9309,121.3382
158.3809,121.3382
158.4191,121.3459
158.4516,121.3675
158.4732,121.4000
158.4809,121.4382
158.4809,121.6382
158.4732,121.6765
158.4516,121.7090
158.4191,121.7306
158.3809,121.7382
157.9309,121.7382
157.8926,121.7306
157.8601,121.7090
157.8385,121.6765
157.8309,121.6382
Z" /> 
<path style="fill:#000000; fill-opacity:1.0000; stroke:none;fill-rule:evenodd;"
d="M 159.7309,121.4382
159.7385,121.4000
159.7601,121.3675
159.7926,121.3459
159.8309,121.3382
160.2809,121.3382
160.3191,121.3459
160.3516,121.3675
160.3732,121.4000
160.3809,121.4382
160.3809,121.6382
160.3732,121.6765
160.3516,121.7090
160.3191,121.7306
160.2809,121.7382
159.8309,121.7382
159.7926,121.7306
159.7601,121.7090
159.7385,121.6765
159.7309,121.6382
Z" /> 
<path style="fill:#000000; fill-opacity:1.0000; stroke:none;fill-rule:evenodd;"
d="M 159.7309,120.7882
159.7385,120.7500
159.7601,120.7175
159.7926,120.6959
159.8309,120.6882
160.2809,120.6882
160.3191,120.6959
160.3516,120.7175
160.3732,120.7500
160.3809,120.7882
160.3809,120.9882
160.3732,121.0265
160.3516,121.0590
160.3191,121.0806
160.2809,121.0882
159.8309,121.0882
159.7926,121.0806
159.7601,121.0590
159.7385,121.0265
159.7309,120.9882
Z" /> 
<path style="fill:#000000; fill-opacity:1.0000; stroke:none;fill-rule:evenodd;"
d="M 159.7309,120.1382
159.7385,120.1000
159.7601,120.0675
159.7926,120.0459
159.8309,120.0382
160.2809,120.0382
160.3191,120.0459
160.3516,120.0675
160.3732,120.1000
160.3809,120.1382
160.3809,120.3382
160.3732,120.3765
160.3516,120.4090
160.3191,120.4306
160.2809,120.4382
159.8309,120.4382
159.7926,120.4306
159.7601,120.4090
159.7385,120.3765
159.7309,120.3382
Z" /> 
<path style="fill:#000000; fill-opacity:1.0000; stroke:none;fill-rule:evenodd;"
d="M 143.1061,89.5805
143.1827,89.5958
143.2476,89.6391
143.2909,89.7040
143.3061,89.7805
143.3061,90.1805
143.2909,90.2571
143.2476,90.3220
143.1827,90.3653
143.1061,90.3805
142.5561,90.3805
142.4796,90.3653
142.4147,90.3220
142.3714,90.2571
142.3561,90.1805
142.3561,89.7805
142.3714,89.7040
142.4147,89.6391
142.4796,89.5958
142.5561,89.5805
Z" /> 
<path style="fill:#000000; fill-opacity:1.0000; stroke:none;fill-rule:evenodd;"
d="M 143.1061,91.2305
143.1827,91.2458
143.2476,91.2891
143.2909,91.3540
143.3061,91.4305
143.3061,91.8305
143.2909,91.9071
143.2476,91.9720
143.1827,92.0153
143.1061,92.0305
142.5561,92.0305
142.4796,92.0153
142.4147,91.9720
142.3714,91.9071
142.3561,91.8305
142.3561,91.4305
142.3714,91.3540
142.4147,91.2891
142.4796,91.2458
142.5561,91.2305
Z" /> 
<path style="fill:#000000; fill-opacity:1.0000; stroke:none;fill-rule:evenodd;"
d="M 157.0016,97.8215
156.9863,97.8980
156.9430,97.9629
156.8781,98.0062
156.8016,98.0215
156.4016,98.0215
156.3250,98.0062
156.2602,97.9629
156.2168,97.8980
156.2016,97.8215
156.2016,97.2715
156.2168,97.1949
156.2602,97.1300
156.3250,97.0867
156.4016,97.0715
156.8016,97.0715
156.8781,97.0867
156.9430,97.1300
156.9863,97.1949
157.0016,97.2715
Z" /> 
<path style="fill:#000000; fill-opacity:1.0000; stroke:none;fill-rule:evenodd;"
d="M 155.3516,97.8215
155.3363,97.8980
155.2930,97.9629
155.2281,98.0062
155.1516,98.0215
154.7516,98.0215
154.6750,98.0062
154.6102,97.9629
154.5668,97.8980
154.5516,97.8215
154.5516,97.2715
154.5668,97.1949
154.6102,97.1300
154.6750,97.0867
154.7516,97.0715
155.1516,97.0715
155.2281,97.0867
155.2930,97.1300
155.3363,97.1949
155.3516,97.2715
Z" /> 
<path style="fill:#000000; fill-opacity:1.0000; stroke:none;fill-rule:evenodd;"
d="M 145.3697,97.3121
145.3849,97.2355
145.4282,97.1707
145.4931,97.1273
145.5697,97.1121
145.9697,97.1121
146.0462,97.1273
146.1111,97.1707
146.1544,97.2355
146.1697,97.3121
146.1697,97.8621
146.1544,97.9386
146.1111,98.0035
146.0462,98.0469
145.9697,98.0621
145.5697,98.0621
145.4931,98.0469
145.4282,98.0035
145.3849,97.9386
145.3697,97.8621
Z" /> 
<path style="fill:#000000; fill-opacity:1.0000; stroke:none;fill-rule:evenodd;"
d="M 147.0197,97.3121
147.0349,97.2355
147.0782,97.1707
147.1431,97.1273
147.2197,97.1121
147.6197,97.1121
147.6962,97.1273
147.7611,97.1707
147.8044,97.2355
147.8197,97.3121
147.8197,97.8621
147.8044,97.9386
147.7611,98.0035
147.6962,98.0469
147.6197,98.0621
147.2197,98.0621
147.1431,98.0469
147.0782,98.0035
147.0349,97.9386
147.0197,97.8621
Z" /> 
<path style="fill:#000000; fill-opacity:1.0000; stroke:none;fill-rule:evenodd;"
d="M 181.2602,116.1486
181.2773,116.0624
181.3261,115.9895
181.3991,115.9407
181.4852,115.9235
181.9352,115.9235
182.0213,115.9407
182.0943,115.9895
182.1431,116.0624
182.1602,116.1486
182.1602,116.6486
182.1431,116.7347
182.0943,116.8076
182.0213,116.8564
181.9352,116.8735
181.4852,116.8735
181.3991,116.8564
181.3261,116.8076
181.2773,116.7347
181.2602,116.6486
Z" /> 
<path style="fill:#000000; fill-opacity:1.0000; stroke:none;fill-rule:evenodd;"
d="M 182.8102,116.1486
182.8273,116.0624
182.8761,115.9895
182.9491,115.9407
183.0352,115.9235
183.4852,115.9235
183.5713,115.9407
183.6443,115.9895
183.6931,116.0624
183.7102,116.1486
183.7102,116.6486
183.6931,116.7347
183.6443,116.8076
183.5713,116.8564
183.4852,116.8735
183.0352,116.8735
182.9491,116.8564
182.8761,116.8076
182.8273,116.7347
182.8102,116.6486
Z" /> 
<path style="fill:#000000; fill-opacity:1.0000; stroke:none;fill-rule:evenodd;"
d="M 157.7382,113.2230
157.7553,113.1369
157.8041,113.0639
157.8771,113.0151
157.9632,112.9980
158.4132,112.9980
158.4993,113.0151
158.5723,113.0639
158.6211,113.1369
158.6382,113.2230
158.6382,113.7230
158.6211,113.8091
158.5723,113.8821
158.4993,113.9309
158.4132,113.9480
157.9632,113.9480
157.8771,113.9309
157.8041,113.8821
157.7553,113.8091
157.7382,113.7230
Z" /> 
<path style="fill:#000000; fill-opacity:1.0000; stroke:none;fill-rule:evenodd;"
d="M 159.2882,113.2230
159.3053,113.1369
159.3541,113.0639
159.4271,113.0151
159.5132,112.9980
159.9632,112.9980
160.0493,113.0151
160.1223,113.0639
160.1711,113.1369
160.1882,113.2230
160.1882,113.7230
160.1711,113.8091
160.1223,113.8821
160.0493,113.9309
159.9632,113.9480
159.5132,113.9480
159.4271,113.9309
159.3541,113.8821
159.3053,113.8091
159.2882,113.7230
Z" /> 
<path style="fill:#000000; fill-opacity:1.0000; stroke:none;fill-rule:evenodd;"
d="M 158.6280,86.3184
158.6433,86.2418
158.6866,86.1769
158.7515,86.1336
158.8280,86.1184
159.2280,86.1184
159.3046,86.1336
159.3695,86.1769
159.4128,86.2418
159.4280,86.3184
159.4280,86.8684
159.4128,86.9449
159.3695,87.0098
159.3046,87.0531
159.2280,87.0684
158.8280,87.0684
158.7515,87.0531
158.6866,87.0098
158.6433,86.9449
158.6280,86.8684
Z" /> 
<path style="fill:#000000; fill-opacity:1.0000; stroke:none;fill-rule:evenodd;"
d="M 160.2780,86.3184
160.2933,86.2418
160.3366,86.1769
160.4015,86.1336
160.4780,86.1184
160.8780,86.1184
160.9546,86.1336
161.0195,86.1769
161.0628,86.2418
161.0780,86.3184
161.0780,86.8684
161.0628,86.9449
161.0195,87.0098
160.9546,87.0531
160.8780,87.0684
160.4780,87.0684
160.4015,87.0531
160.3366,87.0098
160.2933,86.9449
160.2780,86.8684
Z" /> 
<path style="fill:#000000; fill-opacity:1.0000; stroke:none;fill-rule:evenodd;"
d="M 154.7071,124.7614
154.6919,124.8379
154.6486,124.9028
154.5837,124.9462
154.5071,124.9614
154.1071,124.9614
154.0306,124.9462
153.9657,124.9028
153.9224,124.8379
153.9071,124.7614
153.9071,124.2114
153.9224,124.1348
153.9657,124.0700
154.0306,124.0266
154.1071,124.0114
154.5071,124.0114
154.5837,124.0266
154.6486,124.0700
154.6919,124.1348
154.7071,124.2114
Z" /> 
<path style="fill:#000000; fill-opacity:1.0000; stroke:none;fill-rule:evenodd;"
d="M 153.0571,124.7614
153.0419,124.8379
152.9986,124.9028
152.9337,124.9462
152.8571,124.9614
152.4571,124.9614
152.3806,124.9462
152.3157,124.9028
152.2724,124.8379
152.2571,124.7614
152.2571,124.2114
152.2724,124.1348
152.3157,124.0700
152.3806,124.0266
152.4571,124.0114
152.8571,124.0114
152.9337,124.0266
152.9986,124.0700
153.0419,124.1348
153.0571,124.2114
Z" /> 
<path style="fill:#000000; fill-opacity:1.0000; stroke:none;fill-rule:evenodd;"
d="M 158.4300,108.2920
158.5066,108.3072
158.5715,108.3505
158.6148,108.4154
158.6300,108.4920
158.6300,108.8920
158.6148,108.9685
158.5715,109.0334
158.5066,109.0767
158.4300,109.0920
157.8800,109.0920
157.8035,109.0767
157.7386,109.0334
157.6953,108.9685
157.6800,108.8920
157.6800,108.4920
157.6953,108.4154
157.7386,108.3505
157.8035,108.3072
157.8800,108.2920
Z" /> 
<path style="fill:#000000; fill-opacity:1.0000; stroke:none;fill-rule:evenodd;"
d="M 158.4300,109.9420
158.5066,109.9572
158.5715,110.0005
158.6148,110.0654
158.6300,110.1420
158.6300,110.5420
158.6148,110.6185
158.5715,110.6834
158.5066,110.7267
158.4300,110.7420
157.8800,110.7420
157.8035,110.7267
157.7386,110.6834
157.6953,110.6185
157.6800,110.5420
157.6800,110.1420
157.6953,110.0654
157.7386,110.0005
157.8035,109.9572
157.8800,109.9420
Z" /> 
<path style="fill:#000000; fill-opacity:1.0000; stroke:none;fill-rule:evenodd;"
d="M 180.4673,121.9087
180.4501,121.9948
180.4014,122.0678
180.3284,122.1166
180.2423,122.1337
179.7923,122.1337
179.7062,122.1166
179.6332,122.0678
179.5844,121.9948
179.5673,121.9087
179.5673,121.4087
179.5844,121.3226
179.6332,121.2496
179.7062,121.2008
179.7923,121.1837
180.2423,121.1837
180.3284,121.2008
180.4014,121.2496
180.4501,121.3226
180.4673,121.4087
Z" /> 
<path style="fill:#000000; fill-opacity:1.0000; stroke:none;fill-rule:evenodd;"
d="M 178.9173,121.9087
178.9001,121.9948
178.8514,122.0678
178.7784,122.1166
178.6923,122.1337
178.2423,122.1337
178.1562,122.1166
178.0832,122.0678
178.0344,121.9948
178.0173,121.9087
178.0173,121.4087
178.0344,121.3226
178.0832,121.2496
178.1562,121.2008
178.2423,121.1837
178.6923,121.1837
178.7784,121.2008
178.8514,121.2496
178.9001,121.3226
178.9173,121.4087
Z" /> 
<path style="fill:#000000; fill-opacity:1.0000; stroke:none;fill-rule:evenodd;"
d="M 183.0882,120.2603
183.1034,120.1837
183.1467,120.1188
183.2116,120.0755
183.2882,120.0603
183.6882,120.0603
183.7647,120.0755
183.8296,120.1188
183.8729,120.1837
183.8882,120.2603
183.8882,120.8103
183.8729,120.8868
183.8296,120.9517
183.7647,120.9950
183.6882,121.0103
183.2882,121.0103
183.2116,120.9950
183.1467,120.9517
183.1034,120.8868
183.0882,120.8103
Z" /> 
<path style="fill:#000000; fill-opacity:1.0000; stroke:none;fill-rule:evenodd;"
d="M 184.7382,120.2603
184.7534,120.1837
184.7967,120.1188
184.8616,120.0755
184.9382,120.0603
185.3382,120.0603
185.4147,120.0755
185.4796,120.1188
185.5229,120.1837
185.5382,120.2603
185.5382,120.8103
185.5229,120.8868
185.4796,120.9517
185.4147,120.9950
185.3382,121.0103
184.9382,121.0103
184.8616,120.9950
184.7967,120.9517
184.7534,120.8868
184.7382,120.8103
Z" /> 
<path style="fill:#000000; fill-opacity:1.0000; stroke:none;fill-rule:evenodd;"
d="M 161.1590,121.9453
161.1742,121.8687
161.2176,121.8038
161.2825,121.7605
161.3590,121.7453
161.7590,121.7453
161.8356,121.7605
161.9004,121.8038
161.9438,121.8687
161.9590,121.9453
161.9590,122.4953
161.9438,122.5718
161.9004,122.6367
161.8356,122.6800
161.7590,122.6953
161.3590,122.6953
161.2825,122.6800
161.2176,122.6367
161.1742,122.5718
161.1590,122.4953
Z" /> 
<path style="fill:#000000; fill-opacity:1.0000; stroke:none;fill-rule:evenodd;"
d="M 162.8090,121.9453
162.8242,121.8687
162.8676,121.8038
162.9325,121.7605
163.0090,121.7453
163.4090,121.7453
163.4856,121.7605
163.5504,121.8038
163.5938,121.8687
163.6090,121.9453
163.6090,122.4953
163.5938,122.5718
163.5504,122.6367
163.4856,122.6800
163.4090,122.6953
163.0090,122.6953
162.9325,122.6800
162.8676,122.6367
162.8242,122.5718
162.8090,122.4953
Z" /> 
<path style="fill:#000000; fill-opacity:1.0000; stroke:none;fill-rule:evenodd;"
d="M 186.0320,117.7666
186.0491,117.6805
186.0979,117.6075
186.1709,117.5588
186.2570,117.5416
186.7070,117.5416
186.7931,117.5588
186.8661,117.6075
186.9149,117.6805
186.9320,117.7666
186.9320,118.2666
186.9149,118.3527
186.8661,118.4257
186.7931,118.4745
186.7070,118.4916
186.2570,118.4916
186.1709,118.4745
186.0979,118.4257
186.0491,118.3527
186.0320,118.2666
Z" /> 
<path style="fill:#000000; fill-opacity:1.0000; stroke:none;fill-rule:evenodd;"
d="M 187.5820,117.7666
187.5991,117.6805
187.6479,117.6075
187.7209,117.5588
187.8070,117.5416
188.2570,117.5416
188.3431,117.5588
188.4161,117.6075
188.4649,117.6805
188.4820,117.7666
188.4820,118.2666
188.4649,118.3527
188.4161,118.4257
188.3431,118.4745
188.2570,118.4916
187.8070,118.4916
187.7209,118.4745
187.6479,118.4257
187.5991,118.3527
187.5820,118.2666
Z" /> 
<path style="fill:#000000; fill-opacity:1.0000; stroke:none;fill-rule:evenodd;"
d="M 157.8628,92.7901
157.8628,87.4901
164.3128,87.4901
164.3128,92.7901
Z" /> 
<path style="fill:#000000; fill-opacity:1.0000; stroke:none;fill-rule:evenodd;"
d="M 213.6028,92.7901
213.6028,87.4901
220.0528,87.4901
220.0528,92.7901
Z" /> 
<path style="fill:#000000; fill-opacity:1.0000; stroke:none;fill-rule:evenodd;"
d="M 159.0584,125.9958
159.0010,125.9844
158.9523,125.9519
158.9198,125.9032
158.9084,125.8458
158.9084,124.6708
158.9198,124.6134
158.9523,124.5648
159.0010,124.5323
159.0584,124.5208
159.3584,124.5208
159.4158,124.5323
159.4645,124.5648
159.4970,124.6134
159.5084,124.6708
159.5084,125.8458
159.4970,125.9032
159.4645,125.9519
159.4158,125.9844
159.3584,125.9958
Z" /> 
<path style="fill:#000000; fill-opacity:1.0000; stroke:none;fill-rule:evenodd;"
d="M 160.9584,125.9958
160.9010,125.9844
160.8523,125.9519
160.8198,125.9032
160.8084,125.8458
160.8084,124.6708
160.8198,124.6134
160.8523,124.5648
160.9010,124.5323
160.9584,124.5208
161.2584,124.5208
161.3158,124.5323
161.3645,124.5648
161.3970,124.6134
161.4084,124.6708
161.4084,125.8458
161.3970,125.9032
161.3645,125.9519
161.3158,125.9844
161.2584,125.9958
Z" /> 
<path style="fill:#000000; fill-opacity:1.0000; stroke:none;fill-rule:evenodd;"
d="M 160.0084,124.1208
159.9510,124.1094
159.9023,124.0769
159.8698,124.0282
159.8584,123.9708
159.8584,122.7958
159.8698,122.7384
159.9023,122.6898
159.9510,122.6573
160.0084,122.6458
160.3084,122.6458
160.3658,122.6573
160.4145,122.6898
160.4470,122.7384
160.4584,122.7958
160.4584,123.9708
160.4470,124.0282
160.4145,124.0769
160.3658,124.1094
160.3084,124.1208
Z" /> 
<path style="fill:#000000; fill-opacity:1.0000; stroke:none;fill-rule:evenodd;"
d="M 210.0511,113.7322
210.0511,112.5322
211.8511,112.5322
211.8511,113.7322
Z" /> 
<path style="fill:#000000; fill-opacity:1.0000; stroke:none;fill-rule:evenodd;"
d="M 218.0511,113.7322
218.0511,112.5322
219.8511,112.5322
219.8511,113.7322
Z" /> 
<path style="fill:#000000; fill-opacity:1.0000; stroke:none;fill-rule:evenodd;"
d="M 210.0511,118.2322
210.0511,117.0322
211.8511,117.0322
211.8511,118.2322
Z" /> 
<path style="fill:#000000; fill-opacity:1.0000; stroke:none;fill-rule:evenodd;"
d="M 218.0511,118.2322
218.0511,117.0322
219.8511,117.0322
219.8511,118.2322
Z" /> 
<path style="fill:#000000; fill-opacity:1.0000; stroke:none;fill-rule:evenodd;"
d="M 178.0173,122.8687
178.0344,122.7826
178.0832,122.7096
178.1562,122.6608
178.2423,122.6437
178.6923,122.6437
178.7784,122.6608
178.8514,122.7096
178.9001,122.7826
178.9173,122.8687
178.9173,123.3687
178.9001,123.4548
178.8514,123.5278
178.7784,123.5766
178.6923,123.5937
178.2423,123.5937
178.1562,123.5766
178.0832,123.5278
178.0344,123.4548
178.0173,123.3687
Z" /> 
<path style="fill:#000000; fill-opacity:1.0000; stroke:none;fill-rule:evenodd;"
d="M 179.5673,122.8687
179.5844,122.7826
179.6332,122.7096
179.7062,122.6608
179.7923,122.6437
180.2423,122.6437
180.3284,122.6608
180.4014,122.7096
180.4501,122.7826
180.4673,122.8687
180.4673,123.3687
180.4501,123.4548
180.4014,123.5278
180.3284,123.5766
180.2423,123.5937
179.7923,123.5937
179.7062,123.5766
179.6332,123.5278
179.5844,123.4548
179.5673,123.3687
Z" /> 
<path style="fill:#000000; fill-opacity:1.0000; stroke:none;fill-rule:evenodd;"
d="M 194.0511,113.7322
194.0511,112.5322
195.8511,112.5322
195.8511,113.7322
Z" /> 
<path style="fill:#000000; fill-opacity:1.0000; stroke:none;fill-rule:evenodd;"
d="M 202.0511,113.7322
202.0511,112.5322
203.8511,112.5322
203.8511,113.7322
Z" /> 
<path style="fill:#000000; fill-opacity:1.0000; stroke:none;fill-rule:evenodd;"
d="M 194.0511,118.2322
194.0511,117.0322
195.8511,117.0322
195.8511,118.2322
Z" /> 
<path style="fill:#000000; fill-opacity:1.0000; stroke:none;fill-rule:evenodd;"
d="M 202.0511,118.2322
202.0511,117.0322
203.8511,117.0322
203.8511,118.2322
Z" /> 
<path style="fill:#000000; fill-opacity:1.0000; stroke:none;fill-rule:evenodd;"
d="M 161.2892,120.3214
161.3044,120.2449
161.3478,120.1800
161.4127,120.1367
161.4892,120.1214
161.8892,120.1214
161.9657,120.1367
162.0306,120.1800
162.0740,120.2449
162.0892,120.3214
162.0892,120.8714
162.0740,120.9480
162.0306,121.0129
161.9657,121.0562
161.8892,121.0714
161.4892,121.0714
161.4127,121.0562
161.3478,121.0129
161.3044,120.9480
161.2892,120.8714
Z" /> 
<path style="fill:#000000; fill-opacity:1.0000; stroke:none;fill-rule:evenodd;"
d="M 162.9392,120.3214
162.9544,120.2449
162.9978,120.1800
163.0627,120.1367
163.1392,120.1214
163.5392,120.1214
163.6157,120.1367
163.6806,120.1800
163.7240,120.2449
163.7392,120.3214
163.7392,120.8714
163.7240,120.9480
163.6806,121.0129
163.6157,121.0562
163.5392,121.0714
163.1392,121.0714
163.0627,121.0562
162.9978,121.0129
162.9544,120.9480
162.9392,120.8714
Z" /> 
<path style="fill:#000000; fill-opacity:1.0000; stroke:none;fill-rule:evenodd;"
d="M 164.3118,120.2389
164.3289,120.1528
164.3777,120.0798
164.4507,120.0310
164.5368,120.0139
164.9868,120.0139
165.0729,120.0310
165.1459,120.0798
165.1947,120.1528
165.2118,120.2389
165.2118,120.7389
165.1947,120.8250
165.1459,120.8980
165.0729,120.9468
164.9868,120.9639
164.5368,120.9639
164.4507,120.9468
164.3777,120.8980
164.3289,120.8250
164.3118,120.7389
Z" /> 
<path style="fill:#000000; fill-opacity:1.0000; stroke:none;fill-rule:evenodd;"
d="M 165.8618,120.2389
165.8789,120.1528
165.9277,120.0798
166.0007,120.0310
166.0868,120.0139
166.5368,120.0139
166.6229,120.0310
166.6959,120.0798
166.7447,120.1528
166.7618,120.2389
166.7618,120.7389
166.7447,120.8250
166.6959,120.8980
166.6229,120.9468
166.5368,120.9639
166.0868,120.9639
166.0007,120.9468
165.9277,120.8980
165.8789,120.8250
165.8618,120.7389
Z" /> 
<path style="fill:#000000; fill-opacity:1.0000; stroke:none;fill-rule:evenodd;"
d="M 183.1844,122.1352
183.1997,122.0587
183.2430,121.9938
183.3079,121.9504
183.3844,121.9352
183.7844,121.9352
183.8610,121.9504
183.9259,121.9938
183.9692,122.0587
183.9844,122.1352
183.9844,122.6852
183.9692,122.7617
183.9259,122.8266
183.8610,122.8700
183.7844,122.8852
183.3844,122.8852
183.3079,122.8700
183.2430,122.8266
183.1997,122.7617
183.1844,122.6852
Z" /> 
<path style="fill:#000000; fill-opacity:1.0000; stroke:none;fill-rule:evenodd;"
d="M 184.8344,122.1352
184.8497,122.0587
184.8930,121.9938
184.9579,121.9504
185.0344,121.9352
185.4344,121.9352
185.5110,121.9504
185.5759,121.9938
185.6192,122.0587
185.6344,122.1352
185.6344,122.6852
185.6192,122.7617
185.5759,122.8266
185.5110,122.8700
185.4344,122.8852
185.0344,122.8852
184.9579,122.8700
184.8930,122.8266
184.8497,122.7617
184.8344,122.6852
Z" /> 
<path style="fill:#000000; fill-opacity:1.0000; stroke:none;fill-rule:evenodd;"
d="M 153.5548,111.6650
153.5719,111.5789
153.6207,111.5059
153.6937,111.4572
153.7798,111.4400
154.2298,111.4400
154.3159,111.4572
154.3889,111.5059
154.4377,111.5789
154.4548,111.6650
154.4548,112.1650
154.4377,112.2512
154.3889,112.3241
154.3159,112.3729
154.2298,112.3900
153.7798,112.3900
153.6937,112.3729
153.6207,112.3241
153.5719,112.2512
153.5548,112.1650
Z" /> 
<path style="fill:#000000; fill-opacity:1.0000; stroke:none;fill-rule:evenodd;"
d="M 155.1048,111.6650
155.1219,111.5789
155.1707,111.5059
155.2437,111.4572
155.3298,111.4400
155.7798,111.4400
155.8659,111.4572
155.9389,111.5059
155.9877,111.5789
156.0048,111.6650
156.0048,112.1650
155.9877,112.2512
155.9389,112.3241
155.8659,112.3729
155.7798,112.3900
155.3298,112.3900
155.2437,112.3729
155.1707,112.3241
155.1219,112.2512
155.1048,112.1650
Z" /> 
<path style="fill:#000000; fill-opacity:1.0000; stroke:none;fill-rule:evenodd;"
d="M 157.6417,97.1961
157.6531,97.1387
157.6856,97.0901
157.7342,97.0576
157.7917,97.0461
158.9667,97.0461
159.0241,97.0576
159.0727,97.0901
159.1052,97.1387
159.1167,97.1961
159.1167,97.4961
159.1052,97.5535
159.0727,97.6022
159.0241,97.6347
158.9667,97.6461
157.7917,97.6461
157.7342,97.6347
157.6856,97.6022
157.6531,97.5535
157.6417,97.4961
Z" /> 
<path style="fill:#000000; fill-opacity:1.0000; stroke:none;fill-rule:evenodd;"
d="M 157.6417,99.0961
157.6531,99.0387
157.6856,98.9901
157.7342,98.9576
157.7917,98.9461
158.9667,98.9461
159.0241,98.9576
159.0727,98.9901
159.1052,99.0387
159.1167,99.0961
159.1167,99.3961
159.1052,99.4535
159.0727,99.5022
159.0241,99.5347
158.9667,99.5461
157.7917,99.5461
157.7342,99.5347
157.6856,99.5022
157.6531,99.4535
157.6417,99.3961
Z" /> 
<path style="fill:#000000; fill-opacity:1.0000; stroke:none;fill-rule:evenodd;"
d="M 159.5167,98.1461
159.5281,98.0887
159.5606,98.0401
159.6092,98.0076
159.6667,97.9961
160.8417,97.9961
160.8991,98.0076
160.9477,98.0401
160.9802,98.0887
160.9917,98.1461
160.9917,98.4461
160.9802,98.5035
160.9477,98.5522
160.8991,98.5847
160.8417,98.5961
159.6667,98.5961
159.6092,98.5847
159.5606,98.5522
159.5281,98.5035
159.5167,98.4461
Z" /> 
<path style="fill:#000000; fill-opacity:1.0000; stroke:none;fill-rule:evenodd;"
d="M 142.9245,87.6100
142.9245,88.8100
142.2245,88.8100
142.2245,87.6100
Z" /> 
<path style="fill:#000000; fill-opacity:1.0000; stroke:none;fill-rule:evenodd;"
d="M 140.9345,87.6100
140.9345,88.8100
140.1745,88.8100
140.1745,87.6100
Z" /> 
<path style="fill:#000000; fill-opacity:1.0000; stroke:none;fill-rule:evenodd;"
d="M 139.7245,87.6100
139.7245,88.8100
138.9245,88.8100
138.9245,87.6100
Z" /> 
<path style="fill:#000000; fill-opacity:1.0000; stroke:none;fill-rule:evenodd;"
d="M 141.9245,87.6100
141.9245,88.8100
141.2245,88.8100
141.2245,87.6100
Z" /> 
<path style="fill:#000000; fill-opacity:1.0000; stroke:none;fill-rule:evenodd;"
d="M 143.9745,87.6100
143.9745,88.8100
143.2145,88.8100
143.2145,87.6100
Z" /> 
<path style="fill:#000000; fill-opacity:1.0000; stroke:none;fill-rule:evenodd;"
d="M 145.2245,87.6100
145.2245,88.8100
144.4245,88.8100
144.4245,87.6100
Z" /> 
<path style="fill:#000000; fill-opacity:1.0000; stroke:none;fill-rule:evenodd;"
d="M 145.8314,92.4028
145.7381,92.3842
145.6590,92.3314
145.6062,92.2523
145.5876,92.1590
145.5876,91.6715
145.6062,91.5783
145.6590,91.4992
145.7381,91.4463
145.8314,91.4278
146.7439,91.4278
146.8371,91.4463
146.9162,91.4992
146.9690,91.5783
146.9876,91.6715
146.9876,92.1590
146.9690,92.2523
146.9162,92.3314
146.8371,92.3842
146.7439,92.4028
Z" /> 
<path style="fill:#000000; fill-opacity:1.0000; stroke:none;fill-rule:evenodd;"
d="M 145.8314,90.5278
145.7381,90.5092
145.6590,90.4564
145.6062,90.3773
145.5876,90.2840
145.5876,89.7965
145.6062,89.7033
145.6590,89.6242
145.7381,89.5713
145.8314,89.5528
146.7439,89.5528
146.8371,89.5713
146.9162,89.6242
146.9690,89.7033
146.9876,89.7965
146.9876,90.2840
146.9690,90.3773
146.9162,90.4564
146.8371,90.5092
146.7439,90.5278
Z" /> 
<path style="fill:#000000; fill-opacity:1.0000; stroke:none;fill-rule:evenodd;"
d="M 183.0720,117.7416
183.0872,117.6651
183.1306,117.6002
183.1955,117.5569
183.2720,117.5416
183.6720,117.5416
183.7485,117.5569
183.8134,117.6002
183.8568,117.6651
183.8720,117.7416
183.8720,118.2916
183.8568,118.3682
183.8134,118.4331
183.7485,118.4764
183.6720,118.4916
183.2720,118.4916
183.1955,118.4764
183.1306,118.4331
183.0872,118.3682
183.0720,118.2916
Z" /> 
<path style="fill:#000000; fill-opacity:1.0000; stroke:none;fill-rule:evenodd;"
d="M 184.7220,117.7416
184.7372,117.6651
184.7806,117.6002
184.8455,117.5569
184.9220,117.5416
185.3220,117.5416
185.3985,117.5569
185.4634,117.6002
185.5068,117.6651
185.5220,117.7416
185.5220,118.2916
185.5068,118.3682
185.4634,118.4331
185.3985,118.4764
185.3220,118.4916
184.9220,118.4916
184.8455,118.4764
184.7806,118.4331
184.7372,118.3682
184.7220,118.2916
Z" /> 
<path style="fill:#000000; fill-opacity:1.0000; stroke:none;fill-rule:evenodd;"
d="M 153.0948,106.6543
154.1648,106.6543
154.1648,107.1843
153.0948,107.1843
Z" /> 
<path style="fill:#000000; fill-opacity:1.0000; stroke:none;fill-rule:evenodd;"
d="M 153.0948,107.6043
154.1648,107.6043
154.1648,108.1343
153.0948,108.1343
Z" /> 
<path style="fill:#000000; fill-opacity:1.0000; stroke:none;fill-rule:evenodd;"
d="M 153.0948,108.5543
154.1648,108.5543
154.1648,109.0843
153.0948,109.0843
Z" /> 
<path style="fill:#000000; fill-opacity:1.0000; stroke:none;fill-rule:evenodd;"
d="M 155.3948,108.5543
156.4648,108.5543
156.4648,109.0843
155.3948,109.0843
Z" /> 
<path style="fill:#000000; fill-opacity:1.0000; stroke:none;fill-rule:evenodd;"
d="M 155.3948,107.6043
156.4648,107.6043
156.4648,108.1343
155.3948,108.1343
Z" /> 
<path style="fill:#000000; fill-opacity:1.0000; stroke:none;fill-rule:evenodd;"
d="M 155.3948,106.6543
156.4648,106.6543
156.4648,107.1843
155.3948,107.1843
Z" /> 
<path style="fill:#000000; fill-opacity:1.0000; stroke:none;fill-rule:evenodd;"
d="M 168.4142,116.3104
168.4314,116.2243
168.4801,116.1513
168.5531,116.1025
168.6392,116.0854
169.0892,116.0854
169.1753,116.1025
169.2483,116.1513
169.2971,116.2243
169.3142,116.3104
169.3142,116.8104
169.2971,116.8965
169.2483,116.9695
169.1753,117.0182
169.0892,117.0354
168.6392,117.0354
168.5531,117.0182
168.4801,116.9695
168.4314,116.8965
168.4142,116.8104
Z" /> 
<path style="fill:#000000; fill-opacity:1.0000; stroke:none;fill-rule:evenodd;"
d="M 169.9642,116.3104
169.9814,116.2243
170.0301,116.1513
170.1031,116.1025
170.1892,116.0854
170.6392,116.0854
170.7253,116.1025
170.7983,116.1513
170.8471,116.2243
170.8642,116.3104
170.8642,116.8104
170.8471,116.8965
170.7983,116.9695
170.7253,117.0182
170.6392,117.0354
170.1892,117.0354
170.1031,117.0182
170.0301,116.9695
169.9814,116.8965
169.9642,116.8104
Z" /> 
<path style="fill:#000000; fill-opacity:1.0000; stroke:none;fill-rule:evenodd;"
d="M 160.9667,95.9315
160.9553,95.9889
160.9228,96.0376
160.8741,96.0701
160.8167,96.0815
159.6417,96.0815
159.5843,96.0701
159.5357,96.0376
159.5032,95.9889
159.4917,95.9315
159.4917,95.6315
159.5032,95.5741
159.5357,95.5255
159.5843,95.4930
159.6417,95.4815
160.8167,95.4815
160.8741,95.4930
160.9228,95.5255
160.9553,95.5741
160.9667,95.6315
Z" /> 
<path style="fill:#000000; fill-opacity:1.0000; stroke:none;fill-rule:evenodd;"
d="M 160.9667,94.0315
160.9553,94.0889
160.9228,94.1376
160.8741,94.1701
160.8167,94.1815
159.6417,94.1815
159.5843,94.1701
159.5357,94.1376
159.5032,94.0889
159.4917,94.0315
159.4917,93.7315
159.5032,93.6741
159.5357,93.6255
159.5843,93.5930
159.6417,93.5815
160.8167,93.5815
160.8741,93.5930
160.9228,93.6255
160.9553,93.6741
160.9667,93.7315
Z" /> 
<path style="fill:#000000; fill-opacity:1.0000; stroke:none;fill-rule:evenodd;"
d="M 159.0917,94.9815
159.0803,95.0389
159.0478,95.0876
158.9991,95.1201
158.9417,95.1315
157.7667,95.1315
157.7093,95.1201
157.6607,95.0876
157.6282,95.0389
157.6167,94.9815
157.6167,94.6815
157.6282,94.6241
157.6607,94.5755
157.7093,94.5430
157.7667,94.5315
158.9417,94.5315
158.9991,94.5430
159.0478,94.5755
159.0803,94.6241
159.0917,94.6815
Z" /> 
<path style="fill:#000000; fill-opacity:1.0000; stroke:none;fill-rule:evenodd;"
d="M 164.1967,97.6695
164.1814,97.7460
164.1381,97.8109
164.0732,97.8542
163.9967,97.8695
163.5967,97.8695
163.5201,97.8542
163.4552,97.8109
163.4119,97.7460
163.3967,97.6695
163.3967,97.1195
163.4119,97.0429
163.4552,96.9780
163.5201,96.9347
163.5967,96.9195
163.9967,96.9195
164.0732,96.9347
164.1381,96.9780
164.1814,97.0429
164.1967,97.1195
Z" /> 
<path style="fill:#000000; fill-opacity:1.0000; stroke:none;fill-rule:evenodd;"
d="M 162.5467,97.6695
162.5314,97.7460
162.4881,97.8109
162.4232,97.8542
162.3467,97.8695
161.9467,97.8695
161.8701,97.8542
161.8052,97.8109
161.7619,97.7460
161.7467,97.6695
161.7467,97.1195
161.7619,97.0429
161.8052,96.9780
161.8701,96.9347
161.9467,96.9195
162.3467,96.9195
162.4232,96.9347
162.4881,96.9780
162.5314,97.0429
162.5467,97.1195
Z" /> 
<path style="fill:#000000; fill-opacity:1.0000; stroke:none;fill-rule:evenodd;"
d="M 164.1190,121.9703
164.1361,121.8842
164.1849,121.8112
164.2579,121.7624
164.3440,121.7453
164.7940,121.7453
164.8801,121.7624
164.9531,121.8112
165.0019,121.8842
165.0190,121.9703
165.0190,122.4703
165.0019,122.5564
164.9531,122.6294
164.8801,122.6781
164.7940,122.6953
164.3440,122.6953
164.2579,122.6781
164.1849,122.6294
164.1361,122.5564
164.1190,122.4703
Z" /> 
<path style="fill:#000000; fill-opacity:1.0000; stroke:none;fill-rule:evenodd;"
d="M 165.6690,121.9703
165.6861,121.8842
165.7349,121.8112
165.8079,121.7624
165.8940,121.7453
166.3440,121.7453
166.4301,121.7624
166.5031,121.8112
166.5519,121.8842
166.5690,121.9703
166.5690,122.4703
166.5519,122.5564
166.5031,122.6294
166.4301,122.6781
166.3440,122.6953
165.8940,122.6953
165.8079,122.6781
165.7349,122.6294
165.6861,122.5564
165.6690,122.4703
Z" /> 
<path style="fill:#000000; fill-opacity:1.0000; stroke:none;fill-rule:evenodd;"
d="M 176.9415,125.4262
175.7415,125.4262
175.7415,125.1562
176.9415,125.1562
Z" /> 
<path style="fill:#000000; fill-opacity:1.0000; stroke:none;fill-rule:evenodd;"
d="M 176.9415,124.9262
175.7415,124.9262
175.7415,124.6562
176.9415,124.6562
Z" /> 
<path style="fill:#000000; fill-opacity:1.0000; stroke:none;fill-rule:evenodd;"
d="M 176.9415,124.4262
175.7415,124.4262
175.7415,124.1562
176.9415,124.1562
Z" /> 
<path style="fill:#000000; fill-opacity:1.0000; stroke:none;fill-rule:evenodd;"
d="M 176.9415,123.9262
175.7415,123.9262
175.7415,123.6562
176.9415,123.6562
Z" /> 
<path style="fill:#000000; fill-opacity:1.0000; stroke:none;fill-rule:evenodd;"
d="M 176.9415,123.4262
175.7415,123.4262
175.7415,123.1562
176.9415,123.1562
Z" /> 
<path style="fill:#000000; fill-opacity:1.0000; stroke:none;fill-rule:evenodd;"
d="M 176.9415,122.9262
175.7415,122.9262
175.7415,122.6562
176.9415,122.6562
Z" /> 
<path style="fill:#000000; fill-opacity:1.0000; stroke:none;fill-rule:evenodd;"
d="M 176.9415,122.4262
175.7415,122.4262
175.7415,122.1562
176.9415,122.1562
Z" /> 
<path style="fill:#000000; fill-opacity:1.0000; stroke:none;fill-rule:evenodd;"
d="M 176.9415,121.9262
175.7415,121.9262
175.7415,121.6562
176.9415,121.6562
Z" /> 
<path style="fill:#000000; fill-opacity:1.0000; stroke:none;fill-rule:evenodd;"
d="M 176.9415,121.4262
175.7415,121.4262
175.7415,121.1562
176.9415,121.1562
Z" /> 
<path style="fill:#000000; fill-opacity:1.0000; stroke:none;fill-rule:evenodd;"
d="M 176.9415,120.9262
175.7415,120.9262
175.7415,120.6562
176.9415,120.6562
Z" /> 
<path style="fill:#000000; fill-opacity:1.0000; stroke:none;fill-rule:evenodd;"
d="M 176.9415,120.4262
175.7415,120.4262
175.7415,120.1562
176.9415,120.1562
Z" /> 
<path style="fill:#000000; fill-opacity:1.0000; stroke:none;fill-rule:evenodd;"
d="M 176.9415,119.9262
175.7415,119.9262
175.7415,119.6562
176.9415,119.6562
Z" /> 
<path style="fill:#000000; fill-opacity:1.0000; stroke:none;fill-rule:evenodd;"
d="M 175.1265,119.0412
174.8565,119.0412
174.8565,117.8412
175.1265,117.8412
Z" /> 
<path style="fill:#000000; fill-opacity:1.0000; stroke:none;fill-rule:evenodd;"
d="M 174.6265,119.0412
174.3565,119.0412
174.3565,117.8412
174.6265,117.8412
Z" /> 
<path style="fill:#000000; fill-opacity:1.0000; stroke:none;fill-rule:evenodd;"
d="M 174.1265,119.0412
173.8565,119.0412
173.8565,117.8412
174.1265,117.8412
Z" /> 
<path style="fill:#000000; fill-opacity:1.0000; stroke:none;fill-rule:evenodd;"
d="M 173.6265,119.0412
173.3565,119.0412
173.3565,117.8412
173.6265,117.8412
Z" /> 
<path style="fill:#000000; fill-opacity:1.0000; stroke:none;fill-rule:evenodd;"
d="M 173.1265,119.0412
172.8565,119.0412
172.8565,117.8412
173.1265,117.8412
Z" /> 
<path style="fill:#000000; fill-opacity:1.0000; stroke:none;fill-rule:evenodd;"
d="M 172.6265,119.0412
172.3565,119.0412
172.3565,117.8412
172.6265,117.8412
Z" /> 
<path style="fill:#000000; fill-opacity:1.0000; stroke:none;fill-rule:evenodd;"
d="M 172.1265,119.0412
171.8565,119.0412
171.8565,117.8412
172.1265,117.8412
Z" /> 
<path style="fill:#000000; fill-opacity:1.0000; stroke:none;fill-rule:evenodd;"
d="M 171.6265,119.0412
171.3565,119.0412
171.3565,117.8412
171.6265,117.8412
Z" /> 
<path style="fill:#000000; fill-opacity:1.0000; stroke:none;fill-rule:evenodd;"
d="M 171.1265,119.0412
170.8565,119.0412
170.8565,117.8412
171.1265,117.8412
Z" /> 
<path style="fill:#000000; fill-opacity:1.0000; stroke:none;fill-rule:evenodd;"
d="M 170.6265,119.0412
170.3565,119.0412
170.3565,117.8412
170.6265,117.8412
Z" /> 
<path style="fill:#000000; fill-opacity:1.0000; stroke:none;fill-rule:evenodd;"
d="M 170.1265,119.0412
169.8565,119.0412
169.8565,117.8412
170.1265,117.8412
Z" /> 
<path style="fill:#000000; fill-opacity:1.0000; stroke:none;fill-rule:evenodd;"
d="M 169.6265,119.0412
169.3565,119.0412
169.3565,117.8412
169.6265,117.8412
Z" /> 
<path style="fill:#000000; fill-opacity:1.0000; stroke:none;fill-rule:evenodd;"
d="M 168.7415,119.9262
167.5415,119.9262
167.5415,119.6562
168.7415,119.6562
Z" /> 
<path style="fill:#000000; fill-opacity:1.0000; stroke:none;fill-rule:evenodd;"
d="M 168.7415,120.4262
167.5415,120.4262
167.5415,120.1562
168.7415,120.1562
Z" /> 
<path style="fill:#000000; fill-opacity:1.0000; stroke:none;fill-rule:evenodd;"
d="M 168.7415,120.9262
167.5415,120.9262
167.5415,120.6562
168.7415,120.6562
Z" /> 
<path style="fill:#000000; fill-opacity:1.0000; stroke:none;fill-rule:evenodd;"
d="M 168.7415,121.4262
167.5415,121.4262
167.5415,121.1562
168.7415,121.1562
Z" /> 
<path style="fill:#000000; fill-opacity:1.0000; stroke:none;fill-rule:evenodd;"
d="M 168.7415,121.9262
167.5415,121.9262
167.5415,121.6562
168.7415,121.6562
Z" /> 
<path style="fill:#000000; fill-opacity:1.0000; stroke:none;fill-rule:evenodd;"
d="M 168.7415,122.4262
167.5415,122.4262
167.5415,122.1562
168.7415,122.1562
Z" /> 
<path style="fill:#000000; fill-opacity:1.0000; stroke:none;fill-rule:evenodd;"
d="M 168.7415,122.9262
167.5415,122.9262
167.5415,122.6562
168.7415,122.6562
Z" /> 
<path style="fill:#000000; fill-opacity:1.0000; stroke:none;fill-rule:evenodd;"
d="M 168.7415,123.4262
167.5415,123.4262
167.5415,123.1562
168.7415,123.1562
Z" /> 
<path style="fill:#000000; fill-opacity:1.0000; stroke:none;fill-rule:evenodd;"
d="M 168.7415,123.9262
167.5415,123.9262
167.5415,123.6562
168.7415,123.6562
Z" /> 
<path style="fill:#000000; fill-opacity:1.0000; stroke:none;fill-rule:evenodd;"
d="M 168.7415,124.4262
167.5415,124.4262
167.5415,124.1562
168.7415,124.1562
Z" /> 
<path style="fill:#000000; fill-opacity:1.0000; stroke:none;fill-rule:evenodd;"
d="M 168.7415,124.9262
167.5415,124.9262
167.5415,124.6562
168.7415,124.6562
Z" /> 
<path style="fill:#000000; fill-opacity:1.0000; stroke:none;fill-rule:evenodd;"
d="M 168.7415,125.4262
167.5415,125.4262
167.5415,125.1562
168.7415,125.1562
Z" /> 
<path style="fill:#000000; fill-opacity:1.0000; stroke:none;fill-rule:evenodd;"
d="M 169.6265,127.2412
169.3565,127.2412
169.3565,126.0412
169.6265,126.0412
Z" /> 
<path style="fill:#000000; fill-opacity:1.0000; stroke:none;fill-rule:evenodd;"
d="M 170.1265,127.2412
169.8565,127.2412
169.8565,126.0412
170.1265,126.0412
Z" /> 
<path style="fill:#000000; fill-opacity:1.0000; stroke:none;fill-rule:evenodd;"
d="M 170.6265,127.2412
170.3565,127.2412
170.3565,126.0412
170.6265,126.0412
Z" /> 
<path style="fill:#000000; fill-opacity:1.0000; stroke:none;fill-rule:evenodd;"
d="M 171.1265,127.2412
170.8565,127.2412
170.8565,126.0412
171.1265,126.0412
Z" /> 
<path style="fill:#000000; fill-opacity:1.0000; stroke:none;fill-rule:evenodd;"
d="M 171.6265,127.2412
171.3565,127.2412
171.3565,126.0412
171.6265,126.0412
Z" /> 
<path style="fill:#000000; fill-opacity:1.0000; stroke:none;fill-rule:evenodd;"
d="M 172.1265,127.2412
171.8565,127.2412
171.8565,126.0412
172.1265,126.0412
Z" /> 
<path style="fill:#000000; fill-opacity:1.0000; stroke:none;fill-rule:evenodd;"
d="M 172.6265,127.2412
172.3565,127.2412
172.3565,126.0412
172.6265,126.0412
Z" /> 
<path style="fill:#000000; fill-opacity:1.0000; stroke:none;fill-rule:evenodd;"
d="M 173.1265,127.2412
172.8565,127.2412
172.8565,126.0412
173.1265,126.0412
Z" /> 
<path style="fill:#000000; fill-opacity:1.0000; stroke:none;fill-rule:evenodd;"
d="M 173.6265,127.2412
173.3565,127.2412
173.3565,126.0412
173.6265,126.0412
Z" /> 
<path style="fill:#000000; fill-opacity:1.0000; stroke:none;fill-rule:evenodd;"
d="M 174.1265,127.2412
173.8565,127.2412
173.8565,126.0412
174.1265,126.0412
Z" /> 
<path style="fill:#000000; fill-opacity:1.0000; stroke:none;fill-rule:evenodd;"
d="M 174.6265,127.2412
174.3565,127.2412
174.3565,126.0412
174.6265,126.0412
Z" /> 
<path style="fill:#000000; fill-opacity:1.0000; stroke:none;fill-rule:evenodd;"
d="M 175.1265,127.2412
174.8565,127.2412
174.8565,126.0412
175.1265,126.0412
Z" /> 
<path style="fill:#000000; fill-opacity:1.0000; stroke:none;fill-rule:evenodd;"
d="M 154.1571,116.5782
154.1743,116.4921
154.2231,116.4191
154.2960,116.3703
154.3821,116.3532
154.8321,116.3532
154.9183,116.3703
154.9912,116.4191
155.0400,116.4921
155.0571,116.5782
155.0571,117.0782
155.0400,117.1643
154.9912,117.2373
154.9183,117.2860
154.8321,117.3032
154.3821,117.3032
154.2960,117.2860
154.2231,117.2373
154.1743,117.1643
154.1571,117.0782
Z" /> 
<path style="fill:#000000; fill-opacity:1.0000; stroke:none;fill-rule:evenodd;"
d="M 155.7071,116.5782
155.7243,116.4921
155.7730,116.4191
155.8460,116.3703
155.9321,116.3532
156.3821,116.3532
156.4683,116.3703
156.5412,116.4191
156.5900,116.4921
156.6071,116.5782
156.6071,117.0782
156.5900,117.1643
156.5412,117.2373
156.4683,117.2860
156.3821,117.3032
155.9321,117.3032
155.8460,117.2860
155.7730,117.2373
155.7243,117.1643
155.7071,117.0782
Z" /> 
<path style="fill:#000000; fill-opacity:1.0000; stroke:none;fill-rule:evenodd;"
d="M 157.7678,118.4362
157.7830,118.3597
157.8263,118.2948
157.8912,118.2514
157.9678,118.2362
158.3678,118.2362
158.4443,118.2514
158.5092,118.2948
158.5525,118.3597
158.5678,118.4362
158.5678,118.9862
158.5525,119.0628
158.5092,119.1276
158.4443,119.1710
158.3678,119.1862
157.9678,119.1862
157.8912,119.1710
157.8263,119.1276
157.7830,119.0628
157.7678,118.9862
Z" /> 
<path style="fill:#000000; fill-opacity:1.0000; stroke:none;fill-rule:evenodd;"
d="M 159.4178,118.4362
159.4330,118.3597
159.4763,118.2948
159.5412,118.2514
159.6178,118.2362
160.0178,118.2362
160.0943,118.2514
160.1592,118.2948
160.2025,118.3597
160.2178,118.4362
160.2178,118.9862
160.2025,119.0628
160.1592,119.1276
160.0943,119.1710
160.0178,119.1862
159.6178,119.1862
159.5412,119.1710
159.4763,119.1276
159.4330,119.0628
159.4178,118.9862
Z" /> 
<path style="fill:#000000; fill-opacity:1.0000; stroke:none;fill-rule:evenodd;"
d="M 146.9578,128.7489
145.7578,128.7489
145.7578,126.9489
146.9578,126.9489
Z" /> 
<path style="fill:#000000; fill-opacity:1.0000; stroke:none;fill-rule:evenodd;"
d="M 146.9578,120.7489
145.7578,120.7489
145.7578,118.9489
146.9578,118.9489
Z" /> 
<path style="fill:#000000; fill-opacity:1.0000; stroke:none;fill-rule:evenodd;"
d="M 151.4578,128.7489
150.2578,128.7489
150.2578,126.9489
151.4578,126.9489
Z" /> 
<path style="fill:#000000; fill-opacity:1.0000; stroke:none;fill-rule:evenodd;"
d="M 151.4578,120.7489
150.2578,120.7489
150.2578,118.9489
151.4578,118.9489
Z" /> 
<path style="fill:#000000; fill-opacity:1.0000; stroke:none;fill-rule:evenodd;"
d="M 211.8511,125.4989
211.8511,126.6989
210.0511,126.6989
210.0511,125.4989
Z" /> 
<path style="fill:#000000; fill-opacity:1.0000; stroke:none;fill-rule:evenodd;"
d="M 203.8511,125.4989
203.8511,126.6989
202.0511,126.6989
202.0511,125.4989
Z" /> 
<path style="fill:#000000; fill-opacity:1.0000; stroke:none;fill-rule:evenodd;"
d="M 211.8511,120.9989
211.8511,122.1989
210.0511,122.1989
210.0511,120.9989
Z" /> 
<path style="fill:#000000; fill-opacity:1.0000; stroke:none;fill-rule:evenodd;"
d="M 203.8511,120.9989
203.8511,122.1989
202.0511,122.1989
202.0511,120.9989
Z" /> 
<path style="fill:#000000; fill-opacity:1.0000; stroke:none;fill-rule:evenodd;"
d="M 144.2511,91.9986
144.1673,91.9820
144.0964,91.9346
144.0490,91.8636
144.0323,91.7799
144.0323,91.3424
144.0490,91.2587
144.0964,91.1877
144.1673,91.1403
144.2511,91.1236
144.7636,91.1236
144.8473,91.1403
144.9182,91.1877
144.9657,91.2587
144.9823,91.3424
144.9823,91.7799
144.9657,91.8636
144.9182,91.9346
144.8473,91.9820
144.7636,91.9986
Z" /> 
<path style="fill:#000000; fill-opacity:1.0000; stroke:none;fill-rule:evenodd;"
d="M 144.2511,90.4236
144.1673,90.4070
144.0964,90.3596
144.0490,90.2886
144.0323,90.2049
144.0323,89.7674
144.0490,89.6837
144.0964,89.6127
144.1673,89.5653
144.2511,89.5486
144.7636,89.5486
144.8473,89.5653
144.9182,89.6127
144.9657,89.6837
144.9823,89.7674
144.9823,90.2049
144.9657,90.2886
144.9182,90.3596
144.8473,90.4070
144.7636,90.4236
Z" /> 
<path style="fill:#000000; fill-opacity:1.0000; stroke:none;fill-rule:evenodd;"
d="M 153.5548,110.0355
153.5700,109.9589
153.6134,109.8940
153.6783,109.8507
153.7548,109.8355
154.1548,109.8355
154.2314,109.8507
154.2962,109.8940
154.3396,109.9589
154.3548,110.0355
154.3548,110.5855
154.3396,110.6620
154.2962,110.7269
154.2314,110.7702
154.1548,110.7855
153.7548,110.7855
153.6783,110.7702
153.6134,110.7269
153.5700,110.6620
153.5548,110.5855
Z" /> 
<path style="fill:#000000; fill-opacity:1.0000; stroke:none;fill-rule:evenodd;"
d="M 155.2048,110.0355
155.2200,109.9589
155.2634,109.8940
155.3283,109.8507
155.4048,109.8355
155.8048,109.8355
155.8814,109.8507
155.9462,109.8940
155.9896,109.9589
156.0048,110.0355
156.0048,110.5855
155.9896,110.6620
155.9462,110.7269
155.8814,110.7702
155.8048,110.7855
155.4048,110.7855
155.3283,110.7702
155.2634,110.7269
155.2200,110.6620
155.2048,110.5855
Z" /> 
<path style="fill:#000000; fill-opacity:1.0000; stroke:none;fill-rule:evenodd;"
d="M 154.7766,120.2946
154.7766,121.2946
154.1766,121.2946
154.1766,120.2946
Z" /> 
<path style="fill:#000000; fill-opacity:1.0000; stroke:none;fill-rule:evenodd;"
d="M 153.8266,120.2946
153.8266,121.2946
153.2266,121.2946
153.2266,120.2946
Z" /> 
<path style="fill:#000000; fill-opacity:1.0000; stroke:none;fill-rule:evenodd;"
d="M 152.8766,120.2946
152.8766,121.2946
152.2766,121.2946
152.2766,120.2946
Z" /> 
<path style="fill:#000000; fill-opacity:1.0000; stroke:none;fill-rule:evenodd;"
d="M 152.8766,122.4946
152.8766,123.4946
152.2766,123.4946
152.2766,122.4946
Z" /> 
<path style="fill:#000000; fill-opacity:1.0000; stroke:none;fill-rule:evenodd;"
d="M 154.7766,122.4946
154.7766,123.4946
154.1766,123.4946
154.1766,122.4946
Z" /> 
<path style="fill:#000000; fill-opacity:1.0000; stroke:none;fill-rule:evenodd;"
d="M 157.0932,95.2528
155.8932,95.2528
155.8932,94.6528
157.0932,94.6528
Z" /> 
<path style="fill:#000000; fill-opacity:1.0000; stroke:none;fill-rule:evenodd;"
d="M 157.0932,93.9828
155.8932,93.9828
155.8932,93.3828
157.0932,93.3828
Z" /> 
<path style="fill:#000000; fill-opacity:1.0000; stroke:none;fill-rule:evenodd;"
d="M 157.0932,92.7028
155.8932,92.7028
155.8932,92.1028
157.0932,92.1028
Z" /> 
<path style="fill:#000000; fill-opacity:1.0000; stroke:none;fill-rule:evenodd;"
d="M 157.0932,91.4328
155.8932,91.4328
155.8932,90.8328
157.0932,90.8328
Z" /> 
<path style="fill:#000000; fill-opacity:1.0000; stroke:none;fill-rule:evenodd;"
d="M 151.2732,91.4328
150.0732,91.4328
150.0732,90.8328
151.2732,90.8328
Z" /> 
<path style="fill:#000000; fill-opacity:1.0000; stroke:none;fill-rule:evenodd;"
d="M 151.2732,92.7028
150.0732,92.7028
150.0732,92.1028
151.2732,92.1028
Z" /> 
<path style="fill:#000000; fill-opacity:1.0000; stroke:none;fill-rule:evenodd;"
d="M 151.2732,93.9828
150.0732,93.9828
150.0732,93.3828
151.2732,93.3828
Z" /> 
<path style="fill:#000000; fill-opacity:1.0000; stroke:none;fill-rule:evenodd;"
d="M 151.2732,95.2528
150.0732,95.2528
150.0732,94.6528
151.2732,94.6528
Z" /> 
<path style="fill:#000000; fill-opacity:1.0000; stroke:none;fill-rule:evenodd;"
d="M 152.3832,91.3928
154.7832,91.3928
154.7832,94.6928
152.3832,94.6928
Z" /> 
<path style="fill:#000000; fill-opacity:1.0000; stroke:none;fill-rule:evenodd;"
d="M 167.7455,116.5396
167.7303,116.6161
167.6869,116.6810
167.6220,116.7244
167.5455,116.7396
167.1455,116.7396
167.0690,116.7244
167.0041,116.6810
166.9607,116.6161
166.9455,116.5396
166.9455,115.9896
166.9607,115.9130
167.0041,115.8482
167.0690,115.8048
167.1455,115.7896
167.5455,115.7896
167.6220,115.8048
167.6869,115.8482
167.7303,115.9130
167.7455,115.9896
Z" /> 
<path style="fill:#000000; fill-opacity:1.0000; stroke:none;fill-rule:evenodd;"
d="M 166.0955,116.5396
166.0803,116.6161
166.0369,116.6810
165.9720,116.7244
165.8955,116.7396
165.4955,116.7396
165.4190,116.7244
165.3541,116.6810
165.3107,116.6161
165.2955,116.5396
165.2955,115.9896
165.3107,115.9130
165.3541,115.8482
165.4190,115.8048
165.4955,115.7896
165.8955,115.7896
165.9720,115.8048
166.0369,115.8482
166.0803,115.9130
166.0955,115.9896
Z" /> 
<path style="fill:#000000; fill-opacity:1.0000; stroke:none;fill-rule:evenodd;"
d="M 157.3750,88.1444
157.4611,88.1615
157.5341,88.2103
157.5829,88.2833
157.6000,88.3694
157.6000,88.8194
157.5829,88.9055
157.5341,88.9785
157.4611,89.0272
157.3750,89.0444
156.8750,89.0444
156.7889,89.0272
156.7159,88.9785
156.6671,88.9055
156.6500,88.8194
156.6500,88.3694
156.6671,88.2833
156.7159,88.2103
156.7889,88.1615
156.8750,88.1444
Z" /> 
<path style="fill:#000000; fill-opacity:1.0000; stroke:none;fill-rule:evenodd;"
d="M 157.3750,89.6944
157.4611,89.7115
157.5341,89.7603
157.5829,89.8333
157.6000,89.9194
157.6000,90.3694
157.5829,90.4555
157.5341,90.5285
157.4611,90.5772
157.3750,90.5944
156.8750,90.5944
156.7889,90.5772
156.7159,90.5285
156.6671,90.4555
156.6500,90.3694
156.6500,89.9194
156.6671,89.8333
156.7159,89.7603
156.7889,89.7115
156.8750,89.6944
Z" /> 
<path style="fill:#000000; fill-opacity:1.0000; stroke:none;fill-rule:evenodd;"
d="M 178.3002,116.1235
178.3154,116.0470
178.3588,115.9821
178.4236,115.9388
178.5002,115.9235
178.9002,115.9235
178.9767,115.9388
179.0416,115.9821
179.0850,116.0470
179.1002,116.1235
179.1002,116.6735
179.0850,116.7501
179.0416,116.8150
178.9767,116.8583
178.9002,116.8735
178.5002,116.8735
178.4236,116.8583
178.3588,116.8150
178.3154,116.7501
178.3002,116.6735
Z" /> 
<path style="fill:#000000; fill-opacity:1.0000; stroke:none;fill-rule:evenodd;"
d="M 179.9502,116.1235
179.9654,116.0470
180.0088,115.9821
180.0736,115.9388
180.1502,115.9235
180.5502,115.9235
180.6267,115.9388
180.6916,115.9821
180.7350,116.0470
180.7502,116.1235
180.7502,116.6735
180.7350,116.7501
180.6916,116.8150
180.6267,116.8583
180.5502,116.8735
180.1502,116.8735
180.0736,116.8583
180.0088,116.8150
179.9654,116.7501
179.9502,116.6735
Z" /> 
<path style="fill:#000000; fill-opacity:1.0000; stroke:none;fill-rule:evenodd;"
d="M 157.8720,123.6142
157.9485,123.6294
158.0134,123.6728
158.0568,123.7376
158.0720,123.8142
158.0720,124.2142
158.0568,124.2907
158.0134,124.3556
157.9485,124.3990
157.8720,124.4142
157.3220,124.4142
157.2455,124.3990
157.1806,124.3556
157.1372,124.2907
157.1220,124.2142
157.1220,123.8142
157.1372,123.7376
157.1806,123.6728
157.2455,123.6294
157.3220,123.6142
Z" /> 
<path style="fill:#000000; fill-opacity:1.0000; stroke:none;fill-rule:evenodd;"
d="M 157.8720,125.2642
157.9485,125.2794
158.0134,125.3228
158.0568,125.3876
158.0720,125.4642
158.0720,125.8642
158.0568,125.9407
158.0134,126.0056
157.9485,126.0490
157.8720,126.0642
157.3220,126.0642
157.2455,126.0490
157.1806,126.0056
157.1372,125.9407
157.1220,125.8642
157.1220,125.4642
157.1372,125.3876
157.1806,125.3228
157.2455,125.2794
157.3220,125.2642
Z" /> 
<path style="fill:#000000; fill-opacity:1.0000; stroke:none;fill-rule:evenodd;"
d="M 159.6757,115.0514
159.7139,115.0590
159.7464,115.0807
159.7681,115.1131
159.7757,115.1514
159.7757,115.6014
159.7681,115.6397
159.7464,115.6721
159.7139,115.6938
159.6757,115.7014
159.4757,115.7014
159.4374,115.6938
159.4050,115.6721
159.3833,115.6397
159.3757,115.6014
159.3757,115.1514
159.3833,115.1131
159.4050,115.0807
159.4374,115.0590
159.4757,115.0514
Z" /> 
<path style="fill:#000000; fill-opacity:1.0000; stroke:none;fill-rule:evenodd;"
d="M 159.0257,115.0514
159.0639,115.0590
159.0964,115.0807
159.1181,115.1131
159.1257,115.1514
159.1257,115.6014
159.1181,115.6397
159.0964,115.6721
159.0639,115.6938
159.0257,115.7014
158.8257,115.7014
158.7874,115.6938
158.7550,115.6721
158.7333,115.6397
158.7257,115.6014
158.7257,115.1514
158.7333,115.1131
158.7550,115.0807
158.7874,115.0590
158.8257,115.0514
Z" /> 
<path style="fill:#000000; fill-opacity:1.0000; stroke:none;fill-rule:evenodd;"
d="M 158.3757,115.0514
158.4139,115.0590
158.4464,115.0807
158.4681,115.1131
158.4757,115.1514
158.4757,115.6014
158.4681,115.6397
158.4464,115.6721
158.4139,115.6938
158.3757,115.7014
158.1757,115.7014
158.1374,115.6938
158.1050,115.6721
158.0833,115.6397
158.0757,115.6014
158.0757,115.1514
158.0833,115.1131
158.1050,115.0807
158.1374,115.0590
158.1757,115.0514
Z" /> 
<path style="fill:#000000; fill-opacity:1.0000; stroke:none;fill-rule:evenodd;"
d="M 158.3757,116.9514
158.4139,116.9590
158.4464,116.9807
158.4681,117.0131
158.4757,117.0514
158.4757,117.5014
158.4681,117.5397
158.4464,117.5721
158.4139,117.5938
158.3757,117.6014
158.1757,117.6014
158.1374,117.5938
158.1050,117.5721
158.0833,117.5397
158.0757,117.5014
158.0757,117.0514
158.0833,117.0131
158.1050,116.9807
158.1374,116.9590
158.1757,116.9514
Z" /> 
<path style="fill:#000000; fill-opacity:1.0000; stroke:none;fill-rule:evenodd;"
d="M 159.0257,116.9514
159.0639,116.9590
159.0964,116.9807
159.1181,117.0131
159.1257,117.0514
159.1257,117.5014
159.1181,117.5397
159.0964,117.5721
159.0639,117.5938
159.0257,117.6014
158.8257,117.6014
158.7874,117.5938
158.7550,117.5721
158.7333,117.5397
158.7257,117.5014
158.7257,117.0514
158.7333,117.0131
158.7550,116.9807
158.7874,116.9590
158.8257,116.9514
Z" /> 
<path style="fill:#000000; fill-opacity:1.0000; stroke:none;fill-rule:evenodd;"
d="M 159.6757,116.9514
159.7139,116.9590
159.7464,116.9807
159.7681,117.0131
159.7757,117.0514
159.7757,117.5014
159.7681,117.5397
159.7464,117.5721
159.7139,117.5938
159.6757,117.6014
159.4757,117.6014
159.4374,117.5938
159.4050,117.5721
159.3833,117.5397
159.3757,117.5014
159.3757,117.0514
159.3833,117.0131
159.4050,116.9807
159.4374,116.9590
159.4757,116.9514
Z" /> 
<path style="fill:#000000; fill-opacity:1.0000; stroke:none;fill-rule:evenodd;"
d="M 161.1716,84.6863
161.1525,84.7820
161.0984,84.8631
161.0173,84.9173
160.9216,84.9363
158.9216,84.9363
158.8259,84.9173
158.7448,84.8631
158.6906,84.7820
158.6716,84.6863
158.6716,83.3863
158.6906,83.2906
158.7448,83.2095
158.8259,83.1553
158.9216,83.1363
160.9216,83.1363
161.0173,83.1553
161.0984,83.2095
161.1525,83.2906
161.1716,83.3863
Z" /> 
<path style="fill:#000000; fill-opacity:1.0000; stroke:none;fill-rule:evenodd;"
d="M 157.1716,84.6863
157.1525,84.7820
157.0984,84.8631
157.0173,84.9173
156.9216,84.9363
154.9216,84.9363
154.8259,84.9173
154.7448,84.8631
154.6906,84.7820
154.6716,84.6863
154.6716,83.3863
154.6906,83.2906
154.7448,83.2095
154.8259,83.1553
154.9216,83.1363
156.9216,83.1363
157.0173,83.1553
157.0984,83.2095
157.1525,83.2906
157.1716,83.3863
Z" /> 
<path style="fill:#000000; fill-opacity:1.0000; stroke:none;fill-rule:evenodd;"
d="M 173.2665,127.9646
173.3430,127.9798
173.4079,128.0231
173.4513,128.0880
173.4665,128.1646
173.4665,128.5646
173.4513,128.6411
173.4079,128.7060
173.3430,128.7493
173.2665,128.7646
172.7165,128.7646
172.6400,128.7493
172.5751,128.7060
172.5317,128.6411
172.5165,128.5646
172.5165,128.1646
172.5317,128.0880
172.5751,128.0231
172.6400,127.9798
172.7165,127.9646
Z" /> 
<path style="fill:#000000; fill-opacity:1.0000; stroke:none;fill-rule:evenodd;"
d="M 173.2665,129.6146
173.3430,129.6298
173.4079,129.6731
173.4513,129.7380
173.4665,129.8146
173.4665,130.2146
173.4513,130.2911
173.4079,130.3560
173.3430,130.3993
173.2665,130.4146
172.7165,130.4146
172.6400,130.3993
172.5751,130.3560
172.5317,130.2911
172.5165,130.2146
172.5165,129.8146
172.5317,129.7380
172.5751,129.6731
172.6400,129.6298
172.7165,129.6146
Z" /> 
<path style="fill:#000000; fill-opacity:1.0000; stroke:none;fill-rule:evenodd;"
d="M 173.9743,128.2357
173.9915,128.1496
174.0402,128.0766
174.1132,128.0279
174.1993,128.0107
174.6493,128.0107
174.7354,128.0279
174.8084,128.0766
174.8572,128.1496
174.8743,128.2357
174.8743,128.7357
174.8572,128.8218
174.8084,128.8948
174.7354,128.9436
174.6493,128.9607
174.1993,128.9607
174.1132,128.9436
174.0402,128.8948
173.9915,128.8218
173.9743,128.7357
Z" /> 
<path style="fill:#000000; fill-opacity:1.0000; stroke:none;fill-rule:evenodd;"
d="M 175.5243,128.2357
175.5415,128.1496
175.5902,128.0766
175.6632,128.0279
175.7493,128.0107
176.1993,128.0107
176.2854,128.0279
176.3584,128.0766
176.4072,128.1496
176.4243,128.2357
176.4243,128.7357
176.4072,128.8218
176.3584,128.8948
176.2854,128.9436
176.1993,128.9607
175.7493,128.9607
175.6632,128.9436
175.5902,128.8948
175.5415,128.8218
175.5243,128.7357
Z" /> 
<path style="fill:#000000; fill-opacity:1.0000; stroke:none;fill-rule:evenodd;"
d="M 155.9451,122.9233
156.0312,122.9404
156.1042,122.9892
156.1530,123.0622
156.1701,123.1483
156.1701,123.5983
156.1530,123.6844
156.1042,123.7574
156.0312,123.8062
155.9451,123.8233
155.4451,123.8233
155.3590,123.8062
155.2860,123.7574
155.2372,123.6844
155.2201,123.5983
155.2201,123.1483
155.2372,123.0622
155.2860,122.9892
155.3590,122.9404
155.4451,122.9233
Z" /> 
<path style="fill:#000000; fill-opacity:1.0000; stroke:none;fill-rule:evenodd;"
d="M 155.9451,124.4733
156.0312,124.4904
156.1042,124.5392
156.1530,124.6122
156.1701,124.6983
156.1701,125.1483
156.1530,125.2344
156.1042,125.3074
156.0312,125.3562
155.9451,125.3733
155.4451,125.3733
155.3590,125.3562
155.2860,125.3074
155.2372,125.2344
155.2201,125.1483
155.2201,124.6983
155.2372,124.6122
155.2860,124.5392
155.3590,124.4904
155.4451,124.4733
Z" /> 
<path style="fill:#000000; fill-opacity:1.0000; stroke:none;fill-rule:evenodd;"
d="M 155.1313,119.4387
155.1142,119.5248
155.0654,119.5978
154.9924,119.6466
154.9063,119.6637
154.4563,119.6637
154.3702,119.6466
154.2972,119.5978
154.2484,119.5248
154.2313,119.4387
154.2313,118.9387
154.2484,118.8526
154.2972,118.7796
154.3702,118.7309
154.4563,118.7137
154.9063,118.7137
154.9924,118.7309
155.0654,118.7796
155.1142,118.8526
155.1313,118.9387
Z" /> 
<path style="fill:#000000; fill-opacity:1.0000; stroke:none;fill-rule:evenodd;"
d="M 153.5813,119.4387
153.5642,119.5248
153.5154,119.5978
153.4424,119.6466
153.3563,119.6637
152.9063,119.6637
152.8202,119.6466
152.7472,119.5978
152.6984,119.5248
152.6813,119.4387
152.6813,118.9387
152.6984,118.8526
152.7472,118.7796
152.8202,118.7309
152.9063,118.7137
153.3563,118.7137
153.4424,118.7309
153.5154,118.7796
153.5642,118.8526
153.5813,118.9387
Z" /> 
<path style="fill:#000000; fill-opacity:1.0000; stroke:none;fill-rule:evenodd;"
d="M 146.9578,111.8155
145.7578,111.8155
145.7578,110.0155
146.9578,110.0155
Z" /> 
<path style="fill:#000000; fill-opacity:1.0000; stroke:none;fill-rule:evenodd;"
d="M 146.9578,103.8155
145.7578,103.8155
145.7578,102.0155
146.9578,102.0155
Z" /> 
<path style="fill:#000000; fill-opacity:1.0000; stroke:none;fill-rule:evenodd;"
d="M 151.4578,111.8155
150.2578,111.8155
150.2578,110.0155
151.4578,110.0155
Z" /> 
<path style="fill:#000000; fill-opacity:1.0000; stroke:none;fill-rule:evenodd;"
d="M 151.4578,103.8155
150.2578,103.8155
150.2578,102.0155
151.4578,102.0155
Z" /> 
<path style="fill:#000000; fill-opacity:1.0000; stroke:none;fill-rule:evenodd;"
d="M 168.4415,126.7758
168.4244,126.8619
168.3756,126.9349
168.3026,126.9836
168.2165,127.0008
167.7665,127.0008
167.6804,126.9836
167.6074,126.9349
167.5586,126.8619
167.5415,126.7758
167.5415,126.2758
167.5586,126.1896
167.6074,126.1167
167.6804,126.0679
167.7665,126.0508
168.2165,126.0508
168.3026,126.0679
168.3756,126.1167
168.4244,126.1896
168.4415,126.2758
Z" /> 
<path style="fill:#000000; fill-opacity:1.0000; stroke:none;fill-rule:evenodd;"
d="M 166.8915,126.7758
166.8744,126.8619
166.8256,126.9349
166.7526,126.9836
166.6665,127.0008
166.2165,127.0008
166.1304,126.9836
166.0574,126.9349
166.0086,126.8619
165.9915,126.7758
165.9915,126.2758
166.0086,126.1896
166.0574,126.1167
166.1304,126.0679
166.2165,126.0508
166.6665,126.0508
166.7526,126.0679
166.8256,126.1167
166.8744,126.1896
166.8915,126.2758
Z" /> 
<path style="fill:#000000; fill-opacity:1.0000; stroke:none;fill-rule:evenodd;"
d="M 152.2292,125.7226
152.2445,125.6461
152.2878,125.5812
152.3527,125.5379
152.4292,125.5226
152.8293,125.5226
152.9058,125.5379
152.9707,125.5812
153.0140,125.6461
153.0292,125.7226
153.0292,126.2726
153.0140,126.3492
152.9707,126.4141
152.9058,126.4574
152.8293,126.4726
152.4292,126.4726
152.3527,126.4574
152.2878,126.4141
152.2445,126.3492
152.2292,126.2726
Z" /> 
<path style="fill:#000000; fill-opacity:1.0000; stroke:none;fill-rule:evenodd;"
d="M 153.8792,125.7226
153.8945,125.6461
153.9378,125.5812
154.0027,125.5379
154.0793,125.5226
154.4792,125.5226
154.5558,125.5379
154.6207,125.5812
154.6640,125.6461
154.6792,125.7226
154.6792,126.2726
154.6640,126.3492
154.6207,126.4141
154.5558,126.4574
154.4792,126.4726
154.0793,126.4726
154.0027,126.4574
153.9378,126.4141
153.8945,126.3492
153.8792,126.2726
Z" /> 
<path style="fill:#000000; fill-opacity:1.0000; stroke:none;fill-rule:evenodd;"
d="M 154.0298,113.8393
152.8298,113.8393
152.8298,113.3393
154.0298,113.3393
Z" /> 
<path style="fill:#000000; fill-opacity:1.0000; stroke:none;fill-rule:evenodd;"
d="M 154.0298,114.7893
152.8298,114.7893
152.8298,114.2893
154.0298,114.2893
Z" /> 
<path style="fill:#000000; fill-opacity:1.0000; stroke:none;fill-rule:evenodd;"
d="M 152.8298,115.2393
154.0298,115.2393
154.0298,115.7393
152.8298,115.7393
Z" /> 
<path style="fill:#000000; fill-opacity:1.0000; stroke:none;fill-rule:evenodd;"
d="M 156.7298,115.7393
155.5298,115.7393
155.5298,115.2393
156.7298,115.2393
Z" /> 
<path style="fill:#000000; fill-opacity:1.0000; stroke:none;fill-rule:evenodd;"
d="M 155.5298,113.3393
156.7298,113.3393
156.7298,113.8393
155.5298,113.8393
Z" /> 
<path style="fill:#000000; fill-opacity:1.0000; stroke:none;fill-rule:evenodd;"
d="M 141.6061,89.5805
141.6827,89.5958
141.7476,89.6391
141.7909,89.7040
141.8061,89.7805
141.8061,90.1805
141.7909,90.2571
141.7476,90.3220
141.6827,90.3653
141.6061,90.3805
141.0561,90.3805
140.9796,90.3653
140.9147,90.3220
140.8714,90.2571
140.8561,90.1805
140.8561,89.7805
140.8714,89.7040
140.9147,89.6391
140.9796,89.5958
141.0561,89.5805
Z" /> 
<path style="fill:#000000; fill-opacity:1.0000; stroke:none;fill-rule:evenodd;"
d="M 141.6061,91.2305
141.6827,91.2458
141.7476,91.2891
141.7909,91.3540
141.8061,91.4305
141.8061,91.8305
141.7909,91.9071
141.7476,91.9720
141.6827,92.0153
141.6061,92.0305
141.0561,92.0305
140.9796,92.0153
140.9147,91.9720
140.8714,91.9071
140.8561,91.8305
140.8561,91.4305
140.8714,91.3540
140.9147,91.2891
140.9796,91.2458
141.0561,91.2305
Z" /> 
</g> 
</svg>
