M48
; DRILL file {KiCad 9.0.2} date 2025-07-13T16:06:32-0500
; FORMAT={-:-/ absolute / metric / decimal}
; #@! TF.CreationDate,2025-07-13T16:06:32-05:00
; #@! TF.GenerationSoftware,Kicad,Pcbnew,9.0.2
; #@! TF.FileFunction,Plated,1,2,PTH
FMAT,2
METRIC
; #@! TA.AperFunction,Plated,PTH,ViaDrill
T1C0.300
; #@! TA.AperFunction,Plated,PTH,ComponentDrill
T2C0.600
%
G90
G05
T1
X139.329Y-86.794
X141.331Y-92.806
X142.831Y-92.806
X144.821Y-86.751
X149.013Y-97.243
X152.034Y-91.911
X152.485Y-107.869
X152.585Y-117.979
X153.357Y-116.22
X155.525Y-126.021
X155.595Y-118.009
X156.894Y-111.915
X157.43Y-127.765
X157.947Y-90.598
X158.916Y-119.65
X158.943Y-124.466
X158.972Y-111.1
X159.063Y-114.46
X160.764Y-107.196
X165.215Y-126.721
X166.275Y-84.324
X167.265Y-117.363
X169.058Y-124.581
X169.851Y-128.69
X170.164Y-115.257
X173.979Y-125.381
X174.846Y-121.979
X176.171Y-106.136
X176.2Y-102.636
X176.2Y-104.036
X176.965Y-128.479
X177.517Y-116.399
X181.016Y-123.112
X182.194Y-122.41
X182.291Y-120.535
X182.307Y-118.017
T2
X137.754Y-84.63G85X137.754Y-84.03
G05
X137.754Y-88.43G85X137.754Y-87.83
G05
X146.394Y-84.63G85X146.394Y-84.03
G05
X146.394Y-88.43G85X146.394Y-87.83
G05
M30
