%TF.GenerationSoftware,KiCad,Pcbnew,9.0.2*%
%TF.CreationDate,2025-07-13T16:06:35-05:00*%
%TF.ProjectId,stm32card,73746d33-3263-4617-9264-2e6b69636164,rev?*%
%TF.SameCoordinates,Original*%
%TF.FileFunction,Soldermask,Top*%
%TF.FilePolarity,Negative*%
%FSLAX46Y46*%
G04 Gerber Fmt 4.6, Leading zero omitted, Abs format (unit mm)*
G04 Created by KiCad (PCBNEW 9.0.2) date 2025-07-13 16:06:35*
%MOMM*%
%LPD*%
G01*
G04 APERTURE LIST*
G04 Aperture macros list*
%AMRoundRect*
0 Rectangle with rounded corners*
0 $1 Rounding radius*
0 $2 $3 $4 $5 $6 $7 $8 $9 X,Y pos of 4 corners*
0 Add a 4 corners polygon primitive as box body*
4,1,4,$2,$3,$4,$5,$6,$7,$8,$9,$2,$3,0*
0 Add four circle primitives for the rounded corners*
1,1,$1+$1,$2,$3*
1,1,$1+$1,$4,$5*
1,1,$1+$1,$6,$7*
1,1,$1+$1,$8,$9*
0 Add four rect primitives between the rounded corners*
20,1,$1+$1,$2,$3,$4,$5,0*
20,1,$1+$1,$4,$5,$6,$7,0*
20,1,$1+$1,$6,$7,$8,$9,0*
20,1,$1+$1,$8,$9,$2,$3,0*%
G04 Aperture macros list end*
%ADD10RoundRect,0.225000X-0.225000X-0.250000X0.225000X-0.250000X0.225000X0.250000X-0.225000X0.250000X0*%
%ADD11RoundRect,0.150000X0.150000X-0.587500X0.150000X0.587500X-0.150000X0.587500X-0.150000X-0.587500X0*%
%ADD12RoundRect,0.225000X0.225000X0.250000X-0.225000X0.250000X-0.225000X-0.250000X0.225000X-0.250000X0*%
%ADD13R,1.800000X1.200000*%
%ADD14RoundRect,0.200000X0.200000X0.275000X-0.200000X0.275000X-0.200000X-0.275000X0.200000X-0.275000X0*%
%ADD15RoundRect,0.225000X-0.250000X0.225000X-0.250000X-0.225000X0.250000X-0.225000X0.250000X0.225000X0*%
%ADD16R,3.000000X5.500000*%
%ADD17RoundRect,0.200000X0.275000X-0.200000X0.275000X0.200000X-0.275000X0.200000X-0.275000X-0.200000X0*%
%ADD18RoundRect,0.225000X0.250000X-0.225000X0.250000X0.225000X-0.250000X0.225000X-0.250000X-0.225000X0*%
%ADD19R,2.350000X3.500000*%
%ADD20C,2.000000*%
%ADD21RoundRect,0.150000X0.587500X0.150000X-0.587500X0.150000X-0.587500X-0.150000X0.587500X-0.150000X0*%
%ADD22RoundRect,0.250000X0.250000X0.475000X-0.250000X0.475000X-0.250000X-0.475000X0.250000X-0.475000X0*%
%ADD23RoundRect,0.200000X-0.200000X-0.275000X0.200000X-0.275000X0.200000X0.275000X-0.200000X0.275000X0*%
%ADD24R,2.200000X0.400000*%
%ADD25RoundRect,0.100000X-0.225000X-0.100000X0.225000X-0.100000X0.225000X0.100000X-0.225000X0.100000X0*%
%ADD26RoundRect,0.200000X-0.275000X0.200000X-0.275000X-0.200000X0.275000X-0.200000X0.275000X0.200000X0*%
%ADD27RoundRect,0.102000X0.350000X0.600000X-0.350000X0.600000X-0.350000X-0.600000X0.350000X-0.600000X0*%
%ADD28RoundRect,0.102000X0.380000X0.600000X-0.380000X0.600000X-0.380000X-0.600000X0.380000X-0.600000X0*%
%ADD29RoundRect,0.102000X0.400000X0.600000X-0.400000X0.600000X-0.400000X-0.600000X0.400000X-0.600000X0*%
%ADD30O,1.304000X1.904000*%
%ADD31RoundRect,0.243750X0.243750X0.456250X-0.243750X0.456250X-0.243750X-0.456250X0.243750X-0.456250X0*%
%ADD32R,1.070000X0.530000*%
%ADD33R,1.200000X0.270000*%
%ADD34R,0.270000X1.200000*%
%ADD35R,1.200000X1.800000*%
%ADD36RoundRect,0.218750X0.218750X0.256250X-0.218750X0.256250X-0.218750X-0.256250X0.218750X-0.256250X0*%
%ADD37R,0.600000X1.000000*%
%ADD38R,1.200000X0.600000*%
%ADD39R,2.400000X3.300000*%
%ADD40RoundRect,0.100000X-0.100000X0.225000X-0.100000X-0.225000X0.100000X-0.225000X0.100000X0.225000X0*%
%ADD41RoundRect,0.250000X0.650000X-1.000000X0.650000X1.000000X-0.650000X1.000000X-0.650000X-1.000000X0*%
%ADD42R,1.200000X0.500000*%
G04 APERTURE END LIST*
D10*
%TO.C,C14*%
X186594442Y-122410210D03*
X188144442Y-122410210D03*
%TD*%
D11*
%TO.C,Q2*%
X157919747Y-124145560D03*
X159819747Y-124145560D03*
X158869747Y-122270560D03*
%TD*%
D12*
%TO.C,C4*%
X168208349Y-118253643D03*
X166658349Y-118253643D03*
%TD*%
D10*
%TO.C,C25*%
X158188180Y-107195974D03*
X159738180Y-107195974D03*
%TD*%
D13*
%TO.C,b_up1*%
X202951133Y-104665534D03*
X210951133Y-104665534D03*
X202951133Y-109165534D03*
X210951133Y-109165534D03*
%TD*%
D10*
%TO.C,C16*%
X186498159Y-120535261D03*
X188048159Y-120535261D03*
%TD*%
D14*
%TO.C,R22*%
X158253611Y-125980447D03*
X156603611Y-125980447D03*
%TD*%
D15*
%TO.C,C22*%
X159771321Y-108741969D03*
X159771321Y-110291969D03*
%TD*%
D16*
%TO.C,L2*%
X158924572Y-102960590D03*
X154264572Y-102960590D03*
%TD*%
D14*
%TO.C,R14*%
X163868852Y-97111187D03*
X162218852Y-97111187D03*
%TD*%
D17*
%TO.C,R24*%
X161212267Y-117283573D03*
X161212267Y-115633573D03*
%TD*%
D18*
%TO.C,C9*%
X152049345Y-94727156D03*
X152049345Y-93177156D03*
%TD*%
D19*
%TO.C,L1*%
X153109399Y-86734328D03*
X158809399Y-86734328D03*
%TD*%
D20*
%TO.C,SWDIO1*%
X164177791Y-125033730D03*
%TD*%
%TO.C,TP3*%
X162215982Y-129637235D03*
%TD*%
D21*
%TO.C,Q1*%
X164907099Y-117901836D03*
X164907099Y-116001836D03*
X163032099Y-116951836D03*
%TD*%
D22*
%TO.C,C7*%
X152194313Y-97232762D03*
X150294313Y-97232762D03*
%TD*%
D23*
%TO.C,R10*%
X174123734Y-129933381D03*
X175773734Y-129933381D03*
%TD*%
%TO.C,R17*%
X158138180Y-111847959D03*
X159788180Y-111847959D03*
%TD*%
D10*
%TO.C,C12*%
X175911855Y-126779815D03*
X177461855Y-126779815D03*
%TD*%
D24*
%TO.C,U5*%
X174559466Y-111035534D03*
X174559466Y-110335534D03*
X174559466Y-109635534D03*
X174559466Y-108935534D03*
X174559466Y-108235534D03*
X174559466Y-107535534D03*
X174559466Y-106835534D03*
X174559466Y-106135534D03*
X174559466Y-105435534D03*
X174559466Y-104735534D03*
X174559466Y-104035534D03*
X174559466Y-103335534D03*
X174559466Y-102635534D03*
%TD*%
D10*
%TO.C,C11*%
X178216650Y-124571621D03*
X179766650Y-124571621D03*
%TD*%
D14*
%TO.C,R11*%
X171355995Y-129935313D03*
X169705995Y-129935313D03*
%TD*%
D20*
%TO.C,TP2*%
X134880772Y-88298705D03*
%TD*%
D25*
%TO.C,U3*%
X158013180Y-118919663D03*
X158013180Y-119569663D03*
X158013180Y-120219663D03*
X159913180Y-120219663D03*
X159913180Y-119569663D03*
X159913180Y-118919663D03*
%TD*%
D26*
%TO.C,R2*%
X142831133Y-89980534D03*
X142831133Y-91630534D03*
%TD*%
D14*
%TO.C,R15*%
X163868852Y-95545650D03*
X162218852Y-95545650D03*
%TD*%
D10*
%TO.C,C13*%
X181710179Y-116398550D03*
X183260179Y-116398550D03*
%TD*%
%TO.C,C10*%
X158188180Y-113473015D03*
X159738180Y-113473015D03*
%TD*%
D14*
%TO.C,R18*%
X154421265Y-126000289D03*
X152771265Y-126000289D03*
%TD*%
D26*
%TO.C,R16*%
X158155040Y-108691969D03*
X158155040Y-110341969D03*
%TD*%
D12*
%TO.C,C8*%
X179766650Y-121651621D03*
X178216650Y-121651621D03*
%TD*%
D23*
%TO.C,R9*%
X183488159Y-120535261D03*
X185138159Y-120535261D03*
%TD*%
%TO.C,R13*%
X161308400Y-122213186D03*
X162958400Y-122213186D03*
%TD*%
D10*
%TO.C,C15*%
X186482004Y-118016635D03*
X188032004Y-118016635D03*
%TD*%
D13*
%TO.C,b_left1*%
X210951133Y-113132201D03*
X218951133Y-113132201D03*
X210951133Y-117632201D03*
X218951133Y-117632201D03*
%TD*%
D10*
%TO.C,C5*%
X178216650Y-123111621D03*
X179766650Y-123111621D03*
%TD*%
D13*
%TO.C,b_right1*%
X194951133Y-113132201D03*
X202951133Y-113132201D03*
X194951133Y-117632201D03*
X202951133Y-117632201D03*
%TD*%
D23*
%TO.C,R12*%
X161501172Y-120481830D03*
X163151172Y-120481830D03*
%TD*%
D10*
%TO.C,C17*%
X164511172Y-120481830D03*
X166061172Y-120481830D03*
%TD*%
D23*
%TO.C,R6*%
X183584442Y-122410210D03*
X185234442Y-122410210D03*
%TD*%
D10*
%TO.C,C19*%
X154004818Y-111915048D03*
X155554818Y-111915048D03*
%TD*%
D20*
%TO.C,TP_mosi1*%
X174362663Y-114235371D03*
%TD*%
D27*
%TO.C,J1*%
X142574466Y-88210000D03*
D28*
X140554466Y-88210000D03*
D29*
X139324466Y-88210000D03*
D27*
X141574466Y-88210000D03*
D28*
X143594466Y-88210000D03*
D29*
X144824466Y-88210000D03*
D30*
X146394466Y-88130000D03*
X146394466Y-84330000D03*
X137754466Y-88130000D03*
X137754466Y-84330000D03*
%TD*%
D31*
%TO.C,D2*%
X164192771Y-91972776D03*
X162317771Y-91972776D03*
%TD*%
D23*
%TO.C,R7*%
X183472004Y-118016635D03*
X185122004Y-118016635D03*
%TD*%
D20*
%TO.C,tst_nrst1*%
X180021047Y-127320001D03*
%TD*%
D32*
%TO.C,U6*%
X153629818Y-106919279D03*
X153629818Y-107869279D03*
X153629818Y-108819279D03*
X155929818Y-108819279D03*
X155929818Y-107869279D03*
X155929818Y-106919279D03*
%TD*%
D14*
%TO.C,R4*%
X156264853Y-91818710D03*
X154614853Y-91818710D03*
%TD*%
D20*
%TO.C,TestPoint_gnd1*%
X166260568Y-86489059D03*
%TD*%
D10*
%TO.C,C2*%
X168613611Y-116553306D03*
X170163611Y-116553306D03*
%TD*%
D20*
%TO.C,TP_sck1*%
X178381844Y-108935534D03*
%TD*%
D10*
%TO.C,C18*%
X164318400Y-122213186D03*
X165868400Y-122213186D03*
%TD*%
D33*
%TO.C,U4*%
X176090878Y-125284125D03*
X176090878Y-124784125D03*
X176090878Y-124284125D03*
X176090878Y-123784125D03*
X176090878Y-123284125D03*
X176090878Y-122784125D03*
X176090878Y-122284125D03*
X176090878Y-121784125D03*
X176090878Y-121284125D03*
X176090878Y-120784125D03*
X176090878Y-120284125D03*
X176090878Y-119784125D03*
D34*
X174740878Y-118434125D03*
X174240878Y-118434125D03*
X173740878Y-118434125D03*
X173240878Y-118434125D03*
X172740878Y-118434125D03*
X172240878Y-118434125D03*
X171740878Y-118434125D03*
X171240878Y-118434125D03*
X170740878Y-118434125D03*
X170240878Y-118434125D03*
X169740878Y-118434125D03*
X169240878Y-118434125D03*
D33*
X167890878Y-119784125D03*
X167890878Y-120284125D03*
X167890878Y-120784125D03*
X167890878Y-121284125D03*
X167890878Y-121784125D03*
X167890878Y-122284125D03*
X167890878Y-122784125D03*
X167890878Y-123284125D03*
X167890878Y-123784125D03*
X167890878Y-124284125D03*
X167890878Y-124784125D03*
X167890878Y-125284125D03*
D34*
X169240878Y-126634125D03*
X169740878Y-126634125D03*
X170240878Y-126634125D03*
X170740878Y-126634125D03*
X171240878Y-126634125D03*
X171740878Y-126634125D03*
X172240878Y-126634125D03*
X172740878Y-126634125D03*
X173240878Y-126634125D03*
X173740878Y-126634125D03*
X174240878Y-126634125D03*
X174740878Y-126634125D03*
%TD*%
D12*
%TO.C,C20*%
X156306367Y-117183014D03*
X154756367Y-117183014D03*
%TD*%
D23*
%TO.C,R23*%
X159750308Y-125969797D03*
X161400308Y-125969797D03*
%TD*%
D35*
%TO.C,b_b1*%
X146357799Y-127848868D03*
X146357799Y-119848868D03*
X150857799Y-127848868D03*
X150857799Y-119848868D03*
%TD*%
D13*
%TO.C,b_down1*%
X210951133Y-126098868D03*
X202951133Y-126098868D03*
X210951133Y-121598868D03*
X202951133Y-121598868D03*
%TD*%
D36*
%TO.C,D3*%
X163876963Y-93905116D03*
X162301963Y-93905116D03*
%TD*%
D23*
%TO.C,R20*%
X153954818Y-110310463D03*
X155604818Y-110310463D03*
%TD*%
D37*
%TO.C,U9*%
X154476567Y-120794558D03*
X153526567Y-120794558D03*
X152576567Y-120794558D03*
X152576567Y-122994558D03*
X154476567Y-122994558D03*
%TD*%
D38*
%TO.C,U1*%
X159525975Y-97379672D03*
X159525975Y-96109672D03*
X159525975Y-94829672D03*
X159525975Y-93559672D03*
X153705975Y-93559672D03*
X153705975Y-94829672D03*
X153705975Y-96109672D03*
X153705975Y-97379672D03*
D39*
X156615975Y-95469672D03*
%TD*%
D12*
%TO.C,C1*%
X159506914Y-91818526D03*
X157956914Y-91818526D03*
%TD*%
D23*
%TO.C,R5*%
X178700179Y-116398550D03*
X180350179Y-116398550D03*
%TD*%
D40*
%TO.C,U2*%
X159575680Y-115376388D03*
X158925680Y-115376388D03*
X158275680Y-115376388D03*
X158275680Y-117276388D03*
X158925680Y-117276388D03*
X159575680Y-117276388D03*
%TD*%
D41*
%TO.C,D1*%
X162704823Y-88794524D03*
X162704823Y-84794524D03*
%TD*%
D20*
%TO.C,SWCLK1*%
X165303801Y-129637235D03*
%TD*%
D26*
%TO.C,R8*%
X172740878Y-128357482D03*
X172740878Y-130007482D03*
%TD*%
D10*
%TO.C,C6*%
X174173724Y-128478655D03*
X175723724Y-128478655D03*
%TD*%
%TO.C,C24*%
X154469361Y-124419275D03*
X156019361Y-124419275D03*
%TD*%
D12*
%TO.C,C21*%
X154371567Y-119134045D03*
X152821567Y-119134045D03*
%TD*%
D35*
%TO.C,b_a1*%
X146357799Y-110915534D03*
X146357799Y-102915534D03*
X150857799Y-110915534D03*
X150857799Y-102915534D03*
%TD*%
D12*
%TO.C,C3*%
X167740878Y-126518684D03*
X166190878Y-126518684D03*
%TD*%
D20*
%TO.C,TP1*%
X166644763Y-96653916D03*
%TD*%
D23*
%TO.C,R19*%
X154524973Y-127765370D03*
X156174973Y-127765370D03*
%TD*%
D42*
%TO.C,U7*%
X153429818Y-113589341D03*
X153429818Y-114539341D03*
X153429818Y-115489341D03*
X156129818Y-115489341D03*
X156129818Y-113589341D03*
%TD*%
D26*
%TO.C,R1*%
X141331133Y-89980534D03*
X141331133Y-91630534D03*
%TD*%
%TO.C,R21*%
X166643276Y-88787760D03*
X166643276Y-90437760D03*
%TD*%
M02*
