%TF.GenerationSoftware,KiCad,Pcbnew,9.0.2*%
%TF.CreationDate,2025-07-13T16:06:32-05:00*%
%TF.ProjectId,stm32card,73746d33-3263-4617-9264-2e6b69636164,rev?*%
%TF.SameCoordinates,Original*%
%TF.FileFunction,Drillmap*%
%TF.FilePolarity,Positive*%
%FSLAX45Y45*%
G04 Gerber Fmt 4.5, Leading zero omitted, Abs format (unit mm)*
G04 Created by KiCad (PCBNEW 9.0.2) date 2025-07-13 16:06:32*
%MOMM*%
%LPD*%
G01*
G04 APERTURE LIST*
%ADD10C,0.050000*%
%ADD11C,0.200000*%
G04 APERTURE END LIST*
D10*
X13756447Y-13233553D02*
X21646447Y-13233553D01*
X13756447Y-13233553D02*
G75*
G02*
X13256447Y-12733553I3J500003D01*
G01*
X13256447Y-8653553D02*
X13256447Y-12733553D01*
X21646447Y-8153553D02*
G75*
G02*
X22146447Y-8653553I3J-499997D01*
G01*
X22146447Y-12733553D02*
X22146447Y-8653553D01*
X21646447Y-8153553D02*
X13756447Y-8153553D01*
X13256447Y-8653553D02*
G75*
G02*
X13756447Y-8153554I499991J8D01*
G01*
X22146447Y-12733553D02*
G75*
G02*
X21646447Y-13233557I-500007J3D01*
G01*
D11*
X13514723Y-13547537D02*
X13514723Y-13347537D01*
X13514723Y-13347537D02*
X13562342Y-13347537D01*
X13562342Y-13347537D02*
X13590914Y-13357061D01*
X13590914Y-13357061D02*
X13609961Y-13376109D01*
X13609961Y-13376109D02*
X13619485Y-13395156D01*
X13619485Y-13395156D02*
X13629009Y-13433251D01*
X13629009Y-13433251D02*
X13629009Y-13461823D01*
X13629009Y-13461823D02*
X13619485Y-13499918D01*
X13619485Y-13499918D02*
X13609961Y-13518966D01*
X13609961Y-13518966D02*
X13590914Y-13538013D01*
X13590914Y-13538013D02*
X13562342Y-13547537D01*
X13562342Y-13547537D02*
X13514723Y-13547537D01*
X13714723Y-13547537D02*
X13714723Y-13414204D01*
X13714723Y-13452299D02*
X13724247Y-13433251D01*
X13724247Y-13433251D02*
X13733771Y-13423728D01*
X13733771Y-13423728D02*
X13752819Y-13414204D01*
X13752819Y-13414204D02*
X13771866Y-13414204D01*
X13838533Y-13547537D02*
X13838533Y-13414204D01*
X13838533Y-13347537D02*
X13829009Y-13357061D01*
X13829009Y-13357061D02*
X13838533Y-13366585D01*
X13838533Y-13366585D02*
X13848057Y-13357061D01*
X13848057Y-13357061D02*
X13838533Y-13347537D01*
X13838533Y-13347537D02*
X13838533Y-13366585D01*
X13962342Y-13547537D02*
X13943295Y-13538013D01*
X13943295Y-13538013D02*
X13933771Y-13518966D01*
X13933771Y-13518966D02*
X13933771Y-13347537D01*
X14067104Y-13547537D02*
X14048057Y-13538013D01*
X14048057Y-13538013D02*
X14038533Y-13518966D01*
X14038533Y-13518966D02*
X14038533Y-13347537D01*
X14295676Y-13547537D02*
X14295676Y-13347537D01*
X14295676Y-13347537D02*
X14362342Y-13490394D01*
X14362342Y-13490394D02*
X14429009Y-13347537D01*
X14429009Y-13347537D02*
X14429009Y-13547537D01*
X14609961Y-13547537D02*
X14609961Y-13442775D01*
X14609961Y-13442775D02*
X14600438Y-13423728D01*
X14600438Y-13423728D02*
X14581390Y-13414204D01*
X14581390Y-13414204D02*
X14543295Y-13414204D01*
X14543295Y-13414204D02*
X14524247Y-13423728D01*
X14609961Y-13538013D02*
X14590914Y-13547537D01*
X14590914Y-13547537D02*
X14543295Y-13547537D01*
X14543295Y-13547537D02*
X14524247Y-13538013D01*
X14524247Y-13538013D02*
X14514723Y-13518966D01*
X14514723Y-13518966D02*
X14514723Y-13499918D01*
X14514723Y-13499918D02*
X14524247Y-13480870D01*
X14524247Y-13480870D02*
X14543295Y-13471347D01*
X14543295Y-13471347D02*
X14590914Y-13471347D01*
X14590914Y-13471347D02*
X14609961Y-13461823D01*
X14705200Y-13414204D02*
X14705200Y-13614204D01*
X14705200Y-13423728D02*
X14724247Y-13414204D01*
X14724247Y-13414204D02*
X14762342Y-13414204D01*
X14762342Y-13414204D02*
X14781390Y-13423728D01*
X14781390Y-13423728D02*
X14790914Y-13433251D01*
X14790914Y-13433251D02*
X14800438Y-13452299D01*
X14800438Y-13452299D02*
X14800438Y-13509442D01*
X14800438Y-13509442D02*
X14790914Y-13528489D01*
X14790914Y-13528489D02*
X14781390Y-13538013D01*
X14781390Y-13538013D02*
X14762342Y-13547537D01*
X14762342Y-13547537D02*
X14724247Y-13547537D01*
X14724247Y-13547537D02*
X14705200Y-13538013D01*
X14886152Y-13528489D02*
X14895676Y-13538013D01*
X14895676Y-13538013D02*
X14886152Y-13547537D01*
X14886152Y-13547537D02*
X14876628Y-13538013D01*
X14876628Y-13538013D02*
X14886152Y-13528489D01*
X14886152Y-13528489D02*
X14886152Y-13547537D01*
X14886152Y-13423728D02*
X14895676Y-13433251D01*
X14895676Y-13433251D02*
X14886152Y-13442775D01*
X14886152Y-13442775D02*
X14876628Y-13433251D01*
X14876628Y-13433251D02*
X14886152Y-13423728D01*
X14886152Y-13423728D02*
X14886152Y-13442775D01*
M02*
