%TF.GenerationSoftware,KiCad,Pcbnew,9.0.2*%
%TF.CreationDate,2025-07-13T16:06:34-05:00*%
%TF.ProjectId,stm32card,73746d33-3263-4617-9264-2e6b69636164,rev?*%
%TF.SameCoordinates,Original*%
%TF.FileFunction,Copper,L1,Top*%
%TF.FilePolarity,Positive*%
%FSLAX46Y46*%
G04 Gerber Fmt 4.6, Leading zero omitted, Abs format (unit mm)*
G04 Created by KiCad (PCBNEW 9.0.2) date 2025-07-13 16:06:34*
%MOMM*%
%LPD*%
G01*
G04 APERTURE LIST*
G04 Aperture macros list*
%AMRoundRect*
0 Rectangle with rounded corners*
0 $1 Rounding radius*
0 $2 $3 $4 $5 $6 $7 $8 $9 X,Y pos of 4 corners*
0 Add a 4 corners polygon primitive as box body*
4,1,4,$2,$3,$4,$5,$6,$7,$8,$9,$2,$3,0*
0 Add four circle primitives for the rounded corners*
1,1,$1+$1,$2,$3*
1,1,$1+$1,$4,$5*
1,1,$1+$1,$6,$7*
1,1,$1+$1,$8,$9*
0 Add four rect primitives between the rounded corners*
20,1,$1+$1,$2,$3,$4,$5,0*
20,1,$1+$1,$4,$5,$6,$7,0*
20,1,$1+$1,$6,$7,$8,$9,0*
20,1,$1+$1,$8,$9,$2,$3,0*%
G04 Aperture macros list end*
%TA.AperFunction,SMDPad,CuDef*%
%ADD10RoundRect,0.225000X-0.225000X-0.250000X0.225000X-0.250000X0.225000X0.250000X-0.225000X0.250000X0*%
%TD*%
%TA.AperFunction,SMDPad,CuDef*%
%ADD11RoundRect,0.150000X0.150000X-0.587500X0.150000X0.587500X-0.150000X0.587500X-0.150000X-0.587500X0*%
%TD*%
%TA.AperFunction,SMDPad,CuDef*%
%ADD12RoundRect,0.225000X0.225000X0.250000X-0.225000X0.250000X-0.225000X-0.250000X0.225000X-0.250000X0*%
%TD*%
%TA.AperFunction,SMDPad,CuDef*%
%ADD13R,1.800000X1.200000*%
%TD*%
%TA.AperFunction,SMDPad,CuDef*%
%ADD14RoundRect,0.200000X0.200000X0.275000X-0.200000X0.275000X-0.200000X-0.275000X0.200000X-0.275000X0*%
%TD*%
%TA.AperFunction,SMDPad,CuDef*%
%ADD15RoundRect,0.225000X-0.250000X0.225000X-0.250000X-0.225000X0.250000X-0.225000X0.250000X0.225000X0*%
%TD*%
%TA.AperFunction,SMDPad,CuDef*%
%ADD16R,3.000000X5.500000*%
%TD*%
%TA.AperFunction,SMDPad,CuDef*%
%ADD17RoundRect,0.200000X0.275000X-0.200000X0.275000X0.200000X-0.275000X0.200000X-0.275000X-0.200000X0*%
%TD*%
%TA.AperFunction,SMDPad,CuDef*%
%ADD18RoundRect,0.225000X0.250000X-0.225000X0.250000X0.225000X-0.250000X0.225000X-0.250000X-0.225000X0*%
%TD*%
%TA.AperFunction,SMDPad,CuDef*%
%ADD19R,2.350000X3.500000*%
%TD*%
%TA.AperFunction,SMDPad,CuDef*%
%ADD20C,2.000000*%
%TD*%
%TA.AperFunction,SMDPad,CuDef*%
%ADD21RoundRect,0.150000X0.587500X0.150000X-0.587500X0.150000X-0.587500X-0.150000X0.587500X-0.150000X0*%
%TD*%
%TA.AperFunction,SMDPad,CuDef*%
%ADD22RoundRect,0.250000X0.250000X0.475000X-0.250000X0.475000X-0.250000X-0.475000X0.250000X-0.475000X0*%
%TD*%
%TA.AperFunction,SMDPad,CuDef*%
%ADD23RoundRect,0.200000X-0.200000X-0.275000X0.200000X-0.275000X0.200000X0.275000X-0.200000X0.275000X0*%
%TD*%
%TA.AperFunction,SMDPad,CuDef*%
%ADD24R,2.200000X0.400000*%
%TD*%
%TA.AperFunction,SMDPad,CuDef*%
%ADD25RoundRect,0.100000X-0.225000X-0.100000X0.225000X-0.100000X0.225000X0.100000X-0.225000X0.100000X0*%
%TD*%
%TA.AperFunction,SMDPad,CuDef*%
%ADD26RoundRect,0.200000X-0.275000X0.200000X-0.275000X-0.200000X0.275000X-0.200000X0.275000X0.200000X0*%
%TD*%
%TA.AperFunction,SMDPad,CuDef*%
%ADD27R,0.700000X1.200000*%
%TD*%
%TA.AperFunction,SMDPad,CuDef*%
%ADD28R,0.760000X1.200000*%
%TD*%
%TA.AperFunction,SMDPad,CuDef*%
%ADD29R,0.800000X1.200000*%
%TD*%
%TA.AperFunction,ComponentPad*%
%ADD30O,1.100000X1.700000*%
%TD*%
%TA.AperFunction,SMDPad,CuDef*%
%ADD31RoundRect,0.243750X0.243750X0.456250X-0.243750X0.456250X-0.243750X-0.456250X0.243750X-0.456250X0*%
%TD*%
%TA.AperFunction,SMDPad,CuDef*%
%ADD32R,1.070000X0.530000*%
%TD*%
%TA.AperFunction,SMDPad,CuDef*%
%ADD33R,1.200000X0.270000*%
%TD*%
%TA.AperFunction,SMDPad,CuDef*%
%ADD34R,0.270000X1.200000*%
%TD*%
%TA.AperFunction,SMDPad,CuDef*%
%ADD35R,1.200000X1.800000*%
%TD*%
%TA.AperFunction,SMDPad,CuDef*%
%ADD36RoundRect,0.218750X0.218750X0.256250X-0.218750X0.256250X-0.218750X-0.256250X0.218750X-0.256250X0*%
%TD*%
%TA.AperFunction,SMDPad,CuDef*%
%ADD37R,0.600000X1.000000*%
%TD*%
%TA.AperFunction,SMDPad,CuDef*%
%ADD38R,1.200000X0.600000*%
%TD*%
%TA.AperFunction,SMDPad,CuDef*%
%ADD39R,2.400000X3.300000*%
%TD*%
%TA.AperFunction,SMDPad,CuDef*%
%ADD40RoundRect,0.100000X-0.100000X0.225000X-0.100000X-0.225000X0.100000X-0.225000X0.100000X0.225000X0*%
%TD*%
%TA.AperFunction,SMDPad,CuDef*%
%ADD41RoundRect,0.250000X0.650000X-1.000000X0.650000X1.000000X-0.650000X1.000000X-0.650000X-1.000000X0*%
%TD*%
%TA.AperFunction,SMDPad,CuDef*%
%ADD42R,1.200000X0.500000*%
%TD*%
%TA.AperFunction,ViaPad*%
%ADD43C,0.600000*%
%TD*%
%TA.AperFunction,Conductor*%
%ADD44C,0.250000*%
%TD*%
%TA.AperFunction,Conductor*%
%ADD45C,0.500000*%
%TD*%
%TA.AperFunction,Conductor*%
%ADD46C,0.350000*%
%TD*%
%TA.AperFunction,Conductor*%
%ADD47C,0.200000*%
%TD*%
%TA.AperFunction,Conductor*%
%ADD48C,1.000000*%
%TD*%
G04 APERTURE END LIST*
D10*
%TO.P,C14,1*%
%TO.N,Net-(C14-Pad1)*%
X186594442Y-122410210D03*
%TO.P,C14,2*%
%TO.N,in_button_down*%
X188144442Y-122410210D03*
%TD*%
D11*
%TO.P,Q2,1,G*%
%TO.N,usb vbus*%
X157919747Y-124145560D03*
%TO.P,Q2,2,S*%
%TO.N,GND*%
X159819747Y-124145560D03*
%TO.P,Q2,3,D*%
%TO.N,Net-(Q2-D)*%
X158869747Y-122270560D03*
%TD*%
D12*
%TO.P,C4,1*%
%TO.N,+3V0*%
X168208349Y-118253643D03*
%TO.P,C4,2*%
%TO.N,GND*%
X166658349Y-118253643D03*
%TD*%
D10*
%TO.P,C25,1*%
%TO.N,bat output*%
X158188180Y-107195974D03*
%TO.P,C25,2*%
%TO.N,GND*%
X159738180Y-107195974D03*
%TD*%
D13*
%TO.P,b_up1,1,1*%
%TO.N,+3V0*%
X202951133Y-104665534D03*
%TO.P,b_up1,2,2*%
X210951133Y-104665534D03*
%TO.P,b_up1,3,3*%
%TO.N,in_button_up*%
X202951133Y-109165534D03*
%TO.P,b_up1,4,4*%
X210951133Y-109165534D03*
%TD*%
D10*
%TO.P,C16,1*%
%TO.N,Net-(C16-Pad1)*%
X186498159Y-120535261D03*
%TO.P,C16,2*%
%TO.N,in_button_right*%
X188048159Y-120535261D03*
%TD*%
D14*
%TO.P,R22,1*%
%TO.N,usb vbus*%
X158253611Y-125980447D03*
%TO.P,R22,2*%
%TO.N,GND*%
X156603611Y-125980447D03*
%TD*%
D15*
%TO.P,C22,1*%
%TO.N,Net-(U2-VIN)*%
X159771321Y-108741969D03*
%TO.P,C22,2*%
%TO.N,GND*%
X159771321Y-110291969D03*
%TD*%
D16*
%TO.P,L2,1,1*%
%TO.N,bat output*%
X158924572Y-102960590D03*
%TO.P,L2,2,2*%
%TO.N,Net-(U6-SW)*%
X154264572Y-102960590D03*
%TD*%
D14*
%TO.P,R14,1*%
%TO.N,Net-(D2-K)*%
X163868852Y-97111187D03*
%TO.P,R14,2*%
%TO.N,Net-(U1-~{DONE})*%
X162218852Y-97111187D03*
%TD*%
D17*
%TO.P,R24,1*%
%TO.N,Net-(U2-VOUT)*%
X161212267Y-117283573D03*
%TO.P,R24,2*%
%TO.N,+3V0*%
X161212267Y-115633573D03*
%TD*%
D18*
%TO.P,C9,1*%
%TO.N,usb vbus*%
X152049345Y-94727156D03*
%TO.P,C9,2*%
%TO.N,GND*%
X152049345Y-93177156D03*
%TD*%
D19*
%TO.P,L1,1,1*%
%TO.N,Net-(U1-SW)*%
X153109399Y-86734328D03*
%TO.P,L1,2,2*%
%TO.N,Net-(D1-A)*%
X158809399Y-86734328D03*
%TD*%
D20*
%TO.P,SWDIO1,1,1*%
%TO.N,Net-(U4-PA13)*%
X164177791Y-125033730D03*
%TD*%
%TO.P,TP3,1,1*%
%TO.N,+3V0*%
X162215982Y-129637235D03*
%TD*%
D21*
%TO.P,Q1,1,G*%
%TO.N,backlight_fet*%
X164907099Y-117901836D03*
%TO.P,Q1,2,S*%
%TO.N,Net-(Q1-S)*%
X164907099Y-116001836D03*
%TO.P,Q1,3,D*%
%TO.N,+3V0*%
X163032099Y-116951836D03*
%TD*%
D22*
%TO.P,C7,1*%
%TO.N,Net-(U1-CT)*%
X152194313Y-97232762D03*
%TO.P,C7,2*%
%TO.N,GND*%
X150294313Y-97232762D03*
%TD*%
D23*
%TO.P,R10,1*%
%TO.N,Net-(R10-Pad1)*%
X174123734Y-129933381D03*
%TO.P,R10,2*%
%TO.N,+3V0*%
X175773734Y-129933381D03*
%TD*%
%TO.P,R17,1*%
%TO.N,Net-(U6-FB)*%
X158138180Y-111847959D03*
%TO.P,R17,2*%
%TO.N,GND*%
X159788180Y-111847959D03*
%TD*%
D10*
%TO.P,C12,1*%
%TO.N,+3V0*%
X175911855Y-126779815D03*
%TO.P,C12,2*%
%TO.N,Net-(U4-VBAT)*%
X177461855Y-126779815D03*
%TD*%
D24*
%TO.P,U5,1,NC*%
%TO.N,unconnected-(U5-NC-Pad1)*%
X174559466Y-111035534D03*
%TO.P,U5,2,NC*%
%TO.N,unconnected-(U5-NC-Pad2)*%
X174559466Y-110335534D03*
%TO.P,U5,3,SDA*%
%TO.N,spi1_mosi*%
X174559466Y-109635534D03*
%TO.P,U5,4,SCL*%
%TO.N,spi1_sck*%
X174559466Y-108935534D03*
%TO.P,U5,5,RS*%
%TO.N,lcd_dataselect*%
X174559466Y-108235534D03*
%TO.P,U5,6,RESET*%
%TO.N,lcd_reset*%
X174559466Y-107535534D03*
%TO.P,U5,7,CS*%
%TO.N,lcd_cs*%
X174559466Y-106835534D03*
%TO.P,U5,8,GND*%
%TO.N,GND*%
X174559466Y-106135534D03*
%TO.P,U5,9,NC*%
%TO.N,unconnected-(U5-NC-Pad9)*%
X174559466Y-105435534D03*
%TO.P,U5,10,VDD*%
%TO.N,+3V0*%
X174559466Y-104735534D03*
%TO.P,U5,11,LEDK*%
%TO.N,GND*%
X174559466Y-104035534D03*
%TO.P,U5,12,LEDA*%
%TO.N,Net-(Q1-S)*%
X174559466Y-103335534D03*
%TO.P,U5,13,GND*%
%TO.N,GND*%
X174559466Y-102635534D03*
%TD*%
D10*
%TO.P,C11,1*%
%TO.N,Net-(U4-NRST)*%
X178216650Y-124571621D03*
%TO.P,C11,2*%
%TO.N,GND*%
X179766650Y-124571621D03*
%TD*%
D14*
%TO.P,R11,1*%
%TO.N,Net-(R10-Pad1)*%
X171355995Y-129935313D03*
%TO.P,R11,2*%
%TO.N,GND*%
X169705995Y-129935313D03*
%TD*%
D20*
%TO.P,TP2,1,1*%
%TO.N,usb vbus*%
X134880772Y-88298705D03*
%TD*%
D25*
%TO.P,U3,1,VIN*%
%TO.N,Net-(U3-VIN)*%
X158013180Y-118919663D03*
%TO.P,U3,2,GND*%
%TO.N,GND*%
X158013180Y-119569663D03*
%TO.P,U3,3,~{CE}*%
%TO.N,Net-(Q2-D)*%
X158013180Y-120219663D03*
%TO.P,U3,4,NC*%
%TO.N,unconnected-(U3-NC-Pad4)*%
X159913180Y-120219663D03*
%TO.P,U3,5,ST*%
%TO.N,power_info*%
X159913180Y-119569663D03*
%TO.P,U3,6,VOUT*%
%TO.N,Net-(U2-VOUT)*%
X159913180Y-118919663D03*
%TD*%
D26*
%TO.P,R2,1*%
%TO.N,Net-(J1-CC1)*%
X142831133Y-89980534D03*
%TO.P,R2,2*%
%TO.N,GND*%
X142831133Y-91630534D03*
%TD*%
D14*
%TO.P,R15,1*%
%TO.N,Net-(D3-K)*%
X163868852Y-95545650D03*
%TO.P,R15,2*%
%TO.N,Net-(U1-~{CHRG})*%
X162218852Y-95545650D03*
%TD*%
D10*
%TO.P,C13,1*%
%TO.N,Net-(C13-Pad1)*%
X181710179Y-116398550D03*
%TO.P,C13,2*%
%TO.N,in_button_up*%
X183260179Y-116398550D03*
%TD*%
%TO.P,C10,1*%
%TO.N,Net-(U7-CT)*%
X158188180Y-113473015D03*
%TO.P,C10,2*%
%TO.N,GND*%
X159738180Y-113473015D03*
%TD*%
D14*
%TO.P,R18,1*%
%TO.N,Net-(U3-VIN)*%
X154421265Y-126000289D03*
%TO.P,R18,2*%
%TO.N,Net-(U9-FB)*%
X152771265Y-126000289D03*
%TD*%
D26*
%TO.P,R16,1*%
%TO.N,Net-(U2-VIN)*%
X158155040Y-108691969D03*
%TO.P,R16,2*%
%TO.N,Net-(U6-FB)*%
X158155040Y-110341969D03*
%TD*%
D12*
%TO.P,C8,1*%
%TO.N,GND*%
X179766650Y-121651621D03*
%TO.P,C8,2*%
%TO.N,+3V0*%
X178216650Y-121651621D03*
%TD*%
D23*
%TO.P,R9,1*%
%TO.N,GND*%
X183488159Y-120535261D03*
%TO.P,R9,2*%
%TO.N,Net-(C16-Pad1)*%
X185138159Y-120535261D03*
%TD*%
%TO.P,R13,1*%
%TO.N,GND*%
X161308400Y-122213186D03*
%TO.P,R13,2*%
%TO.N,Net-(C18-Pad1)*%
X162958400Y-122213186D03*
%TD*%
D10*
%TO.P,C15,1*%
%TO.N,Net-(C15-Pad1)*%
X186482004Y-118016635D03*
%TO.P,C15,2*%
%TO.N,in_button_left*%
X188032004Y-118016635D03*
%TD*%
D13*
%TO.P,b_left1,1,1*%
%TO.N,+3V0*%
X210951133Y-113132201D03*
%TO.P,b_left1,2,2*%
X218951133Y-113132201D03*
%TO.P,b_left1,3,3*%
%TO.N,in_button_left*%
X210951133Y-117632201D03*
%TO.P,b_left1,4,4*%
X218951133Y-117632201D03*
%TD*%
D10*
%TO.P,C5,1*%
%TO.N,+3V0*%
X178216650Y-123111621D03*
%TO.P,C5,2*%
%TO.N,GND*%
X179766650Y-123111621D03*
%TD*%
D13*
%TO.P,b_right1,1,1*%
%TO.N,+3V0*%
X194951133Y-113132201D03*
%TO.P,b_right1,2,2*%
X202951133Y-113132201D03*
%TO.P,b_right1,3,3*%
%TO.N,in_button_right*%
X194951133Y-117632201D03*
%TO.P,b_right1,4,4*%
X202951133Y-117632201D03*
%TD*%
D23*
%TO.P,R12,1*%
%TO.N,GND*%
X161501172Y-120481830D03*
%TO.P,R12,2*%
%TO.N,Net-(C17-Pad1)*%
X163151172Y-120481830D03*
%TD*%
D10*
%TO.P,C17,1*%
%TO.N,Net-(C17-Pad1)*%
X164511172Y-120481830D03*
%TO.P,C17,2*%
%TO.N,in_button_a*%
X166061172Y-120481830D03*
%TD*%
D23*
%TO.P,R6,1*%
%TO.N,GND*%
X183584442Y-122410210D03*
%TO.P,R6,2*%
%TO.N,Net-(C14-Pad1)*%
X185234442Y-122410210D03*
%TD*%
D10*
%TO.P,C19,1*%
%TO.N,Net-(U6-EN)*%
X154004818Y-111915048D03*
%TO.P,C19,2*%
%TO.N,GND*%
X155554818Y-111915048D03*
%TD*%
D20*
%TO.P,TP_mosi1,1,1*%
%TO.N,spi1_mosi*%
X174362663Y-114235371D03*
%TD*%
D27*
%TO.P,J1,A5,CC1*%
%TO.N,Net-(J1-CC1)*%
X142574466Y-88210000D03*
D28*
%TO.P,J1,A9,VBUS*%
%TO.N,usb vbus*%
X140554466Y-88210000D03*
D29*
%TO.P,J1,A12,GND*%
%TO.N,GND*%
X139324466Y-88210000D03*
D27*
%TO.P,J1,B5,CC2*%
%TO.N,Net-(J1-CC2)*%
X141574466Y-88210000D03*
D28*
%TO.P,J1,B9,VBUS*%
%TO.N,usb vbus*%
X143594466Y-88210000D03*
D29*
%TO.P,J1,B12,GND*%
%TO.N,GND*%
X144824466Y-88210000D03*
D30*
%TO.P,J1,SH1*%
%TO.N,N/C*%
X146394466Y-88130000D03*
%TO.P,J1,SH2*%
X146394466Y-84330000D03*
%TO.P,J1,SH3*%
X137754466Y-88130000D03*
%TO.P,J1,SH4*%
X137754466Y-84330000D03*
%TD*%
D31*
%TO.P,D2,1,K*%
%TO.N,Net-(D2-K)*%
X164192771Y-91972776D03*
%TO.P,D2,2,A*%
%TO.N,usb vbus*%
X162317771Y-91972776D03*
%TD*%
D23*
%TO.P,R7,1*%
%TO.N,GND*%
X183472004Y-118016635D03*
%TO.P,R7,2*%
%TO.N,Net-(C15-Pad1)*%
X185122004Y-118016635D03*
%TD*%
D20*
%TO.P,tst_nrst1,1,1*%
%TO.N,Net-(U4-NRST)*%
X180021047Y-127320001D03*
%TD*%
D32*
%TO.P,U6,1,SW*%
%TO.N,Net-(U6-SW)*%
X153629818Y-106919279D03*
%TO.P,U6,2,GND*%
%TO.N,GND*%
X153629818Y-107869279D03*
%TO.P,U6,3,EN*%
%TO.N,Net-(U6-EN)*%
X153629818Y-108819279D03*
%TO.P,U6,4,FB*%
%TO.N,Net-(U6-FB)*%
X155929818Y-108819279D03*
%TO.P,U6,5,VOUT*%
%TO.N,Net-(U2-VIN)*%
X155929818Y-107869279D03*
%TO.P,U6,6,VBAT*%
%TO.N,bat output*%
X155929818Y-106919279D03*
%TD*%
D14*
%TO.P,R4,1*%
%TO.N,Net-(U1-ISEL)*%
X156264853Y-91818710D03*
%TO.P,R4,2*%
%TO.N,GND*%
X154614853Y-91818710D03*
%TD*%
D20*
%TO.P,TestPoint_gnd1,1,1*%
%TO.N,GND*%
X166260568Y-86489059D03*
%TD*%
D10*
%TO.P,C2,1*%
%TO.N,+3V0*%
X168613611Y-116553306D03*
%TO.P,C2,2*%
%TO.N,GND*%
X170163611Y-116553306D03*
%TD*%
D20*
%TO.P,TP_sck1,1,1*%
%TO.N,spi1_sck*%
X178381844Y-108935534D03*
%TD*%
D10*
%TO.P,C18,1*%
%TO.N,Net-(C18-Pad1)*%
X164318400Y-122213186D03*
%TO.P,C18,2*%
%TO.N,in_button_b*%
X165868400Y-122213186D03*
%TD*%
D33*
%TO.P,U4,1,VBAT*%
%TO.N,Net-(U4-VBAT)*%
X176090878Y-125284125D03*
%TO.P,U4,2,PC13-TAMPER-RTC*%
%TO.N,unconnected-(U4-PC13-TAMPER-RTC-Pad2)*%
X176090878Y-124784125D03*
%TO.P,U4,3,PC14-OSC32_IN*%
%TO.N,unconnected-(U4-PC14-OSC32_IN-Pad3)*%
X176090878Y-124284125D03*
%TO.P,U4,4,PC15-OSC32_OUT*%
%TO.N,unconnected-(U4-PC15-OSC32_OUT-Pad4)*%
X176090878Y-123784125D03*
%TO.P,U4,5,PD0-OSC_IN*%
%TO.N,unconnected-(U4-PD0-OSC_IN-Pad5)*%
X176090878Y-123284125D03*
%TO.P,U4,6,PD1-OSC_OUT*%
%TO.N,unconnected-(U4-PD1-OSC_OUT-Pad6)*%
X176090878Y-122784125D03*
%TO.P,U4,7,NRST*%
%TO.N,Net-(U4-NRST)*%
X176090878Y-122284125D03*
%TO.P,U4,8,VSSA*%
%TO.N,GND*%
X176090878Y-121784125D03*
%TO.P,U4,9,VDDA*%
%TO.N,+3V0*%
X176090878Y-121284125D03*
%TO.P,U4,10,PA0-WKUP*%
%TO.N,in_button_down*%
X176090878Y-120784125D03*
%TO.P,U4,11,PA1*%
%TO.N,in_button_right*%
X176090878Y-120284125D03*
%TO.P,U4,12,PA2*%
%TO.N,in_button_left*%
X176090878Y-119784125D03*
D34*
%TO.P,U4,13,PA3*%
%TO.N,in_button_up*%
X174740878Y-118434125D03*
%TO.P,U4,14,PA4*%
%TO.N,unconnected-(U4-PA4-Pad14)*%
X174240878Y-118434125D03*
%TO.P,U4,15,PA5*%
%TO.N,spi1_sck*%
X173740878Y-118434125D03*
%TO.P,U4,16,PA6*%
%TO.N,spi1_miso*%
X173240878Y-118434125D03*
%TO.P,U4,17,PA7*%
%TO.N,spi1_mosi*%
X172740878Y-118434125D03*
%TO.P,U4,18,PB0*%
%TO.N,lcd_dataselect*%
X172240878Y-118434125D03*
%TO.P,U4,19,PB1*%
%TO.N,lcd_reset*%
X171740878Y-118434125D03*
%TO.P,U4,20,PB2*%
%TO.N,lcd_cs*%
X171240878Y-118434125D03*
%TO.P,U4,21,PB10*%
%TO.N,unconnected-(U4-PB10-Pad21)*%
X170740878Y-118434125D03*
%TO.P,U4,22,PB11*%
%TO.N,unconnected-(U4-PB11-Pad22)*%
X170240878Y-118434125D03*
%TO.P,U4,23,VSS_1*%
%TO.N,GND*%
X169740878Y-118434125D03*
%TO.P,U4,24,VDD_1*%
%TO.N,+3V0*%
X169240878Y-118434125D03*
D33*
%TO.P,U4,25,PB12*%
%TO.N,power_info*%
X167890878Y-119784125D03*
%TO.P,U4,26,PB13*%
%TO.N,in_button_a*%
X167890878Y-120284125D03*
%TO.P,U4,27,PB14*%
%TO.N,in_button_b*%
X167890878Y-120784125D03*
%TO.P,U4,28,PB15*%
%TO.N,backlight_fet*%
X167890878Y-121284125D03*
%TO.P,U4,29,PA8*%
%TO.N,unconnected-(U4-PA8-Pad29)*%
X167890878Y-121784125D03*
%TO.P,U4,30,PA9*%
%TO.N,unconnected-(U4-PA9-Pad30)*%
X167890878Y-122284125D03*
%TO.P,U4,31,PA10*%
%TO.N,unconnected-(U4-PA10-Pad31)*%
X167890878Y-122784125D03*
%TO.P,U4,32,PA11*%
%TO.N,unconnected-(U4-PA11-Pad32)*%
X167890878Y-123284125D03*
%TO.P,U4,33,PA12*%
%TO.N,unconnected-(U4-PA12-Pad33)*%
X167890878Y-123784125D03*
%TO.P,U4,34,PA13*%
%TO.N,Net-(U4-PA13)*%
X167890878Y-124284125D03*
%TO.P,U4,35,VSS_2*%
%TO.N,GND*%
X167890878Y-124784125D03*
%TO.P,U4,36,VDD_2*%
%TO.N,+3V0*%
X167890878Y-125284125D03*
D34*
%TO.P,U4,37,PA14*%
%TO.N,Net-(U4-PA14)*%
X169240878Y-126634125D03*
%TO.P,U4,38,PA15*%
%TO.N,unconnected-(U4-PA15-Pad38)*%
X169740878Y-126634125D03*
%TO.P,U4,39,PB3*%
%TO.N,unconnected-(U4-PB3-Pad39)*%
X170240878Y-126634125D03*
%TO.P,U4,40,PB4*%
%TO.N,unconnected-(U4-PB4-Pad40)*%
X170740878Y-126634125D03*
%TO.P,U4,41,PB5*%
%TO.N,unconnected-(U4-PB5-Pad41)*%
X171240878Y-126634125D03*
%TO.P,U4,42,PB6*%
%TO.N,unconnected-(U4-PB6-Pad42)*%
X171740878Y-126634125D03*
%TO.P,U4,43,PB7*%
%TO.N,unconnected-(U4-PB7-Pad43)*%
X172240878Y-126634125D03*
%TO.P,U4,44,BOOT0*%
%TO.N,Net-(U4-BOOT0)*%
X172740878Y-126634125D03*
%TO.P,U4,45,PB8*%
%TO.N,unconnected-(U4-PB8-Pad45)*%
X173240878Y-126634125D03*
%TO.P,U4,46,PB9*%
%TO.N,unconnected-(U4-PB9-Pad46)*%
X173740878Y-126634125D03*
%TO.P,U4,47,VSS_3*%
%TO.N,GND*%
X174240878Y-126634125D03*
%TO.P,U4,48,VDD_3*%
%TO.N,+3V0*%
X174740878Y-126634125D03*
%TD*%
D12*
%TO.P,C20,1*%
%TO.N,GND*%
X156306367Y-117183014D03*
%TO.P,C20,2*%
%TO.N,bat output*%
X154756367Y-117183014D03*
%TD*%
D23*
%TO.P,R23,1*%
%TO.N,usb vbus*%
X159750308Y-125969797D03*
%TO.P,R23,2*%
%TO.N,Net-(Q2-D)*%
X161400308Y-125969797D03*
%TD*%
D35*
%TO.P,b_b1,1,1*%
%TO.N,+3V0*%
X146357799Y-127848868D03*
%TO.P,b_b1,2,2*%
X146357799Y-119848868D03*
%TO.P,b_b1,3,3*%
%TO.N,in_button_b*%
X150857799Y-127848868D03*
%TO.P,b_b1,4,4*%
X150857799Y-119848868D03*
%TD*%
D13*
%TO.P,b_down1,1,1*%
%TO.N,+3V0*%
X210951133Y-126098868D03*
%TO.P,b_down1,2,2*%
X202951133Y-126098868D03*
%TO.P,b_down1,3,3*%
%TO.N,in_button_down*%
X210951133Y-121598868D03*
%TO.P,b_down1,4,4*%
X202951133Y-121598868D03*
%TD*%
D36*
%TO.P,D3,1,K*%
%TO.N,Net-(D3-K)*%
X163876963Y-93905116D03*
%TO.P,D3,2,A*%
%TO.N,usb vbus*%
X162301963Y-93905116D03*
%TD*%
D23*
%TO.P,R20,1*%
%TO.N,Net-(U6-EN)*%
X153954818Y-110310463D03*
%TO.P,R20,2*%
%TO.N,bat output*%
X155604818Y-110310463D03*
%TD*%
D37*
%TO.P,U9,1,VIN*%
%TO.N,usb vbus*%
X154476567Y-120794558D03*
%TO.P,U9,2,VSS*%
%TO.N,GND*%
X153526567Y-120794558D03*
%TO.P,U9,3,CE*%
%TO.N,usb vbus*%
X152576567Y-120794558D03*
%TO.P,U9,4,FB*%
%TO.N,Net-(U9-FB)*%
X152576567Y-122994558D03*
%TO.P,U9,5,VOUT*%
%TO.N,Net-(U3-VIN)*%
X154476567Y-122994558D03*
%TD*%
D38*
%TO.P,U1,1,~{CHRG}*%
%TO.N,Net-(U1-~{CHRG})*%
X159525975Y-97379672D03*
%TO.P,U1,2,ISEL*%
%TO.N,Net-(U1-ISEL)*%
X159525975Y-96109672D03*
%TO.P,U1,3,BAT*%
%TO.N,Net-(D1-K)*%
X159525975Y-94829672D03*
%TO.P,U1,4,GND*%
%TO.N,GND*%
X159525975Y-93559672D03*
%TO.P,U1,5,SW*%
%TO.N,Net-(U1-SW)*%
X153705975Y-93559672D03*
%TO.P,U1,6,VIN*%
%TO.N,usb vbus*%
X153705975Y-94829672D03*
%TO.P,U1,7,~{DONE}*%
%TO.N,Net-(U1-~{DONE})*%
X153705975Y-96109672D03*
%TO.P,U1,8,CT*%
%TO.N,Net-(U1-CT)*%
X153705975Y-97379672D03*
D39*
%TO.P,U1,9,EP*%
%TO.N,unconnected-(U1-EP-Pad9)*%
X156615975Y-95469672D03*
%TD*%
D12*
%TO.P,C1,1*%
%TO.N,Net-(D1-K)*%
X159506914Y-91818526D03*
%TO.P,C1,2*%
%TO.N,GND*%
X157956914Y-91818526D03*
%TD*%
D23*
%TO.P,R5,1*%
%TO.N,GND*%
X178700179Y-116398550D03*
%TO.P,R5,2*%
%TO.N,Net-(C13-Pad1)*%
X180350179Y-116398550D03*
%TD*%
D40*
%TO.P,U2,1,VIN*%
%TO.N,Net-(U2-VIN)*%
X159575680Y-115376388D03*
%TO.P,U2,2,GND*%
%TO.N,GND*%
X158925680Y-115376388D03*
%TO.P,U2,3,~{CE}*%
%TO.N,usb vbus*%
X158275680Y-115376388D03*
%TO.P,U2,4,NC*%
%TO.N,unconnected-(U2-NC-Pad4)*%
X158275680Y-117276388D03*
%TO.P,U2,5,ST*%
%TO.N,unconnected-(U2-ST-Pad5)*%
X158925680Y-117276388D03*
%TO.P,U2,6,VOUT*%
%TO.N,Net-(U2-VOUT)*%
X159575680Y-117276388D03*
%TD*%
D41*
%TO.P,D1,1,K*%
%TO.N,Net-(D1-K)*%
X162704823Y-88794524D03*
%TO.P,D1,2,A*%
%TO.N,Net-(D1-A)*%
X162704823Y-84794524D03*
%TD*%
D20*
%TO.P,SWCLK1,1,1*%
%TO.N,Net-(U4-PA14)*%
X165303801Y-129637235D03*
%TD*%
D26*
%TO.P,R8,1*%
%TO.N,Net-(U4-BOOT0)*%
X172740878Y-128357482D03*
%TO.P,R8,2*%
%TO.N,Net-(R10-Pad1)*%
X172740878Y-130007482D03*
%TD*%
D10*
%TO.P,C6,1*%
%TO.N,+3V0*%
X174173724Y-128478655D03*
%TO.P,C6,2*%
%TO.N,GND*%
X175723724Y-128478655D03*
%TD*%
%TO.P,C24,1*%
%TO.N,Net-(U3-VIN)*%
X154469361Y-124419275D03*
%TO.P,C24,2*%
%TO.N,GND*%
X156019361Y-124419275D03*
%TD*%
D12*
%TO.P,C21,1*%
%TO.N,usb vbus*%
X154371567Y-119134045D03*
%TO.P,C21,2*%
%TO.N,GND*%
X152821567Y-119134045D03*
%TD*%
D35*
%TO.P,b_a1,1,1*%
%TO.N,+3V0*%
X146357799Y-110915534D03*
%TO.P,b_a1,2,2*%
X146357799Y-102915534D03*
%TO.P,b_a1,3,3*%
%TO.N,in_button_a*%
X150857799Y-110915534D03*
%TO.P,b_a1,4,4*%
%TO.N,unconnected-(b_a1-Pad4)*%
X150857799Y-102915534D03*
%TD*%
D12*
%TO.P,C3,1*%
%TO.N,+3V0*%
X167740878Y-126518684D03*
%TO.P,C3,2*%
%TO.N,GND*%
X166190878Y-126518684D03*
%TD*%
D20*
%TO.P,TP1,1,1*%
%TO.N,bat output*%
X166644763Y-96653916D03*
%TD*%
D23*
%TO.P,R19,1*%
%TO.N,Net-(U9-FB)*%
X154524973Y-127765370D03*
%TO.P,R19,2*%
%TO.N,GND*%
X156174973Y-127765370D03*
%TD*%
D42*
%TO.P,U7,1,VOUT*%
%TO.N,Net-(U6-EN)*%
X153429818Y-113589341D03*
%TO.P,U7,2,VDD*%
%TO.N,bat output*%
X153429818Y-114539341D03*
%TO.P,U7,3,GND*%
%TO.N,GND*%
X153429818Y-115489341D03*
%TO.P,U7,4,N.C.*%
%TO.N,unconnected-(U7-N.C.-Pad4)*%
X156129818Y-115489341D03*
%TO.P,U7,5,CT*%
%TO.N,Net-(U7-CT)*%
X156129818Y-113589341D03*
%TD*%
D26*
%TO.P,R1,1*%
%TO.N,Net-(J1-CC2)*%
X141331133Y-89980534D03*
%TO.P,R1,2*%
%TO.N,GND*%
X141331133Y-91630534D03*
%TD*%
%TO.P,R21,1*%
%TO.N,Net-(D1-K)*%
X166643276Y-88787760D03*
%TO.P,R21,2*%
%TO.N,bat output*%
X166643276Y-90437760D03*
%TD*%
D43*
%TO.N,GND*%
X158916359Y-119650083D03*
X158942524Y-124466081D03*
X152584938Y-117979096D03*
X155595108Y-118009222D03*
X157946956Y-90598344D03*
X152033625Y-91911028D03*
X166274878Y-84324324D03*
X149013148Y-97243090D03*
X153357396Y-116219587D03*
X158972471Y-111099870D03*
X152485096Y-107869279D03*
X160764492Y-107195974D03*
X159063103Y-114460088D03*
X155524703Y-126021147D03*
X157430120Y-127765370D03*
X165214859Y-126721370D03*
X174846241Y-121979062D03*
X176199643Y-104035534D03*
X169057760Y-124580880D03*
X156894461Y-111915048D03*
X177516540Y-116398550D03*
X176199643Y-102635534D03*
X182290644Y-120535261D03*
X169851399Y-128690445D03*
X142831133Y-92805534D03*
X182194361Y-122410210D03*
X176171148Y-106135534D03*
X182306799Y-118016635D03*
X144821338Y-86750857D03*
X141331133Y-92805534D03*
X173978553Y-125380962D03*
X139328918Y-86794310D03*
X167264504Y-117363432D03*
X181015522Y-123111621D03*
X176964712Y-128478655D03*
X170163611Y-115257278D03*
%TD*%
D44*
%TO.N,in_button_a*%
X150857799Y-110915534D02*
X151783799Y-111841534D01*
X151783799Y-111841534D02*
X151783799Y-126757923D01*
X151783799Y-126757923D02*
X154230185Y-129204309D01*
X162534982Y-121412186D02*
X165460655Y-121412186D01*
X154230185Y-129204309D02*
X159390214Y-129204309D01*
X159390214Y-129204309D02*
X162126308Y-126468215D01*
X162126308Y-126468215D02*
X162126308Y-121820860D01*
X162126308Y-121820860D02*
X162534982Y-121412186D01*
X165460655Y-121412186D02*
X166061172Y-120811669D01*
X166061172Y-120811669D02*
X166061172Y-120481830D01*
%TO.N,Net-(U9-FB)*%
X152576567Y-122994558D02*
X152576567Y-125805591D01*
X152576567Y-125805591D02*
X152771265Y-126000289D01*
D45*
%TO.N,GND*%
X152049345Y-93177156D02*
X152049345Y-91926748D01*
X152049345Y-91926748D02*
X152033625Y-91911028D01*
D44*
X161308400Y-122213186D02*
X160908400Y-122213186D01*
X160908400Y-122213186D02*
X158916359Y-120221145D01*
X158916359Y-120221145D02*
X158916359Y-119650083D01*
X161308400Y-122213186D02*
X161308400Y-120674602D01*
X161308400Y-120674602D02*
X161501172Y-120481830D01*
D46*
X158013180Y-119569663D02*
X158835939Y-119569663D01*
X158835939Y-119569663D02*
X158916359Y-119650083D01*
D44*
X159819747Y-124145560D02*
X159263045Y-124145560D01*
X159263045Y-124145560D02*
X158942524Y-124466081D01*
X156174973Y-127765370D02*
X157430120Y-127765370D01*
D45*
X166260568Y-86489059D02*
X166260568Y-84338634D01*
X166260568Y-84338634D02*
X166274878Y-84324324D01*
X159525975Y-93559672D02*
X159525975Y-93387587D01*
X159525975Y-93387587D02*
X157956914Y-91818526D01*
X152584938Y-117979096D02*
X152584938Y-118897416D01*
D44*
X152584938Y-118897416D02*
X152821567Y-119134045D01*
%TO.N,usb vbus*%
X158253611Y-125980447D02*
X158253611Y-124479424D01*
X158253611Y-124479424D02*
X157919747Y-124145560D01*
X153596567Y-126598009D02*
X153596567Y-122424558D01*
X153596567Y-122424558D02*
X154371567Y-121649558D01*
X154371567Y-121649558D02*
X154371567Y-120689558D01*
%TO.N,GND*%
X156019361Y-124419275D02*
X156019361Y-125526489D01*
X156019361Y-125526489D02*
X155524703Y-126021147D01*
D45*
%TO.N,Net-(U3-VIN)*%
X154469361Y-124419275D02*
X154469361Y-125952193D01*
X154469361Y-125952193D02*
X154421265Y-126000289D01*
X154476567Y-122994558D02*
X154476567Y-124412069D01*
X154476567Y-124412069D02*
X154469361Y-124419275D01*
%TO.N,usb vbus*%
X140405133Y-89740330D02*
X140405133Y-94560868D01*
X140405133Y-94560868D02*
X149806799Y-103962534D01*
X149806799Y-103962534D02*
X149806799Y-107462534D01*
X149806799Y-107462534D02*
X152378818Y-110034553D01*
X152378818Y-110034553D02*
X152378818Y-116363309D01*
X152378818Y-116363309D02*
X154371567Y-118356058D01*
X154371567Y-118356058D02*
X154371567Y-119134045D01*
X149439622Y-94727156D02*
X151243228Y-94727156D01*
D44*
X162994852Y-97630317D02*
X162018497Y-98606672D01*
X162301963Y-93905116D02*
X162994852Y-94598005D01*
X151950997Y-98606672D02*
X151243228Y-97898903D01*
X162994852Y-94598005D02*
X162994852Y-97630317D01*
X151243228Y-97898903D02*
X151243228Y-94727156D01*
X162018497Y-98606672D02*
X151950997Y-98606672D01*
D45*
%TO.N,GND*%
X154614853Y-90566705D02*
X157915317Y-90566705D01*
X157915317Y-90566705D02*
X157946956Y-90598344D01*
X154614853Y-91818710D02*
X154614853Y-90566705D01*
X157956914Y-91818526D02*
X157956914Y-90608302D01*
X157956914Y-90608302D02*
X157946956Y-90598344D01*
X150294313Y-97232762D02*
X149023476Y-97232762D01*
X149023476Y-97232762D02*
X149013148Y-97243090D01*
%TO.N,Net-(U1-CT)*%
X152194313Y-97232762D02*
X153559065Y-97232762D01*
X153559065Y-97232762D02*
X153705975Y-97379672D01*
%TO.N,bat output*%
X166643276Y-90437760D02*
X166643276Y-96652429D01*
X166643276Y-96652429D02*
X166644763Y-96653916D01*
%TO.N,Net-(D1-K)*%
X162704823Y-88794524D02*
X166636512Y-88794524D01*
X166636512Y-88794524D02*
X166643276Y-88787760D01*
%TO.N,bat output*%
X166644763Y-96653916D02*
X160338089Y-102960590D01*
X160338089Y-102960590D02*
X158924572Y-102960590D01*
%TO.N,GND*%
X153429818Y-115489341D02*
X153429818Y-116147165D01*
X153429818Y-116147165D02*
X153357396Y-116219587D01*
D44*
X159788180Y-111847959D02*
X159720560Y-111847959D01*
X159720560Y-111847959D02*
X158972471Y-111099870D01*
X159771321Y-110291969D02*
X159771321Y-110301020D01*
X159771321Y-110301020D02*
X158972471Y-111099870D01*
D45*
X152485096Y-107869279D02*
X153629818Y-107869279D01*
X159738180Y-107195974D02*
X160764492Y-107195974D01*
D46*
X159063103Y-114460088D02*
X159063103Y-114148092D01*
X159063103Y-114148092D02*
X159738180Y-113473015D01*
X158925680Y-115376388D02*
X158925680Y-114597511D01*
X158925680Y-114597511D02*
X159063103Y-114460088D01*
X159788180Y-111847959D02*
X159746426Y-111847959D01*
D45*
X155554818Y-111915048D02*
X156894461Y-111915048D01*
D44*
X156603611Y-125980447D02*
X155565403Y-125980447D01*
X155565403Y-125980447D02*
X155524703Y-126021147D01*
D45*
%TO.N,Net-(U3-VIN)*%
X154476567Y-122994558D02*
X155227567Y-122243558D01*
X155227567Y-122243558D02*
X155227567Y-121248272D01*
X155227567Y-121248272D02*
X157556176Y-118919663D01*
X157556176Y-118919663D02*
X158013180Y-118919663D01*
D44*
%TO.N,Net-(Q2-D)*%
X158869747Y-122270560D02*
X158869747Y-121076230D01*
X158869747Y-121076230D02*
X158013180Y-120219663D01*
%TO.N,GND*%
X165988192Y-126721370D02*
X166190878Y-126518684D01*
X179766650Y-123111621D02*
X181015522Y-123111621D01*
X176964712Y-128478655D02*
X175723724Y-128478655D01*
X179766650Y-124571621D02*
X179766650Y-123111621D01*
X167740878Y-124784125D02*
X166946477Y-124784125D01*
D45*
X139324466Y-88210000D02*
X139324466Y-86798762D01*
D44*
X166658349Y-118253643D02*
X166658349Y-117969587D01*
X159771321Y-110291969D02*
X159771321Y-111831100D01*
X169740878Y-118284125D02*
X169740878Y-116976039D01*
X165214859Y-126721370D02*
X165988192Y-126721370D01*
D45*
X174559466Y-106135534D02*
X176171148Y-106135534D01*
D44*
X169740878Y-116976039D02*
X170163611Y-116553306D01*
X178700179Y-116398550D02*
X177516540Y-116398550D01*
X179766650Y-123111621D02*
X179766650Y-121651621D01*
D45*
X153526567Y-120794558D02*
X153526567Y-119839045D01*
D44*
X166190878Y-125539724D02*
X166190878Y-126518684D01*
X159771321Y-111831100D02*
X159788180Y-111847959D01*
D45*
X174559466Y-102635534D02*
X176199643Y-102635534D01*
D44*
X175041178Y-121784125D02*
X174846241Y-121979062D01*
D45*
X144824466Y-86753985D02*
X144824466Y-88210000D01*
D44*
X174240878Y-125643287D02*
X173978553Y-125380962D01*
X166658349Y-117969587D02*
X167264504Y-117363432D01*
X169851399Y-128690445D02*
X169851399Y-129789909D01*
X183488159Y-120535261D02*
X182290644Y-120535261D01*
D45*
X139324466Y-86798762D02*
X139328918Y-86794310D01*
D44*
X174240878Y-126784125D02*
X174240878Y-125643287D01*
X159788180Y-113423015D02*
X159738180Y-113473015D01*
X176240878Y-121784125D02*
X175041178Y-121784125D01*
D45*
X170163611Y-116553306D02*
X170163611Y-115257278D01*
X153526567Y-119839045D02*
X152821567Y-119134045D01*
X144821338Y-86750857D02*
X144824466Y-86753985D01*
D44*
X169851399Y-129789909D02*
X169705995Y-129935313D01*
X183584442Y-122410210D02*
X182194361Y-122410210D01*
X166946477Y-124784125D02*
X166190878Y-125539724D01*
X168854515Y-124784125D02*
X169057760Y-124580880D01*
X159788180Y-111847959D02*
X159788180Y-113423015D01*
D45*
X174559466Y-104035534D02*
X176199643Y-104035534D01*
D44*
X167740878Y-124784125D02*
X168854515Y-124784125D01*
X183472004Y-118016635D02*
X182306799Y-118016635D01*
%TO.N,+3V0*%
X169683760Y-124840178D02*
X169683760Y-119649239D01*
X172374458Y-121284125D02*
X176240878Y-121284125D01*
X210951133Y-113132201D02*
X218951133Y-113132201D01*
D46*
X146357799Y-127848868D02*
X146357799Y-119848868D01*
D44*
X167740878Y-125284125D02*
X169239813Y-125284125D01*
X169240878Y-119206358D02*
X171318645Y-121284125D01*
X169683760Y-119649239D02*
X169240878Y-119206358D01*
X220177133Y-118558201D02*
X212636466Y-126098868D01*
X178216650Y-123111621D02*
X178216650Y-121651621D01*
X218951133Y-113132201D02*
X220177133Y-114358201D01*
X169240878Y-118284125D02*
X169240878Y-117180573D01*
X169240878Y-118284125D02*
X168238831Y-118284125D01*
X174319008Y-128478655D02*
X175773734Y-129933381D01*
X167740878Y-125284125D02*
X167740878Y-126518684D01*
X212177133Y-105891534D02*
X212177133Y-111906201D01*
X212177133Y-111906201D02*
X210951133Y-113132201D01*
X202951133Y-104665534D02*
X174629466Y-104665534D01*
X194951133Y-113132201D02*
X202951133Y-113132201D01*
X163892262Y-127960955D02*
X162215982Y-129637235D01*
X168238831Y-118284125D02*
X168208349Y-118253643D01*
D45*
X174559466Y-104735534D02*
X173057466Y-104735534D01*
D44*
X212636466Y-126098868D02*
X210951133Y-126098868D01*
D45*
X166666828Y-116553306D02*
X166268298Y-116951836D01*
D44*
X174740878Y-126784125D02*
X174740878Y-123650545D01*
X210951133Y-104665534D02*
X212177133Y-105891534D01*
X162215982Y-129637235D02*
X161075895Y-130777322D01*
D45*
X161212267Y-115633573D02*
X161713836Y-115633573D01*
D44*
X167740878Y-126518684D02*
X166298607Y-127960955D01*
X202951133Y-104665534D02*
X210951133Y-104665534D01*
X174740878Y-123650545D02*
X172374458Y-121284125D01*
X149286253Y-130777322D02*
X146357799Y-127848868D01*
D46*
X146357799Y-102915534D02*
X146357799Y-110915534D01*
D44*
X174173724Y-128478655D02*
X174740878Y-127911501D01*
X174173724Y-128478655D02*
X174319008Y-128478655D01*
X199116620Y-129933381D02*
X175773734Y-129933381D01*
D45*
X168613611Y-116553306D02*
X166666828Y-116553306D01*
D44*
X166298607Y-127960955D02*
X163892262Y-127960955D01*
X202951133Y-113132201D02*
X210951133Y-113132201D01*
X202951133Y-126098868D02*
X199116620Y-129933381D01*
X169240878Y-117180573D02*
X168613611Y-116553306D01*
X178216650Y-121651621D02*
X177849154Y-121284125D01*
X161075895Y-130777322D02*
X149286253Y-130777322D01*
D46*
X146357799Y-110915534D02*
X146357799Y-119848868D01*
D45*
X166268298Y-116951836D02*
X163032099Y-116951836D01*
D44*
X171318645Y-121284125D02*
X172374458Y-121284125D01*
X174629466Y-104665534D02*
X174559466Y-104735534D01*
X175907545Y-126784125D02*
X175911855Y-126779815D01*
X174740878Y-126784125D02*
X175907545Y-126784125D01*
X177849154Y-121284125D02*
X176240878Y-121284125D01*
X220177133Y-114358201D02*
X220177133Y-118558201D01*
X169240878Y-118284125D02*
X169240878Y-119206358D01*
D45*
X166666828Y-111126172D02*
X173057466Y-104735534D01*
D44*
X169239813Y-125284125D02*
X169683760Y-124840178D01*
X174740878Y-127911501D02*
X174740878Y-126784125D01*
D45*
X161713836Y-115633573D02*
X163032099Y-116951836D01*
X166666828Y-116553306D02*
X166666828Y-111126172D01*
D44*
X202951133Y-126098868D02*
X210951133Y-126098868D01*
%TO.N,Net-(U4-VBAT)*%
X176240878Y-125284125D02*
X176240878Y-125558838D01*
X176240878Y-125558838D02*
X177461855Y-126779815D01*
%TO.N,Net-(C13-Pad1)*%
X180350179Y-116398550D02*
X181710179Y-116398550D01*
%TO.N,Net-(C14-Pad1)*%
X185234442Y-122410210D02*
X186594442Y-122410210D01*
%TO.N,Net-(C15-Pad1)*%
X185122004Y-118016635D02*
X186482004Y-118016635D01*
%TO.N,Net-(C16-Pad1)*%
X185138159Y-120535261D02*
X186498159Y-120535261D01*
%TO.N,Net-(C17-Pad1)*%
X164511172Y-120481830D02*
X163151172Y-120481830D01*
%TO.N,Net-(C18-Pad1)*%
X162958400Y-122213186D02*
X164318400Y-122213186D01*
D46*
%TO.N,Net-(U2-VIN)*%
X155929818Y-107869279D02*
X157332350Y-107869279D01*
X158155040Y-108691969D02*
X159721321Y-108691969D01*
X159721321Y-108691969D02*
X159771321Y-108741969D01*
D45*
X159771321Y-108741969D02*
X160697321Y-109667969D01*
X160697321Y-109667969D02*
X160697321Y-114254747D01*
D46*
X157332350Y-107869279D02*
X158155040Y-108691969D01*
D45*
X160697321Y-114254747D02*
X159575680Y-115376388D01*
D44*
%TO.N,in_button_a*%
X166258877Y-120284125D02*
X167890878Y-120284125D01*
X166061172Y-120481830D02*
X166258877Y-120284125D01*
%TO.N,Net-(U4-BOOT0)*%
X172740878Y-126784125D02*
X172740878Y-128357482D01*
%TO.N,in_button_b*%
X159535560Y-129696773D02*
X162851791Y-126380542D01*
X165868400Y-121948720D02*
X167032995Y-120784125D01*
X164322087Y-123014186D02*
X165067400Y-123014186D01*
X152705704Y-129696773D02*
X159535560Y-129696773D01*
X166101783Y-122022212D02*
X166101783Y-121871046D01*
X167032995Y-120784125D02*
X167890878Y-120784125D01*
X150857799Y-127848868D02*
X152705704Y-129696773D01*
X165067400Y-123014186D02*
X165868400Y-122213186D01*
X162851791Y-126380542D02*
X162851791Y-124484482D01*
X165868400Y-122213186D02*
X165868400Y-121948720D01*
X162851791Y-124484482D02*
X164322087Y-123014186D01*
%TO.N,in_button_down*%
X188144442Y-122410210D02*
X202139791Y-122410210D01*
X181995726Y-121609210D02*
X181170641Y-120784125D01*
X202139791Y-122410210D02*
X202951133Y-121598868D01*
X188241831Y-122410210D02*
X187440831Y-121609210D01*
X210951133Y-121598868D02*
X202951133Y-121598868D01*
X181170641Y-120784125D02*
X176240878Y-120784125D01*
X187440831Y-121609210D02*
X181995726Y-121609210D01*
%TO.N,in_button_left*%
X188032004Y-118016635D02*
X187093568Y-118955071D01*
X193725133Y-116706201D02*
X210025133Y-116706201D01*
X210025133Y-116706201D02*
X210951133Y-117632201D01*
X210951133Y-117632201D02*
X218951133Y-117632201D01*
X193725133Y-116706201D02*
X192414699Y-118016635D01*
X192414699Y-118016635D02*
X188032004Y-118016635D01*
X177069932Y-118955071D02*
X176240878Y-119784125D01*
X187093568Y-118955071D02*
X177069932Y-118955071D01*
%TO.N,in_button_right*%
X192048073Y-120535261D02*
X194951133Y-117632201D01*
X188048159Y-120535261D02*
X192048073Y-120535261D01*
X187063174Y-119406071D02*
X178118932Y-119406071D01*
X178118932Y-119406071D02*
X177240878Y-120284125D01*
X194951133Y-117632201D02*
X202951133Y-117632201D01*
X188048159Y-120391056D02*
X187063174Y-119406071D01*
X188048159Y-120535261D02*
X188048159Y-120391056D01*
X177240878Y-120284125D02*
X176090878Y-120284125D01*
%TO.N,in_button_up*%
X202951133Y-109165534D02*
X196765800Y-109165534D01*
X189532784Y-116398550D02*
X183260179Y-116398550D01*
X182306263Y-117352466D02*
X175672537Y-117352466D01*
X183260179Y-116398550D02*
X182306263Y-117352466D01*
X196765800Y-109165534D02*
X189532784Y-116398550D01*
X202951133Y-109165534D02*
X210951133Y-109165534D01*
X175672537Y-117352466D02*
X174740878Y-118284125D01*
%TO.N,spi1_sck*%
X173740878Y-117517173D02*
X173740878Y-118284125D01*
X176210538Y-109334606D02*
X176210538Y-115047513D01*
X174559466Y-108935534D02*
X175811466Y-108935534D01*
X176210538Y-115047513D02*
X173740878Y-117517173D01*
X178381844Y-108935534D02*
X174559466Y-108935534D01*
X175811466Y-108935534D02*
X176210538Y-109334606D01*
D46*
%TO.N,Net-(J1-CC1)*%
X142574466Y-88210000D02*
X142574466Y-89723867D01*
D47*
X142574466Y-89723867D02*
X142831133Y-89980534D01*
D44*
%TO.N,spi1_mosi*%
X174559466Y-109635534D02*
X173307466Y-109635534D01*
X172740878Y-110202122D02*
X172740878Y-118284125D01*
X172740878Y-115857156D02*
X174362663Y-114235371D01*
X173307466Y-109635534D02*
X172740878Y-110202122D01*
X172740878Y-118284125D02*
X172740878Y-115857156D01*
D45*
%TO.N,bat output*%
X154943818Y-107153279D02*
X154943818Y-109649463D01*
D48*
X158188180Y-103696982D02*
X158924572Y-102960590D01*
D44*
X154279818Y-114539341D02*
X154756367Y-115015890D01*
D45*
X158924572Y-102960590D02*
X158924572Y-106459582D01*
D44*
X153429818Y-114539341D02*
X154279818Y-114539341D01*
X154756367Y-115015890D02*
X154756367Y-117183014D01*
X154779818Y-114039341D02*
X154779818Y-111135463D01*
D48*
X158924572Y-102960590D02*
X158924572Y-104210590D01*
D45*
X158924572Y-106459582D02*
X158188180Y-107195974D01*
X155177818Y-106919279D02*
X154943818Y-107153279D01*
X155929818Y-106919279D02*
X155177818Y-106919279D01*
X155929818Y-106919279D02*
X157911485Y-106919279D01*
D44*
X154279818Y-114539341D02*
X154779818Y-114039341D01*
D45*
X154943818Y-109649463D02*
X155604818Y-110310463D01*
D44*
X154779818Y-111135463D02*
X155604818Y-110310463D01*
D45*
X157911485Y-106919279D02*
X158188180Y-107195974D01*
D46*
%TO.N,Net-(J1-CC2)*%
X141574466Y-88210000D02*
X141574466Y-89737201D01*
D47*
X141574466Y-89737201D02*
X141331133Y-89980534D01*
D44*
%TO.N,power_info*%
X167890878Y-119784125D02*
X167676416Y-119569663D01*
X167676416Y-119569663D02*
X159913180Y-119569663D01*
D45*
%TO.N,Net-(Q1-S)*%
X164907099Y-116001836D02*
X164907099Y-111485901D01*
X164907099Y-111485901D02*
X173057466Y-103335534D01*
X173057466Y-103335534D02*
X174559466Y-103335534D01*
D44*
%TO.N,lcd_reset*%
X173307466Y-107535534D02*
X174559466Y-107535534D01*
X171740878Y-109102122D02*
X173307466Y-107535534D01*
X171740878Y-118284125D02*
X171740878Y-109102122D01*
D48*
%TO.N,Net-(U1-SW)*%
X153109399Y-86734328D02*
X153225345Y-86850274D01*
X153225345Y-93079042D02*
X153705975Y-93559672D01*
X153225345Y-86850274D02*
X153225345Y-93079042D01*
D44*
%TO.N,Net-(R10-Pad1)*%
X171428164Y-130007482D02*
X171355995Y-129935313D01*
X174049633Y-130007482D02*
X174123734Y-129933381D01*
X172740878Y-130007482D02*
X171428164Y-130007482D01*
X172740878Y-130007482D02*
X174049633Y-130007482D01*
%TO.N,lcd_dataselect*%
X172240878Y-118284125D02*
X172240878Y-109302122D01*
X172240878Y-109302122D02*
X173307466Y-108235534D01*
X173307466Y-108235534D02*
X174559466Y-108235534D01*
%TO.N,lcd_cs*%
X171240878Y-108902122D02*
X173307466Y-106835534D01*
X173307466Y-106835534D02*
X174559466Y-106835534D01*
X171240878Y-118284125D02*
X171240878Y-108902122D01*
%TO.N,Net-(U4-NRST)*%
X178216650Y-125515604D02*
X180021047Y-127320001D01*
X177420567Y-123775538D02*
X178216650Y-124571621D01*
X177420567Y-122463814D02*
X177420567Y-123775538D01*
X177240878Y-122284125D02*
X177420567Y-122463814D01*
X176240878Y-122284125D02*
X177240878Y-122284125D01*
X178216650Y-124571621D02*
X178216650Y-125515604D01*
%TO.N,Net-(U4-PA14)*%
X167292002Y-129637235D02*
X165303801Y-129637235D01*
X169240878Y-127688359D02*
X167292002Y-129637235D01*
X169240878Y-126784125D02*
X169240878Y-127688359D01*
%TO.N,Net-(U4-PA13)*%
X167890878Y-124284125D02*
X164927396Y-124284125D01*
X164927396Y-124284125D02*
X164177791Y-125033730D01*
%TO.N,backlight_fet*%
X168412526Y-119054643D02*
X166059906Y-119054643D01*
X166059906Y-119054643D02*
X164907099Y-117901836D01*
X167890878Y-121284125D02*
X168777878Y-121284125D01*
X168881815Y-119523932D02*
X168412526Y-119054643D01*
X168777878Y-121284125D02*
X168881815Y-121180188D01*
X168881815Y-121180188D02*
X168881815Y-119523932D01*
D45*
%TO.N,Net-(D1-K)*%
X160734843Y-94141700D02*
X160734843Y-90590598D01*
D48*
X159506914Y-91818526D02*
X159680821Y-91818526D01*
D45*
X162704823Y-88794524D02*
X162530916Y-88794524D01*
X162530916Y-88794524D02*
X160734843Y-90590598D01*
X160046871Y-94829672D02*
X160734843Y-94141700D01*
X160734843Y-90590598D02*
X159506914Y-91818526D01*
X159525975Y-94829672D02*
X160046871Y-94829672D01*
D44*
%TO.N,usb vbus*%
X157749680Y-115902388D02*
X158275680Y-115376388D01*
X158253611Y-125980447D02*
X159739658Y-125980447D01*
D45*
X143594466Y-88210000D02*
X143757133Y-88372667D01*
D46*
X162317771Y-91972776D02*
X162317771Y-93889308D01*
D44*
X154476567Y-121296558D02*
X154152567Y-121620558D01*
D45*
X140405133Y-88359333D02*
X140405133Y-89740330D01*
X134880772Y-88298705D02*
X136322397Y-89740330D01*
D44*
X152900567Y-121620558D02*
X152576567Y-121296558D01*
D45*
X143594466Y-88882000D02*
X149439622Y-94727156D01*
X143594466Y-87378000D02*
X143594466Y-88210000D01*
X154371567Y-119134045D02*
X154371567Y-120689558D01*
D44*
X162301963Y-91988584D02*
X162317771Y-91972776D01*
X154152567Y-121620558D02*
X153560368Y-121620558D01*
D45*
X143594466Y-88210000D02*
X143594466Y-88882000D01*
D44*
X152576567Y-121296558D02*
X152576567Y-120794558D01*
D45*
X140554466Y-88210000D02*
X140554466Y-87378000D01*
D44*
X157749680Y-117000167D02*
X157749680Y-115902388D01*
X154476567Y-120794558D02*
X154476567Y-121296558D01*
D45*
X140773466Y-87159000D02*
X143375466Y-87159000D01*
X140554466Y-87378000D02*
X140773466Y-87159000D01*
D44*
X155615802Y-119134045D02*
X154371567Y-119134045D01*
X156765833Y-117984014D02*
X157749680Y-117000167D01*
D45*
X136322397Y-89740330D02*
X140405133Y-89740330D01*
X152151861Y-94829672D02*
X152049345Y-94727156D01*
D44*
X156765833Y-117984014D02*
X155615802Y-119134045D01*
X153560368Y-121620558D02*
X152900567Y-121620558D01*
X157344836Y-126889222D02*
X158253611Y-125980447D01*
D45*
X151243228Y-94727156D02*
X152049345Y-94727156D01*
X140554466Y-88210000D02*
X140405133Y-88359333D01*
X143375466Y-87159000D02*
X143594466Y-87378000D01*
D47*
X143594466Y-88210000D02*
X143831133Y-88446667D01*
D46*
X140554466Y-88210000D02*
X140480133Y-88284333D01*
D45*
X158264261Y-125969797D02*
X158253611Y-125980447D01*
D44*
X157344836Y-126889222D02*
X153887780Y-126889222D01*
D45*
X153705975Y-94829672D02*
X152151861Y-94829672D01*
D44*
X153887780Y-126889222D02*
X153596567Y-126598009D01*
D46*
X162317771Y-93889308D02*
X162301963Y-93905116D01*
D44*
X154371567Y-120689558D02*
X154476567Y-120794558D01*
X159739658Y-125980447D02*
X159750308Y-125969797D01*
D45*
%TO.N,Net-(U7-CT)*%
X156129818Y-113589341D02*
X158071854Y-113589341D01*
X158071854Y-113589341D02*
X158188180Y-113473015D01*
%TO.N,Net-(U6-EN)*%
X153954818Y-110310463D02*
X153954818Y-111865048D01*
X154004818Y-111915048D02*
X154004818Y-113014341D01*
X154004818Y-113014341D02*
X153429818Y-113589341D01*
X153629818Y-108819279D02*
X153629818Y-109985463D01*
X153954818Y-111865048D02*
X154004818Y-111915048D01*
X153629818Y-109985463D02*
X153954818Y-110310463D01*
%TO.N,Net-(U3-VIN)*%
X154476567Y-122994558D02*
X154476567Y-122794558D01*
%TO.N,Net-(D1-A)*%
X162704823Y-84794524D02*
X160749203Y-84794524D01*
X160749203Y-84794524D02*
X158809399Y-86734328D01*
D46*
%TO.N,Net-(D2-K)*%
X164192771Y-91972776D02*
X164690463Y-92470468D01*
X164690463Y-92470468D02*
X164690463Y-96289576D01*
X164690463Y-96289576D02*
X163868852Y-97111187D01*
%TO.N,Net-(D3-K)*%
X163876963Y-95537539D02*
X163868852Y-95545650D01*
X163876963Y-93905116D02*
X163876963Y-95537539D01*
D45*
%TO.N,Net-(U6-SW)*%
X153629818Y-103595344D02*
X154264572Y-102960590D01*
X153629818Y-106919279D02*
X153629818Y-103595344D01*
%TO.N,Net-(U1-ISEL)*%
X159003975Y-96109672D02*
X159525975Y-96109672D01*
X158474975Y-95580672D02*
X159003975Y-96109672D01*
X158474975Y-93677374D02*
X158474975Y-95580672D01*
X157923855Y-93126254D02*
X158474975Y-93677374D01*
X157572397Y-93126254D02*
X157923855Y-93126254D01*
X156264853Y-91818710D02*
X157572397Y-93126254D01*
D46*
%TO.N,Net-(U1-~{DONE})*%
X153705975Y-96109672D02*
X153865781Y-96109672D01*
X161274367Y-98055672D02*
X162218852Y-97111187D01*
X155811781Y-98055672D02*
X161274367Y-98055672D01*
X153865781Y-96109672D02*
X155811781Y-98055672D01*
%TO.N,Net-(U1-~{CHRG})*%
X160384830Y-97379672D02*
X159525975Y-97379672D01*
X162218852Y-95545650D02*
X160384830Y-97379672D01*
D45*
%TO.N,Net-(U6-FB)*%
X158138180Y-110358829D02*
X158155040Y-110341969D01*
X158138180Y-111847959D02*
X158138180Y-110358829D01*
X158155040Y-110341969D02*
X157452508Y-110341969D01*
X157452508Y-110341969D02*
X155929818Y-108819279D01*
D44*
%TO.N,Net-(U9-FB)*%
X154124973Y-127765370D02*
X152771265Y-126411662D01*
X154524973Y-127765370D02*
X154124973Y-127765370D01*
X152771265Y-126411662D02*
X152771265Y-126000289D01*
D45*
%TO.N,Net-(U2-VOUT)*%
X159575680Y-117276388D02*
X161205082Y-117276388D01*
X161205082Y-117276388D02*
X161212267Y-117283573D01*
X159913180Y-118919663D02*
X159913180Y-118582660D01*
X159913180Y-118582660D02*
X161212267Y-117283573D01*
D44*
%TO.N,Net-(Q2-D)*%
X159536347Y-122270560D02*
X158869747Y-122270560D01*
X161400308Y-125969797D02*
X161400308Y-124134521D01*
X161400308Y-124134521D02*
X159536347Y-122270560D01*
D47*
%TO.N,GND*%
X142831133Y-91630534D02*
X142831133Y-92805534D01*
X141331133Y-91630534D02*
X141331133Y-92805534D01*
D44*
%TO.N,in_button_b*%
X150857799Y-127848868D02*
X150857799Y-119848868D01*
%TO.N,GND*%
X156306367Y-117297963D02*
X155595108Y-118009222D01*
X156306367Y-117183014D02*
X156306367Y-117297963D01*
X161501172Y-120481830D02*
X161220065Y-120481830D01*
%TD*%
M02*
